<svg id="Layer_1" data-name="Layer 1" xmlns="http://www.w3.org/2000/svg" viewBox="0 0 654.92 183.6"><defs><style>.cls-1{fill:#fff;}</style></defs><path class="cls-1" d="M32.46,74.08V70.9c9.32-1,10.23-1.48,10.23-11.14V14.66c0-9.77-.91-10.23-10.23-11.25V.23H62.91V3.41c-9.43,1-10.34,1.48-10.34,11.25v45.1c0,9.77.91,10.11,10.34,11.14v3.18Z"/><path class="cls-1" d="M112.45.23c16,0,26.13,3.18,33.17,9.88,5.57,5.46,9.66,13.41,9.66,24.32,0,13.29-5.45,24.08-14.2,30.67s-19.66,9-33.63,9H80.86V70.9c9.77-.91,10.23-1.71,10.23-11V14.54c0-9.77-1.37-10.22-10.23-11.13V.23ZM101,59c0,8.52,3.64,10.9,12.16,10.9,20.45,0,30.9-14,30.9-33.85,0-12.39-4.2-21.82-13.18-27.27C125.63,5.45,119,4.2,111.43,4.2c-5.12,0-7.84.69-9,1.59-1,.69-1.48,1.94-1.48,6.37Z"/><path class="cls-1" d="M231.74,56c-.68,3-3.75,14.66-4.88,18.07H171.64V70.9C182.21,70.1,183,69.08,183,59.76V14.88c0-10.11-1.25-10.68-9.77-11.47V.23H208c10.68,0,15.11-.12,16.47-.23.11,2.84.57,11.36,1,17.38l-3.4.57a38.07,38.07,0,0,0-3.41-8.63c-1.82-3.75-4.43-4.55-11.25-4.55h-10.8c-3.52,0-3.74.34-3.74,3.64V33.52H205.5c8.52,0,9.09-1.71,10.45-9.43h3.52v23.4H216c-1.48-8.18-2.39-9.32-10.57-9.32H192.89V60.79c0,7.95,2.49,8.63,8.18,8.74h10.56c6.93,0,8.07-1,10.57-4,2.16-2.39,4.54-7.05,6.13-10.46Z"/><path class="cls-1" d="M324.68,3.41c-7.27.79-9.66,1.93-10,7.16-.11,3.63-.34,8.4-.34,19V75.1H310L261.39,15.68v28.4c0,10.23.35,15.34.57,18.64.23,5.79,3.07,7.49,11.25,8.18v3.18H245.6V70.9c7.05-.57,9.77-2.28,10.23-7.84.34-3.64.57-8.75.57-19.09V15c0-3.18-.23-5-2.28-7.5C252,4.66,249.58,4,244,3.41V.23h17l48.18,57.15V29.54c0-10.57-.23-15.45-.57-18.86-.34-5.11-3-6.7-12-7.27V.23h28.06Z"/><path class="cls-1" d="M379.1,34.08c10.91,1.82,19.77,7.05,19.77,18.07,0,7.73-4.32,13.86-11,17.5-5.91,3.29-11.71,4.43-19.66,4.43H340.24V70.9C349.9,70,350.47,69,350.47,60V14.43c0-9.43-1-10.23-10.23-11V.23H370c8.52,0,13.86,1.47,17.5,4a14.86,14.86,0,0,1,6.7,12.73C394.21,27.61,385.46,32.49,379.1,34.08ZM366,32.72c12.5,0,17.61-5,17.61-14.31,0-8-4.88-14.09-15.79-14.09-3.18,0-5.23.34-6.36,1.13-.91.68-1.25,1.93-1.25,5.57v21.7Zm-5.79,27c0,8.18,1.93,10.23,10,10.23,8.86,0,17.49-4.77,17.49-16.7,0-11.59-8.18-16.59-22-16.59h-5.45Z"/><path class="cls-1" d="M482,75c-1.47,0-2.72-.12-4.2-.23C469.54,74.19,465.1,72,460.11,65c-4.21-5.8-8.3-12.95-11.93-18.75-2.28-3.63-3.75-4.32-9.55-4.32h-4V59.76c0,9.66,1.25,10.23,10.33,11.14v3.18H414.66V70.9c9.43-1,10.22-1.48,10.22-11.14V14.43c0-9.66-1.25-10-10.22-11V.23h29c8.29,0,13.86,1,18.18,3.86,4.66,3,7.73,8.07,7.73,15,0,9.77-6.25,15.9-14.66,19.54,2,3.52,6.93,11.13,10.34,16.25a104.4,104.4,0,0,0,9,11.7,16.49,16.49,0,0,0,8.3,5.23ZM440.11,38.06c5.91,0,9.66-.91,12.5-3.29,4.43-3.3,6.25-7.84,6.25-14C458.86,8.63,450.79,4.2,442,4.2c-3.29,0-5.23.46-6,1.14-1,.79-1.36,1.93-1.36,4.89V38.06Z"/><path class="cls-1" d="M492.94,74.08V70.9c9.32-1,10.22-1.48,10.22-11.14V14.66c0-9.77-.9-10.23-10.22-11.25V.23h30.45V3.41c-9.43,1-10.34,1.48-10.34,11.25v45.1c0,9.77.91,10.11,10.34,11.14v3.18Z"/><path class="cls-1" d="M572.92.23c16,0,26.14,3.18,33.18,9.88,5.57,5.46,9.66,13.41,9.66,24.32,0,13.29-5.46,24.08-14.2,30.67s-19.66,9-33.64,9H541.34V70.9c9.77-.91,10.22-1.71,10.22-11V14.54c0-9.77-1.36-10.22-10.22-11.13V.23ZM561.45,59c0,8.52,3.63,10.9,12.16,10.9,20.45,0,30.9-14,30.9-33.85,0-12.39-4.2-21.82-13.18-27.27C586.1,5.45,579.51,4.2,571.9,4.2c-5.11,0-7.84.69-9,1.59-1,.69-1.48,1.94-1.48,6.37Z"/><rect class="cls-1" y="103.07" width="654.92" height="4.16"/><path class="cls-1" d="M54.54,140.61l.17-.15q5.38.16,6.21.17c.49,0,2.57-.06,6.22-.17l.18.15v1.08l-.18.15c-1,0-1.76.08-2.31.13a2.84,2.84,0,0,0-1.18.33,1.56,1.56,0,0,0-.49,1.12,19.39,19.39,0,0,0-.11,2.44l0,5v6.89c0,2.28,0,3.94.14,5a9,9,0,0,0,.61,2.68,4.85,4.85,0,0,0,1.42,1.89,7.39,7.39,0,0,0,2.73,1.29,15.93,15.93,0,0,0,8.5-.16,6.72,6.72,0,0,0,3.15-1.92A6.49,6.49,0,0,0,81,163.22a36.26,36.26,0,0,0,.34-5.69v-6.68c0-1.13,0-2.68,0-4.66a15.45,15.45,0,0,0-.26-3.4,1.34,1.34,0,0,0-.76-.67,11.61,11.61,0,0,0-3.07-.28l-.18-.17v-1l.18-.19c2.14.11,3.85.17,5.14.17,1.1,0,2.8-.06,5.12-.17l.19.17v1l-.19.17a19.94,19.94,0,0,0-2.66.17,1.88,1.88,0,0,0-.87.35,1.56,1.56,0,0,0-.37.74,20.64,20.64,0,0,0-.16,2.87l-.06,4.88v6.59a50,50,0,0,1-.31,6.23,8.15,8.15,0,0,1-1.35,3.74,10.38,10.38,0,0,1-2.5,2.45,11,11,0,0,1-3.7,1.52,20.53,20.53,0,0,1-4.68.53,19.32,19.32,0,0,1-5.37-.67,10.19,10.19,0,0,1-3.68-1.78,7,7,0,0,1-1.93-2.33,8.93,8.93,0,0,1-.76-2.89c-.11-1.1-.17-2.79-.17-5.06v-8.33l0-4.23c0-1.65-.05-2.72-.11-3.19a2,2,0,0,0-.31-1,1.56,1.56,0,0,0-.79-.39,19,19,0,0,0-2.89-.24l-.17-.15Z"/><path class="cls-1" d="M98.12,150.17l.41.26c-.15,1.65-.23,3.11-.24,4.39,2-1.8,3.34-3,4.11-3.56a6.88,6.88,0,0,1,4-.87,10,10,0,0,1,3.24.49,7.63,7.63,0,0,1,2.69,1.6,8,8,0,0,1,2,2.8,9.84,9.84,0,0,1,.71,3.9,10.66,10.66,0,0,1-.49,3.16,14.58,14.58,0,0,1-1.32,3,8.59,8.59,0,0,1-1.3,1.81,13.79,13.79,0,0,1-2,1.33c-.92.55-1.82,1.14-2.72,1.78a12.84,12.84,0,0,1-1.3.87,5.4,5.4,0,0,1-1.23.39,8.47,8.47,0,0,1-1.85.19,9.7,9.7,0,0,1-4.49-1.15v4.62c0,.32,0,1.34.09,3.07s.12,2.74.18,3a1.32,1.32,0,0,0,.29.63.93.93,0,0,0,.48.25c.19,0,1,.1,2.34.18l.2.18v.91l-.17.19c-1.81-.11-3.55-.17-5.21-.17s-3.4.06-5.21.17l-.19-.19v-.91l.19-.18c1.39-.08,2.18-.15,2.37-.19a1.13,1.13,0,0,0,.49-.27,1.27,1.27,0,0,0,.28-.67c0-.3.11-1.27.17-2.9s.1-2.87.1-3.69V158c0-.75,0-1.62-.1-2.61a15.54,15.54,0,0,0-.16-1.73.72.72,0,0,0-.31-.39A2.62,2.62,0,0,0,93,153.1l-1.82,0-.2-.17V152l.17-.17A27.43,27.43,0,0,0,98.12,150.17Zm.17,16.64a9.47,9.47,0,0,0,2.47,1.77,7.11,7.11,0,0,0,3.26.75,6.69,6.69,0,0,0,3.72-1.06,6.9,6.9,0,0,0,2.5-3.12,11.15,11.15,0,0,0,.89-4.54,8.85,8.85,0,0,0-.79-3.75,6.08,6.08,0,0,0-2.45-2.74,6.78,6.78,0,0,0-3.52-1,6.35,6.35,0,0,0-2.24.41,6.85,6.85,0,0,0-2,1.18,5.74,5.74,0,0,0-1.35,1.48,2.75,2.75,0,0,0-.44,1.18c0,.31,0,.65,0,1Z"/><path class="cls-1" d="M133,141.69v-.91l.17-.19a28,28,0,0,0,7-1.61l.41.26c-.16,1.66-.24,5-.24,10v14.21c0,1.46,0,2.74.08,3.83a5.68,5.68,0,0,0,.27,1.94,1.4,1.4,0,0,0,.64.5,11.6,11.6,0,0,0,2.52.37l.2.17v.83l-.2.19c-1.56-.1-2.77-.15-3.64-.15s-1.89.05-3.34.15l-.24-.24c0-1.42.07-2.41.07-3,0-.07,0-.35,0-.82a28.89,28.89,0,0,0-2.39,1.93c-1.17,1-1.94,1.69-2.3,1.95a6.51,6.51,0,0,1-2.84.5,8.57,8.57,0,0,1-5.09-1.48,8.1,8.1,0,0,1-3-3.76,12.94,12.94,0,0,1-.89-4.7,12.55,12.55,0,0,1,.92-4.72,6.62,6.62,0,0,1,2.63-3.3c1.13-.7,2.37-1.42,3.71-2.16a8,8,0,0,1,4-1.12,10.83,10.83,0,0,1,5.25,1.37l-.09-4.84c0-1.68-.07-2.84-.13-3.5a3.28,3.28,0,0,0-.22-1.17.72.72,0,0,0-.44-.28,22,22,0,0,0-2.64-.08Zm3.71,13.78a9.6,9.6,0,0,0-3-2.32,7.32,7.32,0,0,0-3.28-.81,6.26,6.26,0,0,0-3.4,1,5.48,5.48,0,0,0-2.26,2.93,12.25,12.25,0,0,0-.7,4.22,9.18,9.18,0,0,0,1.92,6.09,6,6,0,0,0,4.83,2.3,5.47,5.47,0,0,0,2.81-.72,6.13,6.13,0,0,0,2-2,5.81,5.81,0,0,0,.92-2.47c.08-.82.13-2.33.13-4.53Z"/><path class="cls-1" d="M151.82,156.4l-.85-.22-.17-.21v-2.69a12.68,12.68,0,0,1,7.5-2.87,8.25,8.25,0,0,1,4.15.94,5.75,5.75,0,0,1,2.38,2.33,6.79,6.79,0,0,1,.74,3.26l-.11,4.36v6.47a3.94,3.94,0,0,0,.19,1.6.89.89,0,0,0,.42.38,3.38,3.38,0,0,0,.89.16l1.24.11.17.2v.87l-.17.17c-1.06-.09-2-.13-2.95-.13s-1.91,0-3.13.13l-.32-.3.08-3.5-4.72,3.69a6.78,6.78,0,0,1-2.61.5,6.52,6.52,0,0,1-3-.63,4.47,4.47,0,0,1-1.91-1.76,5.31,5.31,0,0,1-.66-2.73,6.35,6.35,0,0,1,2-5c1.33-1.19,5-2.21,10.89-3.05,0-2.14-.47-3.64-1.43-4.52a5.47,5.47,0,0,0-3.84-1.31,6.67,6.67,0,0,0-2.29.37,3,3,0,0,0-1.18.59c-.1.16-.49,1-1.17,2.66Zm10.06,3.43q-6.07,1-7.57,2.19a4.33,4.33,0,0,0-1.49,3.62q0,3.39,3.36,3.39,2.88,0,5.7-3.35Z"/><path class="cls-1" d="M172.08,154.08v-.57l.15-.21a31.23,31.23,0,0,0,3.29-1.41c0-3.78,0-6-.13-6.6a18.2,18.2,0,0,0,3.67-1.67l.52.44c-.14.91-.32,3.55-.52,7.94l2.34,0c1.71,0,2.93-.05,3.67-.13l.15.15-.41,1.82-.18.2c-.73,0-1.55,0-2.45,0s-1.85,0-3.12,0l-.13,8.83a35.84,35.84,0,0,0,.14,4,2.3,2.3,0,0,0,.78,1.47,2.89,2.89,0,0,0,1.9.53,5.08,5.08,0,0,0,2.69-.75l.52.78c-.35.24-1.18,1-2.49,2.17a5.58,5.58,0,0,1-2.3.52c-3.26,0-4.88-1.58-4.88-4.73,0-1.16,0-2.14.08-2.95,0-.25,0-.5,0-.76v-9h-.89c-.65,0-1.39,0-2.23.08Z"/><path class="cls-1" d="M206.39,167.92l-.7,1.56a13.69,13.69,0,0,1-4,1.89,13.35,13.35,0,0,1-3.16.43,12.16,12.16,0,0,1-4.93-1,8.28,8.28,0,0,1-3.8-3.45,11.19,11.19,0,0,1-1.46-5.85,14.14,14.14,0,0,1,.56-4.11,10.46,10.46,0,0,1,1.18-2.73,9.26,9.26,0,0,1,2.1-2,14.1,14.1,0,0,1,3.12-1.74,9.71,9.71,0,0,1,3.56-.65,8.57,8.57,0,0,1,4.59,1.23,6.73,6.73,0,0,1,2.78,3.13,10.33,10.33,0,0,1,.81,4.06A11,11,0,0,1,207,160l-.24.24a23.46,23.46,0,0,1-4,.43c-1.66.08-2.76.11-3.29.11h-7c0,3,.78,5.2,2.26,6.62a7.5,7.5,0,0,0,5.42,2.12,8.24,8.24,0,0,0,2.92-.52,17.83,17.83,0,0,0,3-1.45Zm-13.91-8.87c.26,0,1.26.09,3,.15s3,.09,3.87.09a34.5,34.5,0,0,0,3.67-.11c0-.35,0-.62,0-.81a7.71,7.71,0,0,0-1.37-5,4.59,4.59,0,0,0-3.73-1.63,4.81,4.81,0,0,0-4,1.84A8.71,8.71,0,0,0,192.48,159.05Z"/><path class="cls-1" d="M223.88,154.08v-.57l.16-.21a32.18,32.18,0,0,0,3.29-1.41c0-3.78,0-6-.13-6.6a18.2,18.2,0,0,0,3.67-1.67l.52.44c-.14.91-.32,3.55-.52,7.94l2.34,0c1.71,0,2.93-.05,3.67-.13l.15.15-.41,1.82-.17.2c-.74,0-1.56,0-2.46,0s-1.85,0-3.12,0l-.13,8.83a35.84,35.84,0,0,0,.14,4,2.22,2.22,0,0,0,.78,1.47,2.89,2.89,0,0,0,1.9.53,5.08,5.08,0,0,0,2.69-.75l.52.78c-.35.24-1.18,1-2.49,2.17a5.58,5.58,0,0,1-2.3.52c-3.26,0-4.88-1.58-4.88-4.73,0-1.16,0-2.14.08-2.95,0-.25,0-.5,0-.76v-9h-.89c-.65,0-1.39,0-2.23.08Z"/><path class="cls-1" d="M246.4,139l.41.26c-.16,1.66-.24,5-.24,10v5.36c1.22-1,2.34-2,3.39-3a3.53,3.53,0,0,1,.86-.61,7.07,7.07,0,0,1,1.34-.41,7.88,7.88,0,0,1,1.89-.22,8.09,8.09,0,0,1,3.2.67,6.34,6.34,0,0,1,2.35,1.6,5,5,0,0,1,1.09,2.18,13.54,13.54,0,0,1,.31,3.1v3.82c0,.24,0,2,.1,5.4a4.49,4.49,0,0,0,.47,2.45c.27.26,1.16.39,2.68.39l.17.17v.94l-.17.17c-1.84-.11-3.08-.17-3.73-.17-.33,0-1.39.06-3.17.17l-.26-.24q.29-2.82.28-7.35v-2.84q0-2.57-.12-3.69a4.58,4.58,0,0,0-.72-2,4.15,4.15,0,0,0-1.62-1.43,5.33,5.33,0,0,0-2.44-.51,6.53,6.53,0,0,0-2.46.4,6.82,6.82,0,0,0-2,1.35,4.26,4.26,0,0,0-1.22,1.6,9.38,9.38,0,0,0-.21,2.46v3.86c0,.32,0,1.34.09,3.07a28.16,28.16,0,0,0,.18,3,1.32,1.32,0,0,0,.29.63.93.93,0,0,0,.48.25c.19,0,1,.09,2.35.18l.19.17v.92l-.17.19c-1.81-.11-3.55-.17-5.23-.17s-3.4.06-5.21.17l-.19-.19v-.92l.19-.17c1.41-.09,2.2-.15,2.38-.19a1.06,1.06,0,0,0,.47-.27,1.16,1.16,0,0,0,.29-.63c0-.29.11-1.22.17-2.8s.1-2.78.1-3.59V151.28l-.09-4.6c0-1.6-.09-2.72-.14-3.34a2.92,2.92,0,0,0-.21-1.11.8.8,0,0,0-.45-.26,22,22,0,0,0-2.63-.08l-.19-.2v-.91l.17-.19A28,28,0,0,0,246.4,139Z"/><path class="cls-1" d="M285.7,167.92l-.69,1.56a13.84,13.84,0,0,1-4,1.89,13.34,13.34,0,0,1-3.15.43,12.17,12.17,0,0,1-4.94-1,8.33,8.33,0,0,1-3.8-3.45,11.19,11.19,0,0,1-1.46-5.85,14.14,14.14,0,0,1,.56-4.11,10.1,10.1,0,0,1,1.19-2.73,9.17,9.17,0,0,1,2.09-2,14.1,14.1,0,0,1,3.12-1.74,9.71,9.71,0,0,1,3.56-.65,8.52,8.52,0,0,1,4.59,1.23,6.81,6.81,0,0,1,2.79,3.13,10.5,10.5,0,0,1,.8,4.06,11,11,0,0,1-.07,1.3l-.23.24a23.71,23.71,0,0,1-4,.43c-1.67.08-2.77.11-3.3.11h-7c0,3,.78,5.2,2.25,6.62a7.52,7.52,0,0,0,5.42,2.12,8.2,8.2,0,0,0,2.92-.52,17.83,17.83,0,0,0,3-1.45Zm-13.9-8.87c.25,0,1.26.09,3,.15s3,.09,3.87.09a34.5,34.5,0,0,0,3.67-.11c0-.35,0-.62,0-.81a7.71,7.71,0,0,0-1.37-5,4.59,4.59,0,0,0-3.73-1.63,4.81,4.81,0,0,0-4,1.84A8.77,8.77,0,0,0,271.8,159.05Z"/><path class="cls-1" d="M314.69,170l.18.17v.92l-.18.19c-.44,0-1.29,0-2.53-.09s-2.3-.08-3.5-.08c-1.56,0-3.3.06-5.23.17l-.17-.19v-.92l.17-.17c1.41-.09,2.2-.15,2.39-.19a1,1,0,0,0,.48-.27,1.23,1.23,0,0,0,.27-.63c.05-.29.11-1.22.17-2.8s.1-2.78.1-3.59v-8.38l-2.8.16-.19-.18v-.54l.15-.22,2.84-1.45v-1.3a20.54,20.54,0,0,1,.2-3.29,6.55,6.55,0,0,1,.72-2.06,14.89,14.89,0,0,1,1.86-2.39c.88-1,1.65-1.75,2.32-2.36a6.61,6.61,0,0,1,1.73-1.24,4.43,4.43,0,0,1,1.74-.31,5.74,5.74,0,0,1,1.78.32l0,3.56-.5.2a4.08,4.08,0,0,0-2.82-1.09,3.92,3.92,0,0,0-2,.47,2.41,2.41,0,0,0-1.12,1.52,13.53,13.53,0,0,0-.31,3.48v4.49h2.32c1.2,0,2.34,0,3.41-.13l.2.24-.39,1.91-.2.21-.85,0-2.82,0h-1.67v8.74c0,.47,0,1.52.1,3.18s.13,2.63.19,2.92a1.09,1.09,0,0,0,.29.63,1.35,1.35,0,0,0,.67.28A29.7,29.7,0,0,0,314.69,170Z"/><path class="cls-1" d="M326.14,150.43l.41.29q-.23,2.84-.23,7.22V163a12.14,12.14,0,0,0,.42,3.87,3.14,3.14,0,0,0,1.46,1.65,5,5,0,0,0,2.48.58,6.67,6.67,0,0,0,2.88-.62,5.89,5.89,0,0,0,2.18-1.74,7.33,7.33,0,0,0,1-1.52,10.93,10.93,0,0,0,.17-2.19l.07-2.43v-2.35c0-.57,0-1.36-.09-2.36s-.1-1.61-.14-1.84a.66.66,0,0,0-.34-.51,2.47,2.47,0,0,0-1.12-.17l-1.83,0-.19-.17v-.94l.17-.17a27.91,27.91,0,0,0,7-1.63l.41.29q-.24,2.84-.24,7.22v3.82c0,.21,0,2,.11,5.31a8.26,8.26,0,0,0,.23,2.25,1.08,1.08,0,0,0,.51.56,6.22,6.22,0,0,0,1.93.16H344l.19.18v.87l-.17.19c-2-.11-3.41-.17-4.1-.17q-1.32,0-3.06.15l-.2-.17c.09-1.48.16-2.73.2-3.76a34.14,34.14,0,0,0-3.12,2.84,5.18,5.18,0,0,1-1.94,1.13,8.17,8.17,0,0,1-2.86.46,7.73,7.73,0,0,1-3.78-.77,4.26,4.26,0,0,1-1.92-2.13,13.33,13.33,0,0,1-.57-4.67l0-1.72v-4.23c0-.57,0-1.36-.08-2.36s-.11-1.61-.14-1.84a.66.66,0,0,0-.34-.51,2.52,2.52,0,0,0-1.13-.17l-1.82,0-.2-.17v-.94l.18-.17A27.72,27.72,0,0,0,326.14,150.43Z"/><path class="cls-1" d="M348.07,154.08v-.57l.15-.21a32.48,32.48,0,0,0,3.3-1.41c0-3.78,0-6-.13-6.6a18.09,18.09,0,0,0,3.66-1.67l.53.44c-.15.91-.32,3.55-.53,7.94l2.35,0c1.7,0,2.93-.05,3.66-.13l.15.15-.41,1.82-.17.2c-.74,0-1.56,0-2.45,0s-1.85,0-3.13,0l-.13,8.83a32.68,32.68,0,0,0,.15,4,2.22,2.22,0,0,0,.78,1.47,2.86,2.86,0,0,0,1.89.53,5.08,5.08,0,0,0,2.69-.75l.53.78c-.35.24-1.18,1-2.5,2.17a5.54,5.54,0,0,1-2.3.52q-4.87,0-4.88-4.73c0-1.16,0-2.14.09-2.95,0-.25,0-.5,0-.76v-9h-.89c-.65,0-1.4,0-2.24.08Z"/><path class="cls-1" d="M370.71,150.43l.41.29q-.24,2.84-.24,7.22V163a12.07,12.07,0,0,0,.43,3.87,3.14,3.14,0,0,0,1.46,1.65,5,5,0,0,0,2.47.58,6.69,6.69,0,0,0,2.89-.62,6,6,0,0,0,2.18-1.74,7.33,7.33,0,0,0,1-1.52,10.93,10.93,0,0,0,.17-2.19l.07-2.43v-2.35c0-.57,0-1.36-.09-2.36s-.1-1.61-.14-1.84a.66.66,0,0,0-.34-.51,2.5,2.5,0,0,0-1.12-.17l-1.83,0-.19-.17v-.94l.17-.17a27.91,27.91,0,0,0,7-1.63l.41.29q-.24,2.84-.24,7.22v3.82c0,.21,0,2,.11,5.31a7.85,7.85,0,0,0,.23,2.25,1.08,1.08,0,0,0,.51.56A6.22,6.22,0,0,0,388,170h.6l.2.18v.87l-.17.19c-2-.11-3.41-.17-4.1-.17q-1.33,0-3.06.15l-.2-.17c.09-1.48.15-2.73.2-3.76a34.1,34.1,0,0,0-3.13,2.84,5.13,5.13,0,0,1-1.93,1.13,8.21,8.21,0,0,1-2.86.46,7.8,7.8,0,0,1-3.79-.77,4.35,4.35,0,0,1-1.92-2.13,13.63,13.63,0,0,1-.56-4.67l0-1.72v-4.23c0-.57,0-1.36-.09-2.36s-.1-1.61-.14-1.84a.62.62,0,0,0-.33-.51,2.55,2.55,0,0,0-1.13-.17l-1.82,0-.2-.17v-.94l.18-.17A27.72,27.72,0,0,0,370.71,150.43Z"/><path class="cls-1" d="M400,150.43l.41.29c-.08.83-.15,2.32-.19,4.46l1.62-2.06a13.25,13.25,0,0,1,1.42-1.57,4.68,4.68,0,0,1,1.45-.86,4.9,4.9,0,0,1,1.69-.3,4.22,4.22,0,0,1,1.8.39l.15.3c-.23,1.93-.36,3.62-.39,5.08h-1a2.92,2.92,0,0,0-2.8-2,3.5,3.5,0,0,0-2.35.85,4.14,4.14,0,0,0-1.33,2.15,13.41,13.41,0,0,0-.34,3.26v2.41c0,.44,0,1.5.09,3.19a28.42,28.42,0,0,0,.18,2.93,1.19,1.19,0,0,0,.31.58,1.12,1.12,0,0,0,.54.24c.22.05,1.25.12,3.09.22l.2.17v.92l-.2.19q-2.88-.17-6-.17c-1.66,0-3.4.06-5.2.17l-.2-.19v-.92l.2-.17c1.4-.09,2.19-.15,2.37-.19a1.15,1.15,0,0,0,.48-.27,1.23,1.23,0,0,0,.28-.63c.05-.29.11-1.22.17-2.8s.1-2.78.1-3.59v-4.28c0-.57,0-1.36-.09-2.36s-.1-1.61-.14-1.84a.65.65,0,0,0-.33-.51,2.55,2.55,0,0,0-1.13-.17l-1.82,0-.2-.17v-.94l.17-.17A27.7,27.7,0,0,0,400,150.43Z"/><path class="cls-1" d="M430,167.92l-.69,1.56a13.84,13.84,0,0,1-4,1.89,13.35,13.35,0,0,1-3.16.43,12.16,12.16,0,0,1-4.93-1,8.33,8.33,0,0,1-3.8-3.45,11.19,11.19,0,0,1-1.46-5.85,14.14,14.14,0,0,1,.56-4.11,10.1,10.1,0,0,1,1.19-2.73,9.17,9.17,0,0,1,2.09-2,14.1,14.1,0,0,1,3.12-1.74,9.71,9.71,0,0,1,3.56-.65,8.52,8.52,0,0,1,4.59,1.23,6.81,6.81,0,0,1,2.79,3.13,10.5,10.5,0,0,1,.8,4.06,11,11,0,0,1-.07,1.3l-.23.24a23.71,23.71,0,0,1-4,.43c-1.67.08-2.77.11-3.3.11h-7c0,3,.79,5.2,2.26,6.62a7.52,7.52,0,0,0,5.42,2.12,8.2,8.2,0,0,0,2.92-.52,17.83,17.83,0,0,0,3-1.45Zm-13.91-8.87c.26,0,1.27.09,3,.15s3,.09,3.87.09a34.5,34.5,0,0,0,3.67-.11c0-.35,0-.62,0-.81a7.71,7.71,0,0,0-1.37-5,4.59,4.59,0,0,0-3.73-1.63,4.81,4.81,0,0,0-4,1.84A8.77,8.77,0,0,0,416.1,159.05Z"/><path class="cls-1" d="M454.6,150.43l.41.29q-.24,2.84-.24,7.22v4.9c0,.32,0,1.34.09,3.07a26.85,26.85,0,0,0,.19,3,1.23,1.23,0,0,0,.29.63.93.93,0,0,0,.48.25q.27,0,2.34.18l.19.17v.92l-.17.19c-1.81-.11-3.55-.17-5.23-.17s-3.4.06-5.2.17l-.2-.19v-.92l.2-.17c1.4-.09,2.19-.15,2.37-.19a1,1,0,0,0,.76-.9c.05-.29.11-1.22.17-2.8s.1-2.78.1-3.59v-4.28c0-.57,0-1.36-.09-2.36s-.1-1.61-.14-1.84a.65.65,0,0,0-.33-.51,2.55,2.55,0,0,0-1.13-.17l-1.82,0-.2-.17v-.94l.18-.17A27.72,27.72,0,0,0,454.6,150.43Zm-1.84-9.69a2.44,2.44,0,0,1,2.45,2.45,2.46,2.46,0,0,1-2.45,2.43,2.41,2.41,0,0,1-1.73-.71,2.32,2.32,0,0,1-.73-1.72,2.38,2.38,0,0,1,.73-1.74A2.41,2.41,0,0,1,452.76,140.74Z"/><path class="cls-1" d="M468.5,150.43l.41.29c-.08,1-.14,2.24-.17,3.81q1.74-1.42,3.3-2.9a3.69,3.69,0,0,1,.85-.61,6.62,6.62,0,0,1,1.34-.41,8.13,8.13,0,0,1,5.11.45,6.37,6.37,0,0,1,2.34,1.6,5,5,0,0,1,1.09,2.18,13,13,0,0,1,.31,3.1v3.82c0,.24,0,2,.11,5.4a4.27,4.27,0,0,0,.45,2.45c.28.26,1.17.39,2.69.39l.18.17v.94l-.18.17c-1.83-.11-3.08-.17-3.73-.17-.38,0-1.43.06-3.17.17l-.26-.24q.29-2.82.29-7.35v-2.84q0-2.57-.12-3.69a4.6,4.6,0,0,0-.73-2,4.11,4.11,0,0,0-1.63-1.43,5.38,5.38,0,0,0-2.43-.51,6.85,6.85,0,0,0-1.93.23,6.2,6.2,0,0,0-1.8.93,6.82,6.82,0,0,0-1.47,1.32,2.83,2.83,0,0,0-.58,1.15,16.86,16.86,0,0,0-.1,2.27v3.77c0,.32,0,1.34.09,3.07s.12,2.74.18,3a1.32,1.32,0,0,0,.3.63.94.94,0,0,0,.47.25c.19,0,1,.09,2.35.18l.19.17v.92l-.17.19c-1.81-.11-3.55-.17-5.23-.17s-3.4.06-5.2.17l-.2-.19v-.92l.2-.17c1.4-.09,2.19-.15,2.37-.19a1.15,1.15,0,0,0,.48-.27,1.23,1.23,0,0,0,.28-.63c.05-.29.11-1.22.17-2.8s.1-2.78.1-3.59v-4.28c0-.57,0-1.36-.09-2.36s-.1-1.61-.14-1.84a.65.65,0,0,0-.33-.51,2.55,2.55,0,0,0-1.13-.17l-1.82,0-.2-.17v-.94l.17-.17A27.7,27.7,0,0,0,468.5,150.43Z"/><path class="cls-1" d="M503.52,164.73h.94l.19.19a28.54,28.54,0,0,0,.22,3.13,4.73,4.73,0,0,0,2.32,1.66,9.07,9.07,0,0,0,3.25.64,5.27,5.27,0,0,0,3.68-1.24,3.83,3.83,0,0,0,1.38-3,2.71,2.71,0,0,0-.5-1.62,3.6,3.6,0,0,0-1.51-1.12,22.24,22.24,0,0,0-3.61-1c-1.49-.35-2.53-.62-3.12-.82a5,5,0,0,1-1.72-1,4.53,4.53,0,0,1-1.26-1.7,5.71,5.71,0,0,1-.43-2.22,5.53,5.53,0,0,1,2.31-4.65,9.24,9.24,0,0,1,5.76-1.75,13.88,13.88,0,0,1,3.17.4,18.84,18.84,0,0,1,2.6.77l.2.3a34.89,34.89,0,0,0-.22,4.56l-.2.19h-.86l-.2-.19a10.31,10.31,0,0,0-.24-1.85,2.81,2.81,0,0,0-.78-1.16,5.07,5.07,0,0,0-1.78-1,7,7,0,0,0-2.43-.42,5.59,5.59,0,0,0-2.22.39,3.36,3.36,0,0,0-1.45,1.18,3.27,3.27,0,0,0-.56,1.92,3.13,3.13,0,0,0,.34,1.48,2.6,2.6,0,0,0,1,1,5.3,5.3,0,0,0,1.45.58l2.37.6a33.6,33.6,0,0,1,4.35,1.28,4.28,4.28,0,0,1,2,1.64,4.74,4.74,0,0,1,.72,2.66,6.59,6.59,0,0,1-2.47,5.14,9.36,9.36,0,0,1-6.36,2.15,22.65,22.65,0,0,1-3.39-.31,32.39,32.39,0,0,1-3.46-.67l-.11-.28.22-1.45a12.51,12.51,0,0,0,.13-1.36c0-.46,0-1.41,0-2.88Z"/><path class="cls-1" d="M522.8,154.08v-.57l.16-.21a31.23,31.23,0,0,0,3.29-1.41c0-3.78,0-6-.13-6.6a18.2,18.2,0,0,0,3.67-1.67l.52.44c-.14.91-.32,3.55-.52,7.94l2.34,0c1.71,0,2.93-.05,3.67-.13l.15.15-.41,1.82-.18.2c-.73,0-1.55,0-2.45,0s-1.85,0-3.12,0l-.13,8.83a35.84,35.84,0,0,0,.14,4,2.22,2.22,0,0,0,.78,1.47,2.89,2.89,0,0,0,1.9.53,5.1,5.1,0,0,0,2.69-.75l.52.78c-.35.24-1.18,1-2.49,2.17a5.58,5.58,0,0,1-2.3.52q-4.89,0-4.89-4.73c0-1.16,0-2.14.09-2.95,0-.25,0-.5,0-.76v-9h-.89c-.65,0-1.39,0-2.23.08Z"/><path class="cls-1" d="M538.92,182.89a24,24,0,0,0,1.1-3.34h.53a3.11,3.11,0,0,0,2.29,1.15,3.29,3.29,0,0,0,2.68-1.53,35.29,35.29,0,0,0,3.22-6.76c-.55-1.55-1.1-3-1.67-4.38l-3.44-8.55c-.37-.88-.9-2.14-1.61-3.79a23.45,23.45,0,0,0-1.27-2.71,2.44,2.44,0,0,0-.53-.46,5.25,5.25,0,0,0-1.76-.42l-.17-.17v-.87l.19-.17c1.67.1,3.37.15,5.12.15,2.06,0,3.64,0,4.75-.15l.18.17v.87l-.15.17-1.34.1a2.45,2.45,0,0,0-1.37.35.86.86,0,0,0-.27.62,13.92,13.92,0,0,0,.68,2.39c.44,1.36.88,2.55,1.3,3.59l1.36,3.39q1.35,3.35,2.09,4.92l1.15-2.54c.4-.92,1-2.32,1.73-4.2l1.8-4.6a20.71,20.71,0,0,0,.79-2.21,3,3,0,0,0,.1-.63.66.66,0,0,0-.35-.66,6,6,0,0,0-1.54-.3l-.91-.13-.15-.17v-1l.18-.17c1.21.1,2.65.15,4.31.15a35.07,35.07,0,0,0,3.65-.15l.17.17v1l-.17.17a3.84,3.84,0,0,0-1.28.22,2.4,2.4,0,0,0-.91.69,18,18,0,0,0-1.57,2.81q-1.12,2.31-2.25,4.79l-2.13,4.66-5,11.71a33.86,33.86,0,0,1-1.62,3.26,6.16,6.16,0,0,1-2.36,2.5,6,6,0,0,1-3,.77A5.07,5.07,0,0,1,538.92,182.89Z"/><path class="cls-1" d="M571.65,139l.41.26c-.16,1.66-.24,5-.24,10v13.6c0,.32,0,1.34.09,3.07a28.16,28.16,0,0,0,.18,3,1.42,1.42,0,0,0,.29.63.93.93,0,0,0,.48.25c.19,0,1,.09,2.35.18l.19.17v.92l-.17.19c-1.81-.11-3.55-.17-5.23-.17s-3.4.06-5.21.17l-.19-.19v-.92l.19-.17c1.41-.09,2.2-.15,2.38-.19a1.06,1.06,0,0,0,.47-.27,1.16,1.16,0,0,0,.29-.63c.05-.29.11-1.22.17-2.8s.1-2.78.1-3.59V151.28l-.09-4.6c0-1.6-.09-2.72-.14-3.34a2.92,2.92,0,0,0-.21-1.11.8.8,0,0,0-.45-.26,22,22,0,0,0-2.63-.08l-.19-.2v-.91l.17-.19A28,28,0,0,0,571.65,139Z"/><path class="cls-1" d="M597.28,167.92l-.69,1.56a13.73,13.73,0,0,1-4,1.89,13.28,13.28,0,0,1-3.15.43,12.21,12.21,0,0,1-4.94-1,8.26,8.26,0,0,1-3.79-3.45,11.1,11.1,0,0,1-1.47-5.85,13.79,13.79,0,0,1,.57-4.11,10.13,10.13,0,0,1,1.18-2.73,9.17,9.17,0,0,1,2.09-2,14.39,14.39,0,0,1,3.13-1.74,9.65,9.65,0,0,1,3.55-.65,8.52,8.52,0,0,1,4.59,1.23,6.75,6.75,0,0,1,2.79,3.13,10.5,10.5,0,0,1,.8,4.06c0,.45,0,.88-.06,1.3l-.24.24a23.58,23.58,0,0,1-4,.43c-1.66.08-2.76.11-3.3.11h-7c0,3,.78,5.2,2.25,6.62a7.54,7.54,0,0,0,5.43,2.12A8.19,8.19,0,0,0,594,169a17.9,17.9,0,0,0,3-1.45Zm-13.9-8.87q.39.06,3,.15c1.75.06,3,.09,3.88.09a34.25,34.25,0,0,0,3.66-.11c0-.35,0-.62,0-.81a7.71,7.71,0,0,0-1.36-5,4.63,4.63,0,0,0-3.74-1.63,4.81,4.81,0,0,0-4,1.84A8.77,8.77,0,0,0,583.38,159.05Z"/></svg>