<svg id="Layer_1" data-name="Layer 1" xmlns="http://www.w3.org/2000/svg" viewBox="0 0 654.92 491.34"><defs><style>.cls-1{fill:#fff;}</style></defs><path class="cls-1" d="M295.66,132.6a10.36,10.36,0,0,1-10.5,10.46,10.72,10.72,0,0,1-9.47-5.58,10,10,0,0,1-1.22-4.76,10.41,10.41,0,0,1,1.22-4.85,11.09,11.09,0,0,1,9.39-6,10.19,10.19,0,0,1,7.46,3.12A10.9,10.9,0,0,1,295.66,132.6Z"/><path class="cls-1" d="M383.05,223.78c-13.57,9.69-28.8,14.92-45.39,16.56a192.69,192.69,0,0,1-21.74,1.13c-11.43-.17-22.91-.24-34.2-2.36a67.89,67.89,0,0,1-31.92-15.65,86.35,86.35,0,0,1-16.28-18,76,76,0,0,1-11.91-30.05,77.9,77.9,0,0,1-.57-21.29,81.6,81.6,0,0,1,6.47-24,68.26,68.26,0,0,1,6.79-11.59c9.95-14,22.69-24.42,39.08-30a80.52,80.52,0,0,1,26.78-4.36c7.92,0,15.85-.57,23.79-.3,9.75.36,19.39,1.51,28.16,6.09,17.77,9.26,29,23.72,31.63,43.67,2.43,18.29-2.78,34.58-16,47.84-10.63,10.66-23.51,16.63-38.62,16.9-16.72.28-33.46.06-50.15,0-2.82,0-3.78-1-3.79-3.88q0-23.7,0-47.39s8.67,8.69,19.59,0c-.11,8.27.15,17.61.1,26.91,0,3.72,1.13,4.88,4.87,4.94,1.69,0,3.38-.09,5.08-.06,3.35,0,6.7.12,10.05.16.83,0,1.71,0,2.67,0,1.79,0,3.58,0,5.37-.07,14-.87,21.71-7.33,24.16-9.83l.55-.6c6-7.17,9-14.26,9.83-21-.73-41.76-41.15-43.43-41.15-43.43H290.52a52.34,52.34,0,0,0-13.18,3.58c-19.27,10.22-24.27,23.78-24.27,23.78a91.72,91.72,0,0,0-1.15,55.17,41.77,41.77,0,0,0,4,8.12,82.69,82.69,0,0,0,10.37,13.28,73.85,73.85,0,0,0,17,10.85c2.06.58,4.16,1.11,6.36,1.53a67.1,67.1,0,0,0,13.21.77c7.88-.09,15.76,0,23.63-.11,15.24-.19,29.72-3.43,42.62-11.91,16.47-10.87,28.77-25.3,34.13-44.44,7.75-27.6,2.78-52.9-16.11-74.94A78.89,78.89,0,0,0,346.24,64.2C338.13,62.1,329.83,62,321.52,62c-14.29.06-28.6,0-42.9,0-2.77,0-3.47-.72-3.5-3.62V31.34q0-13.26,0-26.54c0-3.5,1-4.57,4.5-4.62s7.15,0,10.73,0c3.14,0,4,.85,4,4,0,11.21,0,22.42,0,33.62,0,4,.64,4.64,4.66,4.64q22.82,0,45.62,0c5.88,0,10.43-3.05,12-7.93,2.2-6.77-3.41-14.47-10.75-14.62-5.51-.1-11,0-16.54,0q-11.25-.11-22.54-.25c-2.33,0-3.39-1.13-3.41-3.51,0-4.11,0-8.23,0-12.35,0-2.36,1.11-3.46,3.45-3.48,12.26,0,24.51-.21,36.77,0,2.64-.25,23-1.54,33.6,14.22a21.12,21.12,0,0,1,3.59,7.09c.33.88.64,1.8.91,2.77l-.33-.21c2.35,14.21-8.86,29-8.92,29.05,15.26,8.39,28.29,19.31,37.85,34C419,100.4,424.65,115,426,130.8,429.38,169.83,415,201,383.05,223.78Z"/><path class="cls-1" d="M32.46,381.82v-3.19c9.32-1,10.23-1.47,10.23-11.13V322.39c0-9.77-.91-10.22-10.23-11.24V308H62.91v3.19c-9.43,1-10.34,1.47-10.34,11.24V367.5c0,9.77.91,10.11,10.34,11.13v3.19Z"/><path class="cls-1" d="M112.45,308c16,0,26.13,3.19,33.17,9.89,5.57,5.45,9.66,13.41,9.66,24.31,0,13.3-5.45,24.09-14.2,30.68s-19.66,9-33.63,9H80.86v-3.19c9.77-.9,10.23-1.7,10.23-11V322.28c0-9.77-1.37-10.23-10.23-11.13V308ZM101,366.7c0,8.53,3.64,10.91,12.16,10.91,20.45,0,30.9-14,30.9-33.86,0-12.38-4.2-21.81-13.18-27.26-5.22-3.3-11.81-4.55-19.42-4.55-5.12,0-7.84.68-9,1.59-1,.68-1.48,1.93-1.48,6.36Z"/><path class="cls-1" d="M231.74,363.75c-.68,2.95-3.75,14.66-4.88,18.07H171.64v-3.19c10.57-.79,11.36-1.81,11.36-11.13V322.62c0-10.11-1.25-10.68-9.77-11.47V308H208c10.68,0,15.11-.11,16.47-.22.11,2.84.57,11.36,1,17.38l-3.4.57a38.36,38.36,0,0,0-3.41-8.64c-1.82-3.75-4.43-4.54-11.25-4.54h-10.8c-3.52,0-3.74.34-3.74,3.63v25.11H205.5c8.52,0,9.09-1.7,10.45-9.43h3.52v23.41H216c-1.48-8.18-2.39-9.32-10.57-9.32H192.89v22.61c0,8,2.49,8.64,8.18,8.75h10.56c6.93,0,8.07-1,10.57-4,2.16-2.38,4.54-7,6.13-10.45Z"/><path class="cls-1" d="M324.68,311.15c-7.27.79-9.66,1.93-10,7.15-.11,3.64-.34,8.41-.34,19v45.56H310l-48.63-59.42v28.4c0,10.23.35,15.34.57,18.63.23,5.8,3.07,7.5,11.25,8.18v3.19H245.6v-3.19c7.05-.56,9.77-2.27,10.23-7.84.34-3.63.57-8.74.57-19.08v-29c0-3.18-.23-5-2.28-7.49-2.16-2.84-4.54-3.53-10.11-4.09V308h17l48.18,57.15V337.28c0-10.57-.23-15.45-.57-18.86-.34-5.12-3-6.71-12-7.27V308h28.06Z"/><path class="cls-1" d="M379.1,341.82c10.91,1.82,19.77,7.05,19.77,18.07,0,7.72-4.32,13.86-11,17.49-5.91,3.3-11.71,4.44-19.66,4.44H340.24v-3.19c9.66-.9,10.23-1.93,10.23-10.9V322.17c0-9.43-1-10.23-10.23-11V308H370c8.52,0,13.86,1.48,17.5,4a14.86,14.86,0,0,1,6.7,12.73C394.21,335.35,385.46,340.23,379.1,341.82ZM366,340.46c12.5,0,17.61-5,17.61-14.32,0-7.95-4.88-14.09-15.79-14.09-3.18,0-5.23.35-6.36,1.14-.91.68-1.25,1.93-1.25,5.57v21.7Zm-5.79,27c0,8.18,1.93,10.23,10,10.23,8.86,0,17.49-4.78,17.49-16.71,0-11.59-8.18-16.58-22-16.58h-5.45Z"/><path class="cls-1" d="M482,382.72c-1.47,0-2.72-.11-4.2-.22-8.29-.57-12.73-2.73-17.72-9.77-4.21-5.8-8.3-13-11.93-18.75-2.28-3.64-3.75-4.32-9.55-4.32h-4V367.5c0,9.66,1.25,10.23,10.33,11.13v3.19H414.66v-3.19c9.43-1,10.22-1.47,10.22-11.13V322.17c0-9.66-1.25-10-10.22-11V308h29c8.29,0,13.86,1,18.18,3.87,4.66,2.95,7.73,8.06,7.73,15,0,9.77-6.25,15.9-14.66,19.54,2,3.52,6.93,11.13,10.34,16.24a103.78,103.78,0,0,0,9,11.71,16.39,16.39,0,0,0,8.3,5.22ZM440.11,345.8c5.91,0,9.66-.91,12.5-3.3,4.43-3.29,6.25-7.84,6.25-14,0-12.16-8.07-16.59-16.82-16.59-3.29,0-5.23.46-6,1.14-1,.79-1.36,1.93-1.36,4.88V345.8Z"/><path class="cls-1" d="M492.94,381.82v-3.19c9.32-1,10.22-1.47,10.22-11.13V322.39c0-9.77-.9-10.22-10.22-11.24V308h30.45v3.19c-9.43,1-10.34,1.47-10.34,11.24V367.5c0,9.77.91,10.11,10.34,11.13v3.19Z"/><path class="cls-1" d="M572.92,308c16,0,26.14,3.19,33.18,9.89,5.57,5.45,9.66,13.41,9.66,24.31,0,13.3-5.46,24.09-14.2,30.68s-19.66,9-33.64,9H541.34v-3.19c9.77-.9,10.22-1.7,10.22-11V322.28c0-9.77-1.36-10.23-10.22-11.13V308ZM561.45,366.7c0,8.53,3.63,10.91,12.16,10.91,20.45,0,30.9-14,30.9-33.86,0-12.38-4.2-21.81-13.18-27.26-5.23-3.3-11.82-4.55-19.43-4.55-5.11,0-7.84.68-9,1.59-1,.68-1.48,1.93-1.48,6.36Z"/><rect class="cls-1" y="410.8" width="654.92" height="4.16"/><path class="cls-1" d="M54.54,448.34l.17-.15q5.38.18,6.21.18c.49,0,2.57-.06,6.22-.18l.18.15v1.09l-.18.15c-1,0-1.76.07-2.31.13a2.84,2.84,0,0,0-1.18.33,1.56,1.56,0,0,0-.49,1.11,19.5,19.5,0,0,0-.11,2.44l0,5v6.9c0,2.27,0,3.94.14,5a9.13,9.13,0,0,0,.61,2.69,4.92,4.92,0,0,0,1.42,1.89,7.39,7.39,0,0,0,2.73,1.29,15.09,15.09,0,0,0,4,.5,14.62,14.62,0,0,0,4.46-.66,6.72,6.72,0,0,0,3.15-1.92A6.49,6.49,0,0,0,81,471a36.49,36.49,0,0,0,.34-5.7v-6.68c0-1.12,0-2.68,0-4.65a15.66,15.66,0,0,0-.26-3.41,1.37,1.37,0,0,0-.76-.67,12.29,12.29,0,0,0-3.07-.27l-.18-.17v-1l.18-.2c2.14.12,3.85.18,5.14.18,1.1,0,2.8-.06,5.12-.18l.19.18v1l-.19.17a20.59,20.59,0,0,0-2.66.16,1.77,1.77,0,0,0-.87.36,1.56,1.56,0,0,0-.37.74,20.58,20.58,0,0,0-.16,2.86l-.06,4.88v6.6A49.75,49.75,0,0,1,83,471.4a8.19,8.19,0,0,1-1.35,3.75,10.38,10.38,0,0,1-2.5,2.45,11,11,0,0,1-3.7,1.52,20.53,20.53,0,0,1-4.68.53A19.3,19.3,0,0,1,65.4,479a10.18,10.18,0,0,1-3.68-1.77,7,7,0,0,1-1.93-2.34A8.86,8.86,0,0,1,59,472c-.11-1.11-.17-2.8-.17-5.07v-8.33l0-4.23c0-1.64-.05-2.71-.11-3.19a2,2,0,0,0-.31-1,1.56,1.56,0,0,0-.79-.39,19,19,0,0,0-2.89-.24l-.17-.15Z"/><path class="cls-1" d="M98.12,457.91l.41.26q-.23,2.47-.24,4.38c2-1.79,3.34-3,4.11-3.55a6.88,6.88,0,0,1,4-.87,10,10,0,0,1,3.24.49,7.63,7.63,0,0,1,2.69,1.6,8,8,0,0,1,2,2.8,9.82,9.82,0,0,1,.71,3.89,10.67,10.67,0,0,1-.49,3.17,14.26,14.26,0,0,1-1.32,3,8.32,8.32,0,0,1-1.3,1.81,12.82,12.82,0,0,1-2,1.34c-.92.55-1.82,1.14-2.72,1.78a12.22,12.22,0,0,1-1.3.86,5.3,5.3,0,0,1-1.23.4,8.47,8.47,0,0,1-1.85.19,9.7,9.7,0,0,1-4.49-1.15v4.62c0,.32,0,1.34.09,3.07s.12,2.74.18,3a1.32,1.32,0,0,0,.29.63.93.93,0,0,0,.48.25q.28,0,2.34.18l.2.17v.91l-.17.2c-1.81-.12-3.55-.17-5.21-.17s-3.4.05-5.21.17l-.19-.2v-.91l.19-.17c1.39-.09,2.18-.15,2.37-.2a1,1,0,0,0,.49-.27,1.19,1.19,0,0,0,.28-.66c0-.3.11-1.27.17-2.9s.1-2.87.1-3.69V465.72c0-.75,0-1.62-.1-2.61a15.54,15.54,0,0,0-.16-1.73.65.65,0,0,0-.31-.39,2.62,2.62,0,0,0-1.12-.15l-1.82,0-.2-.18v-.93l.17-.17A27.86,27.86,0,0,0,98.12,457.91Zm.17,16.64a9.47,9.47,0,0,0,2.47,1.77,7.11,7.11,0,0,0,3.26.75,6.62,6.62,0,0,0,3.72-1.07,6.88,6.88,0,0,0,2.5-3.11,11.18,11.18,0,0,0,.89-4.54,8.92,8.92,0,0,0-.79-3.76,6.05,6.05,0,0,0-2.45-2.73,6.69,6.69,0,0,0-3.52-1,6.57,6.57,0,0,0-2.24.4,6.89,6.89,0,0,0-2,1.19,5.74,5.74,0,0,0-1.35,1.48,2.76,2.76,0,0,0-.44,1.17c0,.31,0,.66,0,1Z"/><path class="cls-1" d="M133,449.43v-.91l.17-.2a28,28,0,0,0,7-1.6l.41.26q-.24,2.49-.24,10v14.21c0,1.46,0,2.73.08,3.83a5.73,5.73,0,0,0,.27,1.94,1.4,1.4,0,0,0,.64.5,11.6,11.6,0,0,0,2.52.37l.2.17v.82l-.2.2c-1.56-.1-2.77-.15-3.64-.15s-1.89.05-3.34.15l-.24-.24c0-1.42.07-2.41.07-3,0-.07,0-.35,0-.83-.8.58-1.59,1.23-2.39,1.93-1.17,1-1.94,1.7-2.3,2a6.51,6.51,0,0,1-2.84.5,8.64,8.64,0,0,1-5.09-1.48,8.15,8.15,0,0,1-3-3.76,12.94,12.94,0,0,1-.89-4.7,12.52,12.52,0,0,1,.92-4.72,6.69,6.69,0,0,1,2.63-3.31c1.13-.69,2.37-1.41,3.71-2.15a8,8,0,0,1,4-1.12,10.72,10.72,0,0,1,5.25,1.37l-.09-4.84c0-1.68-.07-2.85-.13-3.51a3.41,3.41,0,0,0-.22-1.17.76.76,0,0,0-.44-.27,18.87,18.87,0,0,0-2.64-.09Zm3.71,13.77a9.75,9.75,0,0,0-3-2.32,7.44,7.44,0,0,0-3.28-.8,6.26,6.26,0,0,0-3.4,1,5.48,5.48,0,0,0-2.26,2.93,12.24,12.24,0,0,0-.7,4.21,9.19,9.19,0,0,0,1.92,6.1,6,6,0,0,0,4.83,2.3,5.38,5.38,0,0,0,2.81-.73,6,6,0,0,0,2-2,5.81,5.81,0,0,0,.92-2.47c.08-.83.13-2.34.13-4.54Z"/><path class="cls-1" d="M151.82,464.14l-.85-.22-.17-.22V461a12.66,12.66,0,0,1,7.5-2.86,8.36,8.36,0,0,1,4.15.93,5.81,5.81,0,0,1,2.38,2.33,6.86,6.86,0,0,1,.74,3.27l-.11,4.36v6.46a4,4,0,0,0,.19,1.61.94.94,0,0,0,.42.38,3.86,3.86,0,0,0,.89.16l1.24.11.17.2v.86l-.17.18c-1.06-.09-2-.13-2.95-.13s-1.91,0-3.13.13l-.32-.31.08-3.49-4.72,3.69a6.78,6.78,0,0,1-2.61.5,6.52,6.52,0,0,1-3-.63,4.53,4.53,0,0,1-1.91-1.76,5.31,5.31,0,0,1-.66-2.73,6.33,6.33,0,0,1,2-5c1.33-1.19,5-2.21,10.89-3.05,0-2.14-.47-3.65-1.43-4.52a5.42,5.42,0,0,0-3.84-1.31,6.92,6.92,0,0,0-2.29.36,3.06,3.06,0,0,0-1.18.6c-.1.15-.49,1-1.17,2.66Zm10.06,3.42q-6.07,1-7.57,2.2a4.32,4.32,0,0,0-1.49,3.62q0,3.38,3.36,3.38,2.88,0,5.7-3.34Z"/><path class="cls-1" d="M172.08,461.82v-.57l.15-.21a29.05,29.05,0,0,0,3.29-1.42q0-5.65-.13-6.59a18.77,18.77,0,0,0,3.67-1.67l.52.43c-.14.92-.32,3.56-.52,7.94.72,0,1.5,0,2.34,0a34.79,34.79,0,0,0,3.67-.13l.15.16-.41,1.82-.18.19-2.45,0-3.12,0-.13,8.83a35.58,35.58,0,0,0,.14,4,2.33,2.33,0,0,0,.78,1.48,2.89,2.89,0,0,0,1.9.53,5,5,0,0,0,2.69-.76l.52.78c-.35.25-1.18,1-2.49,2.17a5.42,5.42,0,0,1-2.3.52c-3.26,0-4.88-1.57-4.88-4.73,0-1.15,0-2.14.08-2.95,0-.24,0-.5,0-.75v-9h-.89c-.65,0-1.39,0-2.23.09Z"/><path class="cls-1" d="M206.39,475.66l-.7,1.56a13.69,13.69,0,0,1-4,1.89,13.89,13.89,0,0,1-3.16.43,12.16,12.16,0,0,1-4.93-1,8.28,8.28,0,0,1-3.8-3.45,11.2,11.2,0,0,1-1.46-5.86,14.14,14.14,0,0,1,.56-4.11,10.37,10.37,0,0,1,1.18-2.72,9.26,9.26,0,0,1,2.1-2,13.33,13.33,0,0,1,3.12-1.74,9.71,9.71,0,0,1,3.56-.65,8.57,8.57,0,0,1,4.59,1.23,6.68,6.68,0,0,1,2.78,3.13,10.26,10.26,0,0,1,.81,4.06,11.09,11.09,0,0,1-.07,1.3l-.24.24a24.54,24.54,0,0,1-4,.43c-1.66.07-2.76.11-3.29.11h-7c0,3,.78,5.2,2.26,6.61a7.51,7.51,0,0,0,5.42,2.13,8.24,8.24,0,0,0,2.92-.52,18.65,18.65,0,0,0,3-1.45Zm-13.91-8.88c.26.05,1.26.1,3,.16s3,.08,3.87.08a31.79,31.79,0,0,0,3.67-.11c0-.34,0-.61,0-.8a7.69,7.69,0,0,0-1.37-5,4.6,4.6,0,0,0-3.73-1.64,4.81,4.81,0,0,0-4,1.85A8.7,8.7,0,0,0,192.48,466.78Z"/><path class="cls-1" d="M223.88,461.82v-.57L224,461a29.88,29.88,0,0,0,3.29-1.42q0-5.65-.13-6.59a18.77,18.77,0,0,0,3.67-1.67l.52.43c-.14.92-.32,3.56-.52,7.94.72,0,1.5,0,2.34,0a34.79,34.79,0,0,0,3.67-.13l.15.16-.41,1.82-.17.19-2.46,0-3.12,0-.13,8.83a35.58,35.58,0,0,0,.14,4,2.24,2.24,0,0,0,.78,1.48,2.89,2.89,0,0,0,1.9.53,5,5,0,0,0,2.69-.76l.52.78c-.35.25-1.18,1-2.49,2.17a5.42,5.42,0,0,1-2.3.52c-3.26,0-4.88-1.57-4.88-4.73,0-1.15,0-2.14.08-2.95,0-.24,0-.5,0-.75v-9h-.89c-.65,0-1.39,0-2.23.09Z"/><path class="cls-1" d="M246.4,446.72l.41.26q-.24,2.49-.24,10v5.36c1.22-1,2.34-2,3.39-3a3.75,3.75,0,0,1,.86-.6,7.73,7.73,0,0,1,1.34-.42,8.42,8.42,0,0,1,1.89-.21,7.92,7.92,0,0,1,3.2.67,6.45,6.45,0,0,1,2.35,1.59,5.14,5.14,0,0,1,1.09,2.19,13.48,13.48,0,0,1,.31,3.1v3.82c0,.24,0,2,.1,5.4a4.49,4.49,0,0,0,.47,2.45c.27.26,1.16.39,2.68.39l.17.17v.93l-.17.18c-1.84-.12-3.08-.18-3.73-.18-.33,0-1.39.06-3.17.18l-.26-.24q.29-2.82.28-7.35v-2.85c0-1.7,0-2.93-.12-3.68a4.54,4.54,0,0,0-.72-2,4.17,4.17,0,0,0-1.62-1.44,5.47,5.47,0,0,0-2.44-.51,6.52,6.52,0,0,0-2.46.41,6.63,6.63,0,0,0-2,1.35,4.26,4.26,0,0,0-1.22,1.6,9.28,9.28,0,0,0-.21,2.46v3.86c0,.32,0,1.34.09,3.07a28.16,28.16,0,0,0,.18,3,1.33,1.33,0,0,0,.29.62.86.86,0,0,0,.48.25c.19,0,1,.1,2.35.19l.19.17v.91l-.17.2c-1.81-.12-3.55-.18-5.23-.18s-3.4.06-5.21.18l-.19-.2v-.91l.19-.17c1.41-.09,2.2-.15,2.38-.2a.9.9,0,0,0,.47-.27,1.16,1.16,0,0,0,.29-.63c0-.28.11-1.21.17-2.8s.1-2.78.1-3.59V459l-.09-4.6c0-1.61-.09-2.72-.14-3.34a2.92,2.92,0,0,0-.21-1.11.8.8,0,0,0-.45-.26,18.89,18.89,0,0,0-2.63-.09l-.19-.19v-.91l.17-.2A28,28,0,0,0,246.4,446.72Z"/><path class="cls-1" d="M285.7,475.66l-.69,1.56a12.65,12.65,0,0,1-7.18,2.32,12.17,12.17,0,0,1-4.94-1,8.33,8.33,0,0,1-3.8-3.45,11.2,11.2,0,0,1-1.46-5.86,14.14,14.14,0,0,1,.56-4.11,10,10,0,0,1,1.19-2.72,9.17,9.17,0,0,1,2.09-2,13.33,13.33,0,0,1,3.12-1.74,9.71,9.71,0,0,1,3.56-.65,8.52,8.52,0,0,1,4.59,1.23,6.76,6.76,0,0,1,2.79,3.13,10.43,10.43,0,0,1,.8,4.06,11.09,11.09,0,0,1-.07,1.3L286,468a24.82,24.82,0,0,1-4,.43c-1.67.07-2.77.11-3.3.11h-7c0,3,.78,5.2,2.25,6.61a7.52,7.52,0,0,0,5.42,2.13,8.2,8.2,0,0,0,2.92-.52,18.65,18.65,0,0,0,3-1.45Zm-13.9-8.88c.25.05,1.26.1,3,.16s3,.08,3.87.08a31.79,31.79,0,0,0,3.67-.11c0-.34,0-.61,0-.8a7.69,7.69,0,0,0-1.37-5,4.6,4.6,0,0,0-3.73-1.64,4.81,4.81,0,0,0-4,1.85A8.76,8.76,0,0,0,271.8,466.78Z"/><path class="cls-1" d="M314.69,477.74l.18.17v.91l-.18.2c-.44,0-1.29,0-2.53-.09s-2.3-.09-3.5-.09c-1.56,0-3.3.06-5.23.18l-.17-.2v-.91l.17-.17c1.41-.09,2.2-.15,2.39-.2a.89.89,0,0,0,.48-.27,1.23,1.23,0,0,0,.27-.63c.05-.28.11-1.21.17-2.8s.1-2.78.1-3.59v-8.37L304,462l-.19-.17v-.54l.15-.22,2.84-1.45v-1.31a20.4,20.4,0,0,1,.2-3.28,6.46,6.46,0,0,1,.72-2.06,14.46,14.46,0,0,1,1.86-2.39c.88-1,1.65-1.75,2.32-2.36a6.38,6.38,0,0,1,1.73-1.24,4.43,4.43,0,0,1,1.74-.31,5.46,5.46,0,0,1,1.78.32l0,3.56-.5.19a4.11,4.11,0,0,0-2.82-1.08,3.82,3.82,0,0,0-2,.47,2.39,2.39,0,0,0-1.12,1.51,13.67,13.67,0,0,0-.31,3.49v4.49h2.32c1.2,0,2.34,0,3.41-.13l.2.23-.39,1.91-.2.22-.85,0-2.82,0h-1.67v8.74c0,.46,0,1.52.1,3.18s.13,2.63.19,2.92a1.09,1.09,0,0,0,.29.62,1.35,1.35,0,0,0,.67.29C312,477.64,313,477.7,314.69,477.74Z"/><path class="cls-1" d="M326.14,458.17l.41.28q-.23,2.85-.23,7.23v5.05a12.07,12.07,0,0,0,.42,3.86,3.12,3.12,0,0,0,1.46,1.66,5,5,0,0,0,2.48.58,6.67,6.67,0,0,0,2.88-.62,5.92,5.92,0,0,0,2.18-1.75,7.07,7.07,0,0,0,1-1.52,10.93,10.93,0,0,0,.17-2.19l.07-2.43V466c0-.58,0-1.37-.09-2.36s-.1-1.62-.14-1.85a.69.69,0,0,0-.34-.51,2.51,2.51,0,0,0-1.12-.16l-1.83,0-.19-.18V460l.17-.17a28.36,28.36,0,0,0,7-1.63l.41.28q-.24,2.85-.24,7.23v3.82c0,.21,0,2,.11,5.31a8.1,8.1,0,0,0,.23,2.24,1.11,1.11,0,0,0,.51.57,6.22,6.22,0,0,0,1.93.16H344l.19.18v.86l-.17.2c-2-.12-3.41-.18-4.1-.18-.88,0-1.9.06-3.06.16l-.2-.18c.09-1.47.16-2.72.2-3.75a34.14,34.14,0,0,0-3.12,2.84A5.18,5.18,0,0,1,331.8,479a8.41,8.41,0,0,1-2.86.46,7.73,7.73,0,0,1-3.78-.77,4.3,4.3,0,0,1-1.92-2.13,13.35,13.35,0,0,1-.57-4.68l0-1.71V466c0-.58,0-1.37-.08-2.36s-.11-1.62-.14-1.85a.69.69,0,0,0-.34-.51,2.56,2.56,0,0,0-1.13-.16l-1.82,0-.2-.18V460l.18-.17A28.16,28.16,0,0,0,326.14,458.17Z"/><path class="cls-1" d="M348.07,461.82v-.57l.15-.21a30.15,30.15,0,0,0,3.3-1.42c0-3.77,0-6-.13-6.59a18.66,18.66,0,0,0,3.66-1.67l.53.43c-.15.92-.32,3.56-.53,7.94.73,0,1.51,0,2.35,0a34.56,34.56,0,0,0,3.66-.13l.15.16-.41,1.82-.17.19-2.45,0-3.13,0-.13,8.83a32.46,32.46,0,0,0,.15,4,2.24,2.24,0,0,0,.78,1.48,2.86,2.86,0,0,0,1.89.53,5,5,0,0,0,2.69-.76l.53.78c-.35.25-1.18,1-2.5,2.17a5.39,5.39,0,0,1-2.3.52c-3.25,0-4.88-1.57-4.88-4.73,0-1.15,0-2.14.09-2.95,0-.24,0-.5,0-.75v-9h-.89c-.65,0-1.4,0-2.24.09Z"/><path class="cls-1" d="M370.71,458.17l.41.28q-.24,2.85-.24,7.23v5.05a12,12,0,0,0,.43,3.86,3.12,3.12,0,0,0,1.46,1.66,5,5,0,0,0,2.47.58,6.69,6.69,0,0,0,2.89-.62,6,6,0,0,0,2.18-1.75,7.07,7.07,0,0,0,1-1.52,10.93,10.93,0,0,0,.17-2.19l.07-2.43V466c0-.58,0-1.37-.09-2.36s-.1-1.62-.14-1.85a.69.69,0,0,0-.34-.51,2.54,2.54,0,0,0-1.12-.16l-1.83,0-.19-.18V460l.17-.17a28.36,28.36,0,0,0,7-1.63l.41.28q-.24,2.85-.24,7.23v3.82c0,.21,0,2,.11,5.31a7.7,7.7,0,0,0,.23,2.24,1.11,1.11,0,0,0,.51.57,6.22,6.22,0,0,0,1.93.16h.6l.2.18v.86l-.17.2c-2-.12-3.41-.18-4.1-.18-.89,0-1.91.06-3.06.16l-.2-.18c.09-1.47.15-2.72.2-3.75a34.1,34.1,0,0,0-3.13,2.84,5.13,5.13,0,0,1-1.93,1.13,8.45,8.45,0,0,1-2.86.46,7.8,7.8,0,0,1-3.79-.77,4.4,4.4,0,0,1-1.92-2.13,13.66,13.66,0,0,1-.56-4.68l0-1.71V466c0-.58,0-1.37-.09-2.36s-.1-1.62-.14-1.85a.65.65,0,0,0-.33-.51,2.59,2.59,0,0,0-1.13-.16l-1.82,0-.2-.18V460l.18-.17A28.16,28.16,0,0,0,370.71,458.17Z"/><path class="cls-1" d="M400,458.17l.41.28c-.08.84-.15,2.33-.19,4.47l1.62-2.06a13.25,13.25,0,0,1,1.42-1.57,4.5,4.5,0,0,1,1.45-.86,4.9,4.9,0,0,1,1.69-.3,4.22,4.22,0,0,1,1.8.39l.15.3c-.23,1.93-.36,3.62-.39,5.08h-1a2.93,2.93,0,0,0-2.8-2,3.51,3.51,0,0,0-2.35.86,4.14,4.14,0,0,0-1.33,2.15,13.41,13.41,0,0,0-.34,3.26v2.41c0,.43,0,1.5.09,3.19a28.42,28.42,0,0,0,.18,2.93,1.11,1.11,0,0,0,.31.57,1,1,0,0,0,.54.25c.22,0,1.25.12,3.09.22l.2.17v.91l-.2.2q-2.88-.18-6-.18c-1.66,0-3.4.06-5.2.18l-.2-.2v-.91l.2-.17c1.4-.09,2.19-.15,2.37-.2a1,1,0,0,0,.48-.27,1.23,1.23,0,0,0,.28-.63c.05-.28.11-1.21.17-2.8s.1-2.78.1-3.59V466c0-.58,0-1.37-.09-2.36s-.1-1.62-.14-1.85a.68.68,0,0,0-.33-.51,2.59,2.59,0,0,0-1.13-.16l-1.82,0-.2-.18V460l.17-.17A28.14,28.14,0,0,0,400,458.17Z"/><path class="cls-1" d="M430,475.66l-.69,1.56a12.65,12.65,0,0,1-7.19,2.32,12.16,12.16,0,0,1-4.93-1,8.33,8.33,0,0,1-3.8-3.45,11.2,11.2,0,0,1-1.46-5.86,14.14,14.14,0,0,1,.56-4.11,10,10,0,0,1,1.19-2.72,9.17,9.17,0,0,1,2.09-2,13.33,13.33,0,0,1,3.12-1.74,9.71,9.71,0,0,1,3.56-.65,8.52,8.52,0,0,1,4.59,1.23,6.76,6.76,0,0,1,2.79,3.13,10.43,10.43,0,0,1,.8,4.06,11.09,11.09,0,0,1-.07,1.3l-.23.24a24.82,24.82,0,0,1-4,.43c-1.67.07-2.77.11-3.3.11h-7c0,3,.79,5.2,2.26,6.61a7.52,7.52,0,0,0,5.42,2.13,8.2,8.2,0,0,0,2.92-.52,18.65,18.65,0,0,0,3-1.45Zm-13.91-8.88c.26.05,1.27.1,3,.16s3,.08,3.87.08a31.79,31.79,0,0,0,3.67-.11c0-.34,0-.61,0-.8a7.69,7.69,0,0,0-1.37-5,4.6,4.6,0,0,0-3.73-1.64,4.81,4.81,0,0,0-4,1.85A8.76,8.76,0,0,0,416.1,466.78Z"/><path class="cls-1" d="M454.6,458.17l.41.28q-.24,2.85-.24,7.23v4.9c0,.32,0,1.34.09,3.07a26.85,26.85,0,0,0,.19,3,1.24,1.24,0,0,0,.29.62.86.86,0,0,0,.48.25c.18,0,1,.1,2.34.19l.19.17v.91l-.17.2c-1.81-.12-3.55-.18-5.23-.18s-3.4.06-5.2.18l-.2-.2v-.91l.2-.17c1.4-.09,2.19-.15,2.37-.2a1,1,0,0,0,.48-.27,1.15,1.15,0,0,0,.28-.63c.05-.28.11-1.21.17-2.8s.1-2.78.1-3.59V466c0-.58,0-1.37-.09-2.36s-.1-1.62-.14-1.85a.68.68,0,0,0-.33-.51,2.59,2.59,0,0,0-1.13-.16l-1.82,0-.2-.18V460l.18-.17A28.16,28.16,0,0,0,454.6,458.17Zm-1.84-9.7a2.45,2.45,0,0,1,0,4.89,2.41,2.41,0,0,1-1.73-.71,2.32,2.32,0,0,1-.73-1.72,2.48,2.48,0,0,1,2.46-2.46Z"/><path class="cls-1" d="M468.5,458.17l.41.28c-.08,1-.14,2.25-.17,3.82q1.74-1.42,3.3-2.91a3.94,3.94,0,0,1,.85-.6,7.18,7.18,0,0,1,1.34-.42,8.67,8.67,0,0,1,1.91-.21,8,8,0,0,1,3.2.67,6.49,6.49,0,0,1,2.34,1.59,5.14,5.14,0,0,1,1.09,2.19,13,13,0,0,1,.31,3.1v3.82c0,.24,0,2,.11,5.4a4.27,4.27,0,0,0,.45,2.45c.28.26,1.17.39,2.69.39l.18.17v.93l-.18.18c-1.83-.12-3.08-.18-3.73-.18-.38,0-1.43.06-3.17.18l-.26-.24q.29-2.82.29-7.35v-2.85c0-1.7,0-2.93-.12-3.68a4.55,4.55,0,0,0-.73-2,4.13,4.13,0,0,0-1.63-1.44,5.51,5.51,0,0,0-2.43-.51,7.24,7.24,0,0,0-1.93.23,6.26,6.26,0,0,0-1.8.94,6.82,6.82,0,0,0-1.47,1.32,2.77,2.77,0,0,0-.58,1.15,16.75,16.75,0,0,0-.1,2.27v3.77c0,.32,0,1.34.09,3.07s.12,2.74.18,3a1.33,1.33,0,0,0,.3.62.87.87,0,0,0,.47.25c.19,0,1,.1,2.35.19l.19.17v.91l-.17.2c-1.81-.12-3.55-.18-5.23-.18s-3.4.06-5.2.18l-.2-.2v-.91l.2-.17c1.4-.09,2.19-.15,2.37-.2a1,1,0,0,0,.48-.27,1.23,1.23,0,0,0,.28-.63c.05-.28.11-1.21.17-2.8s.1-2.78.1-3.59V466c0-.58,0-1.37-.09-2.36s-.1-1.62-.14-1.85a.68.68,0,0,0-.33-.51,2.59,2.59,0,0,0-1.13-.16l-1.82,0-.2-.18V460l.17-.17A28.14,28.14,0,0,0,468.5,458.17Z"/><path class="cls-1" d="M503.52,472.47h.94l.19.19a28.54,28.54,0,0,0,.22,3.13,4.73,4.73,0,0,0,2.32,1.66,9.07,9.07,0,0,0,3.25.64,5.32,5.32,0,0,0,3.68-1.24,3.84,3.84,0,0,0,1.38-3,2.71,2.71,0,0,0-.5-1.62,3.7,3.7,0,0,0-1.51-1.13,24.55,24.55,0,0,0-3.61-1c-1.49-.34-2.53-.62-3.12-.81a5.29,5.29,0,0,1-1.72-1,4.53,4.53,0,0,1-1.26-1.7,5.71,5.71,0,0,1-.43-2.22,5.56,5.56,0,0,1,2.31-4.66,9.3,9.3,0,0,1,5.76-1.74,13.88,13.88,0,0,1,3.17.4,17.53,17.53,0,0,1,2.6.77l.2.3a34.89,34.89,0,0,0-.22,4.56l-.2.19h-.86l-.2-.19a10.46,10.46,0,0,0-.24-1.86,2.79,2.79,0,0,0-.78-1.15,4.92,4.92,0,0,0-1.78-1,7,7,0,0,0-2.43-.42,5.59,5.59,0,0,0-2.22.39,3.25,3.25,0,0,0-2,3.1,3.13,3.13,0,0,0,.34,1.48,2.6,2.6,0,0,0,1,1.05,5,5,0,0,0,1.45.57l2.37.61A33.6,33.6,0,0,1,516,468a4.28,4.28,0,0,1,2,1.64,4.72,4.72,0,0,1,.72,2.66,6.6,6.6,0,0,1-2.47,5.14,9.36,9.36,0,0,1-6.36,2.14,23.85,23.85,0,0,1-3.39-.3,35.09,35.09,0,0,1-3.46-.67l-.11-.28.22-1.46a12.33,12.33,0,0,0,.13-1.35c0-.46,0-1.42,0-2.88Z"/><path class="cls-1" d="M522.8,461.82v-.57L523,461a29.05,29.05,0,0,0,3.29-1.42q0-5.65-.13-6.59a18.77,18.77,0,0,0,3.67-1.67l.52.43c-.14.92-.32,3.56-.52,7.94.72,0,1.5,0,2.34,0a34.79,34.79,0,0,0,3.67-.13l.15.16-.41,1.82-.18.19-2.45,0-3.12,0-.13,8.83a35.58,35.58,0,0,0,.14,4,2.24,2.24,0,0,0,.78,1.48,2.89,2.89,0,0,0,1.9.53,5,5,0,0,0,2.69-.76l.52.78c-.35.25-1.18,1-2.49,2.17a5.42,5.42,0,0,1-2.3.52c-3.26,0-4.89-1.57-4.89-4.73,0-1.15,0-2.14.09-2.95,0-.24,0-.5,0-.75v-9h-.89c-.65,0-1.39,0-2.23.09Z"/><path class="cls-1" d="M538.92,490.62a23.52,23.52,0,0,0,1.1-3.34h.53a3.08,3.08,0,0,0,2.29,1.15,3.29,3.29,0,0,0,2.68-1.53,35.1,35.1,0,0,0,3.22-6.75c-.55-1.55-1.1-3-1.67-4.39l-3.44-8.54c-.37-.89-.9-2.15-1.61-3.79a23.45,23.45,0,0,0-1.27-2.71,2.47,2.47,0,0,0-.53-.47,5.62,5.62,0,0,0-1.76-.41l-.17-.17v-.87l.19-.17c1.67.1,3.37.15,5.12.15,2.06,0,3.64,0,4.75-.15l.18.17v.87l-.15.17-1.34.1a2.45,2.45,0,0,0-1.37.35.84.84,0,0,0-.27.61,13.65,13.65,0,0,0,.68,2.4c.44,1.35.88,2.55,1.3,3.59l1.36,3.39q1.35,3.33,2.09,4.92l1.15-2.54c.4-.92,1-2.33,1.73-4.21l1.8-4.6a19.18,19.18,0,0,0,.79-2.21,3,3,0,0,0,.1-.63.66.66,0,0,0-.35-.65,6,6,0,0,0-1.54-.3l-.91-.13-.15-.18v-.95l.18-.17c1.21.1,2.65.15,4.31.15a35.07,35.07,0,0,0,3.65-.15l.17.17v.95l-.17.18a3.6,3.6,0,0,0-1.28.22,2.4,2.4,0,0,0-.91.69,17.52,17.52,0,0,0-1.57,2.81q-1.12,2.31-2.25,4.78l-2.13,4.67-5,11.71a32.65,32.65,0,0,1-1.62,3.25,5.87,5.87,0,0,1-5.32,3.28A5,5,0,0,1,538.92,490.62Z"/><path class="cls-1" d="M571.65,446.72l.41.26q-.24,2.49-.24,10v13.6c0,.32,0,1.34.09,3.07a28.16,28.16,0,0,0,.18,3,1.43,1.43,0,0,0,.29.62.86.86,0,0,0,.48.25c.19,0,1,.1,2.35.19l.19.17v.91l-.17.2c-1.81-.12-3.55-.18-5.23-.18s-3.4.06-5.21.18l-.19-.2v-.91l.19-.17c1.41-.09,2.2-.15,2.38-.2a.9.9,0,0,0,.47-.27,1.16,1.16,0,0,0,.29-.63c.05-.28.11-1.21.17-2.8s.1-2.78.1-3.59V459l-.09-4.6c0-1.61-.09-2.72-.14-3.34a2.92,2.92,0,0,0-.21-1.11.8.8,0,0,0-.45-.26,18.89,18.89,0,0,0-2.63-.09l-.19-.19v-.91l.17-.2A28,28,0,0,0,571.65,446.72Z"/><path class="cls-1" d="M597.28,475.66l-.69,1.56a12.65,12.65,0,0,1-7.18,2.32,12.21,12.21,0,0,1-4.94-1,8.26,8.26,0,0,1-3.79-3.45,11.11,11.11,0,0,1-1.47-5.86,13.79,13.79,0,0,1,.57-4.11,10,10,0,0,1,1.18-2.72,9.17,9.17,0,0,1,2.09-2,13.6,13.6,0,0,1,3.13-1.74,9.65,9.65,0,0,1,3.55-.65,8.52,8.52,0,0,1,4.59,1.23,6.7,6.7,0,0,1,2.79,3.13,10.43,10.43,0,0,1,.8,4.06c0,.44,0,.88-.06,1.3l-.24.24a24.68,24.68,0,0,1-4,.43c-1.66.07-2.76.11-3.3.11h-7c0,3,.78,5.2,2.25,6.61a7.55,7.55,0,0,0,5.43,2.13,8.19,8.19,0,0,0,2.91-.52,18.72,18.72,0,0,0,3-1.45Zm-13.9-8.88c.26.05,1.26.1,3,.16s3,.08,3.88.08a31.56,31.56,0,0,0,3.66-.11c0-.34,0-.61,0-.8a7.69,7.69,0,0,0-1.36-5,4.63,4.63,0,0,0-3.74-1.64,4.81,4.81,0,0,0-4,1.85A8.76,8.76,0,0,0,583.38,466.78Z"/></svg>