<svg id="Layer_1" data-name="Layer 1" xmlns="http://www.w3.org/2000/svg" viewBox="0 0 25.77 20.02"><defs><style>.cls-1{fill:#231f20;}.cls-2{fill:#1d1d1b;}</style></defs><path class="cls-1" d="M2,3.18V3.05c.3,0,.34-.09.28-.28S2.11,2.35,2,2.08H1c-.08.22-.15.4-.21.59s-.06.34.3.38v.13H0V3.05c.31,0,.38-.08.55-.5l1-2.46.17,0c.31.83.62,1.67.94,2.5.15.41.22.46.53.5v.13ZM1.51.7h0c-.15.38-.31.79-.45,1.17h.88Z"/><path class="cls-1" d="M6.52.26c-.29,0-.41.09-.43.28s0,.32,0,.75v.37a1.69,1.69,0,0,1-.37,1.25,1.21,1.21,0,0,1-.88.34A1.29,1.29,0,0,1,4,3a1.3,1.3,0,0,1-.44-1.15V.75c0-.43,0-.46-.42-.49V.12H4.45V.26C4.07.28,4,.31,4,.75v1c0,.77.32,1.2.91,1.2s.92-.55.92-1.33V1.29a4,4,0,0,0,0-.76c0-.18-.14-.25-.47-.27V.12H6.52Z"/><path class="cls-1" d="M8.46.86C8.38.55,8.23.21,7.82.21a.5.5,0,0,0-.53.51c0,.34.22.5.62.69s.83.42.83.94a1,1,0,0,1-1.09.91,1.49,1.49,0,0,1-.48-.08,2.55,2.55,0,0,1-.24-.1c0-.1-.1-.52-.13-.75l.14,0c.08.3.32.79.81.79a.52.52,0,0,0,.56-.56c0-.34-.26-.5-.63-.69s-.79-.4-.79-.92a.9.9,0,0,1,1-.86,2,2,0,0,1,.62.11c0,.17,0,.36.09.67Z"/><path class="cls-1" d="M11.64.88a1.06,1.06,0,0,0-.17-.44c-.08-.11-.16-.15-.53-.15h-.33v2.3c0,.37.05.43.5.46v.13H9.69V3.05c.44,0,.48-.08.48-.46V.29H9.89c-.42,0-.52.05-.58.15a1.42,1.42,0,0,0-.17.44H9C9,.57,9,.26,9.05,0h.1c.08.12.14.12.28.12h2A.26.26,0,0,0,11.63,0h.1c0,.22,0,.58,0,.86Z"/><path class="cls-1" d="M15,3.22h-.17A.9.9,0,0,1,14,2.78c-.16-.23-.32-.51-.47-.74s-.17-.19-.42-.19H13v.73c0,.4,0,.43.43.47v.13h-1.3V3.05c.39,0,.43-.07.43-.47V.71c0-.4,0-.42-.41-.45V.12h1.23a1.38,1.38,0,0,1,.78.16.7.7,0,0,1,.32.62.85.85,0,0,1-.61.8c.09.15.28.46.43.68a3.23,3.23,0,0,0,.39.5.59.59,0,0,0,.33.21ZM13.17,1.69a.84.84,0,0,0,.53-.13A.69.69,0,0,0,14,1a.64.64,0,0,0-.69-.7.44.44,0,0,0-.26,0s0,.08,0,.2V1.69Z"/><path class="cls-1" d="M17.05,3.18V3.05c.3,0,.34-.09.28-.28l-.26-.69H16c-.09.22-.15.4-.21.59s-.07.34.3.38v.13H15.07V3.05c.31,0,.38-.08.55-.5l1-2.46.16,0c.31.83.62,1.67.94,2.5.16.41.22.46.54.5v.13ZM16.58.7h0c-.16.38-.31.79-.45,1.17H17Z"/><path class="cls-1" d="M20.92,2.42c0,.16-.13.62-.18.76H18.52V3.05C18.93,3,19,3,19,2.57V.72c0-.4,0-.43-.43-.46V.12h1.31V.26c-.38,0-.43,0-.43.46V2.56c0,.25,0,.34.11.39A1.11,1.11,0,0,0,20,3a.66.66,0,0,0,.53-.15,1.23,1.23,0,0,0,.27-.47Z"/><path class="cls-1" d="M21.15,3.18V3.05c.4,0,.44-.06.44-.47V.72c0-.4,0-.43-.44-.46V.12h1.32V.26c-.39,0-.43.06-.43.46V2.58c0,.41,0,.44.43.47v.13Z"/><path class="cls-1" d="M24.55,3.18V3.05c.3,0,.34-.09.28-.28s-.15-.42-.26-.69h-1c-.08.22-.15.4-.21.59s-.06.34.3.38v.13H22.57V3.05c.31,0,.38-.08.55-.5l1-2.46.17,0c.31.83.62,1.67.94,2.5.15.41.22.46.53.5v.13ZM24.08.7h0c-.15.38-.31.79-.45,1.17h.88Z"/><path class="cls-1" d="M3.36,19.14a5.7,5.7,0,0,1-.28.75,4.75,4.75,0,0,1-.93.13A1.61,1.61,0,0,1,.36,18.46a1.71,1.71,0,0,1,1.91-1.64,4.38,4.38,0,0,1,.9.13c0,.27.07.47.1.74l-.14,0a.89.89,0,0,0-1-.73A1.27,1.27,0,0,0,.89,18.36a1.33,1.33,0,0,0,1.3,1.48c.5,0,.77-.27,1-.75Z"/><path class="cls-1" d="M5.54,20v-.14c.3,0,.34-.08.27-.27s-.15-.42-.25-.69h-1c-.08.21-.14.4-.2.58s-.07.34.3.38V20H3.55v-.14c.32,0,.38-.08.55-.5l1-2.45.16,0c.31.83.62,1.67.94,2.49.16.42.22.47.53.5V20Zm-.48-2.49h0c-.15.39-.3.79-.45,1.17h.89Z"/><path class="cls-1" d="M10.38,17c-.27,0-.39.07-.41.28s0,.37,0,.8V20H9.79L7.67,17.54h0v1.15a5.36,5.36,0,0,0,0,.79c0,.25.13.31.46.33V20H7v-.14c.27,0,.4-.08.42-.31a6,6,0,0,0,0-.81v-1c0-.34,0-.37-.11-.48A.49.49,0,0,0,6.94,17v-.14h.74l2.05,2.32h0v-1.1c0-.43,0-.65,0-.78S9.57,17,9.23,17v-.14h1.15Z"/><path class="cls-1" d="M12.32,18.3c.49.07.87.27.87.75a.8.8,0,0,1-.46.71,2.11,2.11,0,0,1-1,.19H10.66v-.14c.41,0,.45-.06.45-.45V17.49c0-.41,0-.44-.41-.46v-.14H12a1.25,1.25,0,0,1,.74.16.67.67,0,0,1,.27.54.76.76,0,0,1-.67.7Zm-.56-.06c.53,0,.74-.2.74-.59a.56.56,0,0,0-.62-.61.54.54,0,0,0-.27.06s-.06.09-.06.23v.91Zm-.21,1.1c0,.35.1.44.4.44a.66.66,0,0,0,.72-.68c0-.48-.33-.69-.92-.69h-.2Z"/><path class="cls-1" d="M16,19.19c0,.17-.12.61-.16.76H13.49v-.14c.44,0,.48-.07.48-.46V17.5c0-.43,0-.44-.41-.47v-.14h2.18c0,.12,0,.43,0,.69l-.14,0a1.43,1.43,0,0,0-.16-.4c-.07-.11-.21-.14-.54-.14h-.35c-.16,0-.17,0-.17.15v1.06h.44c.43,0,.46,0,.52-.36h.15v.93h-.15c-.06-.35-.1-.37-.52-.37h-.44v.86c0,.23,0,.33.11.39a1.34,1.34,0,0,0,.5.05c.35,0,.49,0,.6-.15a1.44,1.44,0,0,0,.25-.45Z"/><path class="cls-1" d="M19.18,20H19a.92.92,0,0,1-.81-.43c-.16-.23-.32-.52-.46-.74s-.17-.19-.42-.19h-.14v.73c0,.4,0,.43.43.46V20H16.3v-.14c.39,0,.43-.06.43-.46V17.48c0-.4,0-.43-.41-.45v-.14h1.23a1.36,1.36,0,0,1,.78.16.68.68,0,0,1,.32.62.86.86,0,0,1-.6.8c.08.15.28.46.42.68a3.74,3.74,0,0,0,.39.49.64.64,0,0,0,.34.22Zm-1.79-1.53a.77.77,0,0,0,.52-.14.65.65,0,0,0,.26-.58.63.63,0,0,0-.69-.69.46.46,0,0,0-.26.05s0,.08,0,.2v1.16Z"/><path class="cls-1" d="M22.22,20h-.17a.93.93,0,0,1-.82-.43c-.16-.23-.32-.52-.46-.74s-.17-.19-.42-.19h-.14v.73c0,.4.05.43.43.46V20h-1.3v-.14c.39,0,.44-.06.44-.46V17.48c0-.4-.05-.43-.42-.45v-.14h1.23a1.41,1.41,0,0,1,.79.16.69.69,0,0,1,.31.62.86.86,0,0,1-.6.8c.08.15.28.46.42.68a3.74,3.74,0,0,0,.39.49.64.64,0,0,0,.34.22Zm-1.79-1.53a.77.77,0,0,0,.52-.14.65.65,0,0,0,.26-.58.63.63,0,0,0-.69-.69.46.46,0,0,0-.26.05s-.05.08-.05.2v1.16Z"/><path class="cls-1" d="M24.3,20v-.14c.3,0,.35-.08.28-.27s-.15-.42-.26-.69h-1c-.08.21-.15.4-.21.58s-.06.34.3.38V20H22.32v-.14c.31,0,.38-.08.55-.5l1-2.45.17,0c.31.83.62,1.67.94,2.49.15.42.22.47.53.5V20Zm-.47-2.49h0l-.45,1.17h.88Z"/><path class="cls-2" d="M4.54,4.37l.16,0H4.5Z"/><path class="cls-2" d="M4.12,4.22V15.71H21.64V4.22Zm8,.11h.32c0,.12-.11.14-.18.18h0L10.16,5.88a.53.53,0,0,1-.5.11l1.86-1.28h0l.39-.26Zm-.79,0a12.92,12.92,0,0,1-1.19.84,4.94,4.94,0,0,1-.83.5V4.34ZM9,4.31c.12.16.12.16.12.77v.77c.11.07.16,0,.21,0l.21-.12,1.47-.93,0,0h0l.41-.32a.18.18,0,0,0,.13-.08.23.23,0,0,1,.2,0l-.68.43v0l0,0h0c-.06.17-.22.23-.36.33-.41.28-.83.54-1.27.86a.63.63,0,0,0,.68-.11c.65-.45,1.33-.87,2-1.3a1.28,1.28,0,0,1,.3-.17h0l.11,0c.06,0,.1-.09.19,0a1.76,1.76,0,0,1,0,.4,8.26,8.26,0,0,0-.91.64,5.73,5.73,0,0,0-1,.69c.62,0,1.23,0,1.82,0a.18.18,0,0,1,0,.23H9Zm3.07,4.45s0,0,0,.06a.32.32,0,0,1,.2.14.26.26,0,0,1,.21.14.24.24,0,0,1,.21.15l0,0s0,0,0,0h0a.28.28,0,0,1-.21-.13A.31.31,0,0,1,12.31,9a.32.32,0,0,1-.22-.14,11.77,11.77,0,0,1-1.21-.77h0l0,0,0,0h0c-.2,0-.39-.14-.64-.05.62.52,1.32.92,2,1.43l.3.32,0,0H11.8c-.81-.5-1.55-1.06-2.36-1.52a.26.26,0,0,0-.28-.11v1.7A5.93,5.93,0,0,1,9,7.7h3.72c.07.06.05.11,0,.21H11.29c-.12,0-.26,0-.36.07A13.37,13.37,0,0,0,12.11,8.76ZM12,9.3h0L10.33,8.1c.24-.06.24-.06.39,0l.51.33h0l1.56,1a.67.67,0,0,1,0,.37Zm-4.32-5V5.71c-.16,0-.23-.15-.36-.18a12,12,0,0,0-1.27-.82l-.49-.36Zm-3.43,0,.12,0,.14-.14c.27.05.56-.09.84.08A3,3,0,0,0,6,4.77a10.65,10.65,0,0,0,1.27.83,1.24,1.24,0,0,0,.58.31V4.35a5.55,5.55,0,0,1,.1,2H4.28c-.07-.06,0-.12,0-.21.59-.06,1.19,0,1.8,0A.86.86,0,0,1,6,6a.22.22,0,0,0-.22-.15.21.21,0,0,0-.21-.14.2.2,0,0,0-.21-.14.2.2,0,0,0-.21-.14A.2.2,0,0,0,5,5.25a.2.2,0,0,0-.21-.14A.2.2,0,0,0,4.53,5V4.9l.06-.05L4.25,4.6A.24.24,0,0,1,4.27,4.37Zm0,.61c.45.35.94.65,1.41,1,0,0,0,.06,0,.06H4.23C4.28,5.65,4.14,5.31,4.31,5ZM4.23,6.53H8.1V4.34h.77V6.51h3.91v1H8.88V9.8H8.12V7.55H4.25C4.21,7.2,4.24,6.88,4.23,6.53Zm0,2.77c.12-.15.31-.21.44-.34A9.2,9.2,0,0,0,5.79,8.2.62.62,0,0,0,6.11,8a4,4,0,0,0-.91,0H4.31a.14.14,0,0,1,0-.21H8V9.81A1.48,1.48,0,0,1,7.84,9c0-.27,0-.55,0-.85-.23,0-.35.18-.5.27L6.44,9,6.39,9h0c-.33.28-.72.45-1,.73-.09,0-.15.13-.26,0l.33-.27.9-.59h0l0,0L7.63,8l0-.06H6.85c-.68.51-1.42,1-2.11,1.54-.18.06-.29.23-.48.29A1.73,1.73,0,0,1,4.23,9.3Zm1.5-1.16a8.69,8.69,0,0,0-1.14.76l-.33.18V8c.47,0,1,0,1.44,0C5.75,8.06,5.72,8.11,5.73,8.14ZM4.81,9.52l1.9-1.34a.6.6,0,0,1,.56-.11C6.62,8.55,6,9,5.37,9.46a2.4,2.4,0,0,0-.31.21.59.59,0,0,1-.56.13C4.57,9.66,4.72,9.63,4.81,9.52Zm16.73,6H4.24V10A2.77,2.77,0,0,1,5,10a.55.55,0,0,0,.44-.16c.67-.41,1.34-.85,2-1.31l.27-.14c.07.53,0,1.05,0,1.58H9.25c.09-.14,0-.31,0-.47s0-.6,0-.91c0-.07-.05-.17.07-.21l2.36,1.59h1.19a3,3,0,0,0,0-.73,7.43,7.43,0,0,0-.75-.49l-.93-.65c.59-.07,1.13,0,1.68-.06V6h-1.7A8.82,8.82,0,0,1,12,5.46a4.91,4.91,0,0,0,.91-.63c.15-.13,0-.31.1-.48h8.57Z"/><path class="cls-2" d="M4.7,4.34a3.69,3.69,0,0,1,.67,0A1.38,1.38,0,0,0,4.7,4.34Z"/><path class="cls-2" d="M6.88,6a.76.76,0,0,1-.56,0C6.22,6,6.13,5.87,6,6a1.32,1.32,0,0,0,1.13.13L4.54,4.37h0C5.23,5,6.09,5.43,6.88,6Z"/><path class="cls-2" d="M10,13c-.21-.2-.48-.28-.65-.48.1-.26.33-.45.34-.78l-.8.27c-.16-.24-.18-.54-.36-.8-.2.26-.16.58-.32.82a7.63,7.63,0,0,0-.85-.26c.09.31.34.49.45.76a6.84,6.84,0,0,0-.73.54c.32.08.6,0,.88.12,0,.28,0,.55-.07.88.3-.18.44-.45.69-.62l.61.6c.07-.34-.07-.62,0-.9C9.39,13.06,9.69,13.19,10,13Zm-1,.7c-.18-.1-.28-.29-.47-.41-.2.08-.28.33-.51.43,0-.23,0-.43.05-.65-.21-.1-.45,0-.65-.12.15-.16.36-.21.51-.38,0-.22-.24-.34-.32-.56.23,0,.42.18.65.18.13-.19.11-.43.23-.61.15.17.12.43.3.59L9.46,12l-.31.6c.12.17.33.22.49.39a5.62,5.62,0,0,0-.67.1C8.92,13.28,9.05,13.48,9,13.71Z"/><path class="cls-2" d="M16.71,7.24c.07.15,0,.29.08.39s.18-.18.3-.19.14.23.3.2-.06-.27,0-.39.29,0,.38-.12c-.07-.14-.26-.14-.3-.29s.09-.19.13-.28c-.14-.14-.27.08-.39,0s-.06-.27-.2-.33-.07.27-.18.33-.25-.13-.39,0l.16.29c-.06.13-.23.15-.24.29S16.65,7.16,16.71,7.24Zm0-.49c.15,0,.29,0,.32-.24.09.15.15.27.33.21,0,.14-.06.28.2.33-.23,0-.37.1-.31.38-.17-.23-.25-.1-.36-.06a2.07,2.07,0,0,0,0-.22l-.19-.09C16.72,7,16.87,6.91,16.72,6.75Z"/><path class="cls-2" d="M14.76,10.05c.06.13,0,.27.09.36s.15-.17.27-.18.15.23.31.21,0-.27,0-.39.31,0,.39-.14-.21-.13-.28-.24.14-.21.1-.33-.25.07-.36,0-.07-.27-.21-.33-.08.27-.21.35-.23-.13-.35,0,.13.19.14.3-.22.14-.24.29S14.67,10,14.76,10.05Zm0-.5c.18,0,.29-.05.33-.21.1.09.13.25.33.15,0,.16,0,.29.15.36-.17,0-.33.06-.26.34-.15-.18-.26-.13-.36,0,0-.1,0-.17,0-.23s-.13,0-.19-.09S14.94,9.72,14.75,9.55Z"/><path class="cls-2" d="M19,8.71c.05.11,0,.24.07.35s.17-.15.27-.19.16.22.31.23,0-.27,0-.41.27,0,.38-.1c0-.17-.26-.15-.3-.29s.16-.2.08-.36c-.11,0-.22.11-.36,0s-.05-.24-.19-.32c-.1.08-.09.23-.17.33s-.27-.14-.39,0l.15.26c0,.16-.23.15-.23.31S18.87,8.62,19,8.71Zm0-.55c.15.06.23,0,.29-.17.09.09.12.27.31.13,0,.16-.1.34.12.4l-.18.05c-.08.07,0,.15-.08.21L19.3,8.7l-.14.1c-.08-.05,0-.16-.08-.21s-.13,0-.19-.06A.42.42,0,0,0,19,8.16Z"/><path class="cls-2" d="M17.53,12.5c0-.11.17-.19.1-.33s-.23.08-.36,0-.05-.27-.2-.33-.09.25-.17.34-.24-.08-.36-.05.13.22.12.34-.23.14-.25.29.26,0,.35.11,0,.24.07.34.18-.14.29-.17l.29.25c.08-.16,0-.3.05-.43s.28,0,.38-.12C17.77,12.65,17.62,12.64,17.53,12.5Zm-.19.28c-.07.06,0,.14-.06.2s-.1-.07-.17-.06L17,13c-.08-.06,0-.16-.1-.23l-.18,0c0-.12.24-.2,0-.36.17,0,.31,0,.3-.24.13.17.19.32.38.2l0,.2c0,.1.14.09.14.19Z"/><path class="cls-2" d="M18.59,10.19a1.2,1.2,0,0,1,.38,0,1.56,1.56,0,0,1,.1-.4c-.14,0-.22-.12-.34-.29,0,.25-.2.23-.33.37C18.55,9.92,18.54,10.07,18.59,10.19Zm.23-.37c.07.06,0,.13,0,.19s-.13,0-.16-.1S18.73,9.79,18.82,9.82Z"/><polygon class="cls-2" points="12.13 8.84 12.12 8.84 12.13 8.85 12.13 8.84"/></svg>