<svg id="Layer_1" data-name="Layer 1" xmlns="http://www.w3.org/2000/svg" viewBox="0 0 17.48 19.71"><defs><style>.cls-1{fill:#231f20;}.cls-2{fill:#f6f6f6;}.cls-3{fill:#010101;}.cls-4{fill:#040404;}.cls-5{fill:#030403;}.cls-6{fill:#030404;}</style></defs><path class="cls-1" d="M3.66,2.32a3.81,3.81,0,0,1-.28.75,4.48,4.48,0,0,1-.92.14A1.62,1.62,0,0,1,.66,1.64,1.71,1.71,0,0,1,2.58,0a3.72,3.72,0,0,1,.9.14c0,.26.07.47.1.73L3.44.9a.89.89,0,0,0-1-.72A1.27,1.27,0,0,0,1.2,1.54,1.33,1.33,0,0,0,2.5,3c.5,0,.77-.26,1-.75Z"/><path class="cls-1" d="M7.36.21c-.39,0-.43.06-.43.46V2.54c0,.4,0,.43.43.46v.13H6V3c.41,0,.45-.06.45-.46V1.62H4.83v.92c0,.4,0,.43.44.46v.13H4V3c.38,0,.42-.06.42-.46V.67c0-.4,0-.43-.43-.46V.07H5.24V.21c-.37,0-.41.06-.41.46v.74H6.48V.67c0-.4,0-.43-.42-.46V.07h1.3Z"/><path class="cls-1" d="M7.72,3.13V3c.4,0,.44-.06.44-.47V.68c0-.41,0-.44-.44-.47V.07H9V.21c-.39,0-.43.06-.43.47V2.53c0,.41,0,.44.43.47v.13Z"/><path class="cls-1" d="M12.76.21c-.27,0-.39.07-.41.29s0,.36,0,.8V3.18h-.15L10.05.73h0V1.88a5.58,5.58,0,0,0,0,.79c0,.24.13.3.46.33v.13H9.39V3c.27,0,.4-.08.42-.32a5.88,5.88,0,0,0,0-.8v-1c0-.35,0-.37-.11-.49A.55.55,0,0,0,9.32.21V.07h.74l2,2.33h0V1.3c0-.44,0-.65,0-.79S12,.23,11.61.21V.07h1.15Z"/><path class="cls-1" d="M14.76,3.13V3c.3,0,.34-.09.28-.28L14.78,2h-1c-.08.22-.15.4-.21.59s-.06.34.3.38v.13H12.78V3c.31,0,.38-.08.55-.5l1-2.46.17,0c.31.83.61,1.67.93,2.5.16.41.23.47.54.5v.13ZM14.29.65h0c-.16.39-.31.79-.45,1.17h.88Z"/><path class="cls-1" d="M1.65,17.29c.5.07.87.27.87.75a.79.79,0,0,1-.45.71,2.11,2.11,0,0,1-1,.19H0V18.8c.41,0,.44-.06.44-.46V16.47c0-.4,0-.43-.4-.45v-.14H1.32a1.23,1.23,0,0,1,.73.16.64.64,0,0,1,.27.54.76.76,0,0,1-.67.7Zm-.55-.06c.52,0,.74-.2.74-.59A.57.57,0,0,0,1.21,16a.52.52,0,0,0-.26.06s-.06.08-.06.23v.91Zm-.21,1.1c0,.35.1.44.4.44A.66.66,0,0,0,2,18.08c0-.47-.33-.68-.92-.68H.89Z"/><path class="cls-1" d="M5.36,18.17c0,.18-.12.62-.17.77H2.83V18.8c.44,0,.48-.08.48-.46V16.49c0-.43,0-.44-.42-.47v-.14H5.08c0,.12,0,.43,0,.69l-.15,0a1.13,1.13,0,0,0-.16-.41c-.07-.1-.2-.13-.53-.13H3.92c-.15,0-.16,0-.16.15v1.06H4.2c.43,0,.46,0,.52-.36h.15v.93H4.72c-.07-.35-.1-.37-.52-.37H3.76v.86c0,.22,0,.33.11.39a1.28,1.28,0,0,0,.49.05c.35,0,.5,0,.61-.15a1.77,1.77,0,0,0,.24-.46Z"/><path class="cls-1" d="M5.64,18.94V18.8c.39,0,.43-.06.43-.46V16.48c0-.41,0-.44-.43-.46v-.14H7V16c-.39,0-.43.05-.43.46v1.86c0,.4,0,.43.43.46v.14Z"/><path class="cls-1" d="M8.64,16c-.37,0-.41.05-.41.46v1.69a1.45,1.45,0,0,1-.44,1.26,1.31,1.31,0,0,1-.46.28l-.06-.15A.77.77,0,0,0,7.73,19a5.67,5.67,0,0,0,0-.91V16.48c0-.41,0-.44-.43-.46v-.14H8.64Z"/><path class="cls-1" d="M9,18.94V18.8c.39,0,.43-.06.43-.46V16.48c0-.41,0-.44-.43-.46v-.14h1.31V16c-.39,0-.43.05-.43.46v1.86c0,.4,0,.43.43.46v.14Z"/><path class="cls-1" d="M14,16c-.27,0-.38.06-.41.28s0,.36,0,.8V19h-.16l-2.11-2.46h0v1.15c0,.44,0,.66,0,.79s.13.31.46.33v.14H10.61V18.8c.28,0,.4-.08.42-.31a6,6,0,0,0,0-.81v-1c0-.34,0-.37-.1-.48a.51.51,0,0,0-.43-.17v-.14h.74l2.05,2.32h0V17.1c0-.44,0-.65,0-.78s-.13-.29-.48-.3v-.14H14Z"/><path class="cls-1" d="M17.48,17.65c-.28,0-.3.06-.3.35v.39a2.76,2.76,0,0,0,0,.44,5,5,0,0,1-1.12.18,1.64,1.64,0,0,1-1.83-1.58,1.71,1.71,0,0,1,1.9-1.63,3.92,3.92,0,0,1,1,.15c0,.16,0,.42.07.76l-.14,0a.86.86,0,0,0-1-.76,1.27,1.27,0,0,0-1.28,1.39,1.37,1.37,0,0,0,1.35,1.47.87.87,0,0,0,.42-.09.28.28,0,0,0,.16-.3v-.39c0-.34,0-.38-.52-.41v-.14h1.27Z"/><path class="cls-2" d="M4.94,6.43s0,0-.05,0l-.81-.13A.11.11,0,0,1,4,6.22l-.25-.54c-.05-.08-.08-.17-.14-.26l-.08.13c-.11.22-.23.44-.34.67a.14.14,0,0,1-.12.08l-.74.11c-.08,0-.07,0,0,.08l.55.59a.11.11,0,0,1,0,.12c0,.15-.05.29-.07.44s0,.3-.07.46L2.88,8l.64-.34a.12.12,0,0,1,.14,0L4.15,8a1.07,1.07,0,0,0,.27.12s0,0,0-.07c0-.27-.09-.54-.13-.8a.14.14,0,0,1,0-.14l.57-.57S5,6.46,4.94,6.43ZM4,7a.1.1,0,0,0,0,.12L4,7.41c0,.07,0,.09-.09,0a1.91,1.91,0,0,1-.28-.15.11.11,0,0,0-.13,0l-.38.21c0-.15,0-.28.06-.41a.18.18,0,0,0-.06-.19L3,6.73s-.06-.06,0-.09.06,0,.09,0l.29-.05a.11.11,0,0,0,.1-.07c.06-.13.13-.25.2-.4l.18.35A.22.22,0,0,0,4,6.57a2.57,2.57,0,0,1,.35.06Z"/><path class="cls-2" d="M5.07,5.67a.07.07,0,0,1,0-.07.19.19,0,0,0,0-.22,0,0,0,0,1,0-.06.07.07,0,0,1,.06,0c.09,0,.13,0,.16-.11s0,0,0,0,0,0,0,0,.07.12.15.11.09,0,.05.06-.09.19-.06.32C5.29,5.57,5.17,5.55,5.07,5.67Z"/><path class="cls-2" d="M5.64,7.91a.23.23,0,0,0-.08.23s0,.06,0,0a.24.24,0,0,0-.26,0c-.07,0,0-.05,0-.07a.23.23,0,0,0-.07-.18s0,0,0-.06,0,0,0,0a.17.17,0,0,0,.17-.12s0-.07.09,0a.22.22,0,0,0,.19.13S5.68,7.88,5.64,7.91Z"/><path class="cls-2" d="M5.82,6.05s0,0,0-.07,0,0,.06,0,.16-.1.21-.2l.06.09A.18.18,0,0,0,6.28,6c.06,0,.07,0,0,.06a.27.27,0,0,0-.08.22s0,.07-.06,0a.22.22,0,0,0-.22,0s-.07,0-.06,0A.17.17,0,0,0,5.82,6.05Z"/><path class="cls-2" d="M6.41,7c-.1.09-.09.19-.06.32a.27.27,0,0,0-.36,0C6,7.2,6,7.06,5.86,7a.28.28,0,0,0,.29-.22s0,.05,0,.07A.17.17,0,0,0,6.37,7S6.44,7,6.41,7Z"/><path class="cls-2" d="M15,4.46H1.53c-.08,0-.11,0-.11.1q0,4.44,0,8.87c0,.09,0,.1.11.1H15c.08,0,.1,0,.1-.09V4.55C15.1,4.47,15.08,4.46,15,4.46ZM14.67,13c0,.08,0,.1-.1.1H1.93c-.08,0-.1,0-.1-.1V5c0-.1,0-.11.11-.11H14.56c.09,0,.11,0,.11.1Z"/><path class="cls-3" d="M4.94,6.43s0,0-.05,0l-.81-.13A.11.11,0,0,1,4,6.22l-.25-.54c-.05-.08-.08-.17-.14-.26l-.08.13c-.11.22-.23.44-.34.67a.14.14,0,0,1-.12.08l-.74.11c-.08,0-.07,0,0,.08l.55.59a.11.11,0,0,1,0,.12c0,.15-.05.29-.07.44s0,.3-.07.46L2.88,8l.64-.34a.12.12,0,0,1,.14,0L4.15,8a1.07,1.07,0,0,0,.27.12s0,0,0-.07c0-.27-.09-.54-.13-.8a.14.14,0,0,1,0-.14l.57-.57S5,6.46,4.94,6.43ZM4,7a.1.1,0,0,0,0,.12L4,7.41c0,.07,0,.09-.09,0a1.91,1.91,0,0,1-.28-.15.11.11,0,0,0-.13,0l-.38.21c0-.15,0-.28.06-.41a.18.18,0,0,0-.06-.19L3,6.73s-.06-.06,0-.09.06,0,.09,0l.29-.05a.11.11,0,0,0,.1-.07c.06-.13.13-.25.2-.4l.18.35A.22.22,0,0,0,4,6.57a2.57,2.57,0,0,1,.35.06Z"/><path class="cls-3" d="M5.07,5.67a.07.07,0,0,1,0-.07.19.19,0,0,0,0-.22,0,0,0,0,1,0-.06.07.07,0,0,1,.06,0c.09,0,.13,0,.16-.11s0,0,0,0,0,0,0,0,.07.12.15.11.09,0,.05.06-.09.19-.06.32C5.29,5.57,5.17,5.55,5.07,5.67Z"/><path class="cls-3" d="M5.64,7.91a.23.23,0,0,0-.08.23s0,.06,0,0a.24.24,0,0,0-.26,0c-.07,0,0-.05,0-.07a.23.23,0,0,0-.07-.18s0,0,0-.06,0,0,0,0a.17.17,0,0,0,.17-.12s0-.07.09,0a.22.22,0,0,0,.19.13S5.68,7.88,5.64,7.91Z"/><path class="cls-3" d="M5.82,6.05s0,0,0-.07,0,0,.06,0,.16-.1.21-.2l.06.09A.18.18,0,0,0,6.28,6c.06,0,.07,0,0,.06a.27.27,0,0,0-.08.22s0,.07-.06,0a.22.22,0,0,0-.22,0s-.07,0-.06,0A.17.17,0,0,0,5.82,6.05Z"/><path class="cls-3" d="M6.41,7c-.1.09-.09.19-.06.32a.27.27,0,0,0-.36,0C6,7.2,6,7.06,5.86,7a.28.28,0,0,0,.29-.22s0,.05,0,.07A.17.17,0,0,0,6.37,7S6.44,7,6.41,7Z"/><path class="cls-3" d="M15,4.46H1.53c-.08,0-.11,0-.11.1q0,4.44,0,8.87c0,.09,0,.1.11.1H15c.08,0,.1,0,.1-.09V4.55C15.1,4.47,15.08,4.46,15,4.46ZM14.67,13c0,.08,0,.1-.1.1H1.93c-.08,0-.1,0-.1-.1V5c0-.1,0-.11.11-.11H14.56c.09,0,.11,0,.11.1Z"/><path class="cls-2" d="M4.94,6.43s0,0-.05,0l-.81-.13A.11.11,0,0,1,4,6.22l-.25-.54c-.05-.08-.08-.17-.14-.26l-.08.13c-.11.22-.23.44-.34.67a.14.14,0,0,1-.12.08l-.74.11c-.08,0-.07,0,0,.08l.55.59a.11.11,0,0,1,0,.12c0,.15-.05.29-.07.44s0,.3-.07.46L2.88,8l.64-.34a.12.12,0,0,1,.14,0L4.15,8a1.07,1.07,0,0,0,.27.12s0,0,0-.07c0-.27-.09-.54-.13-.8a.14.14,0,0,1,0-.14l.57-.57S5,6.46,4.94,6.43ZM4,7a.1.1,0,0,0,0,.12L4,7.41c0,.07,0,.09-.09,0a1.91,1.91,0,0,1-.28-.15.11.11,0,0,0-.13,0l-.38.21c0-.15,0-.28.06-.41a.18.18,0,0,0-.06-.19L3,6.73s-.06-.06,0-.09.06,0,.09,0l.29-.05a.11.11,0,0,0,.1-.07c.06-.13.13-.25.2-.4l.18.35A.22.22,0,0,0,4,6.57a2.57,2.57,0,0,1,.35.06Z"/><path class="cls-2" d="M5.07,5.67a.07.07,0,0,1,0-.07.19.19,0,0,0,0-.22,0,0,0,0,1,0-.06.07.07,0,0,1,.06,0c.09,0,.13,0,.16-.11s0,0,0,0,0,0,0,0,.07.12.15.11.09,0,.05.06-.09.19-.06.32C5.29,5.57,5.17,5.55,5.07,5.67Z"/><path class="cls-2" d="M5.64,7.91a.23.23,0,0,0-.08.23s0,.06,0,0a.24.24,0,0,0-.26,0c-.07,0,0-.05,0-.07a.23.23,0,0,0-.07-.18s0,0,0-.06,0,0,0,0a.17.17,0,0,0,.17-.12s0-.07.09,0a.22.22,0,0,0,.19.13S5.68,7.88,5.64,7.91Z"/><path class="cls-2" d="M5.82,6.05s0,0,0-.07,0,0,.06,0,.16-.1.21-.2l.06.09A.18.18,0,0,0,6.28,6c.06,0,.07,0,0,.06a.27.27,0,0,0-.08.22s0,.07-.06,0a.22.22,0,0,0-.22,0s-.07,0-.06,0A.17.17,0,0,0,5.82,6.05Z"/><path class="cls-2" d="M6.41,7c-.1.09-.09.19-.06.32a.27.27,0,0,0-.36,0C6,7.2,6,7.06,5.86,7a.28.28,0,0,0,.29-.22s0,.05,0,.07A.17.17,0,0,0,6.37,7S6.44,7,6.41,7Z"/><path class="cls-3" d="M4.94,6.43s0,0-.05,0l-.81-.13A.11.11,0,0,1,4,6.22l-.25-.54c-.05-.08-.08-.17-.14-.26l-.08.13c-.11.22-.23.44-.34.67a.14.14,0,0,1-.12.08l-.74.11c-.08,0-.07,0,0,.08l.55.59a.11.11,0,0,1,0,.12c0,.15-.05.29-.07.44s0,.3-.07.46L2.88,8l.64-.34a.12.12,0,0,1,.14,0L4.15,8a1.07,1.07,0,0,0,.27.12s0,0,0-.07c0-.27-.09-.54-.13-.8a.14.14,0,0,1,0-.14l.57-.57S5,6.46,4.94,6.43ZM4,7a.1.1,0,0,0,0,.12L4,7.41c0,.07,0,.09-.09,0a1.91,1.91,0,0,1-.28-.15.11.11,0,0,0-.13,0l-.38.21c0-.15,0-.28.06-.41a.18.18,0,0,0-.06-.19L3,6.73s-.06-.06,0-.09.06,0,.09,0l.29-.05a.11.11,0,0,0,.1-.07c.06-.13.13-.25.2-.4l.18.35A.22.22,0,0,0,4,6.57a2.57,2.57,0,0,1,.35.06Z"/><path class="cls-4" d="M5.64,7.91a.23.23,0,0,0-.08.23s0,.06,0,0a.24.24,0,0,0-.26,0c-.07,0,0-.05,0-.07a.23.23,0,0,0-.07-.18s0,0,0-.06,0,0,0,0a.17.17,0,0,0,.17-.12s0-.07.09,0a.22.22,0,0,0,.19.13S5.68,7.88,5.64,7.91Z"/><path class="cls-5" d="M6.41,7c-.1.09-.09.19-.06.32a.27.27,0,0,0-.36,0C6,7.2,6,7.06,5.86,7a.28.28,0,0,0,.29-.22s0,.05,0,.07A.17.17,0,0,0,6.37,7S6.44,7,6.41,7Z"/><path class="cls-4" d="M6.31,6a.27.27,0,0,0-.08.22s0,.07-.06,0a.22.22,0,0,0-.22,0s-.07,0-.06,0a.17.17,0,0,0-.07-.2s0,0,0-.07,0,0,.06,0,.16-.1.21-.2l.06.09A.18.18,0,0,0,6.28,6C6.34,6,6.35,6,6.31,6Z"/><path class="cls-6" d="M5.48,5.35c-.1.09-.09.19-.06.32-.13-.1-.25-.12-.35,0a.07.07,0,0,1,0-.07.19.19,0,0,0,0-.22,0,0,0,0,1,0-.06.07.07,0,0,1,.06,0c.09,0,.13,0,.16-.11s0,0,0,0,0,0,0,0,.07.12.15.11S5.52,5.32,5.48,5.35Z"/></svg>