<svg id="Layer_1" data-name="Layer 1" xmlns="http://www.w3.org/2000/svg" viewBox="0 0 16.26 18.87"><defs><style>.cls-1{fill:#1d1d1b;}.cls-2{fill:#231f20;}</style></defs><path class="cls-1" d="M15.06,4.67c0-.08,0-.1-.1-.1H1.1c-.08,0-.09,0-.09.1v9c0,.08,0,.1.09.1H15c.08,0,.1,0,.1-.1ZM1.22,4.8s.06,0,.08,0H14.76s.05,0,.08,0l0,0V13.4c0,.15,0,.15-.14.15H1.22V4.8Z"/><path class="cls-1" d="M14.85,4.8H1.22v0H14.85Z"/><path class="cls-1" d="M8.92,12a2.62,2.62,0,0,1-.38.09,2.74,2.74,0,0,1-.48,0A3,3,0,0,1,5.12,10,2.94,2.94,0,0,1,6.88,6.44a3.06,3.06,0,0,1,4,1.67A3,3,0,0,1,8.92,12Z"/><path class="cls-2" d="M2.44.21C2.07.24,2,.27,2,.68V2.37a1.46,1.46,0,0,1-.44,1.26,1.19,1.19,0,0,1-.46.27l-.06-.14a.78.78,0,0,0,.46-.61,4.58,4.58,0,0,0,.06-.91V.68c0-.41-.05-.44-.44-.47V.07H2.44Z"/><path class="cls-2" d="M4.46,3.13V3c.3,0,.34-.09.27-.28S4.58,2.3,4.48,2h-1c-.08.22-.14.4-.2.59s-.07.34.3.38v.13H2.47V3c.32,0,.38-.08.55-.5L4,0,4.2,0c.31.83.62,1.67.94,2.5.15.41.22.47.53.5v.13ZM4,.65H4L3.52,1.82h.89Z"/><path class="cls-2" d="M7.22.07A1.37,1.37,0,0,1,8,.27a.79.79,0,0,1,.32.67,1,1,0,0,1-.94,1H7.18l-.36-.09v.72c0,.4,0,.43.48.46v.13H6V3c.38,0,.42-.07.42-.47V.68c0-.43,0-.44-.4-.47V.07Zm-.4,1.58a.88.88,0,0,0,.35.06c.29,0,.67-.16.67-.76a.65.65,0,0,0-.7-.72c-.14,0-.24,0-.27.06s0,.08,0,.21Z"/><path class="cls-2" d="M10.17,3.13V3c.3,0,.35-.09.28-.28S10.3,2.3,10.19,2h-1L9,2.62c-.1.28-.06.34.3.38v.13H8.19V3c.31,0,.38-.08.55-.5L9.75,0l.17,0c.31.83.62,1.67.94,2.5.15.41.22.47.53.5v.13ZM9.7.65h0c-.15.39-.3.79-.45,1.17h.88Z"/><path class="cls-2" d="M15,.21c-.26,0-.38.07-.4.29a6.42,6.42,0,0,0,0,.8V3.18h-.15L12.31.73h0V1.88c0,.43,0,.65,0,.79s.13.3.47.33v.13H11.64V3c.28,0,.4-.08.43-.32s0-.37,0-.8v-1c0-.35,0-.37-.1-.49a.56.56,0,0,0-.43-.17V.07h.74l2,2.33h0V1.3a5.47,5.47,0,0,0,0-.79c0-.22-.13-.28-.47-.3V.07H15Z"/><path class="cls-2" d="M2.64,16.49a1.09,1.09,0,0,0-.16-.44c-.08-.11-.17-.15-.54-.15H1.62v2.3c0,.37,0,.43.5.46v.13H.69v-.13c.44,0,.48-.08.48-.46V15.9H.89c-.42,0-.52,0-.58.15a1.47,1.47,0,0,0-.16.44H0c0-.31.05-.62.05-.88H.16c.07.12.13.12.27.12h2a.26.26,0,0,0,.25-.12h.11c0,.22,0,.58,0,.86Z"/><path class="cls-2" d="M4.76,15.66a1.57,1.57,0,0,1,1.62,1.56A1.61,1.61,0,0,1,4.7,18.87a1.58,1.58,0,0,1-1.63-1.58,1.62,1.62,0,0,1,1.69-1.63Zm-.1.18c-.54,0-1.06.44-1.06,1.33s.51,1.52,1.21,1.52c.54,0,1-.43,1-1.34s-.55-1.51-1.18-1.51Z"/><path class="cls-2" d="M9,18.79c-.36-.4-.74-.84-1.18-1.35-.11-.14-.18-.16-.26-.15v.88c0,.42.05.46.45.49v.13H6.75v-.13c.37,0,.41-.07.41-.49V16.35c0-.42,0-.45-.42-.48v-.14H8v.14c-.37,0-.42.06-.42.48v.82A.87.87,0,0,0,8,16.94c.28-.27.59-.57.79-.81s.14-.22-.09-.25h-.1v-.14H9.74v.14a1.1,1.1,0,0,0-.79.35c-.21.18-.53.5-.84.8.35.44.87,1,1.13,1.29a.82.82,0,0,0,.58.35v.13Z"/><path class="cls-2" d="M12.9,15.87a.62.62,0,0,0-.58.38c-.22.33-.37.58-.61,1a.52.52,0,0,0-.08.31v.62c0,.4,0,.44.48.47v.13h-1.4v-.13c.43,0,.47-.06.47-.47v-.6a.52.52,0,0,0-.1-.29l-.61-1c-.19-.31-.25-.37-.54-.4v-.14h1.2v.14c-.35.05-.33.11-.25.26.2.36.44.75.65,1.1.17-.3.44-.77.57-1.06s.09-.26-.29-.3v-.14H12.9Z"/><path class="cls-2" d="M14.65,15.66a1.56,1.56,0,0,1,1.61,1.56,1.6,1.6,0,0,1-1.67,1.65A1.58,1.58,0,0,1,13,17.29a1.62,1.62,0,0,1,1.69-1.63Zm-.1.18c-.55,0-1.06.44-1.06,1.33s.51,1.52,1.2,1.52,1-.43,1-1.34-.55-1.51-1.18-1.51Z"/></svg>