<svg id="Layer_1" data-name="Layer 1" xmlns="http://www.w3.org/2000/svg" viewBox="0 0 36.81 18.4"><defs><style>.cls-1{fill:#231f20;}.cls-2{fill:#fefefe;}.cls-3{fill:#010101;}.cls-4{fill:#010201;}.cls-5{fill:#fff;}.cls-6{fill:#c2c2c1;}.cls-7{fill:#9c9c9c;}</style></defs><path class="cls-1" d="M9.45,3.13V3c.38,0,.4-.07.4-.57l0-1.89h0L8.63,3.1H8.54L7.45.61h0L7.37,1.93a7,7,0,0,0,0,.77c0,.23.12.26.44.29v.14H6.67V3C7,3,7,2.9,7.08,2.71s0-.37.09-.87L7.24.89c0-.61,0-.64-.42-.68V.07h.83L8.74,2.39,9.84.07h.85V.21c-.42,0-.45.05-.44.52l.05,1.7c0,.5,0,.53.45.57v.13Z"/><path class="cls-1" d="M13,3.13V3c.29,0,.34-.09.27-.28S13.09,2.3,13,2H12c-.08.22-.14.4-.2.59S11.68,3,12,3v.13H11V3c.31,0,.38-.08.55-.5l1-2.46.17,0c.31.83.62,1.67.94,2.5.15.41.22.47.53.5v.13ZM12.49.65h0L12,1.82h.88Z"/><path class="cls-1" d="M16.84,2.37c0,.16-.14.62-.18.76H14.43V3c.42,0,.46-.06.46-.48V.68c0-.41,0-.44-.43-.47V.07h1.3V.21c-.38,0-.42.05-.42.47V2.51c0,.26,0,.35.11.39A.92.92,0,0,0,15.9,3a.64.64,0,0,0,.53-.16,1.24,1.24,0,0,0,.26-.47Z"/><path class="cls-1" d="M19,3.13V3c.3,0,.34-.09.27-.28s-.15-.42-.25-.69H18c-.08.22-.14.4-.2.59s-.07.34.3.38v.13H17V3c.32,0,.38-.08.55-.5l1-2.46.16,0c.31.83.62,1.67.94,2.5.15.41.22.47.53.5v.13ZM18.55.65h0l-.45,1.17H19Z"/><path class="cls-1" d="M23,.21c-.34,0-.4.1-.59.39a11.45,11.45,0,0,0-.6,1,.53.53,0,0,0-.09.31v.62c0,.4,0,.44.49.47v.13h-1.4V3c.42,0,.47-.06.47-.47v-.6c0-.1,0-.14-.11-.29l-.6-1C20.38.3,20.32.24,20,.21V.07h1.2V.21c-.35.05-.33.11-.25.26.2.36.44.75.64,1.1.18-.3.45-.77.58-1s.08-.27-.29-.31V.07H23Z"/><path class="cls-1" d="M24.78.81c-.08-.3-.23-.65-.63-.65a.5.5,0,0,0-.53.52c0,.33.22.49.61.68s.83.42.83.94A1,1,0,0,1,24,3.21a1.61,1.61,0,0,1-.49-.08L23.25,3c0-.09-.1-.52-.13-.75l.15,0c.08.3.31.79.81.79a.51.51,0,0,0,.55-.55c0-.35-.25-.51-.62-.7s-.8-.4-.8-.92a.9.9,0,0,1,1-.86,2,2,0,0,1,.63.11c0,.17,0,.36.08.67Z"/><path class="cls-1" d="M25.36,3.13V3c.39,0,.44-.06.44-.47V.68c0-.41-.05-.44-.44-.47V.07h1.32V.21c-.39,0-.44.06-.44.47V2.53c0,.41.05.44.44.47v.13Z"/><path class="cls-1" d="M28.76,3.13V3c.3,0,.34-.09.28-.28L28.78,2h-1c-.08.22-.15.4-.21.59s-.06.34.3.38v.13H26.78V3c.31,0,.38-.08.55-.5l1-2.46.17,0c.31.83.61,1.67.93,2.5.16.41.23.47.54.5v.13ZM28.29.65h0c-.16.39-.31.79-.45,1.17h.88Z"/><path class="cls-1" d="M2.3,18.33c-.36-.4-.74-.84-1.18-1.35C1,16.84,1,16.82.86,16.83v.88c0,.42.05.46.45.49v.13H0V18.2c.37,0,.41-.07.41-.49V15.9c0-.43,0-.46-.42-.49v-.14H1.28v.14c-.37,0-.42.06-.42.49v.81a.81.81,0,0,0,.35-.23A9.79,9.79,0,0,0,2,15.67c.15-.17.14-.22-.08-.25H1.81v-.14H3v.14a1.1,1.1,0,0,0-.79.35c-.2.18-.53.5-.84.8.36.44.87,1,1.13,1.29a.82.82,0,0,0,.58.35v.13Z"/><path class="cls-1" d="M6.63,15.41c-.28,0-.4.09-.42.28a5.36,5.36,0,0,0,0,.75v.37a1.69,1.69,0,0,1-.37,1.25,1.25,1.25,0,0,1-.89.34,1.29,1.29,0,0,1-.79-.23A1.3,1.3,0,0,1,3.69,17V15.9c0-.43,0-.46-.42-.49v-.14H4.56v.14c-.38,0-.42.05-.42.49v1c0,.77.33,1.2.91,1.2S6,17.58,6,16.8v-.36a4,4,0,0,0,0-.76c0-.18-.13-.25-.47-.27v-.14H6.63Z"/><path class="cls-1" d="M8.42,18.33V18.2c.3-.05.34-.09.28-.28l-.26-.69h-1c-.08.22-.14.4-.2.59s-.07.34.3.38v.13H6.44V18.2c.31-.05.37-.08.55-.5l1-2.46.16,0c.31.83.62,1.67.94,2.5.16.41.22.46.54.5v.13ZM8,15.85h0c-.16.39-.31.79-.46,1.17h.89Z"/><path class="cls-1" d="M12.29,17.57c0,.16-.13.62-.18.76H9.89V18.2c.41,0,.45-.06.45-.48V15.88c0-.41,0-.44-.43-.47v-.14h1.3v.14c-.38,0-.42.05-.42.47v1.83c0,.25,0,.35.11.39a1.11,1.11,0,0,0,.45.06c.25,0,.42,0,.53-.15a1.38,1.38,0,0,0,.27-.47Z"/><path class="cls-1" d="M14.48,18.33V18.2c.3-.05.34-.09.28-.28l-.26-.69h-1c-.08.22-.15.4-.21.59s-.06.34.3.38v.13H12.5V18.2c.31-.05.38-.08.55-.5l1-2.46.17,0c.31.83.61,1.67.93,2.5.16.41.23.46.54.5v.13ZM14,15.85h0c-.16.39-.31.79-.45,1.17h.88Z"/><path class="cls-1" d="M19.64,17.57c0,.16-.13.62-.18.76H17.24V18.2c.41,0,.45-.06.45-.48V15.88c0-.41,0-.44-.43-.47v-.14h1.3v.14c-.38,0-.42.05-.42.47v1.83c0,.25,0,.35.11.39a1.11,1.11,0,0,0,.45.06c.25,0,.42,0,.53-.15a1.24,1.24,0,0,0,.26-.47Z"/><path class="cls-1" d="M23,15.41c-.28,0-.4.09-.42.28s0,.32,0,.75v.37a1.69,1.69,0,0,1-.37,1.25,1.21,1.21,0,0,1-.88.34,1.35,1.35,0,0,1-.8-.23A1.33,1.33,0,0,1,20.09,17V15.9c0-.43-.05-.46-.43-.49v-.14H21v.14c-.38,0-.42.05-.42.49v1c0,.77.32,1.2.91,1.2s.92-.55.92-1.33v-.36a5.15,5.15,0,0,0,0-.76c0-.18-.14-.25-.47-.27v-.14H23Z"/><path class="cls-1" d="M25.94,18.33V18.2c.39,0,.41-.07.4-.57l0-1.89h0L25.13,18.3H25l-1.09-2.5h0l-.07,1.33a7,7,0,0,0,0,.77c0,.23.12.26.44.29v.14H23.16v-.14c.28,0,.37-.09.41-.28s.05-.37.09-.87l.07-.95c.05-.61,0-.64-.41-.68v-.14h.82l1.09,2.31,1.11-2.31h.84v.14c-.42,0-.45.05-.44.52l.05,1.7c0,.5,0,.53.45.57v.13Z"/><path class="cls-1" d="M28.83,15.27a1.3,1.3,0,0,1,.81.2.77.77,0,0,1,.32.67,1,1,0,0,1-.94,1h-.23L28.43,17v.72c0,.4,0,.42.48.46v.13H27.57V18.2c.38,0,.42-.07.42-.47V15.88c0-.43,0-.45-.4-.47v-.14Zm-.4,1.58a.92.92,0,0,0,.35.06.66.66,0,0,0,.68-.76.66.66,0,0,0-.71-.72.43.43,0,0,0-.27.06s-.05.08-.05.21Z"/><path class="cls-1" d="M33.64,15.41c-.28,0-.4.09-.42.28s0,.32,0,.75v.37a1.69,1.69,0,0,1-.37,1.25,1.24,1.24,0,0,1-.89.34A1.16,1.16,0,0,1,30.7,17V15.9c0-.43,0-.46-.42-.49v-.14h1.29v.14c-.37,0-.42.05-.42.49v1c0,.77.33,1.2.92,1.2s.91-.55.91-1.33v-.36a5.75,5.75,0,0,0,0-.76c0-.18-.14-.25-.47-.27v-.14h1.16Z"/><path class="cls-1" d="M36.79,18.37h-.17a.9.9,0,0,1-.81-.43c-.17-.23-.33-.51-.47-.74s-.17-.19-.42-.19h-.14v.73c0,.4,0,.43.44.47v.13H33.91V18.2c.39,0,.44-.07.44-.47V15.87c0-.41-.05-.43-.42-.46v-.14h1.23a1.41,1.41,0,0,1,.79.16.73.73,0,0,1,.32.62.86.86,0,0,1-.61.8c.08.16.28.46.42.68a5.26,5.26,0,0,0,.39.5.61.61,0,0,0,.34.21ZM35,16.84a.83.83,0,0,0,.52-.13.67.67,0,0,0,.26-.58.64.64,0,0,0-.69-.7.4.4,0,0,0-.25.05s-.06.08-.06.2v1.16Z"/><path class="cls-2" d="M8.58,12.13v-.49c0-.07,0-.11.09-.1a1,1,0,0,0,.17,0H27.93c.09,0,.11,0,.11.11a4.34,4.34,0,0,0,0,.51c0,.06,0,.09-.08.08H8.69C8.6,12.25,8.57,12.22,8.58,12.13Z"/><path class="cls-2" d="M28,13.06a3.69,3.69,0,0,0,0,.47c0,.09,0,.11-.11.1a.75.75,0,0,0-.15,0H8.72c-.11,0-.15,0-.14-.14s0-.31,0-.46,0-.1.08-.09H27.91C28,12.93,28.05,13,28,13.06Z"/><path class="cls-2" d="M27.9,7.39H18.38c-.06,0-.07,0-.07-.08s0-.32,0-.48,0-.15.14-.14h9.36a.86.86,0,0,1,.16,0c.06,0,.07,0,.07-.07s0-.29,0-.43S28,6,27.85,6H18.39c-.06,0-.08,0-.08-.08s0-.32,0-.49,0-.13.13-.13H28c.05,0,.07,0,.07-.07a3.84,3.84,0,0,1,0-.48c0-.12,0-.15-.14-.15H8.71c-.1,0-.13,0-.13.13v5.93c0,.19,0,.19.18.19H27.93c.08,0,.12,0,.11-.11s0-.28,0-.43,0-.15-.15-.15H18.38c-.06,0-.07,0-.07-.08s0-.32,0-.48,0-.14.14-.14H28c.06,0,.08,0,.08-.07a4.17,4.17,0,0,1,0-.5c0-.1,0-.12-.12-.12H18.38c-.06,0-.07,0-.07-.07V8.22c0-.15,0-.15.15-.15h9.48c.07,0,.1,0,.1-.09a3.38,3.38,0,0,1,0-.45C28.05,7.41,28,7.39,27.9,7.39ZM11,8.7a2.08,2.08,0,0,1,.14-2.79,2,2,0,0,1,2.47-.31,1.84,1.84,0,0,0-1.68.32,1.77,1.77,0,0,0-.71,1.55A1.76,1.76,0,0,0,12,8.9a1.91,1.91,0,0,0,1.59.29A2,2,0,0,1,11,8.7Zm4.95-.32h0l-.82-.47.28.91h0c-.17-.26-.35-.51-.54-.79-.05.33-.09.64-.14.95h0c0-.31-.09-.61-.14-.95L14,8.8h0c.08-.28.17-.56.26-.87l-.83.48v0l.66-.7-1,.07h0L14,7.39l-.87-.34s0,0,.05,0l.88.07-.65-.71h0l.84.48L14,6l0,0,.53.77c.05-.33.09-.62.14-.92h0c.05.3.09.59.14.92l.53-.78h0l-.28.9.8-.46,0,0-.63.68L16.17,7l0,0-.88.33.83.33s-.08,0-.11,0l-.78-.05Z"/><path class="cls-3" d="M27.9,7.39H18.38c-.06,0-.07,0-.07-.08s0-.32,0-.48,0-.15.14-.14h9.36a.86.86,0,0,1,.16,0c.06,0,.07,0,.07-.07s0-.29,0-.43S28,6,27.85,6H18.39c-.06,0-.08,0-.08-.08s0-.32,0-.49,0-.13.13-.13H28c.05,0,.07,0,.07-.07a3.84,3.84,0,0,1,0-.48c0-.12,0-.15-.14-.15H8.71c-.1,0-.13,0-.13.13v5.93c0,.19,0,.19.18.19H27.93c.08,0,.12,0,.11-.11s0-.28,0-.43,0-.15-.15-.15H18.38c-.06,0-.07,0-.07-.08s0-.32,0-.48,0-.14.14-.14H28c.06,0,.08,0,.08-.07a4.17,4.17,0,0,1,0-.5c0-.1,0-.12-.12-.12H18.38c-.06,0-.07,0-.07-.07V8.22c0-.15,0-.15.15-.15h9.48c.07,0,.1,0,.1-.09a3.38,3.38,0,0,1,0-.45C28.05,7.41,28,7.39,27.9,7.39ZM11,8.7a2.08,2.08,0,0,1,.14-2.79,2,2,0,0,1,2.47-.31,1.84,1.84,0,0,0-1.68.32,1.77,1.77,0,0,0-.71,1.55A1.76,1.76,0,0,0,12,8.9a1.91,1.91,0,0,0,1.59.29A2,2,0,0,1,11,8.7Zm4.95-.32h0l-.82-.47.28.91h0c-.17-.26-.35-.51-.54-.79-.05.33-.09.64-.14.95h0c0-.31-.09-.61-.14-.95L14,8.8h0c.08-.28.17-.56.26-.87l-.83.48v0l.66-.7-1,.07h0L14,7.39l-.87-.34s0,0,.05,0l.88.07-.65-.71h0l.84.48L14,6l0,0,.53.77c.05-.33.09-.62.14-.92h0c.05.3.09.59.14.92l.53-.78h0l-.28.9.8-.46,0,0-.63.68L16.17,7l0,0-.88.33.83.33s-.08,0-.11,0l-.78-.05Z"/><path class="cls-4" d="M28,11.65a4.34,4.34,0,0,0,0,.51c0,.06,0,.09-.08.08H8.69c-.09,0-.12,0-.11-.12v-.49c0-.07,0-.11.09-.1a1,1,0,0,0,.17,0H27.93C28,11.54,28,11.57,28,11.65Z"/><path class="cls-3" d="M28,13.06a3.69,3.69,0,0,0,0,.47c0,.09,0,.11-.11.1a.75.75,0,0,0-.15,0H8.72c-.11,0-.15,0-.14-.14s0-.31,0-.46,0-.1.08-.09H27.91C28,12.93,28.05,13,28,13.06Z"/><path class="cls-5" d="M13.16,7s0,0-.05,0S13.14,7,13.16,7Z"/><path class="cls-5" d="M16.17,7.71c0,.06-.07,0-.11,0S16.14,7.75,16.17,7.71Z"/><path class="cls-5" d="M16.22,7.05l0,0S16.22,7,16.22,7.05Z"/><path class="cls-6" d="M16.27,7.75a.36.36,0,0,1-.21,0s.08,0,.11,0A.26.26,0,0,1,16.27,7.75Z"/><path class="cls-7" d="M16.22,7.05l0,0s.06,0,.09,0A0,0,0,0,1,16.22,7.05Z"/></svg>