<svg id="Layer_1" data-name="Layer 1" xmlns="http://www.w3.org/2000/svg" viewBox="0 0 27.11 18.65"><defs><style>.cls-1{fill:#231f20;}.cls-2{fill:#1d1d1b;}.cls-3{fill:#fff;}.cls-4{fill:#111110;}.cls-5{fill:#10100f;}</style></defs><path class="cls-1" d="M2.84.12a1.3,1.3,0,0,1,.81.2A.77.77,0,0,1,4,1,1,1,0,0,1,3,2H2.8l-.36-.09v.72c0,.4.05.42.48.46v.13H1.58V3.05C2,3,2,3,2,2.58V.72C2,.3,2,.28,1.6.26V.12ZM2.44,1.7a.92.92,0,0,0,.35.06A.66.66,0,0,0,3.47,1,.66.66,0,0,0,2.76.28a.46.46,0,0,0-.26,0s-.06.09-.06.22Z"/><path class="cls-1" d="M5.8,3.18V3.05c.3,0,.34-.09.27-.28s-.15-.42-.25-.69h-1c-.08.22-.14.4-.2.59s-.07.34.3.38v.13H3.81V3.05c.32,0,.38-.08.55-.5l1-2.46.16,0c.31.83.62,1.67.94,2.5.15.41.22.46.53.5v.13ZM5.32.7h0L4.86,1.87h.89Z"/><path class="cls-1" d="M9.6,3.18c-.36-.4-.74-.84-1.18-1.35-.11-.14-.18-.16-.26-.15v.88c0,.42,0,.46.45.49v.13H7.31V3.05c.37,0,.41-.07.41-.49V.74c0-.42,0-.45-.42-.48V.12H8.57V.26c-.37,0-.41.06-.41.48v.82a.94.94,0,0,0,.35-.23c.28-.27.59-.57.79-.81S9.44.3,9.21.27h-.1V.12H10.3V.26a1.1,1.1,0,0,0-.8.35c-.2.18-.53.5-.84.8.36.44.88,1,1.14,1.29s.35.32.58.35v.13Z"/><path class="cls-1" d="M10.59,3.18V3.05C11,3,11,3,11,2.58V.72c0-.4,0-.43-.44-.46V.12h1.32V.26c-.39,0-.43.06-.43.46V2.58c0,.41,0,.44.43.47v.13Z"/><path class="cls-1" d="M14,.86c-.08-.31-.23-.65-.64-.65a.5.5,0,0,0-.53.51c0,.34.22.5.62.69s.83.42.83.94a1,1,0,0,1-1.09.91,1.49,1.49,0,0,1-.48-.08,2.55,2.55,0,0,1-.24-.1c0-.1-.1-.52-.13-.75l.14,0c.09.3.32.79.81.79a.52.52,0,0,0,.56-.56c0-.34-.26-.5-.62-.69s-.8-.4-.8-.92a.9.9,0,0,1,1-.86A2,2,0,0,1,14,.16c0,.17,0,.36.09.67Z"/><path class="cls-1" d="M17.13.88A1.06,1.06,0,0,0,17,.44c-.08-.11-.16-.15-.53-.15H16.1v2.3c0,.37,0,.43.5.46v.13H15.18V3.05c.44,0,.48-.08.48-.46V.29h-.28c-.42,0-.52.05-.58.15a1.42,1.42,0,0,0-.17.44h-.14c0-.31,0-.62,0-.88h.11c.07.12.13.12.27.12h2A.26.26,0,0,0,17.12,0h.1c0,.22,0,.58.05.86Z"/><path class="cls-1" d="M19.12,3.18V3.05c.29,0,.34-.09.27-.28s-.15-.42-.26-.69h-1c-.08.22-.14.4-.2.59s-.07.34.29.38v.13H17.13V3.05c.31,0,.38-.08.55-.5l1-2.46.17,0c.31.83.62,1.67.94,2.5.15.41.22.46.53.5v.13ZM18.64.7h0l-.45,1.17h.88Z"/><path class="cls-1" d="M24,.26c-.27,0-.39.07-.41.28a6.74,6.74,0,0,0,0,.81V3.23h-.15L21.25.78h0V1.93c0,.43,0,.65,0,.79s.14.3.47.33v.13H20.58V3.05c.28,0,.4-.08.43-.32a5.88,5.88,0,0,0,0-.8v-1c0-.34,0-.37-.11-.48a.56.56,0,0,0-.43-.17V.12h.74l2.06,2.32h0V1.35c0-.44,0-.65,0-.79s-.14-.28-.48-.3V.12H24Z"/><path class="cls-1" d="M0,18.58v-.14c.39,0,.43-.06.43-.46V16.12c0-.41,0-.44-.43-.46v-.14H1.31v.14c-.39,0-.43.05-.43.46V18c0,.4,0,.43.43.46v.14Z"/><path class="cls-1" d="M3.36,16.25c-.09-.3-.23-.64-.64-.64a.49.49,0,0,0-.53.51c0,.33.22.49.61.68s.84.43.84.94a1,1,0,0,1-1.09.91,1.26,1.26,0,0,1-.48-.08.71.71,0,0,1-.24-.1c0-.09-.1-.52-.13-.75l.14,0c.08.3.32.79.81.79a.51.51,0,0,0,.56-.55c0-.34-.26-.5-.63-.69s-.79-.41-.79-.93a.9.9,0,0,1,1-.86,2,2,0,0,1,.63.12c0,.17,0,.36.08.67Z"/><path class="cls-1" d="M6.32,17.82c0,.16-.13.61-.18.76H3.92v-.14c.41,0,.45-.06.45-.47V16.12c0-.41,0-.44-.43-.46v-.14h1.3v.14c-.38,0-.42.05-.42.46V18c0,.26,0,.35.11.4a1.08,1.08,0,0,0,.45.06.68.68,0,0,0,.53-.15,1.32,1.32,0,0,0,.26-.47Z"/><path class="cls-1" d="M8.51,18.58v-.14c.3,0,.34-.08.28-.27l-.26-.69h-1c-.08.21-.14.4-.2.58s-.07.34.3.38v.14H6.53v-.14c.31-.05.38-.08.55-.5l1-2.45.16-.05c.31.84.62,1.68.94,2.5.16.42.22.47.54.5v.14ZM8,16.09H8c-.16.39-.31.79-.45,1.17h.88Z"/><path class="cls-1" d="M12.71,18.58v-.14c.39,0,.41-.07.4-.56V16h0L11.9,18.55h-.1l-1.08-2.5h0l-.08,1.32c0,.39,0,.59,0,.78s.12.25.44.29v.14H9.94v-.14c.27,0,.37-.1.41-.28s.05-.37.09-.88l.07-.94c0-.61,0-.64-.42-.68v-.14h.82L12,17.83l1.11-2.31H14v.14c-.42,0-.45.05-.43.52l0,1.7c0,.49,0,.52.45.56v.14Z"/><path class="cls-1" d="M16.23,18.58v-.14c.3,0,.34-.08.28-.27l-.26-.69h-1c-.08.21-.15.4-.21.58s-.06.34.3.38v.14H14.25v-.14c.31-.05.38-.08.55-.5l1-2.45.17-.05c.31.84.62,1.68.93,2.5.16.42.23.47.54.5v.14Zm-.47-2.49h0c-.16.39-.31.79-.45,1.17h.88Z"/><path class="cls-1" d="M19.37,16.93c.49.07.86.27.86.75a.79.79,0,0,1-.45.71,2.11,2.11,0,0,1-1,.19H17.71v-.14c.41,0,.44-.06.44-.45V16.11c0-.4,0-.43-.4-.45v-.14H19a1.23,1.23,0,0,1,.73.16.65.65,0,0,1,.28.54.76.76,0,0,1-.67.7Zm-.56-.06c.52,0,.74-.2.74-.59a.57.57,0,0,0-.63-.61.52.52,0,0,0-.26.06s-.06.09-.06.23v.91ZM18.6,18c0,.35.1.44.4.44a.66.66,0,0,0,.72-.69c0-.47-.33-.68-.92-.68h-.2Z"/><path class="cls-1" d="M22.38,18.58v-.14c.3,0,.34-.08.28-.27l-.26-.69h-1c-.08.21-.15.4-.21.58s-.06.34.3.38v.14H20.4v-.14c.31-.05.38-.08.55-.5l1-2.45.17-.05c.31.84.61,1.68.93,2.5.16.42.23.47.54.5v.14Zm-.47-2.49h0c-.16.39-.31.79-.45,1.17h.88Z"/><path class="cls-1" d="M25.31,15.52a2,2,0,0,1,1.39.4,1.4,1.4,0,0,1,.41,1,1.49,1.49,0,0,1-.61,1.26,2.42,2.42,0,0,1-1.46.39H23.85v-.14c.41,0,.45-.06.45-.46V16.11c0-.4,0-.42-.41-.45v-.14Zm-.56,2.42c0,.37.17.46.52.46A1.28,1.28,0,0,0,26.6,17a1.25,1.25,0,0,0-.54-1.11,1.55,1.55,0,0,0-.86-.22.86.86,0,0,0-.39.06s-.06.09-.06.28Z"/><path class="cls-2" d="M19.74,4.84c0-.08,0-.1-.1-.1H5.81c-.08,0-.1,0-.1.1v8.59c0,.08,0,.11.11.11H19.64c.09,0,.1,0,.1-.1ZM13.44,10a2.23,2.23,0,0,0,1.77.7,2.29,2.29,0,0,0,1.68-.87,2.53,2.53,0,0,1-2.62,1.71A2.58,2.58,0,0,1,14,6.47a2.28,2.28,0,0,0-1.12,1.67A2.24,2.24,0,0,0,13.44,10Zm1.88-2.36,0-.46s0,0,0-.09c.12.14.24.27.35.41a.09.09,0,0,0,.12,0l.39-.17a.16.16,0,0,1,.1,0c-.09.15-.17.3-.26.44A.1.1,0,0,0,16,8l.35.41-.52-.12a.1.1,0,0,0-.14,0c-.08.15-.18.29-.27.44h0c0-.17,0-.34,0-.52s0-.08-.09-.1L14.75,8l.51-.22A.07.07,0,0,0,15.32,7.67Zm-6,5.55c0,.06,0,.1-.08.1H5.93V5H9.25c.07,0,.09,0,.09.09Z"/><path class="cls-3" d="M5.93,5v8.34a.09.09,0,0,1,0-.08V5.05S5.9,5,5.93,5Z"/><path class="cls-4" d="M5.75,4.76h0Z"/><path class="cls-4" d="M5.93,5v8.34s0-.06,0-.09q0-4.08,0-8.17S5.89,5,5.93,5Z"/><path class="cls-5" d="M6,4.93H6Z"/></svg>