<svg id="Layer_1" data-name="Layer 1" xmlns="http://www.w3.org/2000/svg" viewBox="0 0 23.21 19.95"><defs><style>.cls-1{fill:#231f20;}.cls-2{fill:#010101;}</style></defs><path class="cls-1" d="M8.46.88A1.23,1.23,0,0,0,8.29.44C8.21.33,8.13.29,7.76.29H7.43v2.3c0,.37,0,.43.5.46v.13H6.5V3.05C7,3,7,3,7,2.59V.29H6.71c-.42,0-.52.05-.59.15A1.47,1.47,0,0,0,6,.88H5.82c0-.31,0-.62,0-.88H6c.07.12.14.12.28.12H8.2A.26.26,0,0,0,8.45,0h.1c0,.22,0,.58,0,.86Z"/><path class="cls-1" d="M12.32.26c-.39,0-.43.06-.43.45V2.59c0,.4,0,.42.43.46v.13H11V3.05c.41,0,.45-.06.45-.46V1.67H9.79v.92c0,.39,0,.42.44.46v.13H8.92V3.05c.38,0,.42-.06.42-.46V.71c0-.39,0-.42-.43-.45V.12H10.2V.26c-.37,0-.41.06-.41.45v.75h1.65V.71c0-.39,0-.42-.42-.45V.12h1.3Z"/><path class="cls-1" d="M14.4,3.18V3.05c.3,0,.34-.09.28-.28l-.26-.69h-1c-.08.22-.14.4-.2.59s-.07.34.3.38v.13H12.42V3.05c.31,0,.38-.08.55-.5L14,.09l.16,0c.31.83.62,1.67.94,2.5.16.41.22.46.54.5v.13ZM13.93.7h0c-.16.38-.31.79-.45,1.17h.88Z"/><path class="cls-1" d="M15.89,3.18V3.05c.39,0,.43-.06.43-.47V.72c0-.4,0-.43-.43-.46V.12H17.2V.26c-.39,0-.43.06-.43.46V2.58c0,.41,0,.44.43.47v.13Z"/><path class="cls-1" d="M1.65,18.23c.5.07.87.27.87.75a.79.79,0,0,1-.45.71,2.11,2.11,0,0,1-1,.19H0v-.14c.41,0,.44-.06.44-.45V17.42C.44,17,.42,17,0,17v-.14H1.32a1.23,1.23,0,0,1,.73.16.64.64,0,0,1,.27.54.75.75,0,0,1-.67.7Zm-.55-.06c.52,0,.74-.2.74-.59a.56.56,0,0,0-.63-.6A.54.54,0,0,0,1,17s-.06.09-.06.23v.91Zm-.21,1.1c0,.35.1.45.4.44A.65.65,0,0,0,2,19c0-.48-.33-.69-.92-.69H.89Z"/><path class="cls-1" d="M4.67,19.88v-.14c.3,0,.34-.08.28-.27l-.26-.69h-1c-.08.21-.15.4-.21.58s-.06.35.3.38v.14H2.69v-.14c.31,0,.38-.08.55-.49l1-2.46.17,0c.3.83.61,1.67.93,2.5.16.41.22.46.54.49v.14ZM4.2,17.39h0c-.16.39-.31.8-.45,1.18h.88Z"/><path class="cls-1" d="M9.51,17c-.27,0-.38.07-.41.28s0,.37,0,.8v1.89H8.92L6.81,17.47h0v1.15c0,.44,0,.66,0,.8s.13.3.46.32v.14H6.14v-.14c.28,0,.4-.08.42-.31a6,6,0,0,0,0-.81v-1c0-.34,0-.37-.1-.48A.54.54,0,0,0,6.07,17v-.14h.74l2.05,2.32h0V18c0-.43,0-.65,0-.78S8.71,17,8.36,17v-.14H9.51Z"/><path class="cls-1" d="M13,18.59c-.28,0-.3.07-.3.35v.4a2.72,2.72,0,0,0,0,.43,5,5,0,0,1-1.12.18,1.63,1.63,0,0,1-1.83-1.58,1.7,1.7,0,0,1,1.9-1.62,4,4,0,0,1,1,.14c0,.16,0,.42.07.76l-.14,0a.86.86,0,0,0-1-.76,1.27,1.27,0,0,0-1.28,1.39,1.37,1.37,0,0,0,1.36,1.47,1,1,0,0,0,.41-.08.3.3,0,0,0,.16-.31V19c0-.35,0-.38-.52-.42v-.14H13Z"/><path class="cls-1" d="M15.62,19.88c-.36-.4-.74-.84-1.18-1.36-.11-.13-.17-.15-.26-.14v.88c0,.42.05.46.45.48v.14h-1.3v-.14c.37,0,.41-.06.41-.48V17.44c0-.43,0-.46-.42-.48v-.14H14.6V17c-.37,0-.42.06-.42.48v.81a.74.74,0,0,0,.35-.22c.28-.27.59-.57.79-.81s.14-.23-.09-.25h-.1v-.14h1.19V17a1.09,1.09,0,0,0-.79.34c-.21.18-.53.51-.84.81.35.44.87,1,1.13,1.29s.36.32.58.34v.14Z"/><path class="cls-1" d="M18.16,16.75a1.56,1.56,0,0,1,1.61,1.56A1.6,1.6,0,0,1,18.09,20a1.57,1.57,0,0,1-1.62-1.57,1.62,1.62,0,0,1,1.68-1.63Zm-.11.17c-.54,0-1.06.44-1.06,1.34a1.36,1.36,0,0,0,1.21,1.52c.54,0,1-.44,1-1.35s-.54-1.51-1.18-1.51Z"/><path class="cls-1" d="M22.43,19.88c-.35-.4-.74-.84-1.18-1.36-.11-.13-.17-.15-.26-.14v.88c0,.42.05.46.45.48v.14h-1.3v-.14c.37,0,.42-.06.42-.48V17.44c0-.43,0-.46-.43-.48v-.14h1.28V17C21,17,21,17,21,17.44v.81a.69.69,0,0,0,.35-.22,9.79,9.79,0,0,0,.79-.81c.15-.17.14-.23-.08-.25h-.11v-.14h1.19V17a1.09,1.09,0,0,0-.79.34c-.2.18-.53.51-.84.81.36.44.87,1,1.14,1.29s.35.32.57.34v.14Z"/><path class="cls-2" d="M19.74,4.19H3.23V15.07H19.79C19.88,12.7,19.85,4.76,19.74,4.19Zm-.22,8.94h-16V11.39H19.35a1.36,1.36,0,0,1,.17.17Zm0-5.25h-16A3.87,3.87,0,0,1,3.5,7c0-.29,0-.59,0-.91h16Z"/></svg>