<svg id="Layer_1" data-name="Layer 1" xmlns="http://www.w3.org/2000/svg" viewBox="0 0 20.71 18.14"><defs><style>.cls-1{fill:#231f20;}</style></defs><path class="cls-1" d="M10.58.14c-.28,0-.41.09-.43.28s0,.32,0,.75v.37a1.69,1.69,0,0,1-.37,1.25,1.25,1.25,0,0,1-.89.34,1.29,1.29,0,0,1-.79-.23,1.3,1.3,0,0,1-.44-1.15V.63c0-.43,0-.46-.42-.49V0H8.51V.14c-.38,0-.42,0-.42.49v1c0,.77.33,1.2.91,1.2s.92-.55.92-1.33V1.17a4,4,0,0,0,0-.76c0-.18-.13-.25-.47-.27V0h1.17Z"/><path class="cls-1" d="M13.16,3.06c-.36-.4-.74-.84-1.18-1.35-.11-.14-.18-.16-.26-.15v.88c0,.42,0,.46.45.49v.13h-1.3V2.93c.37,0,.41-.07.41-.49V.62c0-.42,0-.45-.42-.48V0h1.28V.14c-.37,0-.42.06-.42.48v.82a.87.87,0,0,0,.35-.23c.28-.27.59-.57.79-.81S13,.18,12.77.15h-.1V0h1.19V.14a1.1,1.1,0,0,0-.79.35c-.21.18-.53.5-.84.8.35.44.87,1,1.13,1.29a.82.82,0,0,0,.58.35v.13Z"/><path class="cls-1" d="M2.4,17.31c0,.16-.13.61-.18.75H0v-.13c.41,0,.45-.06.45-.47V15.61c0-.41,0-.44-.43-.47V15H1.33v.14c-.38,0-.43.06-.43.47v1.83c0,.26,0,.35.11.4a1.11,1.11,0,0,0,.45.06A.69.69,0,0,0,2,17.75a1.32,1.32,0,0,0,.26-.47Z"/><path class="cls-1" d="M4.34,14.93A1.56,1.56,0,0,1,6,16.49a1.6,1.6,0,0,1-1.67,1.65,1.58,1.58,0,0,1-1.63-1.58,1.62,1.62,0,0,1,1.69-1.63Zm-.1.18c-.55,0-1.06.44-1.06,1.33S3.69,18,4.38,18c.54,0,1-.43,1-1.34s-.55-1.51-1.18-1.51Z"/><path class="cls-1" d="M9.66,15.14c-.27,0-.38.07-.41.29s0,.36,0,.8v1.88H9.07L7,15.66H7v1.15a5.47,5.47,0,0,0,0,.79c0,.25.13.3.46.33v.13H6.29v-.13c.27,0,.4-.08.42-.32a5.76,5.76,0,0,0,0-.8v-1c0-.35,0-.37-.1-.48a.54.54,0,0,0-.43-.18V15H7L9,17.33H9v-1.1c0-.44,0-.65,0-.79s-.14-.28-.48-.3V15H9.66Z"/><path class="cls-1" d="M11.4,15a2,2,0,0,1,1.38.41,1.35,1.35,0,0,1,.41,1,1.51,1.51,0,0,1-.6,1.26,2.52,2.52,0,0,1-1.46.38H9.93v-.13c.41,0,.45-.06.45-.46V15.6c0-.4,0-.42-.41-.45V15Zm-.56,2.43c0,.37.16.46.51.46a1.29,1.29,0,0,0,1.33-1.4,1.25,1.25,0,0,0-.54-1.1,1.5,1.5,0,0,0-.86-.22.84.84,0,0,0-.38.06c-.05,0-.06.09-.06.28Z"/><path class="cls-1" d="M15.4,14.93A1.56,1.56,0,0,1,17,16.49a1.6,1.6,0,0,1-1.68,1.65,1.57,1.57,0,0,1-1.62-1.58,1.62,1.62,0,0,1,1.69-1.63Zm-.11.18c-.54,0-1,.44-1,1.33S14.75,18,15.44,18s1-.43,1-1.34-.55-1.51-1.18-1.51Z"/><path class="cls-1" d="M20.71,15.14c-.26,0-.38.07-.4.29a6.42,6.42,0,0,0,0,.8v1.88h-.15L18,15.66h0v1.15c0,.43,0,.66,0,.79s.14.3.47.33v.13H17.34v-.13c.28,0,.4-.08.43-.32a6.42,6.42,0,0,0,0-.8v-1c0-.35,0-.37-.1-.48a.53.53,0,0,0-.43-.18V15H18l2,2.33h0v-1.1a5.47,5.47,0,0,0,0-.79c0-.22-.13-.28-.47-.3V15h1.14Z"/><path class="cls-1" d="M15.17,9.19h2.52c.41,0,.95.14,1.19-.07s.05-.79.1-1.21-.07-.44-.42-.43c-2.27,0-4.53,0-6.8,0-.33,0-.41-.09-.4-.41,0-.89,0-1.78,0-2.68,0-.23-.06-.31-.3-.3a9.55,9.55,0,0,1-1.07,0c-.27,0-.35.07-.35.34,0,.88,0,1.76,0,2.64,0,.3-.06.41-.4.41-2,0-3.95,0-5.93,0-.42,0-1-.18-1.22.08s0,.79-.08,1.2.08.43.43.43c2.28,0,4.56,0,6.84,0,.29,0,.36.08.36.36,0,.91,0,1.82,0,2.72,0,.23.07.32.3.31a9.73,9.73,0,0,1,1.08,0c.26,0,.35-.06.34-.34,0-.87,0-1.73,0-2.6,0-.34.05-.46.43-.45C12.92,9.21,14.05,9.19,15.17,9.19Z"/><path class="cls-1" d="M9.1,4.36c0-.2-.07-.25-.27-.25H4.11l0,.09,5,2.49C9.09,5.87,9.09,5.12,9.1,4.36Z"/><path class="cls-1" d="M11.94,6.69l5-2.5c-1.61-.08-3.2-.08-4.78-.08-.18,0-.24.06-.24.24C11.94,5.1,11.94,5.85,11.94,6.69Z"/><path class="cls-1" d="M9.09,10l-5,2.49,0,.08H8.84c.12,0,.25,0,.25-.17Z"/><path class="cls-1" d="M11.93,12.31c0,.21.08.26.27.26h4.72l0-.08-5-2.49C11.94,10.81,11.94,11.56,11.93,12.31Z"/><path class="cls-1" d="M7.07,10c-1.1.59-2.22,1.11-3.34,1.67l-1.54.78c.46,0,.9.18,1.33,0L8.87,9.79A2.91,2.91,0,0,0,7.07,10Z"/><path class="cls-1" d="M13.5,6.84C15.29,6,17.06,5.08,18.83,4.2a2.57,2.57,0,0,0-1.74.22C15.5,5.26,13.87,6,12.26,6.84A2.18,2.18,0,0,0,13.5,6.84Z"/><path class="cls-1" d="M2.07,5.09v1.8c.09.15.24.08.37.08,1,0,1.91,0,2.86,0a.69.69,0,0,0,.32,0c.15,0,.12-.12,0-.15Z"/><path class="cls-1" d="M18.89,11.59c.11,0,.08-.12.08-.2,0-.53,0-1.07,0-1.6h0l0,0a.2.2,0,0,0-.18-.06h-3.1a.64.64,0,0,0-.24,0h0s0,0,0,.06,0,.07.11.08h0C16.59,10.4,17.75,11,18.89,11.59Z"/><path class="cls-1" d="M2.24,4.85,6.42,6.91A3,3,0,0,0,7.5,7c.12,0,.1-.1,0-.13L2,4.11C2.12,4.42,1.91,4.69,2.24,4.85Z"/><path class="cls-1" d="M18.64,11.74c-1.15-.55-2.29-1.09-3.4-1.7l-.64-.27h0a1.3,1.3,0,0,0-.33-.07,4.42,4.42,0,0,0-.63,0H13.5c-.06,0-.05.09,0,.12h0l5.4,2.68C19,12.18,19,11.87,18.64,11.74Z"/><path class="cls-1" d="M15.53,7h3.23c.07,0,.16,0,.2-.08V5.08L15.43,6.82C15.23,7,15.41,7,15.53,7Z"/><path class="cls-1" d="M5.44,9.71q-1.56,0-3.12,0c-.09,0-.2,0-.25.08v1.8L5.6,9.85C5.75,9.59,5.5,9.71,5.44,9.71Z"/></svg>