<svg id="Layer_1" data-name="Layer 1" xmlns="http://www.w3.org/2000/svg" viewBox="0 0 40.85 19.3"><defs><style>.cls-1{fill:#231f20;}</style></defs><path class="cls-1" d="M18.72.21c-.28,0-.41.09-.43.28s0,.32,0,.75v.37a1.72,1.72,0,0,1-.38,1.26A1.25,1.25,0,0,1,17,3.2,1.29,1.29,0,0,1,16.22,3a1.29,1.29,0,0,1-.44-1.14V.7c0-.43,0-.46-.42-.49V.07h1.29V.21c-.38,0-.42.05-.42.49v1c0,.77.33,1.2.91,1.2s.92-.55.92-1.33V1.24a4,4,0,0,0,0-.76c0-.18-.13-.24-.47-.27V.07h1.17Z"/><path class="cls-1" d="M20.66.81c-.08-.3-.23-.65-.64-.65a.5.5,0,0,0-.53.52c0,.33.22.49.62.68s.83.42.83.94a1,1,0,0,1-1.09.91,1.49,1.49,0,0,1-.48-.08L19.13,3c0-.09-.1-.52-.13-.75l.15,0c.08.3.31.79.8.79a.52.52,0,0,0,.56-.55c0-.35-.26-.51-.62-.7s-.8-.4-.8-.92a.9.9,0,0,1,1-.86,2,2,0,0,1,.62.11c0,.17,0,.36.09.67Z"/><path class="cls-1" d="M23.2,3.13V3c.3,0,.34-.09.27-.28s-.15-.42-.25-.69h-1c-.08.22-.14.4-.2.59s-.07.34.3.38v.13H21.21V3c.32,0,.38-.08.55-.5l1-2.46.16,0c.31.83.62,1.67.94,2.5.15.41.22.47.53.5v.13ZM22.72.65h0l-.45,1.17h.89Z"/><path class="cls-1" d="M4.6,16.3c-.33.05-.38.1-.52.49S3.67,18,3.27,19.28H3.1c-.27-.76-.6-1.66-.84-2.32h0c-.27.81-.54,1.56-.79,2.32H1.29C1,18.43.76,17.6.49,16.78.37,16.39.3,16.34,0,16.3v-.14H1.22v.14c-.36.05-.36.1-.29.34.19.61.37,1.24.59,1.89h0c.25-.78.52-1.56.77-2.33h.16c.27.78.55,1.54.85,2.33h0c.2-.63.47-1.54.54-1.84s.05-.34-.34-.39v-.14H4.6Z"/><path class="cls-1" d="M6.16,19.22v-.13c.3,0,.34-.09.28-.28l-.26-.69h-1c-.09.22-.15.4-.21.59s-.06.34.3.38v.13H4.18v-.13c.31-.05.38-.08.55-.5l1-2.46.17,0c.3.83.61,1.67.93,2.5.16.41.22.47.54.5v.13Zm-.47-2.48h0c-.16.39-.31.79-.45,1.17h.88Z"/><path class="cls-1" d="M9.3,16.9c-.08-.3-.23-.64-.63-.64a.5.5,0,0,0-.54.51c0,.33.23.49.62.68s.83.42.83.94a1,1,0,0,1-1.08.91A1.56,1.56,0,0,1,8,19.22l-.24-.1c0-.09-.1-.52-.13-.75l.15,0c.08.3.31.79.81.79a.51.51,0,0,0,.55-.55c0-.34-.26-.51-.62-.7s-.8-.4-.8-.92a.9.9,0,0,1,1-.86,2.29,2.29,0,0,1,.62.11c0,.17.05.36.09.67Z"/><path class="cls-1" d="M13.3,16.3c-.4,0-.44.06-.44.46v1.87c0,.4,0,.43.44.46v.13H12v-.13c.42,0,.46-.06.46-.46v-.92H10.77v.92c0,.4,0,.43.44.46v.13H9.89v-.13c.39,0,.43-.06.43-.46V16.76c0-.4,0-.42-.44-.46v-.14h1.3v.14c-.37,0-.41.06-.41.46v.74h1.65v-.74c0-.4,0-.42-.42-.46v-.14h1.3Z"/><path class="cls-1" d="M13.66,19.22v-.13c.39,0,.43-.06.43-.47V16.77c0-.41,0-.44-.43-.47v-.14H15v.14c-.39,0-.43.06-.43.47v1.85c0,.41,0,.44.43.47v.13Z"/><path class="cls-1" d="M18.69,16.3c-.26,0-.38.07-.4.29a6.42,6.42,0,0,0,0,.8v1.88H18.1L16,16.82h0V18c0,.43,0,.65,0,.79s.13.3.47.33v.13H15.32v-.13c.28,0,.4-.08.42-.32a5.88,5.88,0,0,0,0-.8V17c0-.35,0-.37-.1-.49a.56.56,0,0,0-.43-.17v-.14H16l2,2.33h0v-1.1a5.47,5.47,0,0,0,0-.79c0-.22-.13-.28-.48-.3v-.14h1.15Z"/><path class="cls-1" d="M22.2,17.93c-.29.05-.3.07-.3.36v.39a1.85,1.85,0,0,0,0,.43,4.59,4.59,0,0,1-1.12.19A1.63,1.63,0,0,1,19,17.71a1.69,1.69,0,0,1,1.89-1.62,4.62,4.62,0,0,1,1,.14c0,.17,0,.43.08.76l-.14,0a.88.88,0,0,0-1-.76,1.27,1.27,0,0,0-1.29,1.39,1.37,1.37,0,0,0,1.36,1.47,1,1,0,0,0,.41-.08c.11-.05.16-.12.16-.3v-.39c0-.35,0-.38-.51-.42V17.8H22.2Z"/><path class="cls-1" d="M25.08,16.92a1.16,1.16,0,0,0-.16-.44c-.08-.11-.17-.14-.53-.14h-.33v2.29c0,.37,0,.43.5.46v.13H23.13v-.13c.44,0,.48-.08.48-.46V16.34h-.28c-.42,0-.52,0-.58.14a1.47,1.47,0,0,0-.16.44h-.15c0-.3,0-.62.06-.88h.1c.07.12.13.12.27.12h1.95a.25.25,0,0,0,.25-.12h.11c0,.22,0,.58.05.87Z"/><path class="cls-1" d="M27.2,16.09a1.57,1.57,0,0,1,1.62,1.56,1.61,1.61,0,0,1-1.68,1.65,1.58,1.58,0,0,1-1.63-1.58,1.62,1.62,0,0,1,1.69-1.63Zm-.1.18c-.54,0-1.06.44-1.06,1.33s.51,1.52,1.21,1.52c.54,0,1-.43,1-1.34s-.54-1.51-1.18-1.51Z"/><path class="cls-1" d="M32.52,16.3c-.27,0-.38.07-.4.29a6.42,6.42,0,0,0,0,.8v1.88h-.16l-2.11-2.45h0V18c0,.43,0,.65,0,.79s.13.3.46.33v.13H29.15v-.13c.28,0,.4-.08.42-.32a5.88,5.88,0,0,0,0-.8V17c0-.35,0-.37-.1-.49a.57.57,0,0,0-.43-.17v-.14h.74l2.05,2.33h0v-1.1c0-.44,0-.65,0-.79s-.13-.28-.48-.3v-.14h1.15Z"/><path class="cls-1" d="M35.54,16.16a2,2,0,0,1,1.39.4,1.39,1.39,0,0,1,.41,1,1.48,1.48,0,0,1-.6,1.25,2.44,2.44,0,0,1-1.46.39h-1.2v-.13c.41,0,.45-.06.45-.46V16.76c0-.41,0-.42-.41-.45v-.15ZM35,18.59c0,.37.17.46.52.46a1.29,1.29,0,0,0,1.33-1.4,1.28,1.28,0,0,0-.54-1.11,1.59,1.59,0,0,0-.86-.21.84.84,0,0,0-.38.06s-.07.09-.07.27Z"/><path class="cls-1" d="M40.85,18.42a4,4,0,0,1-.28.74,4.6,4.6,0,0,1-.92.14,1.61,1.61,0,0,1-1.8-1.57,1.71,1.71,0,0,1,1.92-1.64,3.72,3.72,0,0,1,.9.14c0,.26.07.47.1.73l-.15,0a.87.87,0,0,0-1-.73,1.26,1.26,0,0,0-1.25,1.36,1.33,1.33,0,0,0,1.3,1.48c.5,0,.77-.26,1-.75Z"/><path d="M11.59,8.58l.19.15c0,.06,0,.14-.07.22h-.25c0-.06,0-.15-.06-.23Z"/><path d="M11.47,5.93a2,2,0,0,0-.08-.22l.2-.14.2.14a1.43,1.43,0,0,0-.08.22Z"/><path d="M11.59,7.57l.19.15L11.7,8l-.11,0L11.47,8c0-.09-.05-.18-.07-.25Z"/><path d="M11.59,6.57l.19.14c0,.07,0,.15-.07.23h-.24l-.07-.23Z"/><path d="M11.47,4.93c0-.08-.05-.16-.07-.23l.19-.14.19.14c0,.08,0,.16-.07.23Z"/><path d="M12.06,5.43c0-.06-.05-.15-.07-.23l.19-.13.19.13-.07.23Z"/><path d="M12.06,7.44A2.09,2.09,0,0,0,12,7.21l.2-.13.19.13c0,.08,0,.16-.07.23Z"/><path d="M12.18,8.09l.2.13c0,.06-.06.15-.09.22h-.22A1.43,1.43,0,0,1,12,8.22Z"/><path d="M12.06,6.44A2.09,2.09,0,0,0,12,6.21l.2-.14.2.13a1.69,1.69,0,0,0-.08.24Z"/><path d="M12.65,4.93c0-.08-.05-.16-.07-.23l.19-.14.19.15c0,.06-.05.14-.07.22Z"/><path d="M12.65,5.93c0-.06-.05-.15-.07-.23l.19-.13.19.14-.07.22Z"/><path d="M12.77,8.58l.19.14c0,.08-.05.16-.07.25l-.12-.06L12.65,9l-.06-.26Z"/><path d="M12.65,7.94l-.07-.22.2-.14.18.14-.07.22Z"/><path d="M12.65,6.94l-.07-.23.19-.14.19.14c0,.08-.05.16-.07.23Z"/><path d="M13.25,7.44l-.09-.23.21-.13.18.14-.07.22Z"/><path d="M13.24,5.43c0-.06-.05-.15-.07-.23l.19-.14.19.14c0,.08-.05.16-.07.23Z"/><path d="M13.24,8.44a2,2,0,0,0-.08-.22l.2-.14.2.15a1.46,1.46,0,0,0-.09.21Z"/><path d="M13.24,6.44c0-.07-.05-.15-.07-.23l.19-.14.2.14a1.23,1.23,0,0,0-.08.23Z"/><path d="M13.83,9a1.87,1.87,0,0,0-.07-.22L14,8.58l.19.15c0,.06-.05.14-.07.22Z"/><path d="M13.83,4.92a2.18,2.18,0,0,1-.06-.22L14,4.56l.19.14-.07.22Z"/><path d="M13.83,7.94c0-.06,0-.15-.07-.22L14,7.58l.19.14-.07.22Z"/><path d="M13.83,6.94l-.07-.23L14,6.57l.2.14-.08.23Z"/><path d="M13.83,5.93l-.07-.23L14,5.57l.2.13c0,.07-.05.16-.08.23Z"/><path d="M14.42,5.43c0-.06-.05-.15-.07-.23l.2-.13.18.13c0,.08-.05.17-.07.23Z"/><path d="M14.42,6.44c0-.06,0-.15-.07-.24l.2-.13.19.14a1.23,1.23,0,0,0-.08.23Z"/><path d="M14.42,8.44l-.07-.22.19-.14.2.14c0,.07-.05.16-.08.22Z"/><path d="M14.42,7.43s0-.14-.07-.22l.19-.13.2.13a2.25,2.25,0,0,0-.08.24Z"/><path d="M15,8.94l-.07-.21.19-.15.19.15c0,.06,0,.14-.07.21Z"/><path d="M15,4.93c0-.07,0-.15-.07-.23l.19-.14.19.14-.07.23Z"/><path d="M15,7.94c0-.06,0-.15-.07-.22a1.57,1.57,0,0,0,.19-.15l.2.15c0,.06-.05.15-.08.22Z"/><path d="M15,6.94l-.07-.23.19-.14.2.14c0,.08-.06.16-.08.23Z"/><path d="M15,5.93l-.07-.23.2-.13.19.13c0,.07-.05.15-.08.23Z"/><path d="M15.6,7.44c0-.06,0-.15-.07-.23l.2-.13.18.13-.06.23Z"/><path d="M15.6,8.44c0-.06,0-.14-.07-.22l.2-.14.18.15c0,.06,0,.14-.07.21Z"/><path d="M15.6,6.44c0-.06,0-.15-.07-.24l.19-.12.2.12c0,.07-.05.16-.08.24Z"/><path d="M15.6,5.43c0-.07,0-.15-.07-.23l.2-.13.19.13c0,.07-.05.15-.08.23Z"/><path d="M16.32,8.58l.19.15-.08.21h-.24l-.06-.21A1.57,1.57,0,0,1,16.32,8.58Z"/><path d="M16.19,5.93c0-.06,0-.15-.07-.23l.2-.14a1.57,1.57,0,0,0,.19.15l-.08.23Z"/><path d="M16.19,4.92a1.76,1.76,0,0,0-.07-.22l.2-.14.18.14c0,.08-.05.16-.06.22Z"/><path d="M16.19,7.94c0-.06,0-.15-.07-.22l.19-.14.2.14-.08.22Z"/><path d="M16.19,6.93c0-.06,0-.14-.07-.21l.19-.15.2.14-.08.23Z"/><path d="M16.79,8.44l-.08-.22.2-.14.18.14c0,.07,0,.16-.06.22Z"/><path d="M16.79,7.44c0-.07-.05-.15-.08-.23l.2-.14.19.15L17,7.44Z"/><path d="M16.79,5.43l-.08-.23.2-.13.19.13a2.09,2.09,0,0,1-.08.23Z"/><path d="M16.79,6.43c0-.06-.05-.15-.08-.22l.2-.14.19.14L17,6.43Z"/><path d="M17.5,8.58l.19.15L17.61,9h-.24l-.06-.23Z"/><path d="M17.38,7.94c0-.06-.05-.15-.08-.22l.2-.14.19.14-.08.22Z"/><path d="M17.38,5.93c0-.06-.05-.15-.08-.23l.2-.13.19.14c0,.06-.05.15-.08.22Z"/><path d="M17.37,4.92s0-.14-.06-.22l.19-.14a2,2,0,0,1,.18.15c0,.07,0,.15-.06.21Z"/><path d="M17.37,6.93a1.11,1.11,0,0,0-.07-.22l.2-.13.19.13c0,.07-.05.15-.08.23Z"/><path d="M11,4.2v9.43H28.74V4.2ZM11,10H28.7v.69H11Zm17.7,3.57H11v-.7h17.7Zm0-1.44H11v-.69h17.7Zm0-7.16H18.1v.71H28.71v.71H18.1V7.1H28.7v.72H18.1v.72H28.7v.72H11v-5h17.7Z"/><path d="M14.73,5.2c0,.08-.05.17-.07.23h-.24c0-.06-.05-.15-.07-.23l.2-.13Z"/><path d="M13,6.71c0,.08-.05.16-.07.23h-.24l-.07-.23.19-.14Z"/><path d="M12.38,6.2a1.69,1.69,0,0,0-.08.24h-.24A2.09,2.09,0,0,0,12,6.21l.2-.14Z"/><path d="M13,5.71l-.07.22h-.24c0-.06-.05-.15-.07-.23l.19-.13Z"/><path d="M13.55,5.2c0,.08-.05.16-.07.23h-.24c0-.06-.05-.15-.07-.23l.19-.14Z"/><path d="M15.92,5.2c0,.07-.05.15-.08.23H15.6c0-.07,0-.15-.07-.23l.2-.13Z"/><path d="M11.78,6.71c0,.07,0,.15-.07.23h-.24l-.07-.23.19-.14Z"/><path d="M13.56,6.21a1.23,1.23,0,0,0-.08.23h-.24c0-.07-.05-.15-.07-.23l.19-.14Z"/><path d="M12.37,5.2l-.07.23h-.24c0-.06-.05-.15-.07-.23l.19-.13Z"/><path d="M16.51,6.71l-.08.23h-.24c0-.06,0-.14-.07-.21l.19-.15Z"/><path d="M11.79,5.71a1.43,1.43,0,0,0-.08.22h-.24a2,2,0,0,0-.08-.22l.2-.14Z"/><path d="M15.33,6.71c0,.08-.06.16-.08.23H15l-.07-.23.19-.14Z"/><path d="M12.37,7.21c0,.08,0,.16-.07.23h-.24A2.09,2.09,0,0,0,12,7.21l.2-.13Z"/><path d="M17.1,6.21,17,6.43h-.24c0-.06-.05-.15-.08-.22l.2-.14Z"/><path d="M16.5,4.7c0,.08-.05.16-.06.22h-.25a1.76,1.76,0,0,0-.07-.22l.2-.14Z"/><path d="M17.1,5.2a2.09,2.09,0,0,1-.08.23h-.23l-.08-.23.2-.13Z"/><path d="M17.68,4.71c0,.07,0,.15-.06.21h-.25s0-.14-.06-.22l.19-.14A2,2,0,0,1,17.68,4.71Z"/><path d="M15.33,5.7c0,.07-.05.15-.08.23H15l-.07-.23.2-.13Z"/><path d="M16.51,5.71l-.08.23h-.24c0-.06,0-.15-.07-.23l.2-.14A1.57,1.57,0,0,0,16.51,5.71Z"/><path d="M17.69,5.71c0,.06-.05.15-.08.22h-.23c0-.06-.05-.15-.08-.23l.2-.13Z"/><path d="M15.92,6.2c0,.07-.05.16-.08.24H15.6c0-.06,0-.15-.07-.24l.19-.12Z"/><path d="M14.15,6.71l-.08.23h-.24l-.07-.23L14,6.57Z"/><path d="M14.74,6.21a1.23,1.23,0,0,0-.08.23h-.24c0-.06,0-.15-.07-.24l.2-.13Z"/><path d="M11.78,7.72,11.7,8l-.11,0L11.47,8c0-.09-.05-.18-.07-.25l.19-.15Z"/><path d="M13,7.72l-.07.22h-.24l-.07-.22.2-.14Z"/><path d="M14.15,5.7c0,.07-.05.16-.08.23h-.24l-.07-.23L14,5.57Z"/><path d="M13.55,7.22l-.07.22h-.23l-.09-.23.21-.13Z"/><path d="M14.74,7.21a2.25,2.25,0,0,0-.08.24l-.24,0s0-.14-.07-.22l.19-.13Z"/><path d="M17.69,6.71c0,.07-.05.15-.08.23h-.24a1.11,1.11,0,0,0-.07-.22l.2-.13Z"/><path d="M15.91,7.21l-.06.23H15.6c0-.06,0-.15-.07-.23l.2-.13Z"/><path d="M17.69,7.72l-.08.22h-.23c0-.06-.05-.15-.08-.22l.2-.14Z"/><path d="M14.74,8.22c0,.07-.05.16-.08.22h-.24l-.07-.22.19-.14Z"/><path d="M13,4.71c0,.06-.05.14-.07.22h-.24c0-.08-.05-.16-.07-.23l.19-.14Z"/><path d="M17.1,7.22,17,7.44h-.23c0-.07-.05-.15-.08-.23l.2-.14Z"/><path d="M15.33,7.72c0,.06-.05.15-.08.22H15c0-.06,0-.15-.07-.22a1.57,1.57,0,0,0,.19-.15Z"/><path d="M16.51,7.72l-.08.22h-.24c0-.06,0-.15-.07-.22l.19-.14Z"/><path d="M15.32,4.7l-.07.23H15c0-.07,0-.15-.07-.23l.19-.14Z"/><path d="M15.91,8.23c0,.06,0,.14-.07.21H15.6c0-.06,0-.14-.07-.22l.2-.14Z"/><path d="M17.69,8.73,17.61,9h-.24l-.06-.23.19-.14Z"/><path d="M14.14,7.72l-.07.22h-.24c0-.06,0-.15-.07-.22L14,7.58Z"/><path d="M17.09,8.22c0,.07,0,.16-.06.22h-.24l-.08-.22.2-.14Z"/><path d="M12.38,8.22c0,.06-.06.15-.09.22h-.22A1.43,1.43,0,0,1,12,8.22l.19-.13Z"/><path d="M11.78,8.73c0,.06,0,.14-.07.22h-.25c0-.06,0-.15-.06-.23l.19-.14Z"/><path d="M13.56,8.23a1.46,1.46,0,0,0-.09.21h-.23a2,2,0,0,0-.08-.22l.2-.14Z"/><path d="M15.32,8.73c0,.06,0,.14-.07.21H15l-.07-.21.19-.15Z"/><path d="M16.51,8.73l-.08.21h-.24l-.06-.21a1.57,1.57,0,0,1,.19-.15Z"/><path d="M14.14,4.7l-.07.22h-.24a2.18,2.18,0,0,1-.06-.22L14,4.56Z"/><path d="M11.78,4.7c0,.08,0,.16-.07.23h-.24c0-.08-.05-.16-.07-.23l.19-.14Z"/><path d="M13,8.72c0,.08-.05.16-.07.25l-.12-.06L12.65,9l-.06-.26.18-.14Z"/><path d="M14.14,8.73c0,.06-.05.14-.07.22h-.24a1.87,1.87,0,0,0-.07-.22L14,8.58Z"/></svg>