<svg id="Layer_1" data-name="Layer 1" xmlns="http://www.w3.org/2000/svg" viewBox="0 0 21.88 18.79"><defs><style>.cls-1{fill:none;stroke:#231f20;stroke-miterlimit:10;stroke-width:0.41px;}.cls-2{fill:#231f20;}.cls-3{fill:#020202;}</style></defs><rect class="cls-1" x="1.56" y="5.13" width="18.8" height="8.69"/><path class="cls-2" d="M3.28.26c-.33,0-.4.09-.59.52s-.63,1.48-1,2.45H1.52C1.19,2.37.79,1.36.52.69.37.33.29.29,0,.26V.12H1.23V.26C.88.3.87.34,1,.55s.49,1.26.79,2h0c.27-.63.6-1.49.75-1.93.1-.28.07-.32-.32-.37V.12h1.1Z"/><path class="cls-2" d="M3.53,3.18V3.05C3.93,3,4,3,4,2.58V.72c0-.4,0-.43-.44-.46V.12H4.85V.26c-.39,0-.43.06-.43.46V2.58c0,.41,0,.44.43.47v.13Z"/><path class="cls-2" d="M7.8.88A1.09,1.09,0,0,0,7.64.44C7.56.33,7.48.29,7.11.29H6.78v2.3c0,.37,0,.43.5.46v.13H5.85V3.05c.44,0,.49-.08.49-.46V.29H6.06c-.42,0-.52.05-.59.15a1.47,1.47,0,0,0-.16.44H5.16c0-.31,0-.62.06-.88h.1c.07.12.13.12.28.12h2A.27.27,0,0,0,7.8,0h.1c0,.22,0,.58,0,.86Z"/><path class="cls-2" d="M10.74,2.42a7.76,7.76,0,0,1-.17.76H8.21V3.05c.44,0,.48-.08.48-.47V.74c0-.43,0-.45-.42-.48V.12h2.19c0,.12,0,.43,0,.7l-.15,0a1,1,0,0,0-.16-.41c-.07-.1-.2-.14-.53-.14H9.3c-.15,0-.16,0-.16.16V1.5h.44c.43,0,.46,0,.52-.35h.15v.92H10.1C10,1.73,10,1.7,9.58,1.7H9.14v.87c0,.22,0,.32.11.38A1.06,1.06,0,0,0,9.74,3c.35,0,.5,0,.61-.16a1.68,1.68,0,0,0,.24-.45Z"/><path class="cls-2" d="M14.37.26c-.27,0-.38.07-.41.28s0,.37,0,.81V3.23h-.15L11.66.78h0V1.93a5.58,5.58,0,0,0,0,.79c0,.24.13.3.46.33v.13H11V3.05c.27,0,.4-.08.42-.32a5.88,5.88,0,0,0,0-.8v-1c0-.34,0-.37-.1-.48a.57.57,0,0,0-.43-.17V.12h.74l2.05,2.32h0V1.35c0-.44,0-.65,0-.79s-.14-.28-.48-.3V.12h1.15Z"/><path class="cls-2" d="M16.37,3.18V3.05c.3,0,.34-.09.28-.28s-.15-.42-.26-.69h-1c-.08.22-.15.4-.21.59s-.06.34.3.38v.13H14.39V3.05c.31,0,.38-.08.55-.5L16,.09l.17,0c.31.83.62,1.67.94,2.5.15.41.22.46.53.5v.13ZM15.9.7h0c-.15.38-.31.79-.45,1.17h.88Z"/><path class="cls-2" d="M20.58,3.18V3.05C21,3,21,3,21,2.48L21,.59h0L19.76,3.15h-.09L18.58.65h0L18.5,2a7,7,0,0,0,0,.77c0,.23.12.26.44.29v.14H17.8V3c.28,0,.37-.09.41-.28s.05-.37.09-.87l.07-.95c.05-.61,0-.64-.41-.68V.12h.82l1.09,2.31L21,.12h.84V.26c-.42,0-.45,0-.44.52l.05,1.7c0,.5,0,.53.45.57v.13Z"/><path class="cls-2" d="M6.59,15.8c-.4,0-.44,0-.44.45v1.87c0,.4,0,.43.44.46v.14H5.25v-.14c.42,0,.45-.06.45-.46V17.2H4.05v.92c0,.4,0,.43.44.46v.14H3.18v-.14c.39,0,.42-.06.42-.46V16.25c0-.4,0-.42-.43-.45v-.15H4.46v.15c-.37,0-.41,0-.41.45V17H5.7v-.74c0-.4,0-.42-.42-.45v-.15H6.59Z"/><path class="cls-2" d="M8.66,18.72v-.14c.3,0,.34-.08.28-.27l-.26-.69h-1c-.08.21-.15.4-.21.58s-.06.34.3.38v.14H6.68v-.14c.31,0,.38-.08.55-.5l1-2.45.17-.05c.3.84.61,1.67.93,2.5.16.42.22.47.54.5v.14Zm-.47-2.49h0c-.16.39-.31.79-.45,1.17h.88Z"/><path class="cls-2" d="M13.5,15.8c-.27,0-.38.06-.41.28s0,.36,0,.8v1.89h-.16L10.8,16.31h0v1.15c0,.44,0,.66,0,.79s.13.31.46.33v.14H10.13v-.14c.28,0,.4-.08.42-.31a6,6,0,0,0,0-.81v-1c0-.34,0-.37-.1-.48a.51.51,0,0,0-.43-.17v-.15h.74l2,2.33h0v-1.1c0-.44,0-.65,0-.78s-.13-.29-.48-.3v-.15H13.5Z"/><path class="cls-2" d="M15.48,15.58a1.57,1.57,0,0,1,1.61,1.57,1.6,1.6,0,0,1-1.68,1.64,1.57,1.57,0,0,1-1.62-1.57,1.62,1.62,0,0,1,1.68-1.64Zm-.11.18c-.54,0-1.06.44-1.06,1.33a1.36,1.36,0,0,0,1.21,1.52c.54,0,1-.43,1-1.34s-.54-1.51-1.18-1.51Z"/><path class="cls-2" d="M17.44,18.72v-.14c.39,0,.44-.06.44-.46V16.26c0-.41-.05-.44-.44-.46v-.15h1.31v.15c-.39,0-.43,0-.43.46v1.86c0,.4,0,.43.43.46v.14Z"/><path class="cls-3" d="M11.78,8.62a.18.18,0,0,1-.15-.1c-.24-.51-.49-1-.74-1.52,0,0,0-.06-.05-.06l-.78,1.57a.16.16,0,0,1-.13.11L8.64,8.8l-.48.07L9.43,10.1a.19.19,0,0,1,.06.18l-.21,1.21L9.19,12l1.54-.82a.24.24,0,0,1,.23,0L12.5,12a.72.72,0,0,1,0-.13c-.1-.54-.19-1.08-.29-1.62a.19.19,0,0,1,.07-.18L13.45,9s.06,0,.06-.08ZM12,10a.18.18,0,0,0-.06.17c.09.46.16.91.24,1.37v0l-1.25-.66a.17.17,0,0,0-.19,0L9.5,11.6l.09-.55c.05-.3.1-.6.16-.9,0-.06,0-.08-.06-.11l-.94-.92L8.65,9l.85-.12.6-.09a.1.1,0,0,0,.1-.07c.21-.43.42-.86.64-1.28,0,0,0,0,.05.06.2.4.4.81.59,1.21a.13.13,0,0,0,.12.08L13,9Z"/></svg>