<?xml version="1.0" encoding="utf-8"?><svg xmlns="http://www.w3.org/2000/svg" width="85.505" height="22.652" viewBox="0 0 85.505 22.652"><g transform="translate(0)"><path d="M428.25,0c.2.03.405.06.608.085a9.354,9.354,0,0,1,2.571.733,7.222,7.222,0,0,1,1.546.927,7.546,7.546,0,0,1,1.8,2,7.378,7.378,0,0,1,.779,1.662,7.642,7.642,0,0,1,.357,1.881,8.075,8.075,0,0,1-.136,2.018,6.78,6.78,0,0,1-1.179,2.724,7.607,7.607,0,0,1-2.122,1.983,9.231,9.231,0,0,1-1.785.864,8.732,8.732,0,0,1-2.374.49,10.263,10.263,0,0,1-2.081-.048,9.653,9.653,0,0,1-2.738-.785,8.225,8.225,0,0,1-2.974-2.324,7.274,7.274,0,0,1-.679-1.078,6.47,6.47,0,0,1-.619-1.7,7.853,7.853,0,0,1-.148-1.039,9.154,9.154,0,0,1-.024-.991,7.013,7.013,0,0,1,.447-2.285,7.632,7.632,0,0,1,2.877-3.649A8.038,8.038,0,0,1,424.632.41,9.124,9.124,0,0,1,426.7.026.222.222,0,0,0,426.761,0Zm-.8,13.857c.149-.01.3-.022.444-.03a6.392,6.392,0,0,0,2.85-.879,6.86,6.86,0,0,0,1.823-1.542,5.525,5.525,0,0,0,.8-1.281,5.809,5.809,0,0,0,.447-1.5,5.676,5.676,0,0,0,.033-1.534A6.318,6.318,0,0,0,431,2.509a6.362,6.362,0,0,0-1.542-.715,5.885,5.885,0,0,0-1.911-.26,7.023,7.023,0,0,0-2.126.337,6.355,6.355,0,0,0-4.074,4.193,5.737,5.737,0,0,0-.149,2.706,5.988,5.988,0,0,0,.84,2.154,6.116,6.116,0,0,0,1.494,1.609,6.54,6.54,0,0,0,1.7.919A6.8,6.8,0,0,0,427.451,13.857Z" transform="translate(-406.562)"/><path d="M0,72.844a2.4,2.4,0,0,0,.03-.271q0-1.473,0-2.946c0-.19,0-.381,0-.571,0-.08.019-.117.108-.116.531,0,1.062,0,1.616,0v.789c0,.265,0,.53,0,.794,0,.465-.017.93-.018,1.4,0,.375.012.75.014,1.124q0,1.137,0,2.273v3.989c0,.157,0,.314,0,.471,0,.1.024.156.141.155q.965-.011,1.93-.014c.449,0,.9.01,1.347.008.515,0,1.031-.016,1.546-.018q2.122,0,4.243,0c.24,0,.241,0,.242.238v.927c0,.2,0,.2-.2.2H3.54c-.846,0-1.692.009-2.539.014-.262,0-.525-.007-.787,0C.07,81.293.03,81.244.03,81.1q.006-2.749,0-5.5,0-.5,0-1.011A.431.431,0,0,0,0,74.483Z" transform="translate(0 -66.886)"/><path d="M1072.746,80.556c-.074.006-.117.013-.159.013-.655,0-1.311,0-1.966,0a.229.229,0,0,1-.208-.108c-.487-.673-.98-1.341-1.465-2.016-.7-.968-1.384-1.94-2.081-2.907a.272.272,0,0,0-.193-.1c-1.579-.006-3.158,0-4.737-.007-.135,0-.155.055-.155.168q.014,2.4.023,4.807v.149c-.054,0-.1.01-.149.01-.491,0-.983-.006-1.474,0-.151,0-.177-.051-.176-.187q.006-3.3,0-6.606c0-.623,0-1.246,0-1.87,0-.286-.019-.573-.018-.859,0-.563.015-1.127.017-1.69,0-.313-.009-.626-.018-.939,0-.105.016-.164.144-.164,1.3,0,2.592,0,3.887,0,.739,0,1.477,0,2.216,0,.435,0,.871.01,1.306.02a7.21,7.21,0,0,1,1.079.048,5.108,5.108,0,0,1,1.336.381,3.462,3.462,0,0,1,1.216.9,4.363,4.363,0,0,1,.844,2.236,3.456,3.456,0,0,1-.668,2.079,4.012,4.012,0,0,1-2.152,1.447l-.112.038c-.1.033-.069.079-.023.143.373.53.731,1.071,1.117,1.591.812,1.1,1.638,2.184,2.46,3.277C1072.666,80.458,1072.695,80.491,1072.746,80.556Zm-10.961-6.611h.2c1.787,0,3.575,0,5.362,0a5.069,5.069,0,0,0,1.279-.139,1.837,1.837,0,0,0,1.144-.761,2.138,2.138,0,0,0,.372-1.477,1.941,1.941,0,0,0-1.358-1.625,3.085,3.085,0,0,0-1.105-.185c-.869,0-1.737,0-2.606,0q-1.571,0-3.142-.009c-.123,0-.149.043-.149.156q0,1.952,0,3.9Z" transform="translate(-1028.411 -66.226)"/><path d="M1958.72,83.306c.043-.091.083-.179.126-.266q.417-.82.834-1.64c.374-.727.753-1.451,1.125-2.177.566-1.1,1.125-2.2,1.689-3.305q.877-1.71,1.756-3.418c.226-.44.45-.882.682-1.319a.212.212,0,0,1,.152-.1c.562,0,1.124.009,1.686.013.176,0,.353-.014.529-.005a.22.22,0,0,1,.159.093c.268.514.525,1.033.791,1.549.283.549.571,1.1.856,1.644s.566,1.09.846,1.636q.381.738.761,1.477c.3.581.592,1.162.891,1.742s.615,1.184.924,1.776l.967,1.857c.082.156.165.311.265.5-.346,0-.655,0-.966,0-.355,0-.71-.011-1.066-.012a.152.152,0,0,1-.163-.092c-.155-.309-.318-.615-.478-.921l-.776-1.486c-.092-.175-.186-.349-.274-.527a.183.183,0,0,0-.188-.129c-.544,0-1.088,0-1.631,0h-4.572c-.355,0-.71-.017-1.064-.015a.213.213,0,0,0-.157.094q-.61,1.171-1.207,2.349c-.1.2-.2.411-.3.613a.185.185,0,0,1-.127.093c-.67.005-1.341,0-2.01,0A.275.275,0,0,1,1958.72,83.306Zm7.475-10.482-2.939,5.8h5.912Z" transform="translate(-1900.367 -68.962)"/><path d="M1571.268,69.72V71.1h-.445l-3.962-.005h-1.185c-.368,0-.737-.014-1.105-.015-.752,0-1.5,0-2.255,0-.134,0-.165.04-.165.169.007,1.146.006,2.294.008,3.439,0,.322,0,.322.331.322H1569v1.367h-6.828v.149c0,1.311,0,2.622,0,3.932,0,.144.04.182.183.182q3.179-.007,6.359,0c.5,0,1,.013,1.5.014.315,0,.631-.007.946-.017.1,0,.143.028.142.134,0,.357-.009.717,0,1.075,0,.144-.046.173-.179.171-.5-.007-.992,0-1.49,0-.944,0-1.888-.014-2.83-.018-.767,0-1.535,0-2.3,0H1560.4c-.039,0-.079,0-.136-.007V69.72Z" transform="translate(-1513.778 -67.643)"/><path d="M2493.74,85.068V72.853a1,1,0,0,1,.105-.01c.507,0,1.013,0,1.519,0,.113,0,.142.034.142.144q0,3.184,0,6.369,0,2.106,0,4.212c0,.116.022.167.152.166.66-.005,1.321,0,1.981,0l7.1,0c.141,0,.222,0,.211.193-.021.354,0,.711.008,1.066,0,.077-.027.105-.1.1q-.974-.01-1.948-.016c-.36,0-.72.006-1.08.005-1.038,0-2.076-.01-3.114-.011q-2.389,0-4.777,0Z" transform="translate(-2419.448 -70.67)"/><path d="M1415.268,594.858c-.141-.009-.238-.019-.335-.02-.218,0-.437.005-.655,0a.245.245,0,0,1-.169-.084q-.641-.91-1.27-1.828a.268.268,0,0,0-.243-.136c-.536,0-1.073.005-1.611,0-.119,0-.151.036-.149.152.005.6,0,1.192.006,1.787,0,.125-.044.152-.155.149-.231-.005-.461,0-.692,0-.1,0-.113-.051-.113-.133q0-1.458,0-2.915c0-.576,0-1.152,0-1.728,0-.11.03-.145.142-.145,1.013,0,2.026-.007,3.039.006a2.592,2.592,0,0,1,1.386.37,1.2,1.2,0,0,1,.55,1.156,1.435,1.435,0,0,1-1.109,1.176c-.06.02-.117.041-.195.069Zm-3.434-2.665c.268,0,.536.005.8,0a2.16,2.16,0,0,0,.98-.185.8.8,0,0,0,.288-.238.711.711,0,0,0-.447-1.121,5.469,5.469,0,0,0-.906-.115c-.51-.019-1.021-.005-1.532-.005-.218,0-.2,0-.2.229.011.427.005.856,0,1.283,0,.1.018.157.135.155C1411.249,592.189,1411.542,592.193,1411.834,592.194Z" transform="translate(-1367.878 -572.378)"/><path d="M1134.582,594.835a7.181,7.181,0,0,0-.825.007c-.276.033-.4-.1-.5-.323-.149-.324-.322-.636-.482-.953a.267.267,0,0,0-.275-.168c-.868.009-1.737.014-2.605,0a.363.363,0,0,0-.37.238q-.291.551-.591,1.1c-.023.043-.074.1-.114.1-.33.008-.661,0-1.032,0,.083-.142.149-.255.213-.368l1.88-3.265c.225-.389.447-.778.683-1.162a.28.28,0,0,1,.2-.117c.312-.013.626,0,.938-.008a.19.19,0,0,1,.189.109c.393.693.791,1.382,1.181,2.077.373.665.738,1.334,1.107,2,.108.195.22.387.33.58C1134.529,594.722,1134.547,594.765,1134.582,594.835Zm-2.284-2.062-1.112-2.112L1130,592.772Z" transform="translate(-1094.192 -572.339)"/><path d="M1766.937,588.286c-.292,0-.554,0-.815,0a.119.119,0,0,1-.086-.078c-.073-.536-.477-.707-.918-.82a2.836,2.836,0,0,0-1.692.076.685.685,0,0,0-.489.566.48.48,0,0,0,.305.557,9.122,9.122,0,0,0,.918.222c.648.133,1.306.226,1.944.4a1.229,1.229,0,0,1,.923.761,1.2,1.2,0,0,1-.365,1.358,2.243,2.243,0,0,1-.935.431,5.787,5.787,0,0,1-2,.089,2.489,2.489,0,0,1-1.552-.692,1.228,1.228,0,0,1-.334-.7c-.047-.328-.045-.325.281-.311a3.859,3.859,0,0,0,.427-.018c.089-.006.132.018.145.117a1,1,0,0,0,.242.559,1.392,1.392,0,0,0,.748.393,3.636,3.636,0,0,0,1.668.021,1.34,1.34,0,0,0,.632-.268.582.582,0,0,0,.23-.489.574.574,0,0,0-.338-.547,6.512,6.512,0,0,0-1.374-.349c-.532-.1-1.063-.212-1.59-.339a1.888,1.888,0,0,1-.447-.223.987.987,0,0,1-.371-1.162,1.449,1.449,0,0,1,.934-.9,3.718,3.718,0,0,1,1.79-.186,5.66,5.66,0,0,1,.927.159,1.449,1.449,0,0,1,1.038.806A5.727,5.727,0,0,1,1766.937,588.286Z" transform="translate(-1709.329 -569.237)"/><path d="M946.28,594.773v-.179c0-1.006,0-2.013,0-3.019,0-.531-.012-1.063-.022-1.595,0-.1.032-.126.13-.125.5,0,1,0,1.506,0,.543,0,1.087-.016,1.629.006a2.7,2.7,0,0,1,1.3.341,1.2,1.2,0,0,1,.324,1.834,1.777,1.777,0,0,1-1.329.626c-.8.038-1.6.034-2.406.048h-.2c0,.238,0,.465,0,.691.005.413.01.826.021,1.238,0,.1-.025.14-.133.137C946.837,594.77,946.569,594.773,946.28,594.773Zm1.907-4.363v.017c-.277,0-.555,0-.832,0-.1,0-.142.038-.141.14q0,.715,0,1.43c0,.1.043.123.135.122.584-.01,1.168-.012,1.753-.025a2.423,2.423,0,0,0,.914-.158.659.659,0,0,0,.431-.557.634.634,0,0,0-.295-.706,1.73,1.73,0,0,0-.6-.194C949.1,590.433,948.642,590.43,948.187,590.41Z" transform="translate(-918.068 -572.277)"/><path d="M267.87,73.292c.085-.209.169-.407.248-.607q.724-1.82,1.449-3.639a.165.165,0,0,1,.119-.089c.586-.007,1.171-.006,1.758-.006.013,0,.025.011.052.024-.108.2-.212.4-.319.6-.235.435-.474.868-.708,1.3q-.422.784-.84,1.57c-.125.236-.248.473-.372.71-.041.078-.077.149-.194.149-.369,0-.738,0-1.107.007A.457.457,0,0,1,267.87,73.292Z" transform="translate(-259.89 -66.896)"/><path d="M1663.012,638.4h-.908v-.592c0-.923,0-1.844,0-2.766,0-.152.037-.2.19-.19.236.013.474,0,.722,0Z" transform="translate(-1612.584 -615.936)"/><path d="M1701.38,5.732c.132-.149.262-.3.4-.447.328-.362.655-.725.991-1.083a.313.313,0,0,1,.2-.1c1-.006,2.006,0,3.009,0,.019,0,.037,0,.056.005l.011.038L1701.4,5.757Z" transform="translate(-1650.694 -3.977)"/><path d="M1661.749,589.06h.894v.89c-.277,0-.543,0-.809,0-.03,0-.08-.057-.081-.089C1661.746,589.6,1661.749,589.334,1661.749,589.06Z" transform="translate(-1612.243 -571.511)"/></g></svg>
