<?xml version="1.0" encoding="UTF-8"?><svg xmlns="http://www.w3.org/2000/svg" xmlns:xlink="http://www.w3.org/1999/xlink" contentScriptType="text/ecmascript" width="750pt" zoomAndPan="magnify" contentStyleType="text/css" viewBox="0 0 750 749.999995" height="749.999995pt" preserveAspectRatio="xMidYMid meet" version="1.2"><defs><g/><clipPath xml:id="clip1" id="clip1"><path d="M 100 533 L 408.929688 533 L 408.929688 750 L 100 750 Z M 100 533 "/></clipPath><clipPath xml:id="clip2" id="clip2"><path d="M 316.734375 296.605469 L 432.984375 296.605469 L 432.984375 418.105469 L 316.734375 418.105469 Z M 316.734375 296.605469 "/></clipPath></defs><g xml:id="surface1" id="surface1"><rect x="0" width="750" y="0" height="749.999995" style="fill:rgb(100%,100%,100%);fill-opacity:1;stroke:none;"/><rect x="0" width="750" y="0" height="749.999995" style="fill:rgb(100%,100%,100%);fill-opacity:1;stroke:none;"/><rect x="0" width="750" y="0" height="749.999995" style="fill:rgb(100%,100%,100%);fill-opacity:1;stroke:none;"/><path style=" stroke:none;fill-rule:nonzero;fill:rgb(85.099792%,85.099792%,85.099792%);fill-opacity:1;" d="M 560.824219 579.347656 C 685.109375 526.058594 571.566406 463.144531 658.636719 429.539062 C 745.703125 395.929688 809.992188 478.445312 794.695312 585.453125 C 784.636719 655.585938 941.496094 781.160156 814.546875 826.972656 C 687.601562 872.78125 677.628906 759.84375 592.882812 744.457031 C 492.0625 726.066406 496.621094 606.851562 560.824219 579.347656 Z M 560.824219 579.347656 "/><path style=" stroke:none;fill-rule:nonzero;fill:rgb(85.099792%,85.099792%,85.099792%);fill-opacity:1;" d="M 82.679688 564.316406 C 130.199219 607.335938 180.179688 784.515625 78.78125 804.4375 C 10.199219 817.9375 24.960938 757.457031 -30.78125 682.578125 C -49.261719 657.796875 -175.5 624.015625 -126.71875 555.257812 C -97.800781 514.515625 20.519531 508.097656 82.679688 564.316406 Z M 82.679688 564.316406 "/><path style=" stroke:none;fill-rule:nonzero;fill:rgb(94.509888%,94.119263%,94.119263%);fill-opacity:1;" d="M -58.722656 46.078125 C -50.445312 45.976562 -42.164062 46.582031 -33.988281 47.898438 C -21.367188 49.816406 -8.542969 49.816406 4.078125 47.996094 C 15.6875 46.179688 26.695312 42.441406 37.496094 37.992188 C 45.371094 34.761719 50.523438 28.796875 53.957031 21.421875 C 58.296875 12.023438 62.234375 2.523438 66.070312 -7.074219 C 69.605469 -15.765625 72.332031 -24.757812 77.078125 -32.84375 C 83.539062 -44.261719 92.828125 -53.863281 104.035156 -60.734375 C 112.3125 -65.683594 120.390625 -70.839844 128.671875 -75.890625 C 134.628906 -79.53125 141.292969 -81.550781 148.054688 -82.964844 C 164.613281 -86.402344 180.972656 -86.402344 197.429688 -81.753906 C 216.816406 -76.296875 235.695312 -69.222656 253.972656 -60.53125 C 267.5 -54.0625 278.910156 -44.566406 289.511719 -34.054688 C 295.367188 -28.398438 300.515625 -22.03125 304.757812 -15.058594 C 309.503906 -7.175781 312.429688 1.714844 313.035156 10.910156 C 313.742188 20.816406 314.046875 30.617188 311.117188 40.214844 C 305.464844 58.910156 294.863281 73.96875 277.191406 82.859375 C 270.53125 86.296875 263.160156 88.621094 255.890625 90.742188 C 239.835938 95.492188 224.691406 102.769531 210.957031 112.367188 C 200.558594 119.542969 191.976562 128.738281 183.597656 138.238281 C 174.511719 148.644531 165.726562 159.253906 156.132812 169.160156 C 142.300781 183.40625 127.15625 196.242188 109.6875 205.839844 C 99.691406 211.296875 89.394531 215.84375 78.1875 217.765625 C 58.699219 221.097656 40.628906 217.765625 24.875 205.234375 C 15.992188 198.261719 7.511719 190.882812 -1.171875 183.8125 C -8.945312 177.34375 -16.722656 170.976562 -25.910156 166.53125 C -36.207031 161.277344 -47.71875 158.851562 -59.230469 159.355469 C -67.910156 159.863281 -76.59375 160.769531 -85.175781 161.480469 C -94.769531 162.1875 -104.359375 162.1875 -113.851562 160.0625 C -130.714844 156.425781 -140.808594 145.714844 -145.554688 129.546875 C -149.796875 114.691406 -147.675781 100.242188 -142.121094 86.195312 C -139.398438 79.324219 -135.558594 72.957031 -130.8125 67.398438 C -124.25 59.820312 -115.769531 55.476562 -106.378906 52.445312 C -95.980469 49.109375 -85.277344 47.796875 -74.476562 47.089844 Z M -58.722656 46.078125 "/><g clip-rule="nonzero" clip-path="url(#clip1)"><path style=" stroke:none;fill-rule:nonzero;fill:rgb(94.509888%,94.119263%,94.119263%);fill-opacity:1;" d="M 408.929688 627.929688 C 407.820312 666.503906 394.5 703.691406 370.910156 734.21875 C 364.25 743.378906 357.035156 751.980469 349.542969 760.585938 C 336.5 776.125 328.453125 794.996094 326.230469 815.257812 C 324.289062 829.132812 324.011719 843.007812 322.070312 856.882812 C 318.738281 882.695312 315.132812 908.503906 304.585938 932.648438 C 289.324219 969.558594 261.019531 999.253906 224.941406 1016.460938 C 211.898438 1022.84375 198.578125 1027.285156 183.871094 1027.007812 C 168.609375 1026.730469 153.34375 1023.398438 139.46875 1017.015625 C 136.140625 1015.351562 132.808594 1013.683594 129.480469 1011.464844 C 118.933594 1005.082031 112.828125 993.425781 113.664062 981.214844 C 114.496094 965.671875 117.269531 950.410156 121.988281 935.703125 C 130.867188 905.730469 135.03125 874.367188 134.199219 843.007812 C 133.644531 830.519531 131.144531 818.03125 126.703125 806.097656 C 119.765625 783.617188 112.550781 760.863281 104.78125 738.382812 C 96.179688 713.683594 100.34375 691.480469 115.050781 670.667969 C 118.378906 666.226562 121.710938 661.785156 125.316406 657.621094 C 138.359375 642.082031 151.402344 626.816406 164.445312 611.277344 C 181.097656 591.851562 198.578125 573.535156 220.78125 560.488281 C 237.152344 550.777344 254.636719 542.726562 272.671875 536.621094 C 283.21875 533.015625 294.597656 532.183594 305.417969 534.402344 C 317.351562 536.621094 329.5625 538.289062 341.21875 541.339844 C 355.09375 544.394531 367.859375 551.609375 377.847656 562.15625 C 390.613281 576.03125 401.4375 590.738281 405.875 609.332031 C 407.542969 616.273438 408.097656 623.765625 408.929688 627.929688 Z M 136.972656 851.058594 C 136.695312 881.585938 131.976562 911.835938 123.097656 941.25 C 118.65625 954.574219 116.4375 968.449219 116.160156 982.324219 C 115.605469 993.425781 121.15625 1003.695312 130.3125 1009.523438 C 137.527344 1014.242188 145.296875 1017.847656 153.625 1020.070312 C 170.828125 1025.0625 188.589844 1027.839844 206.070312 1022.011719 C 247.699219 1007.855469 278.777344 981.492188 298.480469 941.808594 C 312.078125 914.886719 316.796875 886.023438 320.40625 856.605469 C 322.070312 842.730469 322.625 828.578125 324.566406 814.421875 C 326.789062 793.609375 335.390625 774.183594 348.988281 758.363281 C 354.261719 752.257812 359.253906 745.875 364.527344 739.492188 C 386.171875 713.40625 400.328125 682.046875 405.320312 648.464844 C 407.265625 636.53125 407.265625 624.320312 404.765625 612.386719 C 400.328125 593.515625 390.335938 578.527344 377.570312 564.375 C 367.859375 553.550781 355.09375 546.058594 340.941406 543.007812 C 329.285156 540.230469 317.074219 538.566406 305.417969 536.34375 C 294.320312 534.125 283.21875 534.957031 272.949219 538.566406 C 255.191406 544.949219 238.261719 552.71875 222.167969 562.15625 C 200.800781 574.644531 183.59375 592.40625 167.5 610.722656 C 153.902344 626.261719 140.582031 642.359375 127.261719 658.179688 C 123.652344 662.617188 120.042969 666.78125 116.714844 671.5 C 102.285156 691.757812 98.121094 713.40625 106.722656 737.273438 C 113.941406 758.085938 120.042969 778.902344 126.984375 799.4375 C 132.808594 816.089844 137.25 833.019531 136.972656 851.058594 Z M 136.972656 851.058594 "/></g><path style=" stroke:none;fill-rule:nonzero;fill:rgb(85.099792%,85.099792%,85.099792%);fill-opacity:1;" d="M 507.3125 -126.25 C 507.3125 -126.25 478.828125 -129.414062 438.304688 -116.984375 C 377.835938 -98.511719 336.578125 -42.304688 323.015625 -25.246094 C 309.453125 -8.183594 283.90625 60.109375 323.015625 112.027344 C 362.125 163.941406 416.945312 166.085938 477.414062 137.617188 C 537.886719 109.144531 562.074219 44.464844 572.753906 -25.980469 C 583.4375 -96.421875 538.621094 -124.101562 507.3125 -126.25 Z M 568.800781 -24.90625 C 558.457031 43.671875 534.945312 106.660156 476.285156 134.394531 C 417.621094 162.132812 364.386719 159.984375 326.40625 109.425781 C 288.429688 58.867188 313.296875 -7.5625 326.40625 -24.230469 C 339.519531 -40.894531 379.585938 -95.519531 438.304688 -113.539062 C 477.640625 -125.570312 505.277344 -122.519531 505.277344 -122.519531 C 535.625 -120.429688 579.140625 -93.429688 568.800781 -24.90625 Z M 568.800781 -24.90625 "/><path style=" stroke:none;fill-rule:nonzero;fill:rgb(85.099792%,85.099792%,85.099792%);fill-opacity:1;" d="M 706.476562 531.902344 C 683.382812 532.417969 660.285156 534.984375 637.445312 539.089844 C 623.84375 541.398438 610.242188 544.222656 596.386719 542.9375 C 587.660156 542.167969 578.933594 540.886719 570.464844 538.832031 C 549.679688 533.699219 540.183594 513.167969 542.238281 495.203125 C 544.804688 473.128906 555.324219 455.679688 571.492188 441.050781 C 577.394531 435.917969 583.296875 430.785156 589.710938 426.421875 C 613.066406 409.226562 635.390625 390.746094 656.433594 370.984375 C 671.832031 357.125 687.230469 343.523438 704.679688 332.488281 C 718.796875 323.761719 733.9375 317.34375 749.078125 310.929688 C 771.660156 300.660156 794.5 291.679688 817.851562 283.722656 C 838.640625 277.308594 859.941406 272.6875 881.496094 269.863281 C 899.460938 267.296875 917.167969 264.988281 935.132812 262.679688 C 950.527344 260.367188 965.925781 260.625 981.324219 262.933594 C 985.171875 263.703125 988.765625 266.015625 992.613281 266.527344 C 1008.78125 268.324219 1024.4375 271.917969 1040.089844 275.253906 C 1041.375 275.511719 1042.914062 276.023438 1044.195312 276.28125 C 1060.621094 281.15625 1069.859375 298.351562 1064.984375 314.519531 C 1064.726562 315.035156 1064.726562 315.546875 1064.46875 316.0625 C 1062.417969 323.503906 1057.542969 329.664062 1050.867188 333.769531 C 1043.425781 338.132812 1035.472656 341.726562 1027.515625 345.574219 C 1018.535156 349.9375 1009.296875 354.046875 1000.3125 358.40625 C 997.234375 360.203125 994.15625 362.257812 991.589844 364.566406 C 982.605469 372.523438 979.785156 382.535156 981.066406 394.082031 C 982.605469 411.019531 989.792969 427.191406 1001.597656 439.507812 C 1013.914062 452.597656 1026.746094 465.175781 1039.0625 478.261719 C 1048.816406 488.53125 1058.3125 499.050781 1067.035156 510.34375 C 1076.019531 521.636719 1081.152344 535.753906 1081.40625 550.382812 C 1082.433594 571.425781 1072.9375 591.445312 1056 604.277344 C 1041.886719 615.316406 1025.207031 621.21875 1007.757812 624.554688 C 980.554688 629.429688 954.378906 624.554688 928.714844 615.828125 C 910.238281 609.15625 892.789062 600.429688 876.363281 589.90625 C 851.472656 574.25 825.039062 562.1875 798.605469 549.867188 C 770.890625 537.035156 741.378906 532.160156 710.839844 532.417969 Z M 987.484375 624.296875 C 1010.835938 624.296875 1036.242188 616.597656 1053.691406 603.507812 C 1071.140625 590.417969 1079.609375 572.453125 1079.609375 550.894531 C 1079.355469 539.601562 1076.019531 528.566406 1070.371094 518.558594 C 1063.957031 507.523438 1056 497.511719 1046.761719 488.53125 C 1032.390625 473.644531 1017.765625 459.015625 1003.394531 443.871094 C 990.304688 430.011719 981.324219 414.359375 979.527344 394.851562 C 977.988281 378.941406 983.121094 366.878906 996.464844 358.40625 C 999.800781 356.097656 1003.394531 354.300781 1006.984375 352.503906 C 1015.710938 348.398438 1024.949219 344.804688 1033.675781 340.699219 C 1040.347656 337.621094 1046.761719 334.027344 1052.664062 329.921875 C 1061.390625 323.761719 1064.984375 314.777344 1064.46875 304.253906 C 1063.957031 290.652344 1056.769531 281.15625 1043.683594 277.820312 C 1033.160156 274.996094 1022.382812 272.6875 1011.605469 270.632812 C 1003.136719 269.09375 994.667969 268.066406 986.199219 266.785156 C 983.375 266.269531 981.066406 264.21875 978.242188 263.960938 C 964.128906 262.164062 949.757812 262.164062 935.644531 264.21875 C 917.679688 266.527344 899.714844 268.835938 882.007812 271.402344 C 861.992188 273.96875 841.976562 278.332031 822.472656 283.980469 C 797.324219 292.191406 772.429688 301.6875 748.5625 312.980469 C 734.449219 319.398438 720.078125 325.8125 706.734375 333.511719 C 689.539062 343.007812 675.425781 356.097656 661.054688 368.929688 C 640.269531 387.667969 619.738281 406.402344 597.15625 422.828125 C 588.6875 428.988281 580.472656 435.402344 572.519531 442.332031 C 556.609375 456.703125 546.34375 474.15625 544.035156 495.714844 C 541.980469 513.425781 551.730469 530.105469 567.644531 536.007812 C 571.75 537.550781 575.855469 538.578125 580.21875 539.347656 C 597.925781 542.683594 615.632812 541.144531 633.339844 537.804688 C 657.71875 533.1875 682.355469 530.621094 706.992188 529.851562 C 737.273438 529.335938 766.785156 533.1875 794.757812 545.761719 C 815.285156 555 835.816406 565.011719 855.832031 575.277344 C 871.230469 583.234375 885.601562 592.984375 901 601.199219 C 927.6875 615.828125 957.199219 623.785156 987.484375 624.296875 Z M 987.484375 624.296875 "/><g style="fill:rgb(85.099792%,85.099792%,85.099792%);fill-opacity:1;"><g transform="translate(247.147548, 310.94408)"><path style="stroke:none;" d="M -32.824219 -20.460938 L 1.855469 -3.878906 L 10.4375 -21.828125 L 3.5 -25.144531 L -1.765625 -14.132812 L -29.507812 -27.398438 Z M -32.824219 -20.460938 "/></g></g><g style="fill:rgb(85.099792%,85.099792%,85.099792%);fill-opacity:1;"><g transform="translate(257.349117, 289.053067)"><path style="stroke:none;" d="M 14.183594 -19.601562 L 7.953125 -24.105469 L 0.800781 -14.21875 L -5.429688 -18.726562 L 0.496094 -26.914062 L -5.730469 -31.421875 L -11.65625 -23.234375 L -17.886719 -27.742188 L -11.109375 -37.105469 L -17.339844 -41.613281 L -28.621094 -26.019531 L 2.519531 -3.484375 Z M 14.183594 -19.601562 "/></g></g><g style="fill:rgb(85.099792%,85.099792%,85.099792%);fill-opacity:1;"><g transform="translate(271.519115, 268.878961)"><path style="stroke:none;" d="M 13.359375 -12.554688 L -7.695312 -34.964844 L -0.722656 -41.519531 L -5.949219 -47.082031 L -25.5 -28.710938 L -20.273438 -23.148438 L -13.300781 -29.699219 L 7.757812 -7.289062 Z M 13.359375 -12.554688 "/></g></g><g style="fill:rgb(85.099792%,85.099792%,85.099792%);fill-opacity:1;"><g transform="translate(291.960806, 250.370302)"><path style="stroke:none;" d="M -20.699219 -32.386719 L -13.835938 -22.753906 L -8.800781 -26.339844 L -15.007812 -36.441406 Z M -20.699219 -32.386719 "/></g></g><g style="fill:rgb(85.099792%,85.099792%,85.099792%);fill-opacity:1;"><g transform="translate(298.919273, 244.558041)"><path style="stroke:none;" d="M 1.074219 -3.367188 C 6.941406 -3.433594 11.296875 -5.4375 13.121094 -6.585938 C 19.308594 -10.292969 20.914062 -16.679688 17.921875 -22.332031 C 15.050781 -27.746094 8.878906 -28.371094 2.574219 -27.527344 C 0.273438 -27.160156 -1.839844 -27.132812 -3.039062 -28.933594 C -4.1875 -30.757812 -4.027344 -33.09375 -1.679688 -34.519531 C -0.660156 -35.121094 1.453125 -36.300781 6.011719 -36.769531 L 3.394531 -43.777344 C -1.78125 -42.984375 -4.109375 -41.75 -5.816406 -40.722656 C -11.320312 -37.445312 -12.949219 -30.984375 -9.925781 -25.285156 C -6.90625 -19.582031 -0.722656 -19.390625 5.632812 -20.261719 C 7.882812 -20.605469 9.808594 -20.53125 10.984375 -18.65625 C 12.15625 -16.90625 11.199219 -14.574219 9.28125 -13.375 C 7.789062 -12.402344 3.511719 -10.257812 -1.84375 -10.949219 Z M 1.074219 -3.367188 "/></g></g><g style="fill:rgb(85.099792%,85.099792%,85.099792%);fill-opacity:1;"><g transform="translate(333.733061, 226.246985)"><path style="stroke:none;" d="M 16.050781 -1.1875 L 17.386719 -1.355469 L 22.191406 -19.292969 L 31.289062 -3.25 L 32.675781 -3.425781 L 43.417969 -44.152344 L 34.828125 -43.082031 L 29.574219 -22.652344 L 19.722656 -40.820312 L 19.351562 -40.773438 L 14.261719 -20.742188 L 4.152344 -39.257812 L -4.4375 -38.183594 Z M 16.050781 -1.1875 "/></g></g><g style="fill:rgb(85.099792%,85.099792%,85.099792%);fill-opacity:1;"><g transform="translate(378.741793, 221.102802)"><path style="stroke:none;" d="M 0.847656 0.136719 L 9.449219 1.511719 L 11.589844 -2.335938 L 24.171875 -0.324219 L 25.058594 4.011719 L 33.605469 5.378906 L 23.921875 -36.515625 L 23.125 -36.644531 Z M 15.488281 -9.007812 L 20.628906 -18.3125 L 22.496094 -7.886719 Z M 15.488281 -9.007812 "/></g></g><g style="fill:rgb(85.099792%,85.099792%,85.099792%);fill-opacity:1;"><g transform="translate(410.629464, 226.209326)"><path style="stroke:none;" d="M 17.054688 6.730469 L 28.34375 -21.875 L 37.242188 -18.363281 L 40.046875 -25.464844 L 15.089844 -35.3125 L 12.289062 -28.210938 L 21.191406 -24.699219 L 9.902344 3.90625 Z M 17.054688 6.730469 "/></g></g><g style="fill:rgb(85.099792%,85.099792%,85.099792%);fill-opacity:1;"><g transform="translate(435.665084, 235.628731)"><path style="stroke:none;" d="M 40.269531 -8.773438 L 45.386719 -14.867188 C 44.019531 -16.992188 42.132812 -18.816406 39.890625 -20.300781 C 18.179688 -34.640625 -3.378906 -2.101562 18.378906 12.269531 C 20.621094 13.75 23.804688 15.078125 26.308594 15.574219 L 29.84375 8.371094 C 28.21875 8.199219 25.484375 7.554688 22.703125 5.71875 C 10.007812 -2.667969 22.929688 -22.226562 35.625 -13.839844 C 38.40625 -12.003906 39.472656 -10.203125 40.269531 -8.773438 Z M 40.269531 -8.773438 "/></g></g><g style="fill:rgb(85.099792%,85.099792%,85.099792%);fill-opacity:1;"><g transform="translate(460.540614, 251.445629)"><path style="stroke:none;" d="M 21.449219 22.632812 L 49.351562 -3.808594 L 44.0625 -9.386719 L 32.902344 1.1875 L 24.988281 -7.164062 L 36.148438 -17.738281 L 30.859375 -23.320312 L 2.957031 3.121094 L 8.246094 8.703125 L 19.40625 -1.875 L 27.320312 6.476562 L 16.160156 17.054688 Z M 21.449219 22.632812 "/></g></g><g style="fill:rgb(85.099792%,85.099792%,85.099792%);fill-opacity:1;"><g transform="translate(491.506438, 285.667563)"><path style="stroke:none;" d="M 8.019531 21.34375 C 17.898438 45.882812 54.65625 31.078125 44.773438 6.542969 C 34.890625 -17.992188 -1.863281 -3.191406 8.019531 21.34375 Z M 15.398438 18.371094 C 9.652344 4.109375 31.695312 -4.769531 37.441406 9.496094 C 43.1875 23.757812 21.144531 32.636719 15.398438 18.371094 Z M 15.398438 18.371094 "/></g></g><g style="fill:rgb(85.099792%,85.099792%,85.099792%);fill-opacity:1;"><g transform="translate(507.05574, 324.72753)"><path style="stroke:none;" d="M 16.753906 30.25 L 41.660156 27.542969 L 40.835938 19.953125 L 15.980469 22.652344 C 7.964844 23.523438 6.617188 11.125 14.632812 10.253906 L 39.488281 7.550781 L 38.65625 -0.0898438 L 13.75 2.617188 C -4.421875 4.589844 -1.417969 32.222656 16.753906 30.25 Z M 16.753906 30.25 "/></g></g><g style="fill:rgb(85.099792%,85.099792%,85.099792%);fill-opacity:1;"><g transform="translate(510.796692, 357.616143)"><path style="stroke:none;" d="M -2.902344 23.261719 L -3.980469 31.902344 L 12.863281 25.011719 C 14.71875 36.621094 34.039062 37.675781 35.734375 24.070312 L 37.613281 9.027344 L -0.53125 4.269531 L -1.484375 11.898438 L 13.082031 13.714844 L 12.621094 17.394531 Z M 20.496094 14.636719 L 29.03125 15.703125 L 28.195312 22.425781 C 27.546875 27.601562 19.011719 26.535156 19.65625 21.359375 Z M 20.496094 14.636719 "/></g></g><g style="fill:rgb(85.099792%,85.099792%,85.099792%);fill-opacity:1;"><g transform="translate(503.665581, 400.973562)"><path style="stroke:none;" d="M -7.832031 14.246094 L -8.585938 15.792969 L 19.738281 47.277344 L 23.621094 39.304688 L 14.132812 28.945312 L 8.421875 23.113281 L 16.796875 24.082031 L 30.539062 25.089844 L 34.421875 17.113281 Z M -7.832031 14.246094 "/></g></g><g style="fill:rgb(85.099792%,85.099792%,85.099792%);fill-opacity:1;"><g transform="translate(489.168289, 429.456391)"><path style="stroke:none;" d="M -7 9.734375 L 24.214844 32.171875 L 28.703125 25.929688 L -2.511719 3.492188 Z M -7 9.734375 "/></g></g><g style="fill:rgb(85.099792%,85.099792%,85.099792%);fill-opacity:1;"><g transform="translate(481.92803, 441.568881)"><path style="stroke:none;" d="M 15.261719 38.636719 L 23.523438 30.707031 L -3.101562 2.980469 L -11.363281 10.910156 C -29.820312 28.636719 -3.195312 56.363281 15.261719 38.636719 Z M 9.9375 33.09375 C -0.84375 43.445312 -16.816406 26.808594 -6.039062 16.457031 L -3.324219 13.847656 L 12.652344 30.484375 Z M 9.9375 33.09375 "/></g></g><g style="fill:rgb(85.099792%,85.099792%,85.099792%);fill-opacity:1;"><g transform="translate(456.504794, 465.604442)"><path style="stroke:none;" d="M -20.667969 12.574219 L -16.671875 19.140625 L -6.246094 12.800781 L -2.25 19.367188 L -10.886719 24.621094 L -6.890625 31.1875 L 1.746094 25.9375 L 5.742188 32.503906 L -4.132812 38.511719 L -0.136719 45.078125 L 16.304688 35.074219 L -3.675781 2.234375 Z M -20.667969 12.574219 "/></g></g><g style="fill:rgb(85.099792%,85.099792%,85.099792%);fill-opacity:1;"><g transform="translate(436.652322, 479.432442)"><path style="stroke:none;" d="M -21.921875 6.269531 C -47.175781 14.140625 -35.386719 51.96875 -10.132812 44.097656 C 15.121094 36.226562 3.332031 -1.601562 -21.921875 6.269531 Z M -19.554688 13.867188 C -4.875 9.289062 2.195312 31.976562 -12.484375 36.554688 C -27.164062 41.128906 -34.234375 18.441406 -19.554688 13.867188 Z M -19.554688 13.867188 "/></g></g><g style="fill:rgb(85.099792%,85.099792%,85.099792%);fill-opacity:1;"><g transform="translate(395.367487, 490.897584)"><path style="stroke:none;" d="M -5.015625 8.851562 C 0.757812 8.246094 -0.144531 -0.363281 -5.921875 0.242188 C -11.640625 0.84375 -10.898438 9.46875 -5.015625 8.851562 Z M -5.015625 8.851562 "/></g></g><g style="fill:rgb(85.099792%,85.099792%,85.099792%);fill-opacity:1;"><g transform="translate(369.749353, 492.47827)"><path style="stroke:none;" d="M -11.933594 -1.164062 L -15.664062 37.09375 L -8.011719 37.839844 L -4.28125 -0.417969 Z M -11.933594 -1.164062 "/></g></g><g style="fill:rgb(85.099792%,85.099792%,85.099792%);fill-opacity:1;"><g transform="translate(355.637833, 492.298207)"><path style="stroke:none;" d="M -25.75 32.601562 L -14.742188 35.761719 L -4.132812 -1.1875 L -15.140625 -4.347656 C -39.738281 -11.410156 -50.347656 25.539062 -25.75 32.601562 Z M -23.628906 25.210938 C -37.992188 21.085938 -31.628906 -1.082031 -17.261719 3.042969 L -13.644531 4.082031 L -20.011719 26.25 Z M -23.628906 25.210938 "/></g></g><g style="fill:rgb(85.099792%,85.099792%,85.099792%);fill-opacity:1;"><g transform="translate(322.089717, 482.385124)"><path style="stroke:none;" d="M -21.253906 -11.558594 L -24.925781 -4.804688 L -14.207031 1.023438 L -17.878906 7.777344 L -26.757812 2.949219 L -30.429688 9.703125 L -21.550781 14.53125 L -25.226562 21.285156 L -35.378906 15.761719 L -39.054688 22.515625 L -22.144531 31.714844 L -3.777344 -2.054688 Z M -21.253906 -11.558594 "/></g></g><g style="fill:rgb(85.099792%,85.099792%,85.099792%);fill-opacity:1;"><g transform="translate(300.259747, 471.51888)"><path style="stroke:none;" d="M -22.777344 7.890625 L -23.183594 -21.269531 L -24.722656 -22.609375 L -50.46875 6.9375 L -44.632812 12.023438 L -30.363281 -4.351562 L -30.566406 25.421875 L -29.023438 26.765625 L -3.242188 -2.824219 L -9.039062 -7.875 Z M -22.777344 7.890625 "/></g></g><g style="fill:rgb(85.099792%,85.099792%,85.099792%);fill-opacity:1;"><g transform="translate(273.971499, 448.751971)"><path style="stroke:none;" d="M -2.480469 -3.515625 L -11.25 -15.949219 C -14.84375 -21.042969 -21.960938 -22.273438 -27.234375 -18.554688 C -29.695312 -16.820312 -31.273438 -13.929688 -31.222656 -10.871094 C -33.980469 -11.886719 -37.027344 -10.988281 -39.460938 -9.402344 C -45.089844 -5.628906 -46.640625 0.660156 -42.707031 6.242188 L -33.933594 18.671875 Z M -32.113281 7.914062 L -36.050781 2.335938 C -37.320312 0.535156 -36.691406 -1.554688 -34.933594 -2.792969 C -33.21875 -4.003906 -30.996094 -3.925781 -29.722656 -2.125 L -25.789062 3.453125 Z M -19.507812 -0.976562 L -23.441406 -6.558594 C -24.710938 -8.359375 -24.3125 -10.679688 -22.554688 -11.921875 C -20.796875 -13.160156 -18.429688 -12.789062 -17.160156 -10.988281 L -13.222656 -5.410156 Z M -19.507812 -0.976562 "/></g></g><g style="fill:rgb(85.099792%,85.099792%,85.099792%);fill-opacity:1;"><g transform="translate(256.129677, 423.966049)"><path style="stroke:none;" d="M -8.933594 -21.671875 L -12.253906 -29.722656 L -23.515625 -15.425781 C -30.851562 -24.613281 -48.183594 -16.015625 -42.957031 -3.339844 L -37.179688 10.675781 L -1.640625 -3.976562 L -4.570312 -11.085938 L -18.140625 -5.488281 L -19.554688 -8.917969 Z M -25.046875 -2.640625 L -33 0.636719 L -35.582031 -5.625 C -37.570312 -10.445312 -29.617188 -13.726562 -27.628906 -8.902344 Z M -25.046875 -2.640625 "/></g></g><g style="fill:rgb(85.099792%,85.099792%,85.099792%);fill-opacity:1;"><g transform="translate(244.885427, 395.371453)"><path style="stroke:none;" d="M -2.675781 -11.6875 L -40.148438 -3.105469 L -38.429688 4.390625 L -0.960938 -4.191406 Z M -2.675781 -11.6875 "/></g></g><g style="fill:rgb(85.099792%,85.099792%,85.099792%);fill-opacity:1;"><g transform="translate(240.584656, 381.928284)"><path style="stroke:none;" d="M -39.078125 -14.09375 L -38.589844 -2.652344 L -0.183594 -4.296875 L -0.671875 -15.738281 C -1.765625 -41.304688 -40.171875 -39.664062 -39.078125 -14.09375 Z M -31.398438 -14.421875 C -32.035156 -29.355469 -8.992188 -30.34375 -8.355469 -15.410156 L -8.195312 -11.648438 L -31.238281 -10.664062 Z M -31.398438 -14.421875 "/></g></g><g clip-rule="nonzero" clip-path="url(#clip2)"><path style=" stroke:none;fill-rule:nonzero;fill:rgb(86.268616%,86.268616%,86.268616%);fill-opacity:1;" d="M 218.132812 -176.394531 C 214.050781 -188.816406 220.792969 -202.300781 233.394531 -206.382812 C 416.527344 -266.355469 570.917969 -190.058594 577.304688 -186.6875 C 589.015625 -180.832031 593.628906 -166.457031 587.773438 -154.746094 C 581.917969 -143.035156 567.542969 -138.246094 555.832031 -144.277344 C 554.414062 -144.988281 411.914062 -214.898438 248.121094 -161.132812 C 244.929688 -160.070312 241.734375 -159.714844 238.71875 -160.070312 C 229.488281 -160.957031 221.148438 -167.167969 218.132812 -176.394531 Z M 655.03125 -97.433594 C 668.339844 -97.433594 678.988281 -108.257812 678.988281 -121.386719 C 678.988281 -134.695312 668.164062 -145.34375 655.03125 -145.34375 C 641.722656 -145.34375 631.074219 -134.519531 631.074219 -121.386719 C 631.074219 -108.257812 641.722656 -97.433594 655.03125 -97.433594 Z M 9.265625 264.367188 C -4.042969 264.367188 -14.691406 275.191406 -14.691406 288.320312 C -14.691406 301.628906 -4.042969 312.273438 9.265625 312.273438 C 22.574219 312.273438 33.222656 301.449219 33.222656 288.320312 C 33.222656 275.011719 22.398438 264.367188 9.265625 264.367188 Z M 398.605469 356.8125 C 398.605469 343.503906 387.78125 332.859375 374.648438 332.859375 C 361.339844 332.859375 350.691406 343.503906 350.691406 356.8125 C 350.691406 370.121094 361.515625 380.765625 374.648438 380.765625 C 387.78125 380.765625 398.605469 370.121094 398.605469 356.8125 Z M 86.992188 15.242188 C 93.203125 10.449219 96.929688 2.820312 96.398438 -5.519531 C 95.511719 -18.648438 83.976562 -28.765625 70.84375 -27.699219 C 66.585938 -27.34375 62.859375 -25.925781 59.664062 -23.796875 L 59.664062 -23.972656 C 59.308594 -23.796875 59.132812 -23.441406 58.777344 -23.265625 C 58.242188 -22.910156 57.710938 -22.375 57.179688 -22.023438 C 8.734375 14.886719 -32.4375 59.957031 -64.910156 113.1875 C -71.65625 124.011719 -68.28125 138.917969 -56.925781 145.660156 C -45.566406 152.402344 -31.195312 149.03125 -24.449219 137.675781 C 5.007812 89.054688 42.628906 48.777344 86.992188 15.242188 Z M 791.140625 86.570312 C 744.644531 20.742188 685.375 -30.894531 614.925781 -67.269531 C 478.285156 -137.535156 305.972656 -142.859375 163.652344 -83.0625 C 162.765625 -82.707031 162.054688 -82.527344 161.167969 -82.171875 C 160.992188 -82.171875 160.8125 -81.996094 160.636719 -81.996094 C 152.828125 -78.09375 147.328125 -69.929688 147.328125 -60.703125 C 147.328125 -47.394531 158.152344 -36.75 171.285156 -36.75 C 175.542969 -36.75 179.625 -37.992188 183.171875 -39.941406 C 312.007812 -92.464844 470.476562 -89.269531 593.453125 -25.570312 C 657.515625 7.433594 711.105469 54.453125 753.339844 113.71875 C 757.066406 120.285156 764.167969 123.480469 771.621094 123.480469 C 776.410156 123.480469 781.023438 122.058594 785.285156 119.21875 C 796.285156 111.945312 798.769531 97.394531 791.140625 86.570312 Z M 153.003906 357.167969 C 153.003906 243.429688 251.316406 150.628906 372.34375 150.628906 C 427.53125 150.628906 477.929688 170.324219 516.4375 202.261719 C 519.453125 204.746094 522.46875 207.230469 525.664062 210.070312 C 535.070312 218.765625 549.796875 218.054688 559.027344 208.648438 C 567.722656 199.246094 567.011719 183.984375 557.605469 175.292969 C 552.460938 170.5 548.910156 168.015625 543.585938 163.402344 L 543.410156 163.582031 C 497.09375 126.316406 437.46875 103.605469 372.34375 103.605469 C 225.585938 103.605469 105.980469 217.34375 105.980469 357.167969 C 105.980469 370.296875 116.273438 380.765625 129.582031 380.765625 C 142.714844 380.765625 153.003906 370.296875 153.003906 357.167969 Z M 626.460938 283.53125 C 623.089844 270.753906 610.132812 263.125 597.003906 265.964844 C 584.226562 269.335938 576.238281 282.640625 579.433594 295.417969 C 581.207031 302.515625 583.871094 308.371094 586 315.292969 C 589.195312 328.953125 591.5 342.792969 591.5 357.167969 C 591.5 424.949219 576.417969 487.585938 547.847656 538.15625 C 517.679688 592.273438 496.917969 615.34375 460.714844 651.894531 C 451.84375 661.476562 451.84375 675.847656 460.714844 685.429688 C 465.863281 690.042969 472.074219 692.527344 478.105469 692.527344 C 484.140625 692.527344 490.351562 690.222656 494.609375 685.429688 C 535.601562 644.441406 557.605469 618.179688 589.195312 561.222656 C 621.667969 503.378906 638.703125 432.757812 638.703125 356.988281 C 638.703125 336.40625 635.863281 316.355469 630.71875 297.191406 C 628.765625 290.980469 628.058594 290.273438 626.460938 283.53125 Z M 371.453125 466.824219 C 373.230469 463.277344 374.472656 459.371094 374.472656 455.113281 C 374.472656 441.804688 363.648438 431.160156 350.515625 431.160156 C 340.398438 431.160156 331.703125 437.546875 328.15625 446.417969 C 312.539062 478.714844 291.597656 502.3125 260.191406 523.429688 C 226.648438 545.964844 187.789062 556.785156 140.761719 556.785156 C 129.402344 556.785156 110.59375 555.367188 91.78125 552.171875 C 79.183594 549.867188 66.761719 558.207031 64.453125 571.515625 C 62.148438 584.113281 70.664062 596.355469 83.796875 598.839844 C 110.59375 603.984375 134.195312 604.339844 140.761719 604.339844 C 196.660156 604.339844 246.171875 590.324219 286.453125 562.640625 C 322.476562 538.15625 352.289062 503.199219 371.453125 466.824219 Z M 373.585938 217.699219 C 293.550781 217.699219 228.78125 279.804688 228.78125 355.925781 C 228.78125 406.316406 184.949219 447.128906 131 447.128906 C 127.453125 447.128906 124.082031 446.773438 120.707031 446.417969 C 118.402344 445.710938 115.917969 445.175781 113.253906 445.175781 C 99.945312 445.175781 89.296875 456 89.296875 469.132812 C 89.296875 482.441406 100.125 493.085938 113.253906 493.085938 C 114.320312 493.085938 115.207031 492.910156 116.09375 492.730469 C 120.886719 493.261719 125.855469 493.441406 130.824219 493.441406 C 210.679688 493.441406 275.628906 431.515625 275.628906 355.394531 C 275.628906 305 319.460938 264.011719 373.40625 264.011719 C 427.53125 264.011719 471.183594 305 471.183594 355.394531 C 471.183594 435.773438 440.128906 511.007812 383.34375 567.253906 C 351.226562 599.015625 319.816406 620.664062 280.242188 636.988281 L 280.417969 637.167969 C 272.964844 641.25 267.644531 649.054688 267.644531 658.28125 C 267.644531 671.589844 278.289062 682.238281 291.597656 682.238281 C 295.503906 682.238281 299.050781 681.171875 302.246094 679.574219 C 345.191406 661.121094 380.328125 636.101562 416.175781 600.96875 C 482.011719 535.671875 518.210938 448.726562 518.210938 355.570312 C 518.390625 279.804688 453.617188 217.699219 373.585938 217.699219 Z M 249.363281 5.304688 C 240.3125 8.144531 231.441406 11.335938 222.746094 14.707031 Z M 411.027344 -11.730469 C 398.605469 -12.792969 386.007812 -13.503906 373.230469 -13.503906 C 221.148438 -13.503906 81.136719 73.261719 18.492188 204.570312 C 17.074219 207.585938 16.1875 211.132812 16.1875 214.683594 C 16.1875 227.992188 27.011719 238.636719 40.144531 238.636719 C 50.082031 238.636719 58.421875 232.605469 62.148438 224.085938 C 117.160156 108.929688 239.605469 33.871094 373.230469 33.871094 C 379.261719 33.871094 385.117188 34.050781 390.976562 34.402344 C 395.234375 34.582031 399.492188 34.9375 403.753906 35.292969 C 406.769531 35.46875 409.785156 35.644531 412.800781 36 C 530.8125 48.777344 635.15625 120.285156 684.84375 224.085938 C 703.300781 262.238281 712.527344 306.773438 712.527344 355.746094 C 712.527344 374.023438 712.171875 393.363281 707.914062 421.753906 L 708.089844 421.753906 C 707.914062 422.640625 707.734375 423.707031 707.734375 424.59375 C 707.734375 437.902344 718.382812 448.546875 731.691406 448.546875 C 743.402344 448.546875 752.988281 440.207031 755.292969 429.207031 C 758.664062 405.253906 759.019531 380.234375 759.019531 355.746094 C 759.019531 299.320312 748.195312 248.042969 727.078125 203.503906 C 669.757812 83.023438 548.203125 0.691406 411.027344 -11.730469 Z M 411.027344 -11.730469 "/></g><path style=" stroke:none;fill-rule:nonzero;fill:rgb(13.328552%,12.548828%,14.898682%);fill-opacity:1;" d="M 374.648438 410.753906 C 345.015625 410.753906 320.703125 386.621094 320.703125 356.8125 C 320.703125 327.179688 344.835938 302.871094 374.648438 302.871094 C 404.285156 302.871094 428.597656 327.003906 428.597656 356.8125 C 428.417969 386.445312 404.285156 410.753906 374.648438 410.753906 Z M 374.648438 306.066406 C 346.609375 306.066406 323.898438 328.777344 323.898438 356.8125 C 323.898438 384.847656 346.609375 407.558594 374.648438 407.558594 C 402.6875 407.558594 425.402344 384.847656 425.402344 356.8125 C 425.402344 328.777344 402.6875 306.066406 374.648438 306.066406 Z M 374.648438 306.066406 "/><path style=" stroke:none;fill-rule:nonzero;fill:rgb(13.328552%,12.548828%,14.898682%);fill-opacity:1;" d="M 371.632812 347.761719 L 371.632812 367.636719 L 381.570312 357.699219 Z M 371.632812 347.761719 "/></g></svg>