<?xml version="1.0" encoding="utf-8"?>
<!-- Generator: Adobe Illustrator 24.0.2, SVG Export Plug-In . SVG Version: 6.00 Build 0)  -->
<svg version="1.1" id="Layer_1" xmlns="http://www.w3.org/2000/svg" xmlns:xlink="http://www.w3.org/1999/xlink" x="0px" y="0px"
	 viewBox="0 0 513.4 546.7" style="enable-background:new 0 0 513.4 546.7;" xml:space="preserve">
<style type="text/css">
	.st0{fill:#DCDCDC;}
	.st1{fill:#222026;}
</style>
<path class="st0" d="M176,43.1c-2.3-7,1.5-14.6,8.6-16.9c103.2-33.8,190.2,9.2,193.8,11.1c6.6,3.3,9.2,11.4,5.9,18
	c-3.3,6.6-11.4,9.3-18,5.9c-0.8-0.4-81.1-39.8-173.4-9.5c-1.8,0.6-3.6,0.8-5.3,0.6C182.4,51.8,177.7,48.3,176,43.1z M422.2,87.6
	c7.5,0,13.5-6.1,13.5-13.5c0-7.5-6.1-13.5-13.5-13.5c-7.5,0-13.5,6.1-13.5,13.5C408.7,81.5,414.7,87.6,422.2,87.6z M58.3,291.5
	c-7.5,0-13.5,6.1-13.5,13.5c0,7.5,6,13.5,13.5,13.5c7.5,0,13.5-6.1,13.5-13.5C71.8,297.5,65.7,291.5,58.3,291.5z M277.7,343.6
	c0-7.5-6.1-13.5-13.5-13.5c-7.5,0-13.5,6-13.5,13.5s6.1,13.5,13.5,13.5C271.6,357.1,277.7,351.1,277.7,343.6z M102.1,151.1
	c3.5-2.7,5.6-7,5.3-11.7c-0.5-7.4-7-13.1-14.4-12.5c-2.4,0.2-4.5,1-6.3,2.2l0-0.1c-0.2,0.1-0.3,0.3-0.5,0.4
	c-0.3,0.2-0.6,0.5-0.9,0.7c-27.3,20.8-50.5,46.2-68.8,76.2c-3.8,6.1-1.9,14.5,4.5,18.3c6.4,3.8,14.5,1.9,18.3-4.5
	C55.9,192.7,77.1,170,102.1,151.1z M498.9,191.3c-26.2-37.1-59.6-66.2-99.3-86.7C322.6,65,225.5,62,145.3,95.7
	c-0.5,0.2-0.9,0.3-1.4,0.5c-0.1,0-0.2,0.1-0.3,0.1l0,0c-4.4,2.2-7.5,6.8-7.5,12c0,7.5,6.1,13.5,13.5,13.5c2.4,0,4.7-0.7,6.7-1.8l0,0
	c72.6-29.6,161.9-27.8,231.2,8.1c36.1,18.6,66.3,45.1,90.1,78.5c2.1,3.7,6.1,5.5,10.3,5.5c2.7,0,5.3-0.8,7.7-2.4
	C501.8,205.6,503.2,197.4,498.9,191.3z M139.3,343.8c0-64.1,55.4-116.4,123.6-116.4c31.1,0,59.5,11.1,81.2,29.1
	c1.7,1.4,3.4,2.8,5.2,4.4c5.3,4.9,13.6,4.5,18.8-0.8c4.9-5.3,4.5-13.9-0.8-18.8c-2.9-2.7-4.9-4.1-7.9-6.7l-0.1,0.1
	c-26.1-21-59.7-33.8-96.4-33.8c-82.7,0-150.1,64.1-150.1,142.9c0,7.4,5.8,13.3,13.3,13.3C133.5,357.1,139.3,351.2,139.3,343.8z
	 M406.1,302.3c-1.9-7.2-9.2-11.5-16.6-9.9c-7.2,1.9-11.7,9.4-9.9,16.6c1,4,2.5,7.3,3.7,11.2c1.8,7.7,3.1,15.5,3.1,23.6
	c0,38.2-8.5,73.5-24.6,102c-17,30.5-28.7,43.5-49.1,64.1c-5,5.4-5,13.5,0,18.9c2.9,2.6,6.4,4,9.8,4s6.9-1.3,9.3-4
	c23.1-23.1,35.5-37.9,53.3-70c18.3-32.6,27.9-72.4,27.9-115.1c0-11.6-1.6-22.9-4.5-33.7C407.4,306.5,407,306.1,406.1,302.3z
	 M262.4,405.6L262.4,405.6c1-2,1.7-4.2,1.7-6.6c0-7.5-6.1-13.5-13.5-13.5c-5.7,0-10.6,3.6-12.6,8.6l0,0
	c-8.8,18.2-20.6,31.5-38.3,43.4c-18.9,12.7-40.8,18.8-67.3,18.8c-6.4,0-17-0.8-27.6-2.6c-7.1-1.3-14.1,3.4-15.4,10.9
	c-1.3,7.1,3.5,14,10.9,15.4c15.1,2.9,28.4,3.1,32.1,3.1c31.5,0,59.4-7.9,82.1-23.5C234.8,445.8,251.6,426.1,262.4,405.6z
	 M263.6,265.2c-45.1,0-81.6,35-81.6,77.9c0,28.4-24.7,51.4-55.1,51.4c-2,0-3.9-0.2-5.8-0.4c-1.3-0.4-2.7-0.7-4.2-0.7
	c-7.5,0-13.5,6.1-13.5,13.5c0,7.5,6.1,13.5,13.5,13.5c0.6,0,1.1-0.1,1.6-0.2c2.7,0.3,5.5,0.4,8.3,0.4c45,0,81.6-34.9,81.6-77.8
	c0-28.4,24.7-51.5,55.1-51.5c30.5,0,55.1,23.1,55.1,51.5c0,45.3-17.5,87.7-49.5,119.4c-18.1,17.9-35.8,30.1-58.1,39.3l0.1,0.1
	c-4.2,2.3-7.2,6.7-7.2,11.9c0,7.5,6,13.5,13.5,13.5c2.2,0,4.2-0.6,6-1.5l0,0c24.2-10.4,44-24.5,64.2-44.3
	c37.1-36.8,57.5-85.8,57.5-138.3C345.2,300.2,308.7,265.2,263.6,265.2z M193.6,145.5c-5.1,1.6-10.1,3.4-15,5.3L193.6,145.5z
	 M284.7,135.9L284.7,135.9c-7-0.6-14.1-1-21.3-1c-85.7,0-164.6,48.9-199.9,122.9c0,0,0,0,0,0c-0.8,1.7-1.3,3.7-1.3,5.7
	c0,7.5,6.1,13.5,13.5,13.5c5.6,0,10.3-3.4,12.4-8.2c0,0,0,0,0,0c31-64.9,100-107.2,175.3-107.2c3.4,0,6.7,0.1,10,0.3
	c2.4,0.1,4.8,0.3,7.2,0.5c1.7,0.1,3.4,0.2,5.1,0.4c0,0,0,0,0,0c66.5,7.2,125.3,47.5,153.3,106c10.4,21.5,15.6,46.6,15.6,74.2
	c0,10.3-0.2,21.2-2.6,37.2l0.1,0c-0.1,0.5-0.2,1.1-0.2,1.6c0,7.5,6,13.5,13.5,13.5c6.6,0,12-4.7,13.3-10.9l0,0
	c1.9-13.5,2.1-27.6,2.1-41.4c0-31.8-6.1-60.7-18-85.8C430.5,189.3,362,142.9,284.7,135.9z"/>
<g>
	<path class="st1" d="M264.2,374c-16.7,0-30.4-13.6-30.4-30.4c0-16.7,13.6-30.4,30.4-30.4c16.7,0,30.4,13.6,30.4,30.4
		C294.5,360.3,280.9,374,264.2,374z M264.2,315c-15.8,0-28.6,12.8-28.6,28.6s12.8,28.6,28.6,28.6s28.6-12.8,28.6-28.6
		S280,315,264.2,315z"/>
</g>
<g>
	<polygon class="st1" points="262.5,338.5 262.5,349.7 268.1,344.1 	"/>
</g>
</svg>
