<?xml version="1.0" encoding="utf-8"?><svg xmlns="http://www.w3.org/2000/svg" width="37.752" height="8.625" viewBox="0 0 37.752 8.625"><path d="M308.228,0c.229.039.459.068.685.119a4.316,4.316,0,1,1-1.6-.063c.116-.017.233-.038.349-.056Z" transform="translate(-294.583)"/><path d="M0,11.715c.08-.372.163-.745.238-1.117C.56,9.024.878,7.45,1.2,5.877a1.271,1.271,0,0,1,1.961-.86,1.661,1.661,0,0,1,.432.462c.628.953,1.242,1.915,1.861,2.873.03.045.06.089.114.168.035-.156.065-.281.089-.407.153-.749.3-1.5.457-2.244a1.278,1.278,0,0,1,2.5-.078,1.752,1.752,0,0,1-.041.78Q8.013,9.324,7.45,12.078A1.235,1.235,0,0,1,6.439,13.1a1.259,1.259,0,0,1-1.341-.6q-.953-1.467-1.9-2.938c-.028-.043-.057-.085-.111-.164l-.2.983c-.115.573-.229,1.146-.354,1.718a1.274,1.274,0,0,1-2.5-.03A.319.319,0,0,0,0,12.013Z" transform="translate(0 -4.654)"/><path d="M620.278,8.412l.26-.52c.387-.777.767-1.557,1.162-2.329a1.322,1.322,0,1,1,2.356,1.2c-.345.709-.7,1.413-1.051,2.119-.587,1.181-1.17,2.364-1.762,3.542a1.324,1.324,0,0,1-2.078.42,1.374,1.374,0,0,1-.387-.607q-.487-1.436-.979-2.87c-.021-.06-.043-.119-.075-.209-.045.065-.078.11-.109.158l-2.091,3.2a1.329,1.329,0,0,1-2.459-.474q-.426-2.779-.85-5.558a1.321,1.321,0,0,1,1.052-1.472,1.307,1.307,0,0,1,1.543,1c.129.693.222,1.39.331,2.085,0,.027.01.053.024.119.05-.074.08-.116.108-.159.566-.868,1.132-1.739,1.7-2.6a1.321,1.321,0,0,1,1.923-.366,1.372,1.372,0,0,1,.479.685q.412,1.227.832,2.448C620.225,8.276,620.245,8.326,620.278,8.412Z" transform="translate(-593.962 -4.679)"/><path d="M1043.711,5.773V8.731c0,.254-.107.4-.309.442a.361.361,0,0,1-.427-.276.94.94,0,0,1-.018-.207q0-1.362,0-2.725V5.773h-1.04a.377.377,0,0,1-.417-.367.383.383,0,0,1,.425-.376h3.172a.39.39,0,0,1,.44.3l.9,2.267c.02.05.042.1.076.181.032-.073.056-.123.076-.173l.9-2.282a.384.384,0,0,1,.43-.286.374.374,0,0,1,.276.536c-.213.55-.432,1.1-.648,1.646s-.444,1.114-.66,1.673a.405.405,0,0,1-.368.3c-.17.01-.3-.1-.379-.3q-.584-1.479-1.166-2.96a.2.2,0,0,0-.225-.156C1044.406,5.781,1044.069,5.773,1043.711,5.773Z" transform="translate(-1010.472 -4.879)"/></svg>
