<?xml version="1.0" encoding="utf-8"?><svg xmlns="http://www.w3.org/2000/svg" viewBox="0 0 88.4 42.95"><title>hra_1</title><g id="Layer_2" data-name="Layer 2"><g id="Layer_1-2" data-name="Layer 1"><path d="M54.4,26.33a2.85,2.85,0,0,1-.2,1.08,2.33,2.33,0,0,1-.59.82,2.49,2.49,0,0,1-.93.53,4,4,0,0,1-1.32.19h-.94v2.88l0,.09-.09.06-.17,0h-.53l-.17,0-.09-.06,0-.09V24.44a.42.42,0,0,1,.13-.35.48.48,0,0,1,.3-.11h1.77A4.12,4.12,0,0,1,52,24a3.59,3.59,0,0,1,.58.09,2.12,2.12,0,0,1,.68.26,2.19,2.19,0,0,1,.6.48,2.13,2.13,0,0,1,.37.66,2.72,2.72,0,0,1,.13.83m-1.15.09a1.68,1.68,0,0,0-.19-.82,1.31,1.31,0,0,0-.47-.49,1.56,1.56,0,0,0-.57-.2,3.9,3.9,0,0,0-.58-.05h-1v3.21h1a2.43,2.43,0,0,0,.83-.12,1.6,1.6,0,0,0,.55-.34,1.46,1.46,0,0,0,.34-.53,1.76,1.76,0,0,0,.12-.66"/><path d="M60.9,31.84l0,.08-.08.06-.16,0h-.51A.46.46,0,0,1,60,32l-.09-.06,0-.08V28.57a3.1,3.1,0,0,0-.08-.76,1.52,1.52,0,0,0-.22-.5.91.91,0,0,0-.38-.32,1.13,1.13,0,0,0-.54-.11,1.39,1.39,0,0,0-.79.27,4.28,4.28,0,0,0-.83.79v3.9l0,.08L56.9,32l-.16,0h-.51a.61.61,0,0,1-.17,0L56,31.92l0-.08V23.57l0-.09.08-.06a.61.61,0,0,1,.17,0h.51a.53.53,0,0,1,.16,0l.08.06,0,.09V26.9a3,3,0,0,1,.91-.68,2,2,0,0,1,.93-.23,2.13,2.13,0,0,1,1,.19,1.68,1.68,0,0,1,.64.5,2,2,0,0,1,.35.74,4.32,4.32,0,0,1,.1,1Z"/><path d="M67.15,31.84,67.1,32A.46.46,0,0,1,67,32a.94.94,0,0,1-.26,0,1.06,1.06,0,0,1-.27,0,.32.32,0,0,1-.14,0l-.05-.12v-.55a2.79,2.79,0,0,1-.83.6,2.24,2.24,0,0,1-1,.22A3,3,0,0,1,63.6,32a1.93,1.93,0,0,1-.62-.33,1.52,1.52,0,0,1-.4-.54,1.77,1.77,0,0,1,.05-1.53A1.66,1.66,0,0,1,63.2,29a2.7,2.7,0,0,1,.91-.34,5.48,5.48,0,0,1,1.2-.12h.79v-.43a2,2,0,0,0-.07-.57,1,1,0,0,0-.23-.41,1,1,0,0,0-.4-.25,2.15,2.15,0,0,0-.61-.08,2.53,2.53,0,0,0-.7.09,2.79,2.79,0,0,0-.54.2,3.6,3.6,0,0,0-.39.19.57.57,0,0,1-.23.09l-.09,0-.07-.08,0-.12a.88.88,0,0,1,0-.17.74.74,0,0,1,0-.24.36.36,0,0,1,.1-.18,2.34,2.34,0,0,1,.3-.19,4.92,4.92,0,0,1,.49-.2c.18-.05.38-.1.6-.14a3.49,3.49,0,0,1,.65-.06,4,4,0,0,1,1.06.13,1.85,1.85,0,0,1,.7.41,1.47,1.47,0,0,1,.39.65,3.09,3.09,0,0,1,.12.91ZM66.1,29.3h-.9a3.3,3.3,0,0,0-.75.07,1.72,1.72,0,0,0-.53.21,1,1,0,0,0-.31.34.92.92,0,0,0-.1.44.88.88,0,0,0,.29.69,1.08,1.08,0,0,0,.79.26,1.55,1.55,0,0,0,.77-.2,3.6,3.6,0,0,0,.74-.63Z"/><path d="M72.44,26.63c0,.09,0,.17,0,.23a.61.61,0,0,1,0,.15l0,.08-.08,0-.12,0L72,27,71.78,27a1,1,0,0,0-.25,0,.85.85,0,0,0-.31.06,1.28,1.28,0,0,0-.32.2,2.68,2.68,0,0,0-.36.38c-.12.15-.25.35-.4.57v3.67l0,.08L70,32l-.16,0h-.52l-.16,0-.08-.06,0-.08V26.27l0-.09.08-.06.15,0h.46l.15,0,.07.06,0,.09v.81a4.76,4.76,0,0,1,.45-.55,2.64,2.64,0,0,1,.39-.33,1.19,1.19,0,0,1,.37-.16A1.12,1.12,0,0,1,71.6,26h.19L72,26l.21.06.13.06.05.06,0,.07a.45.45,0,0,1,0,.13,1.35,1.35,0,0,1,0,.22"/><path d="M82.16,31.84l0,.08-.08.06a.53.53,0,0,1-.16,0h-.52l-.16,0-.09-.06,0-.08V28.45a2.56,2.56,0,0,0-.07-.64,1.5,1.5,0,0,0-.2-.5.86.86,0,0,0-.36-.32,1,1,0,0,0-.51-.11,1.25,1.25,0,0,0-.73.27,5.32,5.32,0,0,0-.8.79v3.9l0,.08-.09.06-.16,0h-.51a.53.53,0,0,1-.16,0l-.09-.06,0-.08V28.45a2.56,2.56,0,0,0-.07-.64,1.75,1.75,0,0,0-.21-.5.89.89,0,0,0-.35-.32,1.06,1.06,0,0,0-.51-.11,1.22,1.22,0,0,0-.73.27,4.9,4.9,0,0,0-.81.79v3.9l0,.08-.09.06a.53.53,0,0,1-.16,0h-.51a.61.61,0,0,1-.17,0l-.08-.06,0-.08V26.27l0-.09.07-.06.15,0h.47a.39.39,0,0,1,.14,0l.08.06,0,.09V27a3.71,3.71,0,0,1,.94-.77,1.94,1.94,0,0,1,.92-.24,2.49,2.49,0,0,1,.64.08,1.76,1.76,0,0,1,.5.22,1.55,1.55,0,0,1,.37.35,1.82,1.82,0,0,1,.26.45,5,5,0,0,1,.55-.51,2.72,2.72,0,0,1,.49-.34,2,2,0,0,1,.47-.19,1.74,1.74,0,0,1,.45-.06,2,2,0,0,1,.94.19,1.66,1.66,0,0,1,.61.5,2.17,2.17,0,0,1,.33.74,4.28,4.28,0,0,1,.1.9Z"/><path d="M88.4,31.84l-.05.12a.38.38,0,0,1-.14,0A.9.9,0,0,1,88,32a.94.94,0,0,1-.26,0,.37.37,0,0,1-.15,0l0-.12v-.55a2.7,2.7,0,0,1-.84.6,2.2,2.2,0,0,1-1,.22,3,3,0,0,1-.82-.11,2,2,0,0,1-.63-.33,1.65,1.65,0,0,1-.4-.54,1.8,1.8,0,0,1-.14-.71,1.54,1.54,0,0,1,.2-.82,1.66,1.66,0,0,1,.57-.58,2.64,2.64,0,0,1,.9-.34,5.57,5.57,0,0,1,1.21-.12h.79v-.43a2,2,0,0,0-.07-.57,1.09,1.09,0,0,0-.23-.41,1,1,0,0,0-.4-.25,2.17,2.17,0,0,0-.62-.08,2.53,2.53,0,0,0-.7.09,3.39,3.39,0,0,0-.54.2l-.39.19a.52.52,0,0,1-.23.09l-.09,0L84,27.29l0-.12A.91.91,0,0,1,84,27a1.34,1.34,0,0,1,0-.24.38.38,0,0,1,.11-.18,2.34,2.34,0,0,1,.3-.19c.14-.07.3-.13.48-.2s.38-.1.6-.14a3.68,3.68,0,0,1,.66-.06,4,4,0,0,1,1,.13,1.82,1.82,0,0,1,.71.41,1.56,1.56,0,0,1,.38.65,2.79,2.79,0,0,1,.12.91Zm-1-2.54h-.9a3.45,3.45,0,0,0-.76.07,1.66,1.66,0,0,0-.52.21.83.83,0,0,0-.31.34.92.92,0,0,0-.1.44.88.88,0,0,0,.28.69,1.1,1.1,0,0,0,.8.26,1.54,1.54,0,0,0,.76-.2,3.39,3.39,0,0,0,.75-.63Z"/><polygon points="19.09 22.59 21.05 22.59 21.05 26.31 24.89 26.31 24.89 22.59 26.84 22.59 26.84 32.03 24.89 32.03 24.89 27.9 21.05 27.9 21.05 32.03 19.09 32.03 19.09 22.59"/><path d="M28.89,22.6H33a7,7,0,0,1,2.23.23,2.49,2.49,0,0,1,1.59,2.41,2.41,2.41,0,0,1-1.48,2.32,4,4,0,0,1-1.09.29v0a5.28,5.28,0,0,1,2.17,2.3L37.63,32H35.28L33.86,30c-1.18-1.7-1.3-1.88-2.62-1.88h-.39V32h-2Zm2,4H32.3a7.58,7.58,0,0,0,1.77-.12,1.08,1.08,0,0,0,.74-1.11,1,1,0,0,0-.5-1c-.37-.21-.61-.21-1.93-.21H30.85Z"/><polygon points="42.5 24.79 39.78 32.03 37.69 32.03 41.48 22.59 43.56 22.59 47.45 32.03 45.31 32.03 42.5 24.79"/><path d="M43.82,29.15a1.32,1.32,0,1,0-1.31,1.28,1.3,1.3,0,0,0,1.31-1.28"/><path d="M1.72,25.21.3,25.4l-.08-.56a1.33,1.33,0,0,1,0-.54A.73.73,0,0,1,.45,24a.68.68,0,0,1,.35-.17.72.72,0,0,1,.29,0,.73.73,0,0,1,.25.15.83.83,0,0,1,.19.26c0,.06.05.12.07.17s0,.15,0,.29ZM.41,24.84l0,.3L1.51,25l-.05-.3a1.19,1.19,0,0,0-.05-.27,1.19,1.19,0,0,0-.08-.16l-.09-.11A.52.52,0,0,0,.83,24a.46.46,0,0,0-.35.23.51.51,0,0,0-.07.17.5.5,0,0,0,0,.17,1.25,1.25,0,0,0,0,.24"/><path d="M1.44,22.32,0,22.35v-.42a.71.71,0,0,1,.1-.41.34.34,0,0,1,.29-.15.34.34,0,0,1,.22.07.46.46,0,0,1,.14.21l.12-.16a2,2,0,0,1,.27-.22l.18-.14.1-.1v.29l-.1.07v0l-.06.05-.1.07-.11.08-.14.14-.08.11a.65.65,0,0,0,0,.17v.07l.63,0ZM.18,22v.07H.63V22a.69.69,0,0,0,0-.25l-.08-.11-.13,0-.12,0-.07.12a.57.57,0,0,0,0,.25"/><polygon points="0.09 19.64 0.2 18.7 0.38 18.72 0.3 19.42 0.73 19.47 0.81 18.79 1 18.81 0.92 19.49 1.36 19.54 1.45 18.82 1.63 18.84 1.52 19.8 0.09 19.64"/><path d="M.58,16.68l0-.16,1.58-.39-.06.24-.47.12-.17.69.37.3-.06.24Zm.89-.14-.57.14.45.36Z"/><polygon points="1.73 13.2 1.81 12.99 3.15 13.52 3.06 13.74 2.02 13.33 2.35 14.01 2.33 14.05 1.62 14.33 2.66 14.74 2.57 14.96 1.24 14.43 1.32 14.22 2.07 13.93 1.73 13.2"/><path d="M5.66,9.31l-1.1-.92L4.92,8a1.19,1.19,0,0,1,.41-.36.7.7,0,0,1,.4-.08.58.58,0,0,1,.36.15.52.52,0,0,1,.17.22.72.72,0,0,1,.06.29.91.91,0,0,1-.06.32.6.6,0,0,1-.08.16A2.39,2.39,0,0,1,6,8.9ZM5,8.09l-.19.23L5.67,9l.2-.23A1.64,1.64,0,0,0,6,8.54a.64.64,0,0,0,.06-.16l0-.14a.47.47,0,0,0-.19-.39.44.44,0,0,0-.4-.1.58.58,0,0,0-.17.06l-.14.1A1.61,1.61,0,0,0,5,8.09"/><path d="M6.9,5.83,7,5.72l1.53.55-.18.16-.45-.16-.52.49.13.45-.18.17Zm.83.38L7.18,6l.16.55Z"/><path d="M9.53,5.5,8.7,4.33,9,4.08a.72.72,0,0,1,.39-.14.34.34,0,0,1,.29.15.36.36,0,0,1,.07.22.46.46,0,0,1-.1.23h.2a2.56,2.56,0,0,1,.34.1l.22.07.13,0-.23.16-.12,0h0l-.07,0-.12,0-.13,0-.19,0H9.56l-.15.08-.05,0,.36.51ZM9.05,4.29,9,4.33l.27.37.07,0a.86.86,0,0,0,.19-.17l0-.13,0-.12-.11-.07H9.27a1.19,1.19,0,0,0-.22.13"/><polygon points="10.96 2.84 11.79 2.39 11.87 2.55 11.25 2.89 11.46 3.27 12.06 2.95 12.15 3.11 11.55 3.44 11.77 3.83 12.41 3.48 12.49 3.64 11.64 4.1 10.96 2.84"/><path d="M17.28,1.3l-.2-.05a.75.75,0,0,1-.27-.13A.3.3,0,0,1,16.69,1a.33.33,0,0,1,.08-.3.53.53,0,0,1,.32-.18.77.77,0,0,1,.4,0l.05.23a.6.6,0,0,0-.41-.06A.38.38,0,0,0,17,.74L16.9.87,17,1a.55.55,0,0,0,.2.08l.2.05c.22.06.35.17.38.33a.33.33,0,0,1-.07.3.53.53,0,0,1-.32.18.75.75,0,0,1-.47,0l0-.25a.6.6,0,0,0,.48.11.32.32,0,0,0,.17-.1l.05-.14c0-.09-.11-.15-.27-.2"/><polygon points="20.18 0.04 20.42 0.02 20.55 1.45 20.31 1.47 20.25 0.85 19.32 0.93 19.38 1.55 19.14 1.58 19.01 0.15 19.25 0.13 19.3 0.74 20.24 0.66 20.18 0.04"/><path d="M22.57,0h.17l.68,1.47h-.24L23,1l-.71,0L22,1.42h-.24Zm.31.85L22.64.32l-.28.51.52,0"/><path d="M24.66,1.63,24.91.22l.41.07a.71.71,0,0,1,.37.17.35.35,0,0,1,.1.32.31.31,0,0,1-.11.2.49.49,0,0,1-.23.1,1,1,0,0,1,.14.15,3.33,3.33,0,0,1,.16.3l.11.21.07.11-.28-.05-.06-.1v0l0-.06-.05-.12-.06-.12a.85.85,0,0,0-.11-.16l-.1-.1a.37.37,0,0,0-.16-.05H25l-.11.61-.23,0M25.18.44h-.07L25,.88h.09a.84.84,0,0,0,.25,0l.12-.06.06-.12,0-.13-.1-.09a.77.77,0,0,0-.25-.07"/><polygon points="27.55 0.78 28.45 1.05 28.4 1.23 27.72 1.03 27.6 1.45 28.25 1.64 28.2 1.82 27.54 1.62 27.41 2.05 28.11 2.26 28.06 2.43 27.13 2.15 27.55 0.78"/><path d="M4.22,10.19,4,10c-.27.41-.53.84-.77,1.27l.26.14c.24-.42.49-.84.76-1.24"/><path d="M42.67,21.66H43a21.25,21.25,0,0,0-14-19.93l-.1.27A21,21,0,0,1,42.67,21.66"/><path d="M15.2,1.79l-.09-.27a16.31,16.31,0,0,0-1.57.58l.11.26c.51-.21,1-.4,1.55-.57"/><path d="M39.25,33.17a21,21,0,0,1-38-7.06l-.28.06a21.25,21.25,0,0,0,38.66,7Z"/></g></g></svg>
