<?xml version="1.0" encoding="UTF-8"?> <!-- Generator: Adobe Illustrator 24.0.1, SVG Export Plug-In . SVG Version: 6.00 Build 0) --> <svg xmlns="http://www.w3.org/2000/svg" xmlns:xlink="http://www.w3.org/1999/xlink" id="Layer_1" x="0px" y="0px" viewBox="0 0 419.2 94.5" style="enable-background:new 0 0 419.2 94.5;" xml:space="preserve"> <g> <g> <path d="M108,28.7c1.8,0.8,3.3,2.1,4.5,3.9c1.1,1.5,1.8,3.3,2.1,5.4c0.2,1.2,0.3,2.9,0.2,5.2h-19c0.1,2.6,1,4.5,2.7,5.5 c1,0.7,2.3,1,3.8,1c1.6,0,2.8-0.4,3.8-1.2c0.5-0.4,1-1,1.4-1.8h7c-0.2,1.5-1,3.1-2.5,4.7c-2.3,2.5-5.6,3.8-9.8,3.8 c-3.5,0-6.5-1.1-9.2-3.2c-2.7-2.1-4-5.6-4-10.4c0-4.5,1.2-8,3.6-10.4c2.4-2.4,5.5-3.6,9.3-3.6C104.1,27.5,106.2,27.9,108,28.7z M97.8,34.6c-1,1-1.6,2.3-1.8,4h11.7c-0.1-1.8-0.7-3.2-1.8-4.1c-1.1-0.9-2.4-1.4-4-1.4C100.1,33.1,98.7,33.6,97.8,34.6z"></path> <path d="M139.3,29.7c1.7,1.4,2.6,3.8,2.6,7v17.6h-7V38.4c0-1.4-0.2-2.4-0.5-3.2c-0.7-1.3-1.9-2-3.8-2c-2.3,0-3.9,1-4.7,2.9 c-0.4,1-0.7,2.4-0.7,4v14.1h-6.8v-26h6.6V32c0.9-1.3,1.7-2.3,2.5-2.9c1.4-1.1,3.2-1.6,5.3-1.6C135.4,27.6,137.6,28.3,139.3,29.7z"></path> <path d="M164.2,28.2h7.3l-9.4,26.1h-7.2l-9.4-26.1h7.7l5.4,19.2L164.2,28.2z"></path> <path d="M182.4,25.1h-6.9v-6.3h6.9V25.1z M175.5,28.2h6.9v26.1h-6.9V28.2z"></path> <path d="M203.5,27.6c0.1,0,0.3,0,0.6,0v7c-0.4,0-0.8-0.1-1.1-0.1c-0.3,0-0.6,0-0.8,0c-2.7,0-4.6,0.9-5.5,2.7 c-0.5,1-0.8,2.6-0.8,4.6v12.5H189V28.2h6.5v4.5c1.1-1.7,2-2.9,2.8-3.6c1.3-1.1,2.9-1.6,5-1.6C203.3,27.6,203.4,27.6,203.5,27.6z"></path> <path d="M229.8,51.1c-2.2,2.7-5.5,4.1-10,4.1c-4.5,0-7.8-1.4-10-4.1c-2.2-2.7-3.3-6-3.3-9.8c0-3.8,1.1-7,3.3-9.8 c2.2-2.8,5.5-4.1,10-4.1c4.5,0,7.8,1.4,10,4.1c2.2,2.8,3.3,6,3.3,9.8C233.1,45.1,232,48.4,229.8,51.1z M224.4,47.3 c1.1-1.4,1.6-3.4,1.6-6c0-2.6-0.5-4.6-1.6-6s-2.6-2.1-4.6-2.1s-3.5,0.7-4.6,2.1c-1.1,1.4-1.6,3.4-1.6,6c0,2.6,0.5,4.6,1.6,6 c1.1,1.4,2.6,2.1,4.6,2.1S223.3,48.7,224.4,47.3z"></path> <path d="M259.1,29.7c1.7,1.4,2.6,3.8,2.6,7v17.6h-7V38.4c0-1.4-0.2-2.4-0.5-3.2c-0.7-1.3-1.9-2-3.8-2c-2.3,0-3.9,1-4.7,2.9 c-0.4,1-0.7,2.4-0.7,4v14.1h-6.8v-26h6.6V32c0.9-1.3,1.7-2.3,2.5-2.9c1.4-1.1,3.2-1.6,5.3-1.6C255.1,27.6,257.3,28.3,259.1,29.7z"></path> <path d="M300.5,28.3c1.1,0.4,2.1,1.2,3,2.3c0.7,0.9,1.2,2,1.5,3.3c0.2,0.9,0.2,2.2,0.2,3.9l0,16.4h-7V37.7c0-1-0.2-1.8-0.5-2.4 c-0.6-1.2-1.7-1.8-3.3-1.8c-1.9,0-3.2,0.8-3.9,2.3c-0.4,0.8-0.5,1.8-0.5,3v15.5h-6.9V38.7c0-1.5-0.2-2.7-0.5-3.4 c-0.6-1.3-1.7-1.9-3.4-1.9c-1.9,0-3.3,0.6-3.9,1.9c-0.4,0.7-0.5,1.8-0.5,3.2v15.7h-6.9v-26h6.6V32c0.8-1.4,1.6-2.3,2.4-2.9 c1.3-1,3-1.5,5.1-1.5c2,0,3.6,0.4,4.8,1.3c1,0.8,1.7,1.9,2.2,3.1c0.9-1.5,2-2.7,3.3-3.4c1.4-0.7,3-1.1,4.7-1.1 C298.2,27.6,299.4,27.8,300.5,28.3z"></path> <path d="M328.5,28.7c1.8,0.8,3.3,2.1,4.5,3.9c1.1,1.5,1.8,3.3,2.1,5.4c0.2,1.2,0.3,2.9,0.2,5.2h-19c0.1,2.6,1,4.5,2.7,5.5 c1,0.7,2.3,1,3.8,1c1.6,0,2.8-0.4,3.8-1.2c0.5-0.4,1-1,1.4-1.8h7c-0.2,1.5-1,3.1-2.5,4.7c-2.3,2.5-5.6,3.8-9.8,3.8 c-3.5,0-6.5-1.1-9.2-3.2c-2.7-2.1-4-5.6-4-10.4c0-4.5,1.2-8,3.6-10.4c2.4-2.4,5.5-3.6,9.3-3.6C324.6,27.5,326.7,27.9,328.5,28.7z M318.3,34.6c-1,1-1.6,2.3-1.8,4h11.7c-0.1-1.8-0.7-3.2-1.8-4.1c-1.1-0.9-2.4-1.4-4-1.4C320.6,33.1,319.3,33.6,318.3,34.6z"></path> <path d="M359.8,29.7c1.7,1.4,2.6,3.8,2.6,7v17.6h-7V38.4c0-1.4-0.2-2.4-0.5-3.2c-0.7-1.3-1.9-2-3.8-2c-2.3,0-3.9,1-4.7,2.9 c-0.4,1-0.7,2.4-0.7,4v14.1h-6.8v-26h6.6V32c0.9-1.3,1.7-2.3,2.5-2.9c1.4-1.1,3.2-1.6,5.3-1.6C355.9,27.6,358.1,28.3,359.8,29.7z"></path> <path d="M366,33.3v-4.9h3.6v-7.3h6.7v7.3h4.2v4.9h-4.2v13.8c0,1.1,0.1,1.7,0.4,2c0.3,0.3,1.1,0.4,2.5,0.4c0.2,0,0.4,0,0.7,0 c0.2,0,0.5,0,0.7,0v5.1l-3.2,0.1c-3.2,0.1-5.4-0.4-6.6-1.7c-0.8-0.8-1.1-2-1.1-3.6V33.3H366z"></path> <path d="M395.3,38.4c1.3-0.2,2.2-0.4,2.7-0.6c1-0.4,1.5-1.1,1.5-1.9c0-1.1-0.4-1.8-1.1-2.2c-0.8-0.4-1.9-0.6-3.3-0.6 c-1.6,0-2.8,0.4-3.5,1.2c-0.5,0.6-0.8,1.4-1,2.4h-6.6c0.1-2.3,0.8-4.2,1.9-5.6c1.8-2.3,4.9-3.4,9.3-3.4c2.9,0,5.4,0.6,7.6,1.7 c2.2,1.1,3.3,3.3,3.3,6.4v12c0,0.8,0,1.8,0,3c0,0.9,0.2,1.5,0.4,1.8c0.2,0.3,0.6,0.6,1,0.8v1h-7.4c-0.2-0.5-0.4-1-0.4-1.5 c-0.1-0.5-0.1-1-0.2-1.6c-0.9,1-2,1.9-3.3,2.6c-1.5,0.8-3.1,1.3-5,1.3c-2.4,0-4.3-0.7-5.9-2c-1.5-1.3-2.3-3.3-2.3-5.7 c0-3.2,1.2-5.5,3.7-7c1.4-0.8,3.4-1.3,6-1.7L395.3,38.4z M399.5,41.6c-0.4,0.3-0.9,0.5-1.3,0.7c-0.4,0.2-1.1,0.3-1.8,0.5l-1.6,0.3 c-1.5,0.3-2.5,0.6-3.1,0.9c-1.1,0.6-1.6,1.6-1.6,2.9c0,1.2,0.3,2,1,2.5c0.7,0.5,1.5,0.8,2.4,0.8c1.5,0,2.9-0.4,4.1-1.3 c1.3-0.9,1.9-2.4,2-4.7V41.6z"></path> <path d="M419.2,54.3h-6.8V19h6.8V54.3z"></path> <path d="M105,67.2c1.6,0.7,2.8,1.8,3.8,3.3c0.9,1.3,1.5,2.9,1.8,4.6c0.2,1,0.2,2.5,0.2,4.4H94.6c0.1,2.2,0.9,3.8,2.3,4.7 c0.9,0.6,2,0.8,3.2,0.8c1.3,0,2.4-0.3,3.2-1c0.5-0.4,0.9-0.9,1.2-1.5h5.9c-0.2,1.3-0.9,2.7-2.2,4c-2,2.2-4.8,3.2-8.4,3.2 c-3,0-5.6-0.9-7.8-2.7c-2.3-1.8-3.4-4.8-3.4-8.9c0-3.9,1-6.8,3.1-8.9c2-2.1,4.7-3.1,8-3.1C101.7,66.2,103.5,66.5,105,67.2z M96.3,72.2c-0.8,0.8-1.3,2-1.5,3.4h10c-0.1-1.5-0.6-2.7-1.5-3.5s-2.1-1.2-3.4-1.2C98.3,71,97.1,71.4,96.3,72.2z"></path> <path d="M118.3,81.9c0.1,1,0.4,1.8,0.8,2.2c0.7,0.8,2.1,1.2,4,1.2c1.1,0,2.1-0.2,2.7-0.5c0.7-0.3,1-0.9,1-1.5 c0-0.7-0.3-1.1-0.8-1.5c-0.5-0.3-2.6-0.9-6.1-1.8c-2.5-0.6-4.3-1.4-5.3-2.3c-1-0.9-1.6-2.3-1.6-4c0-2.1,0.8-3.8,2.4-5.3 s3.9-2.2,6.8-2.2c2.8,0,5,0.6,6.8,1.7c1.8,1.1,2.8,3,3,5.7h-5.8c-0.1-0.7-0.3-1.3-0.6-1.8c-0.6-0.8-1.7-1.2-3.3-1.2 c-1.3,0-2.2,0.2-2.7,0.6c-0.5,0.4-0.8,0.9-0.8,1.4c0,0.7,0.3,1.1,0.9,1.4c0.6,0.3,2.6,0.9,6.1,1.6c2.3,0.5,4.1,1.4,5.2,2.5 c1.1,1.1,1.7,2.5,1.7,4.2c0,2.2-0.8,4-2.5,5.4c-1.6,1.4-4.2,2.1-7.6,2.1c-3.5,0-6.1-0.7-7.8-2.2s-2.5-3.4-2.5-5.6H118.3z"></path> <path d="M141.5,81.9c0.1,1,0.4,1.8,0.8,2.2c0.7,0.8,2.1,1.2,4,1.2c1.1,0,2.1-0.2,2.7-0.5c0.7-0.3,1-0.9,1-1.5 c0-0.7-0.3-1.1-0.8-1.5c-0.5-0.3-2.6-0.9-6.1-1.8c-2.5-0.6-4.3-1.4-5.3-2.3c-1-0.9-1.6-2.3-1.6-4c0-2.1,0.8-3.8,2.4-5.3 s3.9-2.2,6.8-2.2c2.8,0,5,0.6,6.8,1.7c1.8,1.1,2.8,3,3,5.7h-5.8c-0.1-0.7-0.3-1.3-0.6-1.8c-0.6-0.8-1.7-1.2-3.3-1.2 c-1.3,0-2.2,0.2-2.7,0.6c-0.5,0.4-0.8,0.9-0.8,1.4c0,0.7,0.3,1.1,0.9,1.4c0.6,0.3,2.6,0.9,6.1,1.6c2.3,0.5,4.1,1.4,5.2,2.5 c1.1,1.1,1.7,2.5,1.7,4.2c0,2.2-0.8,4-2.5,5.4c-1.6,1.4-4.2,2.1-7.6,2.1c-3.5,0-6.1-0.7-7.8-2.2s-2.5-3.4-2.5-5.6H141.5z"></path> <path d="M174.7,67.2c1.6,0.7,2.8,1.8,3.8,3.3c0.9,1.3,1.5,2.9,1.8,4.6c0.2,1,0.2,2.5,0.2,4.4h-16.2c0.1,2.2,0.9,3.8,2.3,4.7 c0.9,0.6,2,0.8,3.2,0.8c1.3,0,2.4-0.3,3.2-1c0.5-0.4,0.9-0.9,1.2-1.5h5.9c-0.2,1.3-0.9,2.7-2.2,4c-2,2.2-4.8,3.2-8.4,3.2 c-3,0-5.6-0.9-7.8-2.7c-2.3-1.8-3.4-4.8-3.4-8.9c0-3.9,1-6.8,3.1-8.9c2-2.1,4.7-3.1,8-3.1C171.4,66.2,173.2,66.5,174.7,67.2z M166,72.2c-0.8,0.8-1.3,2-1.5,3.4h10c-0.1-1.5-0.6-2.7-1.5-3.5s-2.1-1.2-3.4-1.2C168,71,166.8,71.4,166,72.2z"></path> <path d="M201.4,68c1.5,1.2,2.2,3.2,2.2,6v15h-6V75.5c0-1.2-0.2-2.1-0.5-2.7c-0.6-1.1-1.6-1.7-3.2-1.7c-2,0-3.3,0.8-4,2.5 c-0.4,0.9-0.6,2-0.6,3.4v12h-5.8V66.8h5.6V70c0.7-1.1,1.4-2,2.1-2.5c1.2-0.9,2.7-1.3,4.5-1.3C198.1,66.2,199.9,66.8,201.4,68z"></path> <path d="M206.7,71.1V67h3.1v-6.2h5.8V67h3.6v4.1h-3.6v11.8c0,0.9,0.1,1.5,0.3,1.7c0.2,0.2,0.9,0.3,2.1,0.3c0.2,0,0.4,0,0.6,0 c0.2,0,0.4,0,0.6,0v4.3l-2.8,0.1c-2.7,0.1-4.6-0.4-5.6-1.4c-0.7-0.7-1-1.7-1-3.1V71.1H206.7z"></path> <path d="M228.9,64.1H223v-5.4h5.9V64.1z M223,66.8h5.9V89H223V66.8z"></path> <path d="M243.3,75.5c1.1-0.1,1.9-0.3,2.3-0.5c0.8-0.4,1.3-0.9,1.3-1.7c0-0.9-0.3-1.5-1-1.9c-0.6-0.3-1.6-0.5-2.8-0.5 c-1.4,0-2.4,0.3-3,1c-0.4,0.5-0.7,1.2-0.8,2h-5.6c0.1-1.9,0.7-3.5,1.6-4.8c1.5-2,4.2-2.9,8-2.9c2.4,0,4.6,0.5,6.5,1.4 c1.9,1,2.8,2.8,2.8,5.5v10.2c0,0.7,0,1.6,0,2.6c0,0.8,0.2,1.3,0.3,1.6c0.2,0.3,0.5,0.5,0.9,0.7V89h-6.3c-0.2-0.4-0.3-0.9-0.4-1.3 s-0.1-0.8-0.2-1.3c-0.8,0.9-1.7,1.6-2.8,2.2c-1.3,0.7-2.7,1.1-4.3,1.1c-2,0-3.7-0.6-5-1.7c-1.3-1.1-2-2.8-2-4.9 c0-2.7,1.1-4.7,3.2-5.9c1.2-0.7,2.9-1.1,5.1-1.4L243.3,75.5z M246.9,78.2c-0.4,0.2-0.7,0.4-1.1,0.6c-0.4,0.1-0.9,0.3-1.6,0.4 l-1.3,0.2c-1.2,0.2-2.1,0.5-2.7,0.8c-0.9,0.5-1.4,1.4-1.4,2.5c0,1,0.3,1.7,0.8,2.2c0.6,0.4,1.2,0.7,2,0.7c1.3,0,2.4-0.4,3.5-1.1 s1.6-2.1,1.7-4V78.2z"></path> <path d="M263.7,89h-5.8V58.9h5.8V89z"></path> <path d="M273.9,81.9c0.1,1,0.4,1.8,0.8,2.2c0.7,0.8,2.1,1.2,4,1.2c1.1,0,2.1-0.2,2.7-0.5c0.7-0.3,1-0.9,1-1.5 c0-0.7-0.3-1.1-0.8-1.5c-0.5-0.3-2.6-0.9-6.1-1.8c-2.5-0.6-4.3-1.4-5.3-2.3c-1-0.9-1.6-2.3-1.6-4c0-2.1,0.8-3.8,2.4-5.3 s3.9-2.2,6.8-2.2c2.8,0,5,0.6,6.8,1.7c1.8,1.1,2.8,3,3,5.7h-5.8c-0.1-0.7-0.3-1.3-0.6-1.8c-0.6-0.8-1.7-1.2-3.3-1.2 c-1.3,0-2.2,0.2-2.7,0.6c-0.5,0.4-0.8,0.9-0.8,1.4c0,0.7,0.3,1.1,0.9,1.4c0.6,0.3,2.6,0.9,6.1,1.6c2.3,0.5,4.1,1.4,5.2,2.5 c1.1,1.1,1.7,2.5,1.7,4.2c0,2.2-0.8,4-2.5,5.4c-1.6,1.4-4.2,2.1-7.6,2.1c-3.5,0-6.1-0.7-7.8-2.2s-2.5-3.4-2.5-5.6H273.9z"></path> </g> <path d="M74.7,35.8c-0.6-3.8-1.7-7.2-3.1-10.4c3.7-2.5,6.1-6.7,6.1-11.5C77.7,6.2,71.5,0,63.8,0c-5.6,0-10.4,3.3-12.6,8 c-3.9-1.3-7.9-2-11.9-2c-11.7,0-21.2,4.2-28.4,12.6C3.6,27,0,37.9,0,51.3C0,65,3.6,75.6,10.8,83.2c7.2,7.6,16,11.4,26.3,11.4 c4.2,0,8-0.4,11.4-1.3c6.3-1.5,11.5-4.3,15.7-8.4c2.5-2.4,4.8-5.5,6.9-9.3c2.1-3.8,3.3-7.2,3.6-10.3H60.9c-1,3.7-2.7,7-5.2,9.8 c-4.3,4.9-10.2,7.3-17.4,7.3c-7.8,0-13.6-2.6-17.3-7.7c-3.7-5.1-5.7-12-6-20.5h60.9C75.9,45.8,75.5,39.6,74.7,35.8z M15.4,43 c0.3-7.2,2.6-13.1,6.9-17.8c4.3-4.7,9.7-7,16.1-7c8.9,0,15.3,3.4,19.1,10.2c2.1,3.6,3.4,8.5,4,14.6H15.4z M63.8,23.2 c-5.1,0-9.3-4.2-9.3-9.3c0-5.1,4.2-9.3,9.3-9.3s9.3,4.2,9.3,9.3C73.1,19,68.9,23.2,63.8,23.2z"></path> <g> <g> <path d="M66.4,8.9c0.8,0.3,1.4,0.9,1.9,1.6c0.5,0.7,0.8,1.4,0.9,2.3c0.1,0.5,0.1,1.2,0.1,2.2h-8.1c0,1.1,0.4,1.9,1.2,2.3 c0.4,0.3,1,0.4,1.6,0.4c0.7,0,1.2-0.2,1.6-0.5c0.2-0.2,0.4-0.4,0.6-0.8h3c-0.1,0.7-0.4,1.3-1.1,2c-1,1.1-2.4,1.6-4.2,1.6 c-1.5,0-2.8-0.5-3.9-1.4c-1.1-0.9-1.7-2.4-1.7-4.5c0-1.9,0.5-3.4,1.5-4.4c1-1,2.3-1.5,4-1.5C64.8,8.4,65.6,8.5,66.4,8.9z M62.1,11.4c-0.4,0.4-0.7,1-0.8,1.7h5c-0.1-0.8-0.3-1.4-0.8-1.8c-0.5-0.4-1-0.6-1.7-0.6C63.1,10.8,62.5,11,62.1,11.4z"></path> </g> </g> </g> </svg> 