<?xml version="1.0" encoding="utf-8"?><svg xmlns="http://www.w3.org/2000/svg" width="35.183" height="4.346" viewBox="0 0 35.183 4.346"><path d="M1075.412,5.531c-.023.1-.045.2-.07.3a1.658,1.658,0,0,1-1.5,1.341,3.581,3.581,0,0,1-.43.032c-.411,0-.822,0-1.243,0V3.046c.007-.005.015-.016.022-.016.54.008,1.084-.018,1.62.033a1.652,1.652,0,0,1,1.569,1.525.9.9,0,0,0,.03.11Zm-2.617-2.076V6.806c.344-.034.681-.043,1.008-.107a1.076,1.076,0,0,0,.834-.768,2.572,2.572,0,0,0,.018-1.594,1.142,1.142,0,0,0-.822-.807A3.48,3.48,0,0,0,1072.795,3.455Z" transform="translate(-1040.229 -2.94)"/><path d="M0,3c.526.01,1.053-.006,1.576.038a1.035,1.035,0,0,1,.962.856A1.126,1.126,0,0,1,2.05,5.111a3.761,3.761,0,0,1-.352.167l.614.936.63.959c-.243,0-.458,0-.672,0-.026,0-.06-.034-.076-.06Q1.535,6.086.878,5.058c0-.007,0-.018,0-.038.118-.007.235-.013.352-.023a.69.69,0,0,0,.683-.688c.027-.5-.159-.781-.593-.869a1.541,1.541,0,0,0-.251-.026c-.142,0-.285,0-.444,0V7.171H0Z" transform="translate(0 -2.911)"/><path d="M614.984,0c.2.058.407.117.611.173a.125.125,0,0,1,.106.149c-.008.143,0,.287,0,.447-.113-.056-.212-.108-.315-.154a1.66,1.66,0,0,0-.894-.169.542.542,0,0,0-.5.363.511.511,0,0,0,.17.59,5.085,5.085,0,0,0,.575.364c.218.127.453.228.662.367a1.162,1.162,0,0,1,.534,1.285,1.149,1.149,0,0,1-1,.894,2.481,2.481,0,0,1-1.425-.183.17.17,0,0,1-.123-.19c.01-.147,0-.295,0-.413.278.112.545.238.823.328a1.192,1.192,0,0,0,.719,0,.608.608,0,0,0,.239-1.071,6.265,6.265,0,0,0-.59-.37,7.208,7.208,0,0,1-.806-.5A1.112,1.112,0,0,1,613.62.41a1.145,1.145,0,0,1,.674-.378A.971.971,0,0,0,614.388,0Z" transform="translate(-595.113)"/><path d="M943.772,2.738a3.944,3.944,0,0,1,.426.005.245.245,0,0,1,.141.108q.975,1.351,1.945,2.707c.03.043.064.083.124.16V2.747h.47V6.918a3.368,3.368,0,0,1-.364,0c-.042,0-.088-.056-.117-.1L944.372,4c-.032-.044-.065-.088-.125-.17V6.91h-.477Z" transform="translate(-915.654 -2.654)"/><path d="M384.592,4.3l1.249,1.9c-.238,0-.454,0-.668,0a.123.123,0,0,1-.077-.057q-.664-1.032-1.322-2.067a.122.122,0,0,1,0-.028c.107-.007.213-.012.32-.02a.709.709,0,0,0,.723-.76.712.712,0,0,0-.7-.815c-.191-.018-.386,0-.6,0V6.2h-.608V2c.555.027,1.109.014,1.65.089a1.009,1.009,0,0,1,.9,1.01,1.1,1.1,0,0,1-.763,1.162Z" transform="translate(-371.503 -1.94)"/><path d="M811.944,6.926c-.214,0-.417.005-.618,0-.035,0-.081-.06-.1-.1-.111-.292-.221-.584-.319-.88a.148.148,0,0,0-.172-.116c-.451,0-.9,0-1.355,0a.142.142,0,0,0-.158.113c-.1.3-.213.587-.312.882a.136.136,0,0,1-.159.111c-.119-.007-.238,0-.374,0,.018-.062.03-.113.048-.161L809.836,2.9a.193.193,0,0,1,.219-.156c.34.01.34,0,.459.324q.691,1.859,1.38,3.718C811.911,6.826,811.923,6.868,811.944,6.926Zm-1.886-3.338-.64,1.81h1.294Z" transform="translate(-784.297 -2.662)"/><path d="M284.51,3.09h2.246V3.5h-1.622V4.866h1.554v.419h-1.549V6.839H286.9v.417H284.51Z" transform="translate(-276.034 -2.998)"/><path d="M152.26,2.7c.22,0,.417-.008.615.007.043,0,.1.084.117.139q.514,1.45,1.018,2.9c.022.063.047.125.084.222.03-.087.051-.141.07-.195l1.013-2.936c.035-.1.082-.155.2-.143s.217,0,.338,0a.723.723,0,0,1-.019.105l-1.4,3.967a.143.143,0,0,1-.161.111c-.383,0-.383,0-.51-.351l-1.3-3.638C152.306,2.836,152.288,2.78,152.26,2.7Z" transform="translate(-147.724 -2.612)"/><path d="M723.5,3.05h.605V6.8h1.69c-.05.14-.089.261-.138.377a.1.1,0,0,1-.081.042c-.688,0-1.377,0-2.076,0Z" transform="translate(-701.946 -2.959)"/><path d="M114.979,7.3h-.6V3.13h.6Z" transform="translate(-110.972 -3.037)"/><path d="M567.52,3h.6V7.167h-.6Z" transform="translate(-550.613 -2.911)"/></svg>
