<?xml version="1.0" encoding="utf-8"?><svg xmlns="http://www.w3.org/2000/svg" width="30.392" height="8.673" viewBox="0 0 30.392 8.673"><path d="M711.73,8.671V0h9.189V8.671ZM719.1,5.782c-.086.051-.144.086-.2.119a3.96,3.96,0,0,1-2.83.574,2.17,2.17,0,0,1-1.57-3.124,2.242,2.242,0,0,1,1.989-1.232,4.3,4.3,0,0,1,2.182.486c.119.055.238.117.376.186,0-.367,0-.713,0-1.058,0-.034-.049-.083-.086-.1-.155-.065-.314-.122-.473-.179a4.764,4.764,0,0,0-3.167-.078,3.1,3.1,0,0,0-2.136,3.476,3.046,3.046,0,0,0,1.936,2.383,4.423,4.423,0,0,0,2.222.266,4.936,4.936,0,0,0,1.658-.5.2.2,0,0,0,.1-.137C719.1,6.519,719.1,6.167,719.1,5.782Z" transform="translate(-690.527)"/><path d="M365,8.818H355.81V.15H365Zm-6.763-1.224h.2c.72,0,1.44,0,2.159,0a3.683,3.683,0,0,0,.65-.06,1.948,1.948,0,0,0,1.229-.665,1.585,1.585,0,0,0-.662-2.453c-.108-.045-.218-.083-.342-.13.034-.024.053-.04.074-.052a1.47,1.47,0,0,0-.034-2.529,2.358,2.358,0,0,0-1.176-.325c-.645-.008-1.291,0-1.936,0-.052,0-.1.005-.158.008Z" transform="translate(-345.21 -0.146)"/><path d="M9.189,0V8.672H0V0ZM2.428,7.448H2.61c.73,0,1.46.008,2.188,0a3.707,3.707,0,0,0,.779-.093,1.749,1.749,0,0,0,1.24-.866,1.586,1.586,0,0,0-.8-2.212c-.113-.049-.23-.089-.357-.136a.8.8,0,0,1,.068-.05,1.473,1.473,0,0,0-.089-2.566,2.4,2.4,0,0,0-1.111-.29c-.65-.007-1.3,0-1.95,0-.048,0-.1.005-.151.008Z"/><path d="M474.07,162.355v-1.7c.013-.01.021-.021.03-.021.529.012,1.06.006,1.586.05a.942.942,0,0,1,.5.255.75.75,0,0,1-.1,1.173,2.5,2.5,0,0,1-.592.216.755.755,0,0,1-.221.02C474.88,162.356,474.485,162.355,474.07,162.355Z" transform="translate(-459.947 -155.854)"/><path d="M474.07,74.585V72.953a4.777,4.777,0,0,1,1.272.078.689.689,0,0,1,.512.6.735.735,0,0,1-.326.736,1.248,1.248,0,0,1-.32.153A3.827,3.827,0,0,1,474.07,74.585Z" transform="translate(-459.947 -70.776)"/><path d="M118.17,162.318v-1.679c.015-.009.024-.019.032-.019.529.013,1.06.012,1.587.049a.893.893,0,0,1,.45.207.764.764,0,0,1-.1,1.259,1.26,1.26,0,0,1-.544.175C119.126,162.334,118.656,162.318,118.17,162.318Z" transform="translate(-114.65 -155.835)"/><path d="M118.21,75.027v-1.6c.011-.009.019-.02.027-.02.352.005.705-.01,1.054.023a.741.741,0,0,1,.7.637.784.784,0,0,1-.518.846,1.462,1.462,0,0,1-.445.106C118.762,75.039,118.49,75.027,118.21,75.027Z" transform="translate(-114.688 -71.223)"/></svg>
