<?xml version="1.0" encoding="UTF-8"?> <svg xmlns="http://www.w3.org/2000/svg" viewBox="0 0 113.4 30.27"><title>superdry</title><g id="Layer_2" data-name="Layer 2"><g id="Layer_1-2" data-name="Layer 1"><g id="VCNDev.tif"><path d="M16.13,9.37H12.07C12,9.18,12,9,12,8.8a2.81,2.81,0,0,0-1.75-2.07,6,6,0,0,0-4.17-.12,2.22,2.22,0,0,0-1.6,2.55,1.64,1.64,0,0,0,1.17,1.47c.73.26,1.49.45,2.25.64a38.43,38.43,0,0,1,5.77,1.66,4.67,4.67,0,0,1,3.05,3.5c.67,3.45-.75,6.77-4.73,7.8a12,12,0,0,1-8.12-.48,6.33,6.33,0,0,1-3.78-5.4c0-.11,0-.21,0-.31s0-.18,0-.3H4.19c0,.2.07.39.12.58a3.26,3.26,0,0,0,2.1,2.35,7.27,7.27,0,0,0,4.47.13,2.33,2.33,0,0,0,1.75-2.89,1.71,1.71,0,0,0-1-1.29,27.06,27.06,0,0,0-2.8-.94c-1.57-.43-3.18-.73-4.73-1.21A4.7,4.7,0,0,1,.59,11.08a6.37,6.37,0,0,1,1-5.83A6,6,0,0,1,5.2,3.18a12.64,12.64,0,0,1,6.49.16,6,6,0,0,1,4.4,5.58C16.1,9.06,16.12,9.21,16.13,9.37Z"></path><path d="M36.21,8.87v2l.55-.7c2-2.49,5.6-2.26,7.61-.62A7.26,7.26,0,0,1,46.87,14a11.27,11.27,0,0,1-.68,6.9,5.73,5.73,0,0,1-4.07,3.53,5.18,5.18,0,0,1-5.65-2l-.15-.17V30.2h-4V8.87Zm6.86,7.64a7.05,7.05,0,0,0-.62-3,2.91,2.91,0,0,0-2.86-1.67,2.83,2.83,0,0,0-2.72,1.69,7.35,7.35,0,0,0-.49,4.14,5.62,5.62,0,0,0,.53,1.78,3.13,3.13,0,0,0,5.54,0A6.32,6.32,0,0,0,43.07,16.51Z"></path><path d="M86.77,24.06H83v-2a3.26,3.26,0,0,0-.31.38c-2.17,3.1-6.65,2.65-8.7.16a8.4,8.4,0,0,1-1.82-4.38,11.45,11.45,0,0,1,.61-5.77,6.1,6.1,0,0,1,4.1-3.94,5.36,5.36,0,0,1,5.87,2l.13.19V3.46h3.94ZM76.1,16.38a6.46,6.46,0,0,0,.63,3.14,2.94,2.94,0,0,0,2.84,1.6,2.77,2.77,0,0,0,2.73-1.8,8,8,0,0,0,.5-2.07,6.5,6.5,0,0,0-.45-3.56,3,3,0,0,0-2.85-1.85,2.94,2.94,0,0,0-2.85,1.76A5.87,5.87,0,0,0,76.1,16.38Z"></path><path d="M62.36,17.54H52.15c0,1.68.69,3.11,2.07,3.48s3.09.13,3.79-1.35a.45.45,0,0,1,.23-.17s.12,0,.19,0h3.73A6.38,6.38,0,0,1,61,21.94a6.75,6.75,0,0,1-4.7,2.59,8,8,0,0,1-3.82-.35,6.35,6.35,0,0,1-4-4.06,10.88,10.88,0,0,1,0-7.36A6.27,6.27,0,0,1,54,8.36a8.74,8.74,0,0,1,3.45.23,6.06,6.06,0,0,1,4.14,3.52A11.64,11.64,0,0,1,62.36,17.54Zm-4.24-2.68a2.8,2.8,0,0,0-2.95-3.17c-1.92,0-3,1.29-3,3.17Z"></path><path d="M96.87,8.86h4.47c1.06,3.64,2.13,7.27,3.22,11,.29-1,.56-1.92.81-2.83.75-2.61,1.49-5.23,2.23-7.84.07-.25.16-.36.45-.36,1.29,0,2.58,0,3.93,0-.25.74-.5,1.45-.74,2.16q-2.77,7.93-5.55,15.87A10.52,10.52,0,0,1,105,28.4a3.31,3.31,0,0,1-2.79,1.82c-1,.09-2.06,0-3.12,0V27c.44,0,.87,0,1.29,0a2,2,0,0,0,1.91-2.85Q99.65,16.69,97,9.29Z"></path><path d="M17.66,8.86h4.07v.42c0,3,0,6,0,8.93a6.53,6.53,0,0,0,.16,1.32A1.77,1.77,0,0,0,23.47,21,3,3,0,0,0,27.1,19a4.75,4.75,0,0,0,.12-1.2c0-2.8,0-5.61,0-8.42V8.87h4.06V24.05h-4V22.41l-.09,0a10.62,10.62,0,0,1-.81.83,5.66,5.66,0,0,1-4.16,1.28,7.55,7.55,0,0,1-1.5-.23A3.91,3.91,0,0,1,17.82,21a7.74,7.74,0,0,1-.17-1.59c0-3.4,0-6.79,0-10.19C17.65,9.11,17.66,9,17.66,8.86Z"></path><path d="M96.49,8.43V12.6c-.67,0-1.32,0-2,0a2.77,2.77,0,0,0-2.71,2.88c0,2.66,0,5.32,0,8v.57h-4V8.87h3.73v2.41l.08.06A4.68,4.68,0,0,1,96.49,8.43Z"></path><path d="M63.48,8.85h3.74v2.43l.07.07c1-2,2.58-3.15,4.94-2.9v4.07c-.68,0-1.34,0-2,.1a2.77,2.77,0,0,0-2.67,2.76c0,1.26,0,2.53,0,3.79,0,1.58,0,3.16,0,4.74a1.25,1.25,0,0,1,0,.15h-4Z"></path><path d="M35.42,6V7.17h-.73V6.07H33.4V5.35h1.25V4.8h-1V2.11h1v-.5H33.36V.89h1.29V.21h.79V.92H36.7v.69H35.47v.51H36.7L37.55.19l.74.11-.2.79h2.19v.78c-.63,0-1.27,0-1.9,0a.9.9,0,0,0-1.06.73c.56,0,1.12,0,1.66,0a.87.87,0,0,1,1,.5c-.59.67-1.19,1.33-1.77,2a2.87,2.87,0,0,0-.37.54c-.21.39-.1.58.34.64h0c1.38,0,1.35-.09,1.36-1.18,0,0,.06,0,.07,0,.23.18.74,0,.69.52-.1.91-.27,1.31-.82,1.34a17,17,0,0,1-2.14,0c-.34,0-.51-.29-.5-.64a2.35,2.35,0,0,1,.59-1.46c.39-.48.82-.93,1.28-1.43H37.11l0-.36-.58-.21V4.83h-1v.48h1.13V6Zm.33-3.29H34.38v.37h1.37Zm-1.37,1.4h1.37V3.77H34.38Z"></path><path d="M48,4H46.2v.38h1.94v.69H46.55a4.56,4.56,0,0,0,1.82,1.16L48,7,46.17,5.67V7.18h-.79V5.67l-1.8,1.41-.44-.68A4.64,4.64,0,0,0,45,5.11H43.64c.15.3.15.3-.23.93l-.66-.72-.94,1.83-.61-.69a5.06,5.06,0,0,0,1.07-3.63c0-.83,0-1.65,0-2.5h.79V2l.08,0,.37-.52.41.46-.31.43h2V3.84c.24.12.35.09.35-.19s0-.8,0-1.24H48ZM43.55,2.47A1.61,1.61,0,0,0,43.46,5l0-.6h1.83V4H43.55Zm3.81.5h-.8v.45h.8Zm-2.44.46V3h-.69l0,.46Z"></path><path d="M21,1.17h-1.5V.48H24.3v.69c-.63,0-1.28,0-1.93,0a.57.57,0,0,0-.69.55h.67c0,.18,0,.35,0,.51C22.3,3.13,22.27,4,22.19,5S21.89,6,21,6h-.27l-.2-.68.34,0c.57,0,.61,0,.66-.56.08-.77.1-1.55.15-2.36l-.44,0V5.07H19.7V3.57l-.29.49-.3-.61-.06,0V7.13h-.7V4L17.7,5.31c-.46-.59-.43-.58-.15-1.17s.5-1.22.77-1.89h-.8V1.48h.74V.17H19V1.44l.41.07v.67l-.43,0,.56,1,.09,0V2.15C20.6,2.44,20.85,1.88,21,1.17Zm-.42,3.26V2.84c-.25-.06-.38,0-.37.25a9.91,9.91,0,0,1,0,1.09C20.23,4.45,20.36,4.49,20.61,4.43Z"></path><path d="M25.93,7.13c-.19-.22-.35-.39-.49-.57a.33.33,0,0,1,0-.27A8.63,8.63,0,0,0,26,3c0-.77,0-1.53,0-2.33h2.72l0-.54h.83V.7H32.3v.73H31V2h1.34v.69H31V3.81H27.88V2.67H26.79A10.14,10.14,0,0,1,25.93,7.13Zm2.76-4.47c-.11.41,0,.57.4.52.21,0,.44,0,.66,0,.46,0,.47,0,.37-.52Zm1.46-.72v-.5H28.69v.5Zm-3.31-.51v.5H27.9l0-.5Z"></path><path d="M70.54,2.33,71.86,4.5a.92.92,0,0,1-1.18.19,3.56,3.56,0,0,0-2.49-.1.75.75,0,0,0-.62.76c0,.39.34.53.67.62a4.89,4.89,0,0,0,3-.24l.33-.12s0,0,0,0c.17,1.11.27.9-.8,1.16a6.56,6.56,0,0,1-2.61.08,1.63,1.63,0,0,1-1.52-1.65,1.41,1.41,0,0,1,.65-1.1,3.26,3.26,0,0,1,2.51-.44c.22,0,.43.09.69.14-.27-.47-.5-.9-.77-1.31a.43.43,0,0,0-.33-.09l-2.8.22-.1-.88,2.87-.12L68.87.44s0,0,.07,0c.85-.14.86-.14,1.13.67.12.35.27.5.65.36a4.43,4.43,0,0,1,.72-.17l.7-.18.13.88Z"></path><path d="M109.62,24V20.26h3.78V24Z"></path><path d="M52.65.47h1.1c0,.26,0,.5,0,.74,0,1.22-.05,2.45-.05,3.68s.76,1.23,1.55,1.1a2,2,0,0,0,1.59-1.4c.13-.37.22-.75.35-1.16L58,4A4.19,4.19,0,0,1,56.7,6.35a3.14,3.14,0,0,1-2.94.41A1.73,1.73,0,0,1,52.66,5C52.62,3.49,52.65,2,52.65.47Z"></path><path d="M26.82,7.23l-.29-.76,2.09-.41c-.34-.38-.61-.73-.93-1-.13-.11-.37-.1-.59-.15V4.29c1.24,0,2.47,0,3.69,0a.86.86,0,0,1,.77.44L30.21,6a7.07,7.07,0,0,0,2.18.37l-.3.79a8.53,8.53,0,0,1-2.51-.6.85.85,0,0,0-.42,0Zm3.53-2.29H28.48c.33.26.58.46.83.64a.25.25,0,0,0,.24,0C29.8,5.39,30,5.19,30.35,4.94Z"></path><path d="M65.47,5.68,65,6.57l-1.2-1c0,.65-.2,1.13-.77,1.33a2.28,2.28,0,0,1-2-.2,1.21,1.21,0,0,1-.44-1.32,1.36,1.36,0,0,1,1.22-1c.36,0,.72,0,1.13,0V2.84h.86c0,.53,0,1.06,0,1.58a.65.65,0,0,0,.27.4C64.52,5.12,65,5.39,65.47,5.68Zm-3.27.56h.17a.59.59,0,0,0,.57-.62c0-.42-.29-.34-.51-.41a1.25,1.25,0,0,0-.19,0c-.46,0-.81.23-.82.59S61.7,6.24,62.2,6.24Z"></path><path d="M61.21,1.51l1.21-.19v.86c-.38,0-.77.13-1.17.15-.23,0-.29.12-.37.3C60.43,3.75,60,4.86,59.48,6l-.83-.52,1.47-3.11H58.85V1.56h1.41L60.53.21l.95.11Z"></path><path d="M76,3.85l.06,0c.75.62.75.62.37,1.51a3.69,3.69,0,0,1-.42.75.91.91,0,0,1-1.57.05,4.09,4.09,0,0,1-.66-1.6c-.2-1.18-.28-2.37-.41-3.61h1.11c0,.75,0,1.49,0,2.23A11.34,11.34,0,0,0,74.81,5c0,.17.25.3.38.45a2,2,0,0,0,.4-.44C75.75,4.67,75.85,4.26,76,3.85Z"></path><path d="M79.54,7a6.62,6.62,0,0,0,0-6.93.85.85,0,0,1,1.1.47,6.31,6.31,0,0,1,.94,2.75,5.27,5.27,0,0,1-.74,2.87l-.24.4C80.26,7.14,80.26,7.14,79.54,7Z"></path><path d="M51.73,0a6.72,6.72,0,0,0-.08,7c-.53.17-.69.12-1-.3a5.46,5.46,0,0,1-1-3.6A5.8,5.8,0,0,1,50.87.2C51,0,51.37.07,51.73,0Z"></path><path d="M22.46,3.07l.48-.32.33.89h.08l.2-1h-1V1.94a12.16,12.16,0,0,1,1.35,0,.42.42,0,0,1,.37.56,14.16,14.16,0,0,1-.45,1.61.51.51,0,0,0,.13.62l.57.51-.4.69-.78-.82-.7.78-.43-.59c.82-.49.72-1.15.37-1.86A2.51,2.51,0,0,1,22.46,3.07Z"></path><path d="M44.2.46h3.16V2.09H44.2ZM45,1.53h1.65l0-.48H45Z"></path><path d="M78.91,5.46l-.8.34a7.54,7.54,0,0,0-1.58-4.1s0-.05.06-.06c.75-.41.75-.41,1.17.33A8.94,8.94,0,0,1,78.91,5.46Z"></path><path d="M19.38,6.87V6.18h5v.69Z"></path><path d="M65.49,2.2,65.08,3l-2.2-1.08s0,0,0,0c.5-.79.27-.72,1.1-.37C64.49,1.68,65,1.94,65.49,2.2Z"></path><path d="M41.94,4c-.69-.23-.68-.23-.6-.81s.1-1,.16-1.45l.6,0Z"></path></g></g></g></svg> 