<?xml version="1.0" encoding="UTF-8"?> <!-- Generator: Adobe Illustrator 24.2.1, SVG Export Plug-In . SVG Version: 6.00 Build 0) --> <svg xmlns="http://www.w3.org/2000/svg" xmlns:xlink="http://www.w3.org/1999/xlink" id="Layer_1" x="0px" y="0px" viewBox="0 0 697.7 266.5" style="enable-background:new 0 0 697.7 266.5;" xml:space="preserve"> <style type="text/css"> .st0{fill:#006E3F;} .st1{opacity:0.5;} .st2{fill:#FFFFFF;} </style> <path d="M223.3,111.2c-8.2,0-13.5,6-13.5,15.3v1.2h26.7v-1.2C236.5,117.2,231.3,111.2,223.3,111.2"></path> <path d="M160.8,110.5c-4.3,0-9.3,0.3-11.6,0.8l-0.6,0.1v42.7l0.6,0.1c3.5,0.5,8.8,0.9,11.5,0.9c11.9,0,13.5-9.5,13.5-17.7v-9.2 C174.3,119.9,172.7,110.5,160.8,110.5"></path> <path d="M329.5,200.6c-0.1-0.1-0.1-0.1-0.2-0.2c-0.6-0.8-1.3-1.5-1.9-2.2c-0.1-0.1-0.2-0.2-0.3-0.4c-0.6-0.7-1.2-1.5-1.8-2.2 c-0.1-0.1-0.2-0.3-0.3-0.4c-0.6-0.8-1.2-1.5-1.7-2.3c-0.1,0-0.1-0.1-0.2-0.2c-2.5-3.4-4.8-6.8-6.9-10.3v-0.1 c-0.4-0.7-0.8-1.4-1.2-2.1c-0.1-0.2-0.3-0.5-0.4-0.7c-0.3-0.7-0.7-1.3-1-1.9c-0.2-0.3-0.3-0.7-0.5-1c-0.3-0.6-0.6-1.2-0.9-1.8 c-0.2-0.4-0.4-0.8-0.5-1.1c-0.3-0.6-0.5-1.1-0.8-1.8c-0.2-0.4-0.4-0.8-0.5-1.2c-0.3-0.6-0.5-1.1-0.7-1.8c-0.2-0.4-0.4-0.9-0.5-1.3 c-0.2-0.6-0.5-1.1-0.7-1.7c-0.2-0.5-0.3-0.9-0.5-1.4c-0.2-0.5-0.4-1-0.6-1.6c-0.2-0.6-0.4-1.2-0.6-1.8c-0.2-0.8-0.5-1.5-0.7-2.3 c-0.2-0.6-0.4-1.2-0.5-1.8c-0.1-0.5-0.2-1-0.3-1.4c-0.1-0.6-0.3-1.1-0.5-1.8c-0.1-0.4-0.2-0.9-0.3-1.4c-0.1-0.6-0.3-1.2-0.4-1.8 c-0.1-0.5-0.2-1-0.3-1.4c-0.1-0.6-0.2-1.2-0.3-1.8c-0.1-0.4-0.1-0.9-0.2-1.4c-0.1-0.6-0.2-1.2-0.2-1.8c0-0.4-0.1-0.9-0.2-1.4 c0-0.6-0.1-1.3-0.2-1.9c0-0.4-0.1-0.9-0.1-1.3c0-0.8-0.1-1.5-0.1-2.2c0-0.4,0-0.7,0-1.1c-0.1-1.1-0.1-2.2-0.1-3.2 c0-1.1,0-2.2,0.1-3.3c0-0.4,0-0.7,0-1.1c0.1-0.7,0.1-1.4,0.1-2.1c0.1-0.4,0.1-0.9,0.1-1.3c0.1-0.7,0.1-1.3,0.2-1.9 c0.1-0.5,0.1-0.9,0.2-1.4c0.1-0.6,0.2-1.2,0.2-1.9c0.1-0.4,0.1-0.9,0.2-1.4c0.1-0.6,0.2-1.2,0.3-1.8c0.1-0.5,0.2-0.9,0.3-1.4 c0.1-0.6,0.2-1.2,0.4-1.8c0.1-0.4,0.2-0.9,0.3-1.4c0.1-0.6,0.3-1.2,0.5-1.8c0.1-0.4,0.2-0.9,0.3-1.3c0.2-0.7,0.4-1.4,0.6-2.1 c0.2-0.7,0.5-1.4,0.7-2.2c0.2-0.6,0.4-1.1,0.6-1.7c0.2-0.5,0.4-1,0.6-1.6c0.2-0.5,0.3-1,0.5-1.4c0.2-0.6,0.5-1.1,0.7-1.6 c0.2-0.5,0.3-0.9,0.5-1.3c0.2-0.6,0.5-1.1,0.7-1.7c0.2-0.4,0.4-0.8,0.5-1.2c0.3-0.6,0.5-1.2,0.8-1.8c0.2-0.4,0.4-0.7,0.5-1.1 c0.3-0.6,0.6-1.2,0.9-1.8c0.2-0.3,0.4-0.6,0.5-1c0.3-0.6,0.7-1.3,1-1.9c0.1-0.2,0.3-0.4,0.4-0.7c1.9-3.3,3.9-6.6,6.2-9.8 c0.1-0.1,0.1-0.2,0.2-0.3c0.5-0.7,1.1-1.5,1.6-2.2c0.1-0.2,0.2-0.3,0.4-0.5c0.5-0.7,1.1-1.4,1.6-2.1c0.1-0.2,0.2-0.3,0.4-0.5 c0.6-0.7,1.1-1.4,1.7-2.2c0.1-0.1,0.2-0.2,0.3-0.4c0.6-0.7,1.3-1.5,1.9-2.2c0,0,0.1-0.1,0.1-0.1c5-5.7,10.6-11.2,16.7-16.3 c0,0,0,0,0,0c0.9-0.7,1.8-1.4,2.7-2.2c-36.3-28.9-90.4-47.2-151-47.2C88.5,0.2,0,59.9,0,133.4c0,73.5,88.5,133.1,197.7,133.1 c60.7,0,115-18.5,151.3-47.5h0C341.7,213.3,335.2,207.1,329.5,200.6 M122,157.2c-4.2,5.2-11.9,9.4-25.7,9.4h0 c-8,0-14.5-0.7-20.9-2.1c-0.8-0.1-1.8-0.7-1.8-1.8v-8.5c0-1,0.9-1.7,1.9-1.7c4.8,0.6,16.9,1.2,21.1,1.2c10.2,0,14.3-3.3,14.3-11.2 c0-5.1-2.6-7.5-10.3-12.1l-15.7-9.4C75,115.1,71,108.9,71,99.6c0-7.3,2.5-12.8,7.4-16.5c4.9-3.7,12.2-5.5,21.8-5.5 c7.6,0,18.6,1.2,22.7,2.1c0.8,0.1,1.7,0.7,1.7,1.7v8.8c0,0.9-0.6,1.6-1.7,1.6c-8.8-0.8-16.5-1.2-23.5-1.2c-8.7,0-13,3-13,9 c0,4.2,2.2,6.7,10,11.1l14.3,7.9c11.5,6.4,16.3,13.3,16.2,23.8C127,146,126.2,152,122,157.2 M188.5,137.3c0,19-9.6,29.1-27.7,29.1 c-3.3,0-7.4-0.3-11.3-0.9l-0.9-0.1v21.9c0,0.9-0.7,1.7-1.6,1.7h-10.9c-0.9,0-1.6-0.8-1.6-1.7v-82.7c0-1.3,0.1-1.8,2.7-2.5 c7.5-1.9,16.3-3.1,23.7-3.1c18.1,0,27.7,10,27.7,29.1V137.3z M250.8,135.2c0,1.9-0.8,2.2-1.7,2.2h-39.5v1.1c0,4.8,1.4,15.8,15,15.8 c8.4,0,16.6-0.7,21.8-1.2h0.4c0.4,0,1.4,0.1,1.4,1v7.9c0,1.6-0.2,2.1-1.9,2.4c-7.4,1.3-12.1,2-22.9,2c-4.7,0-28-1.4-28-29.1v-8.8 c0-18.5,10.4-29.4,27.8-29.4c17,0,27.5,11.3,27.5,29.4V135.2z M302,110.7c0,0.9-0.9,1-1.6,1c-4.7-0.6-7.5-0.8-15.4-0.8 c-4.6,0-12.1,2.1-12.1,16.3v11.1c0,14.2,7.6,16.3,12.1,16.3c7.9,0,10.7-0.3,15.3-0.9h0.4c0.5,0,1.4,0.1,1.4,1v7.7 c0,1.5-0.2,1.9-1.9,2.4c-1.4,0.3-6.5,1.5-15.1,1.5c-16.5,0-26.4-10.5-26.4-28.1v-11.1c0-17.6,9.8-28.1,26.4-28.1 c8.6,0,13.8,1.2,15.2,1.5c1.7,0.4,1.9,0.9,1.9,2.4V110.7z"></path> <path d="M395.3,137.7c0,0.7-0.1,1.4-0.1,2.1c0,0.4-0.1,0.9-0.1,1.3c-0.1,0.7-0.1,1.3-0.2,1.9c0,0.5-0.1,0.9-0.2,1.4 c-0.1,0.6-0.1,1.2-0.2,1.8c-0.1,0.4-0.1,0.9-0.2,1.4c-0.1,0.6-0.2,1.2-0.3,1.8c-0.1,0.5-0.2,0.9-0.3,1.4c-0.1,0.6-0.3,1.2-0.4,1.7 c-0.1,0.5-0.2,1-0.3,1.4c0,0.2-0.1,0.4-0.1,0.6c2.2-0.6,4.4-1.5,6.4-2.6l0.4-0.2V136h-4.3c0,0.2,0,0.4,0,0.6 C395.3,137,395.3,137.3,395.3,137.7"></path> <path d="M499.9,0c-60.7,0-115,18.4-151.3,47.4c0,0,0,0,0,0c7.2,5.7,13.7,11.9,19.4,18.4c0.1,0.1,0.1,0.2,0.2,0.2 c0.6,0.7,1.3,1.5,1.9,2.2c0.1,0.1,0.2,0.3,0.3,0.4c0.6,0.7,1.2,1.4,1.8,2.2c0.1,0.1,0.2,0.3,0.3,0.4c0.6,0.7,1.1,1.5,1.7,2.2 c0.1,0.1,0.2,0.2,0.2,0.3c2.5,3.3,4.8,6.7,6.8,10.2c0,0,0,0.1,0.1,0.1c0.4,0.7,0.8,1.4,1.2,2.1c0.1,0.3,0.3,0.5,0.4,0.8 c0.4,0.6,0.7,1.3,1,1.9c0.2,0.3,0.4,0.7,0.5,1c0.3,0.6,0.6,1.2,0.9,1.8c0.2,0.4,0.4,0.8,0.5,1.1c0.3,0.6,0.5,1.2,0.8,1.8 c0.2,0.4,0.4,0.8,0.5,1.2c0.2,0.6,0.5,1.1,0.7,1.7c0.2,0.4,0.4,0.9,0.5,1.3c0,0.1,0.1,0.2,0.1,0.3c16.7,0.1,25.1,7.5,25.1,21.9v42.8 c0,0.9-0.7,1.7-1.6,1.7h-10.1c-0.9,0-1.6-0.8-1.6-1.7v-3.2l-1.1,0.7c-3.3,2-6.6,3.4-9.8,4.3c-0.1,0.2-0.2,0.4-0.2,0.6 c-0.2,0.5-0.4,1.1-0.6,1.6c-0.2,0.5-0.4,0.9-0.5,1.3c-0.2,0.6-0.5,1.1-0.7,1.7c-0.2,0.4-0.4,0.8-0.5,1.2c-0.3,0.6-0.5,1.1-0.8,1.8 c-0.2,0.4-0.4,0.8-0.5,1.1c-0.3,0.6-0.6,1.2-0.9,1.8c-0.2,0.3-0.3,0.6-0.5,0.9c-0.4,0.7-0.7,1.3-1,1.9c-0.1,0.2-0.2,0.4-0.4,0.7 c-1.9,3.3-3.9,6.6-6.2,9.8c-0.1,0.1-0.1,0.2-0.2,0.3c-0.5,0.8-1,1.5-1.6,2.2c-0.1,0.1-0.2,0.3-0.3,0.4c-0.5,0.7-1.1,1.4-1.6,2.1 c-0.1,0.2-0.3,0.3-0.4,0.5c-0.6,0.7-1.1,1.4-1.7,2.1c-0.1,0.1-0.2,0.3-0.3,0.4c-0.6,0.8-1.2,1.5-1.9,2.2c0,0.1-0.1,0.1-0.1,0.1 c-5,5.7-10.5,11.2-16.7,16.3c0,0-0.1,0-0.1,0.1c-0.9,0.7-1.8,1.4-2.7,2.1c36.3,28.9,90.4,47.2,150.9,47.2 c109.2,0,197.7-59.6,197.7-133.1C697.7,59.6,609.2,0,499.9,0 M475.8,101.7l-14.9,54.1c-1.9,7-6.7,10.6-14.1,10.6 c-7.4,0-12.1-3.6-14-10.6c0,0-15-54.1-15-54.2l0-0.5c0-0.7,0.5-1.2,1.1-1.2h11.9c0.8,0,1.4,0.7,1.7,1.8l11.4,49.8 c0.5,2.3,1.5,3.6,3,3.6c1.5,0,2.5-1.2,3-3.6l11.4-49.8c0.3-1.3,1.1-1.8,1.8-1.8h11.9c0.7,0,1.1,0.5,1.1,1.2 C475.9,101.1,475.9,101.6,475.8,101.7 M533.4,135.2c0,1.9-0.8,2.2-1.6,2.2h-39.5v1.1c0,4.8,1.5,15.8,15,15.8 c8.4,0,16.6-0.7,21.8-1.2h0.4c0.4,0,1.4,0.1,1.4,1v7.9c0,1.6-0.1,2.1-1.8,2.4c-7.4,1.3-12.1,2-22.9,2c-4.7,0-28-1.4-28-29.1v-8.8 c0-18.5,10.4-29.4,27.8-29.4c17,0,27.5,11.3,27.5,29.4V135.2z M574.9,109.2c0,0.9-0.7,1.6-1.7,1.6c-5.9,0-10.9,1.3-16.8,4.4 l-0.4,0.2v48.3c0,0.9-0.8,1.8-1.6,1.8h-11c-0.9,0-1.6-0.9-1.6-1.8v-62.2c0-0.9,0.7-1.6,1.6-1.6h10.3c0.9,0,1.7,0.7,1.7,1.6v4 l1.2-0.9c5.9-4.6,12.2-5.5,16.5-5.5c0.9,0,1.7,0.7,1.7,1.6V109.2z M604.1,166.4c-4.9,0-14.6-0.6-21.1-2.4c-1.1-0.3-1.7-0.9-1.7-2 v-7.1c0-0.6,0.5-1.2,1.3-1.2h0.4c5.7,0.7,16.4,1.3,20,1.3c8.1,0,9.2-3.1,9.2-6.5c0-2.8-1.8-4.3-5.6-6.7c0,0-16.3-10-16.3-10 c-6-3.6-9.6-9.5-9.6-15.8c0-11.5,7.2-17.1,21.8-17.1c9.4,0,13.5,0.9,19.9,2.2c1,0.3,1.6,0.9,1.6,2v6.9c0,1-0.4,1.5-1.1,1.5h-0.4 c-3.4-0.5-11.8-1.3-18.6-1.3c-4.4,0-9,0.7-9,5.7c0,2.5,2.4,3.9,5.1,5.5l15.6,9.5c10.2,6.2,11.1,12.2,11.1,17.4 C626.6,159.6,618,166.4,604.1,166.4"></path> <path d="M399.7,127v-6c0-6.8-2.7-9.3-7.1-10.1c0.1,0.6,0.3,1.1,0.4,1.7c0.1,0.4,0.2,0.9,0.3,1.4c0.1,0.6,0.3,1.2,0.4,1.8 c0.1,0.5,0.2,0.9,0.3,1.4c0.1,0.6,0.2,1.2,0.3,1.8c0.1,0.4,0.1,0.9,0.2,1.4c0.1,0.6,0.2,1.2,0.2,1.8c0.1,0.4,0.1,0.9,0.2,1.4 c0.1,0.6,0.1,1.3,0.2,1.9c0,0.4,0.1,0.9,0.1,1.3c0,0.1,0,0.1,0,0.2H399.7z"></path> <path d="M505.9,111.2c-8.2,0-13.5,6-13.5,15.3v1.2h26.7v-1.2C519.1,117.2,513.9,111.2,505.9,111.2"></path> <path class="st0" d="M302.9,122c0.1-0.6,0.2-1.2,0.2-1.8C303.1,120.8,303,121.4,302.9,122"></path> <path class="st0" d="M302.2,133.2c0-1.1,0-2.2,0.1-3.3C302.3,131,302.2,132,302.2,133.2"></path> <path class="st0" d="M302.6,125.4c0.1-0.7,0.1-1.3,0.2-1.9C302.7,124,302.6,124.7,302.6,125.4"></path> <path class="st0" d="M302.4,128.8c0-0.7,0.1-1.4,0.1-2.1C302.4,127.4,302.4,128.1,302.4,128.8"></path> <path class="st0" d="M323.3,192.9c-0.1-0.1-0.1-0.1-0.2-0.2C323.2,192.8,323.2,192.9,323.3,192.9"></path> <path class="st0" d="M309.5,168.9c-0.2-0.4-0.4-0.9-0.5-1.3C309.1,168.1,309.3,168.5,309.5,168.9"></path> <path class="st0" d="M325.3,195.6c-0.1-0.1-0.2-0.3-0.3-0.4C325.1,195.3,325.2,195.5,325.3,195.6"></path> <path class="st0" d="M305.1,155.5c-0.1-0.6-0.3-1.1-0.5-1.8C304.8,154.4,304.9,155,305.1,155.5"></path> <path class="st0" d="M304.3,152.4c-0.1-0.6-0.3-1.2-0.4-1.8C304.1,151.2,304.2,151.8,304.3,152.4"></path> <path class="st0" d="M303.7,149.2c-0.1-0.6-0.2-1.2-0.3-1.8C303.5,148.1,303.6,148.6,303.7,149.2"></path> <path class="st0" d="M307.2,163c-0.2-0.6-0.4-1.2-0.6-1.9C306.8,161.7,307,162.3,307.2,163"></path> <path class="st0" d="M305.9,158.8c-0.2-0.6-0.4-1.2-0.5-1.8C305.6,157.5,305.8,158.2,305.9,158.8"></path> <path class="st0" d="M302.3,136.4c0-1.1-0.1-2.2-0.1-3.2C302.2,134.2,302.3,135.3,302.3,136.4"></path> <path class="st0" d="M308.3,166c-0.2-0.5-0.3-0.9-0.5-1.4C308,165,308.2,165.5,308.3,166"></path> <path class="st0" d="M302.5,139.7c-0.1-0.8-0.1-1.5-0.1-2.2C302.4,138.2,302.4,138.9,302.5,139.7"></path> <path class="st0" d="M302.8,142.8c0-0.6-0.1-1.3-0.2-1.9C302.6,141.5,302.7,142.2,302.8,142.8"></path> <path class="st0" d="M315,180.2c-0.1-0.2-0.3-0.5-0.4-0.7C314.7,179.7,314.9,180,315,180.2"></path> <path class="st0" d="M313.6,177.6c-0.2-0.3-0.4-0.7-0.5-1C313.2,176.9,313.4,177.2,313.6,177.6"></path> <path class="st0" d="M312.1,174.8c-0.2-0.4-0.4-0.8-0.5-1.1C311.8,174,311.9,174.4,312.1,174.8"></path> <path class="st0" d="M303.2,146.1c-0.1-0.6-0.2-1.2-0.2-1.8C303,144.8,303.1,145.4,303.2,146.1"></path> <path class="st0" d="M310.8,171.9c-0.2-0.4-0.4-0.8-0.5-1.2C310.4,171.1,310.6,171.5,310.8,171.9"></path> <path class="st0" d="M324.9,71.3c0.1-0.2,0.2-0.3,0.4-0.5C325.1,70.9,325,71.1,324.9,71.3"></path> <path class="st0" d="M327,68.6c0.1-0.1,0.2-0.2,0.3-0.4C327.2,68.4,327.1,68.5,327,68.6"></path> <path class="st0" d="M322.9,73.9c0.1-0.2,0.2-0.3,0.4-0.5C323.1,73.5,323,73.7,322.9,73.9"></path> <path class="st0" d="M321.1,76.4c0.1-0.1,0.1-0.2,0.2-0.3C321.2,76.2,321.2,76.3,321.1,76.4"></path> <path class="st0" d="M329.2,66c0,0,0.1-0.1,0.1-0.1C329.2,66,329.2,66,329.2,66"></path> <path class="st0" d="M314.5,86.8c0.1-0.2,0.3-0.4,0.4-0.7C314.8,86.4,314.7,86.6,314.5,86.8"></path> <path class="st0" d="M303.4,118.8c0.1-0.6,0.2-1.2,0.3-1.8C303.6,117.6,303.5,118.2,303.4,118.8"></path> <path class="st0" d="M329.5,200.6c-0.1,0-0.1-0.1-0.2-0.2C329.4,200.4,329.4,200.5,329.5,200.6"></path> <path class="st0" d="M346,49.7C346,49.6,346,49.6,346,49.7C346,49.6,346,49.6,346,49.7"></path> <path class="st0" d="M327.4,198.2c-0.1-0.1-0.2-0.2-0.3-0.4C327.2,197.9,327.3,198,327.4,198.2"></path> <path class="st0" d="M305.4,109.3c0.2-0.7,0.4-1.4,0.6-2.1C305.8,108,305.6,108.6,305.4,109.3"></path> <path class="st0" d="M306.7,105.1c0.2-0.6,0.4-1.1,0.6-1.7C307,103.9,306.8,104.5,306.7,105.1"></path> <path class="st0" d="M313,89.7c0.2-0.3,0.4-0.6,0.5-1C313.3,89.1,313.2,89.4,313,89.7"></path> <path class="st0" d="M304,115.6c0.1-0.6,0.2-1.2,0.4-1.8C304.2,114.5,304.1,115,304,115.6"></path> <path class="st0" d="M304.6,112.5c0.1-0.6,0.3-1.2,0.5-1.8C304.9,111.3,304.8,111.9,304.6,112.5"></path> <path class="st0" d="M311.5,92.7c0.2-0.4,0.4-0.7,0.5-1.1C311.9,91.9,311.7,92.3,311.5,92.7"></path> <path class="st0" d="M307.8,101.8c0.2-0.5,0.3-1,0.5-1.4C308.1,100.8,308,101.3,307.8,101.8"></path> <path class="st0" d="M310.2,95.7c0.2-0.4,0.4-0.8,0.5-1.2C310.6,94.8,310.4,95.2,310.2,95.7"></path> <path class="st0" d="M309,98.7c0.2-0.5,0.3-0.9,0.5-1.3C309.3,97.8,309.1,98.2,309,98.7"></path> <path class="st0" d="M382.6,86.2c0.1,0.3,0.3,0.5,0.4,0.8C382.9,86.7,382.8,86.5,382.6,86.2"></path> <path class="st0" d="M381.4,84C381.4,84.1,381.4,84.1,381.4,84C381.4,84.1,381.4,84.1,381.4,84"></path> <path class="st0" d="M384.1,88.9c0.2,0.3,0.4,0.7,0.5,1C384.4,89.6,384.3,89.2,384.1,88.9"></path> <path class="st0" d="M385.5,91.7c0.2,0.4,0.4,0.8,0.5,1.1C385.9,92.5,385.7,92.1,385.5,91.7"></path> <path class="st0" d="M372.3,70.9c0.1,0.1,0.2,0.3,0.3,0.4C372.5,71.2,372.4,71,372.3,70.9"></path> <path class="st0" d="M348.7,47.4L348.7,47.4C348.7,47.4,348.7,47.5,348.7,47.4C348.7,47.5,348.7,47.4,348.7,47.4"></path> <path class="st0" d="M368.1,65.9c0.1,0.1,0.1,0.2,0.2,0.2C368.3,66.1,368.2,66,368.1,65.9"></path> <path class="st0" d="M374.3,73.5c0.1,0.1,0.2,0.2,0.2,0.3C374.5,73.7,374.4,73.6,374.3,73.5"></path> <path class="st0" d="M388.1,97.5c0.2,0.4,0.4,0.9,0.5,1.3C388.5,98.4,388.3,98,388.1,97.5"></path> <path class="st0" d="M370.2,68.3c0.1,0.1,0.2,0.3,0.3,0.4C370.4,68.6,370.3,68.5,370.2,68.3"></path> <path class="st0" d="M383.1,179.7c-0.1,0.2-0.2,0.4-0.4,0.7C382.9,180.1,383,179.8,383.1,179.7"></path> <path class="st0" d="M374.7,192.7c-0.1,0.1-0.2,0.3-0.3,0.4C374.5,192.9,374.6,192.8,374.7,192.7"></path> <path class="st0" d="M372.8,195.2c-0.1,0.2-0.3,0.3-0.4,0.5C372.5,195.5,372.7,195.4,372.8,195.2"></path> <path class="st0" d="M370.7,197.8c-0.1,0.1-0.2,0.3-0.3,0.4C370.5,198.1,370.6,198,370.7,197.8"></path> <path class="st0" d="M351.7,216.9C351.7,216.9,351.6,216.9,351.7,216.9C351.6,216.9,351.7,216.9,351.7,216.9"></path> <path class="st0" d="M368.5,200.4c-0.1,0.1-0.1,0.1-0.1,0.1C368.4,200.5,368.4,200.5,368.5,200.4"></path> <path class="st0" d="M387.4,170.8c-0.2,0.4-0.4,0.8-0.5,1.2C387.1,171.6,387.3,171.3,387.4,170.8"></path> <path class="st0" d="M388.7,167.8c-0.2,0.5-0.4,0.9-0.5,1.3C388.3,168.7,388.5,168.3,388.7,167.8"></path> <path class="st0" d="M376.5,190.1c-0.1,0.1-0.1,0.2-0.2,0.3C376.4,190.3,376.5,190.2,376.5,190.1"></path> <path class="st0" d="M386.1,173.8c-0.2,0.4-0.4,0.8-0.5,1.1C385.7,174.6,385.9,174.2,386.1,173.8"></path> <path class="st0" d="M384.6,176.8c-0.2,0.3-0.3,0.6-0.5,0.9C384.3,177.4,384.5,177.1,384.6,176.8"></path> <path class="st0" d="M386.9,94.6c0.2,0.4,0.4,0.8,0.5,1.2C387.2,95.4,387.1,95,386.9,94.6"></path> <path class="st0" d="M394.2,147.7c-0.1,0.6-0.2,1.2-0.3,1.8C394.1,148.9,394.2,148.2,394.2,147.7"></path> <path class="st0" d="M394.7,144.4c-0.1,0.6-0.1,1.2-0.2,1.8C394.6,145.7,394.6,145.1,394.7,144.4"></path> <path class="st0" d="M392.6,111c0.1,0.6,0.3,1.1,0.4,1.7C392.9,112.1,392.7,111.6,392.6,111L392.6,111z"></path> <path class="st0" d="M395.2,126.8c0,0.1,0,0.1,0,0.2C395.2,127,395.2,126.9,395.2,126.8"></path> <path class="st0" d="M395.3,137.7c0,0.7-0.1,1.4-0.1,2.1C395.2,139.1,395.2,138.4,395.3,137.7"></path> <path class="st0" d="M395.1,141.1c-0.1,0.7-0.1,1.3-0.2,1.9C394.9,142.5,395,141.8,395.1,141.1"></path> <path class="st0" d="M393.7,150.9c-0.1,0.6-0.3,1.2-0.4,1.8C393.4,152,393.6,151.5,393.7,150.9"></path> <path class="st0" d="M395.3,136.6c0-0.2,0-0.4,0-0.6h0V136.6z"></path> <path class="st0" d="M392.9,154.6L392.9,154.6c0-0.2,0.1-0.4,0.1-0.6C393,154.2,392.9,154.4,392.9,154.6"></path> <path class="st0" d="M393.7,115.8c-0.1-0.6-0.2-1.2-0.4-1.8C393.4,114.6,393.6,115.3,393.7,115.8"></path> <path class="st0" d="M389.3,166.2c0.1-0.2,0.2-0.4,0.2-0.6h0C389.5,165.7,389.4,165.9,389.3,166.2"></path> <path class="st0" d="M394.7,122.3c-0.1-0.6-0.1-1.2-0.2-1.8C394.6,121.1,394.6,121.7,394.7,122.3"></path> <path class="st0" d="M394.2,119.1c-0.1-0.6-0.2-1.2-0.3-1.8C394.1,117.8,394.2,118.4,394.2,119.1"></path> <path class="st0" d="M395.1,125.6c-0.1-0.6-0.1-1.3-0.2-1.9C394.9,124.3,395,124.9,395.1,125.6"></path> <path class="st1" d="M393.3,152.6c0.1-0.6,0.3-1.1,0.4-1.8c0.1-0.5,0.2-0.9,0.3-1.4c0.1-0.6,0.2-1.2,0.3-1.8 c0.1-0.5,0.1-0.9,0.2-1.4c0.1-0.6,0.2-1.2,0.2-1.8c0.1-0.5,0.1-0.9,0.2-1.4c0.1-0.6,0.1-1.3,0.2-1.9c0-0.4,0.1-0.9,0.1-1.3 c0.1-0.7,0.1-1.4,0.1-2.1c0-0.4,0.1-0.7,0.1-1.1V136h-3.9c-11.6,0-13.9,4.1-13.9,10.8v0.5c0,6.8,3.5,8.1,9.3,8.1c1.9,0,4-0.3,6-0.8 c0-0.2,0.1-0.4,0.1-0.6C393.1,153.6,393.2,153.1,393.3,152.6"></path> <path class="st1" d="M346,49.7c-6.1,5.1-11.7,10.6-16.7,16.2c0,0.1-0.1,0.1-0.1,0.1c-0.6,0.8-1.3,1.5-1.9,2.2 c-0.1,0.1-0.2,0.3-0.3,0.4c-0.6,0.7-1.2,1.4-1.7,2.2c-0.1,0.1-0.2,0.3-0.4,0.5c-0.5,0.7-1.1,1.4-1.6,2.1c-0.1,0.2-0.2,0.3-0.4,0.5 c-0.5,0.7-1.1,1.5-1.6,2.2c-0.1,0.1-0.1,0.2-0.2,0.3c-2.3,3.2-4.3,6.5-6.2,9.8c-0.1,0.2-0.3,0.5-0.4,0.7c-0.4,0.6-0.7,1.3-1,1.9 c-0.2,0.3-0.4,0.7-0.5,1c-0.3,0.6-0.6,1.2-0.9,1.8c-0.2,0.4-0.4,0.7-0.5,1.1c-0.3,0.6-0.5,1.2-0.8,1.8c-0.2,0.4-0.4,0.8-0.5,1.2 c-0.2,0.6-0.5,1.1-0.7,1.7c-0.2,0.5-0.4,0.9-0.5,1.3c-0.2,0.5-0.5,1.1-0.7,1.6c-0.2,0.5-0.3,1-0.5,1.4c-0.2,0.5-0.4,1-0.6,1.6 c-0.2,0.6-0.4,1.2-0.6,1.7c-0.2,0.8-0.5,1.5-0.7,2.2c-0.2,0.7-0.4,1.4-0.6,2.1c-0.1,0.5-0.2,0.9-0.3,1.3c-0.2,0.6-0.3,1.2-0.5,1.8 c-0.1,0.5-0.2,0.9-0.3,1.4c-0.1,0.6-0.3,1.2-0.4,1.8c-0.1,0.5-0.2,0.9-0.3,1.4c-0.1,0.6-0.2,1.2-0.3,1.8c-0.1,0.5-0.1,0.9-0.2,1.4 c-0.1,0.6-0.2,1.2-0.2,1.8c-0.1,0.5-0.1,0.9-0.2,1.4c0,0.6-0.1,1.3-0.2,1.9c0,0.4-0.1,0.9-0.1,1.3c-0.1,0.7-0.1,1.4-0.1,2.1 c0,0.4,0,0.7-0.1,1.1c0,1.1-0.1,2.1-0.1,3.3c0,1,0,2.1,0.1,3.2c0,0.4,0,0.7,0.1,1.1c0,0.7,0.1,1.4,0.1,2.2c0.1,0.4,0.1,0.9,0.1,1.3 c0.1,0.6,0.1,1.3,0.2,1.9c0.1,0.5,0.1,1,0.2,1.4c0.1,0.6,0.2,1.2,0.2,1.8c0.1,0.5,0.1,1,0.2,1.4c0.1,0.6,0.2,1.2,0.3,1.8 c0.1,0.5,0.2,0.9,0.3,1.4c0.1,0.6,0.2,1.1,0.4,1.8c0.1,0.5,0.2,0.9,0.3,1.4c0.1,0.6,0.3,1.2,0.5,1.8c0.1,0.5,0.2,0.9,0.3,1.4 c0.2,0.6,0.4,1.2,0.5,1.8c0.2,0.8,0.5,1.6,0.7,2.3c0.2,0.6,0.4,1.2,0.6,1.9c0.2,0.6,0.4,1.1,0.6,1.6c0.2,0.5,0.3,0.9,0.5,1.4 c0.2,0.6,0.4,1.1,0.7,1.7c0.2,0.4,0.3,0.9,0.5,1.3c0.2,0.6,0.5,1.2,0.7,1.8c0.2,0.4,0.4,0.8,0.5,1.2c0.3,0.6,0.5,1.2,0.8,1.8 c0.2,0.4,0.4,0.8,0.5,1.1c0.3,0.6,0.6,1.2,0.9,1.8c0.2,0.3,0.4,0.7,0.5,1c0.3,0.7,0.7,1.3,1,1.9c0.1,0.2,0.3,0.5,0.4,0.7 c0.4,0.8,0.8,1.4,1.2,2.1v0.1c2.1,3.5,4.4,6.9,6.9,10.3c0,0.1,0.1,0.2,0.2,0.2c0.6,0.8,1.1,1.5,1.7,2.3c0.1,0.1,0.2,0.2,0.3,0.4 c0.6,0.7,1.2,1.5,1.8,2.2c0.1,0.1,0.2,0.2,0.3,0.4c0.6,0.7,1.3,1.5,1.9,2.2c0.1,0,0.1,0.1,0.2,0.2c5.7,6.5,12.2,12.7,19.5,18.5h0 c0.9-0.7,1.8-1.4,2.7-2.1c0,0,0,0,0.1,0c6.1-5.1,11.7-10.6,16.7-16.3c0,0,0.1-0.1,0.1-0.1c0.6-0.7,1.3-1.5,1.9-2.2 c0.1-0.1,0.2-0.2,0.3-0.4c0.6-0.7,1.2-1.4,1.7-2.1c0.1-0.1,0.3-0.3,0.4-0.5c0.5-0.7,1.1-1.4,1.6-2.1c0.1-0.1,0.2-0.3,0.3-0.4 c0.5-0.8,1.1-1.5,1.6-2.2c0.1-0.1,0.1-0.2,0.2-0.3c2.3-3.2,4.3-6.5,6.2-9.8c0.1-0.2,0.2-0.5,0.4-0.7c0.4-0.7,0.7-1.3,1-1.9 c0.2-0.3,0.3-0.6,0.5-0.9c0.3-0.6,0.6-1.2,0.9-1.8c0.2-0.4,0.4-0.8,0.5-1.1c0.3-0.6,0.5-1.2,0.8-1.8c0.2-0.4,0.4-0.8,0.5-1.2 c0.2-0.6,0.5-1.1,0.7-1.7c0.2-0.4,0.4-0.9,0.5-1.3c0.2-0.5,0.4-1.1,0.6-1.6c0.1-0.2,0.1-0.4,0.2-0.6c-2.2,0.5-4.4,0.9-6.5,0.9 c-9.1,0-19.8-3.3-19.8-19.1v-0.5c0-13.7,8.7-19.8,28.3-19.8h3.7c0,0,0-0.1,0-0.2c0-0.4-0.1-0.9-0.1-1.3c-0.1-0.6-0.1-1.3-0.2-1.9 c0-0.5-0.1-0.9-0.2-1.4c-0.1-0.6-0.1-1.2-0.2-1.8c-0.1-0.5-0.1-0.9-0.2-1.4c-0.1-0.6-0.2-1.2-0.3-1.8c-0.1-0.5-0.2-1-0.3-1.4 c-0.1-0.6-0.2-1.2-0.4-1.8c-0.1-0.5-0.2-0.9-0.3-1.4c-0.1-0.6-0.3-1.1-0.4-1.7c-1.2-0.2-2.6-0.3-4.1-0.3c-7.6,0-15.5,0.5-19.4,1 h-0.6c-1.1,0-1.4-0.3-1.4-1.3v-7.6c0-0.7,0.2-1.4,1.7-1.8c4.3-0.9,11.2-1.9,19.7-1.9h0.3c0-0.1-0.1-0.2-0.1-0.3 c-0.2-0.4-0.4-0.9-0.5-1.3c-0.2-0.6-0.5-1.1-0.7-1.7c-0.2-0.4-0.4-0.8-0.5-1.2c-0.3-0.6-0.5-1.2-0.8-1.8c-0.2-0.4-0.4-0.8-0.5-1.1 c-0.3-0.6-0.6-1.2-0.9-1.8c-0.2-0.3-0.3-0.7-0.5-1c-0.3-0.6-0.7-1.3-1-1.9c-0.1-0.3-0.3-0.5-0.4-0.8c-0.4-0.7-0.8-1.4-1.2-2.1 c0,0,0-0.1,0-0.1c-2.1-3.5-4.3-6.9-6.8-10.2c0-0.1-0.1-0.2-0.2-0.3c-0.6-0.7-1.1-1.5-1.7-2.2c-0.1-0.1-0.2-0.3-0.3-0.4 c-0.6-0.7-1.2-1.4-1.8-2.2c-0.1-0.1-0.2-0.2-0.3-0.4c-0.6-0.7-1.2-1.5-1.9-2.2c-0.1-0.1-0.1-0.2-0.2-0.2 c-5.7-6.5-12.2-12.7-19.4-18.4c0,0,0,0,0,0C347.8,48.2,346.9,48.9,346,49.7C346,49.6,346,49.6,346,49.7 M353.3,103.3v6.9 c0,1-0.4,1.5-1.2,1.5h-0.4c-3.4-0.5-11.8-1.3-18.6-1.3c-4.4,0-8.9,0.7-8.9,5.7c0,2.5,2.4,3.9,5.1,5.5l15.6,9.5 c10.2,6.2,11,12.2,11,17.4c0,11-8.6,17.8-22.5,17.8c-4.9,0-14.6-0.6-21.1-2.4c-1.1-0.3-1.7-1-1.7-2v-7.1c0-0.6,0.5-1.2,1.3-1.2h0.4 c5.7,0.7,16.4,1.3,20.1,1.3c8.1,0,9.2-3.1,9.2-6.5c0-2.7-1.8-4.3-5.6-6.7c0,0-16.3-10-16.3-10c-6-3.7-9.6-9.5-9.6-15.8 c0-11.5,7.1-17.1,21.8-17.1c9.3,0,13.5,0.8,19.9,2.2C352.8,101.6,353.3,102.2,353.3,103.3"></path> <path class="st2" d="M389.8,101.9c0.2,0.5,0.4,1.1,0.6,1.6C390.2,103,390,102.5,389.8,101.9"></path> <path class="st2" d="M392.2,109.6c0.1,0.4,0.2,0.9,0.4,1.4C392.5,110.5,392.4,110,392.2,109.6"></path> <path class="st2" d="M395.3,129c0,0.4,0.1,0.7,0.1,1.1C395.3,129.7,395.3,129.4,395.3,129"></path> <path class="st2" d="M392.6,155.8c-0.1,0.4-0.2,0.9-0.3,1.3C392.4,156.7,392.5,156.3,392.6,155.8"></path> <path class="st2" d="M391.7,159.2c-0.2,0.7-0.5,1.4-0.7,2.2C391.2,160.7,391.4,160,391.7,159.2"></path> <path class="st2" d="M389.3,100.5c-0.2-0.5-0.4-0.9-0.5-1.4C389,99.6,389.1,100.1,389.3,100.5"></path> <path class="st2" d="M390.4,163.1c-0.2,0.5-0.4,1-0.5,1.6C390.1,164.2,390.2,163.7,390.4,163.1"></path> <path class="st2" d="M391,105.4c0.2,0.8,0.5,1.5,0.7,2.2C391.5,106.9,391.3,106.2,391,105.4"></path> <path class="st2" d="M395.4,136c0-0.9,0-1.8,0-2.6C395.4,134.2,395.4,135.1,395.4,136L395.4,136z"></path> <path class="st2" d="M389.6,165.6L389.6,165.6c0.1-0.3,0.2-0.6,0.3-0.8C389.8,165,389.7,165.3,389.6,165.6"></path> <path class="st2" d="M392.6,155.8c0.1-0.4,0.2-0.9,0.3-1.2C392.8,155,392.7,155.4,392.6,155.8"></path> <path class="st2" d="M395.2,127L395.2,127c0.1,0.7,0.1,1.3,0.1,2C395.2,128.4,395.2,127.7,395.2,127"></path> <path class="st2" d="M392.3,157.2c-0.2,0.7-0.4,1.4-0.6,2.1C391.9,158.5,392.1,157.8,392.3,157.2"></path> <path class="st2" d="M391.7,107.7c0.2,0.6,0.4,1.2,0.5,1.9C392.1,108.9,391.9,108.3,391.7,107.7"></path> <path class="st2" d="M395.3,130.1c0,1.1,0.1,2.1,0.1,3.3C395.4,132.3,395.4,131.2,395.3,130.1"></path> <polygon class="st2" points="392.6,110.9 392.6,111 392.6,111 "></polygon> <path class="st2" d="M389.3,100.5c0.2,0.5,0.4,1,0.5,1.4C389.7,101.5,389.5,101,389.3,100.5"></path> <path class="st2" d="M390.4,103.5c0.2,0.6,0.4,1.3,0.6,1.9C390.8,104.8,390.6,104.2,390.4,103.5"></path> <path class="st2" d="M391,161.4c-0.2,0.6-0.4,1.1-0.6,1.7C390.6,162.6,390.8,162,391,161.4"></path> <path d="M674.1,47.1c7.8,0,14.2-6.4,14.2-14.2c0-7.9-6.4-14.2-14.2-14.2c-7.8,0-14.2,6.4-14.2,14.2 C659.9,40.7,666.3,47.1,674.1,47.1 M674.1,21.3c6.4,0,11.6,5.2,11.6,11.6c0,6.4-5.2,11.6-11.6,11.6c-6.4,0-11.5-5.2-11.5-11.6 C662.6,26.5,667.8,21.3,674.1,21.3"></path> <path d="M669.1,40.5h2.1c0.3,0,0.6-0.3,0.6-0.6v-5.4h0.5h0.9c0.1,0,0.4,0.1,0.5,0.2l3.2,5.5c0.1,0.2,0.3,0.4,0.5,0.4h2.4 c0.3,0,0.5-0.3,0.5-0.5c0-0.1,0-0.3-0.1-0.4l-3.3-5.7c1.7-0.6,2.8-1.8,2.8-4.1v-0.3c0-3.6-2.4-4.8-6.3-4.8c-1.1,0-3.2,0.1-3.8,0.2 c-0.8,0.1-1,0.4-1,1.3v13.7C668.6,40.1,668.8,40.5,669.1,40.5 M671.7,27.5h0.6h1.4c2,0,2.9,0.5,2.9,2.1v0.3c0,1.4-0.9,2.1-2.9,2.1 c-0.2,0-1.7,0-2,0V27.5z"></path> </svg> 