<?xml version="1.0" encoding="UTF-8"?> <!-- Generator: Adobe Illustrator 24.0.1, SVG Export Plug-In . SVG Version: 6.00 Build 0) --> <svg xmlns="http://www.w3.org/2000/svg" xmlns:xlink="http://www.w3.org/1999/xlink" id="Layer_1" x="0px" y="0px" viewBox="0 0 643.8 218" style="enable-background:new 0 0 643.8 218;" xml:space="preserve"> <path d="M396.8,61.3c0,0.5,0,1-0.1,1.6c-0.1,0.6,0.2,1.2-0.5,1.7c-0.3,0.2-0.1,1-0.2,1.5c-0.1,0.5,0.2,1.1-0.6,1.3 c-0.1,0-0.1,0.1-0.1,0.2c-0.3,1.2-0.5,2.4-0.8,3.6c-0.3,1.3-0.3,2.8-1,3.9c-0.5,0.8-0.3,1.7-0.7,2.3c-0.6,1-0.3,2.3-0.8,3 c-0.6,0.9-0.4,1.8-0.6,2.7c0,0.1,0,0.4-0.1,0.4c-0.8,0.5-0.6,1.4-0.7,2.1c-0.3,1.2-0.4,2.5-0.9,3.6c-0.4,0.8-0.5,1.5-0.6,2.2 c0,0.1,0,0.2-0.1,0.3c-1,0.6-0.6,1.6-0.7,2.5c-0.1,0.2-0.3,0.4-0.4,0.7c-0.1,0.2-0.2,0.5-0.3,0.8c-0.2,0.8,0.1,1.7-0.7,2.5 c-0.3,0.3-0.1,1.2-0.1,1.7c-1,1.2-2.2,0.9-3.4,0.9c-3.2,0-6.3,0-9.5,0c-0.8,0-1.2-0.1-1.4-1c-0.3-1-0.8-2-1.2-2.9 c-0.1-0.3-0.1-0.6-0.1-0.9c-0.1-0.4,0.1-1.1-0.6-1.2c0,0-0.1-0.1-0.1-0.1c0.2-1.1-0.5-2-0.8-3c-0.1-0.5,0.2-1.2-0.6-1.4 c0,0-0.1-0.1-0.1-0.2c0.3-1.4-0.8-2.4-1-3.6c-0.2-1.1-0.7-2-1.1-3.1c-0.1-0.4-0.2-0.9-0.3-1.3c-0.1-0.5,0.1-1.1-0.6-1.3 c-0.1,0-0.1-0.1-0.1-0.2c0.1-0.8-0.3-1.3-0.7-2c-0.3-0.6,0.1-1.5-0.7-1.9c0.2-1.3-0.8-2.3-1-3.5c-0.2-1.1-0.7-2.1-1.1-3.1 c-0.1-0.3-0.1-0.6-0.2-0.9c-0.1-0.5,0-1-0.6-1.4c-0.3-0.2-0.2-1.1-0.3-1.6c-0.1-0.4-0.3-0.7-0.5-1c0-0.1-0.1-0.1-0.2-0.2 c-0.3-1.1-0.5-2.2-0.8-3.3c-0.1-0.3-0.3-0.6-0.5-0.9c-0.1-0.2-0.2-0.3-0.2-0.5c-0.2-0.7-0.2-1.4-0.6-2.1c-0.6-1-0.6-2.2-0.9-3.3 c-0.1-0.3-0.4-0.6-0.5-0.9c-0.1-0.3-0.2-0.6-0.2-0.9c-0.1-0.5,0.1-1.1-0.6-1.4c-0.1-0.1-0.1-0.4-0.2-0.7c-0.1-0.6,0.2-1.3-0.6-1.7 c-0.1,0-0.1-0.4-0.1-0.6c-0.1-0.6,0.1-1.3-0.6-1.6c0,0-0.1-0.1-0.1-0.2c-0.3-1.1-0.6-2.2-0.9-3.4c-0.3-1-0.3-2.2-0.9-2.9 c-0.8-0.8-0.5-1.6-0.7-2.5c0.5,0,0.9,0,1.3,0c3.6,0,7.2,0,10.8,0c0.7,0,1.4,0.6,1.4,1.3c0.1,0.6-0.2,1.4,0.7,1.7 c0,0,0.1,0.1,0.1,0.2c0.3,1.1,0.4,2.2,0.8,3.2c0.5,1.1,0.3,2.5,1.3,3.4c0.1,0.1,0.1,0.3,0.1,0.5c0.1,0.7-0.2,1.4,0.6,1.9 c0.1,0,0,0.3,0.1,0.4c0.1,0.7-0.2,1.5,0.6,1.9c-0.2,1.2,0.6,2.1,0.9,3.2c0.4,1.4,0.9,2.8,1.3,4.2c0.1,0.3,0.1,0.5,0.1,0.8 c0.1,0.5-0.1,1.2,0.6,1.4c0.1,0,0.1,0.3,0.1,0.4c0.1,0.7-0.2,1.5,0.7,1.9c-0.2,1.1,0.5,2,0.8,3.1c0.1,0.5-0.1,1.1,0.6,1.3 c0.1,0,0.1,0.1,0.1,0.2c0.3,1.1,0.4,2.3,0.9,3.4c0.5,1.1,0.4,2.4,1.3,3.3c0.3,0.3,0.1,1,0.2,1.6c0.1,0.4,0.4,0.7,0.5,1 c0.1,0.4,0.3,0.9,0.2,1.3c-0.2,0.9,0.7,1.1,0.9,1.6c0.2-0.1,0.5-0.2,0.5-0.3c0.1-0.3,0.1-0.7,0.1-1.1c0.1-0.6,0.4-1.1,0.5-1.7 c0-0.1,0-0.1,0.1-0.2c0.3-1.3,0.5-2.5,0.8-3.8c0.1-0.4,0.4-0.8,0.6-1.3c0.1-0.2,0.1-0.5,0.2-0.8c0.2-0.8-0.2-1.7,0.6-2.4 c0.2-0.2,0.1-0.8,0.1-1.2c0.1-0.5,0-1,0.5-1.5c0.3-0.3,0.2-1.1,0.2-1.6c0-0.5-0.1-1,0.5-1.2c0.1,0,0.1-0.2,0.2-0.3 c0.1-0.8,0.3-1.6,0.6-2.4c0.5-1.4,0.7-2.9,1-4.4c0-0.1,0-0.3,0.1-0.3c1-0.5,0.6-1.5,0.7-2.3c0.1-0.3,0.3-0.5,0.4-0.8 c0.1-0.2,0.2-0.5,0.2-0.7c0.1-0.8-0.2-1.7,0.6-2.3c0.2-0.1,0.1-0.7,0.1-1c0.1-0.5-0.2-1,0.5-1.2c0.1,0,0.1-0.4,0.2-0.6 c0.2-0.9,0.2-1.8,0.6-2.7c0.5-1.2,0.6-2.7,1-4c0.1-0.3,0.4-0.6,0.5-0.9c0.1-0.3,0.2-0.5,0.2-0.8c0.1-0.4,0.1-0.8,0.1-1.2 c0.2,0,0.3-0.1,0.5-0.1c3.5,0,7,0,10.6,0c0.6,0,0.7,0.4,0.8,0.9c0.2,1.2,0.4,2.6,0.9,3.7c0.4,0.8,0.3,1.8,0.7,2.4 c0.7,1,0.2,2.2,0.7,3c0.6,0.9,0.5,1.9,0.6,2.8c0,0.2,0.2,0.3,0.3,0.5c0.1,0.1,0.3,0.2,0.3,0.4c0.3,1.3,0.6,2.6,0.9,3.8 c0.3,1.2,0.3,2.6,0.9,3.7c0.5,0.8,0.2,1.7,0.7,2.3c0.7,1,0.3,2.1,0.7,2.9c0.5,0.8,0.2,1.9,0.7,2.4c1.1,1.1,0.2,2.6,1.2,3.6 c0.1,0,0,0.2,0.1,0.3c0.3,1.4,0.4,3,1,4.2c0.6,1.1,0.3,2.3,0.8,3.2c0.6,0.9,0.5,1.8,0.6,2.8c0,0.1,0.2,0.3,0.2,0.4 c0.1-0.1,0.2-0.2,0.4-0.3c0.9-0.6,0.7-1.6,0.9-2.5c0.3-1.1,0.8-2.1,1.2-3.2c0.1-0.3,0-0.7,0.2-1.1c0.1-0.4,0.4-0.7,0.6-1.1 c0.1-0.1,0.2-0.2,0.2-0.3c0.1-0.8,0.2-1.5,0.6-2.2c0.6-1,0.6-2.4,0.9-3.5c0.2-0.6,0.5-1.2,0.7-1.9c0.2-0.6-0.1-1.4,0.6-1.8 c0,0,0.1-0.1,0.1-0.2c0.3-1.2,0.6-2.4,0.9-3.5c0.1-0.3,0.3-0.5,0.5-0.7c0-0.1,0.2-0.1,0.2-0.2c-0.2-1.1,0.5-2,0.8-2.9 c0.2-0.5-0.3-1.3,0.6-1.6c0.1,0,0.1-0.3,0.1-0.5c0.1-0.6-0.2-1.5,0.7-1.8c0,0,0-0.1,0.1-0.2c0.3-1.2,0.6-2.3,0.9-3.5 c0.3-1,0.3-2.2,0.9-3c0.5-0.8,0.3-1.6,0.7-2.2c0.6-0.8,0.3-1.7,0.7-2.3c0.5-0.8,0.5-1.5,0.7-2.3c0.1-0.3,0.8-0.4,1.2-0.4 c2.4,0,4.9,0,7.3,0c1.5,0,3.1,0,4.8,0c-0.2,0.8,0.3,1.7-0.6,2.3c-0.1,0.1-0.1,0.5-0.1,0.8c-0.1,0.5,0.2,1.2-0.6,1.5 c-0.1,0.1-0.1,0.5-0.1,0.8c-0.1,0.5,0.2,1.2-0.6,1.4c0,0-0.1,0.1-0.1,0.1c-0.3,1.1-0.5,2.1-0.8,3.2c-0.3,1-0.3,2.2-0.9,3 c-0.6,0.7-0.3,1.6-0.7,2c-0.8,0.9-0.2,2.2-1.2,3c-0.2,0.1-0.1,0.6-0.1,0.9c-0.1,0.5,0.1,1.1-0.6,1.3c-0.1,0-0.1,0.4-0.2,0.6 c-0.2,0.6-0.4,1.2-0.6,1.9c-0.3,1.1-0.6,2.2-0.9,3.2c-0.1,0.4-0.4,0.7-0.5,1.1c-0.1,0.3-0.2,0.7-0.2,1c-0.1,0.4,0.2,1-0.5,1.3 c-0.2,0.1-0.1,0.8-0.2,1.2c-0.1,0.4-0.3,0.7-0.5,1c-0.1,0.2-0.2,0.4-0.2,0.6c-0.1,0.6,0.3,1.5-0.7,1.8c0,0,0,0.1-0.1,0.2 c-0.3,1.2-0.6,2.3-0.9,3.5c-0.2,0.9-0.3,1.9-0.8,2.6c-0.6,0.7-0.3,1.7-0.7,2.1c-1,0.9-0.1,2.4-1.2,3.1c-0.1,0.1-0.1,0.3-0.1,0.5 c-0.1,0.6,0.1,1.3-0.6,1.6c0,0,0,0.1-0.1,0.2c-0.3,1.2-0.3,2.5-1,3.5c-0.7,1-0.1,2.4-1.2,3.1c-0.1,0.1-0.1,0.4-0.1,0.6 c-0.1,0.6,0.2,1.3-0.6,1.6c-0.1,0-0.1,0.4-0.1,0.6c-0.1,0.6,0.2,1.3-0.6,1.7c-0.1,0-0.1,0.3-0.1,0.4c-0.1,0.6,0.2,1.4-0.7,1.8 c-0.1,0.1-0.1,0.4-0.1,0.7c-0.1,0.9-0.7,1.2-1.4,1.2c-3.9,0-7.7,0-11.6,0c-0.7,0-1.1-0.4-1.3-1.2c-0.3-1.2-0.2-2.7-0.9-3.7 c-0.7-1-0.3-2.1-0.8-2.9c-0.6-1-0.3-2.2-0.8-3c-0.5-0.9-0.2-2-0.7-2.6c-1-1.2-0.2-2.8-1.3-3.9c0,0,0-0.1,0-0.1 c-0.3-1.1-0.5-2.3-0.8-3.4c-0.2-0.6,0.2-1.4-0.7-1.8c-0.1-0.1-0.1-0.6-0.1-0.8c-0.1-0.7,0.3-1.6-0.7-2c0,0,0-0.1,0-0.1 c0.4-1.3-0.8-2.4-0.8-3.6c0-0.6,0.2-1.3-0.6-1.6c-0.1-0.1-0.1-0.5-0.2-0.8c-0.4-1.7-0.9-3.4-1.3-5.1c-0.2-0.6-0.2-1.3-0.2-2 C398.1,61.2,397.9,61.1,396.8,61.3z M597.6,39.1c0,20.1,0,40.3,0,60.4c0,1.1,0.1,1.2,1.2,1.2c3.8,0,7.5,0,11.3,0c0.7,0,1-0.2,1-0.9 c0-0.3,0-0.5,0-0.8c0-7.5,0-14.9,0-22.4c0-0.4,0-0.7,0-1.2c6,0,11.9,0,17.9,0c0,0.4,0,0.8,0,1.1c0,7.6,0,15.2,0,22.8 c0,1.2,0.1,1.3,1.3,1.3c3.6,0,7.2,0,10.8,0c1.3,0,1.3,0,1.3-1.3c0-20,0-40,0-60c0-0.4,0-0.8-0.1-1.2c-4.5,0-8.9,0-13.4,0 c0,8.2,0,16.3,0,24.5c-0.6,0-1,0-1.5,0c-5,0-9.9,0-14.9,0c-1.4,0-1.5,0-1.5-1.4c0-7.3,0-14.5,0-21.8c0-0.5,0-0.9-0.1-1.4 c-4.5,0-8.9,0-13.4,0C597.7,38.6,597.6,38.8,597.6,39.1z M265.8,50.8c0.3,0.5,0.8,0.8,0.8,1.2c-0.1,1.3,0.5,2.7-0.4,3.9 c-0.1,0.1,0,0.5,0.1,0.6c0.4,0.4,0.7,1.7,1.5,0.4c0,0,0.1,0,0.2,0c1.9-0.2,3.8-0.2,5.7-0.8c1.8-0.5,3.8-0.6,5.7-0.9 c0.1-0.1,0.1-0.2,0.1-0.2c0-3.3,0-6.5,0-9.8c0-0.1-0.1-0.3-0.2-0.4c-0.2-0.3-0.4-0.6-0.6-0.8c-0.1-0.2-0.1-0.5-0.2-0.6 c-0.4-0.6-0.8-1.2-1.3-1.8c-0.4-0.5-0.8-1.2-1.6-1.3c-0.1,0-0.4,0-0.4-0.1c-0.2-1-1.3-0.8-1.9-1.3c-0.9-0.6-2.2-0.7-3.4-0.8 c-1-0.1-2.1,0-3.1,0c-6.2,0-12.4,0-18.6,0c-0.5,0-1,0.3-1.5,0.4c-0.5,0.1-1.1,0.1-1.5,0.3c-0.4,0.2-0.8,0.5-1.2,0.7 c-0.2,0.1-0.6,0-0.7,0.2c-0.9,1.1-2.4,1.6-2.7,3.2c0,0.1-0.1,0.1-0.2,0.2c-0.5,0.7-1.2,1.3-1.2,2.3c0,0.5-0.1,1.1-0.2,1.6 c-0.1,0.4-0.4,0.7-0.4,1.1c0,5,0,9.9,0,14.9c0,0.3-0.1,0.7,0.1,0.8c1.1,0.8,0.1,2.3,1.2,3.2c0.5,0.4,0.5,1.4,1,1.7 c0.8,0.5,1.4,1.4,2.4,1.7c0.5,0.2,1.1,0.6,1.6,0.7c0.3,0.1,0.6,0.5,0.9,0.5c1.3,0,2.3,1.1,3.6,0.8c0,0,0.1,0,0.2,0.1 c0.2,0.7,0.9,0.6,1.4,0.7c1.3,0.3,2.5,0.5,3.8,0.8c0,0,0.1,0,0.1,0c0.8,1.2,2.5,0.1,3.5,1.3c0.4,0.5,1.5,0,2.3,0.7 c0.6,0.5,1.7,0.4,2.5,0.7c1.1,0.3,2.2,0.4,3.2,1.1c0.2,0.2,0.6,0.5,0.6,0.7c0,2.8,0.1,5.6,0,8.3c0,0.7-0.5,1.2-1.2,1.2 c-4.2,0-8.4,0-12.5,0c-0.8,0-1.2-0.4-1.2-1.2c0-1.4,0-2.7,0-4.1c0-0.7-0.1-1.3-0.1-2.1c-0.5,0.1-1,0-1.1,0.2 c-0.3,0.6-0.8,0.5-1.2,0.5c-0.7,0-1.4,0-2.1,0.1c-0.2,0-0.5,0-0.6,0.1c-0.5,0.9-1.4,0.5-2.1,0.6c-0.7,0.1-1.5,0.1-2.2,0.2 c-0.6,0.1-1.3,0.4-1.9,0.5c-0.3,0.1-0.7,0-1.1,0c-0.7,0-1,0.4-1,1.1c0,2.5,0,5.1,0.1,7.6c0,0.3,0,0.7,0.1,0.8 c0.7,0.4,0.5,1.1,0.6,1.7c0,0.2,0,0.5,0.1,0.5c0.9,0.3,0.4,1.5,1.3,1.8c0.3,0.1,0.6,0.4,0.7,0.7c0.5,0.8,1,1.5,2,1.5 c0.1,0,0.1,0,0.1,0.1c0.2,1,1.6,0.3,1.8,1.3c1.2,0.2,2.4,0.6,3.6,0.6c6.9,0.1,13.7,0.1,20.6,0c1.3,0,2.5-0.4,3.8-0.6 c0.1,0,0.2-0.1,0.2-0.1c0.2-0.6,0.7-0.6,1.1-0.6c0.1,0,0.4-0.1,0.4-0.1c0-0.7,0.6-0.4,0.9-0.6c0.5-0.3,0.9-0.6,1.3-1 c0.4-0.5,0.7-1.1,1-1.7c0.2-0.4,0.4-0.9,0.7-1c0.8-0.3,0.6-0.9,0.7-1.4c0.1-0.3,0.1-0.6,0.2-0.9c0.1-0.3,0.4-0.7,0.4-1 c0-5.9,0-11.7,0-17.6c0-0.2,0-0.6-0.1-0.7c-1-0.7-0.1-2.2-1.3-2.8c-0.3-0.1-0.4-0.7-0.6-1c-0.5-0.4-1-0.7-1.5-1.1 c-0.6-0.6-1.1-1.3-2.1-1.3c-0.1,0-0.2-0.2-0.3-0.3c-0.1-0.1-0.3-0.3-0.5-0.3c-0.7-0.1-1.3-0.1-2-0.6c-0.9-0.6-2.2-0.6-3.3-0.9 c-1.4-0.3-2.7-0.6-4.1-0.9c-0.1,0-0.1,0-0.2-0.1c-0.4-0.8-1.2-0.5-1.8-0.6c-0.2,0-0.5,0-0.6-0.1c-0.5-0.9-1.4-0.5-2.1-0.6 c-0.3-0.1-0.8,0-0.9-0.1c-0.5-0.8-1.2-0.5-1.9-0.6c-0.2,0-0.5-0.1-0.7-0.2c-0.5-0.2-1-0.6-1.5-0.6c-1.8-0.2-2.7-1.2-2.7-3 c0-1.2,0-2.4,0-3.6c0-1.3-0.3-2.7,0.8-3.8C257.1,50.8,261.5,50.8,265.8,50.8z M561.2,50.8c3.4,0,6.8,0,10.2,0c1.5,0,1.5,0,1.5,1.5 c0,2.2,0,4.5,0,6.7c0,0.4,0,0.7,0.2,1c0,0.1,0.5,0.3,0.5,0.3c0.5-0.7,1.3-0.4,2-0.5c0.8-0.1,1.7,0.1,2.3-0.3 c0.6-0.4,1.1-0.5,1.7-0.5c0.7,0,1.4,0,2.1-0.1c0.3,0,0.5-0.1,0.8-0.2c0.4-0.1,0.8-0.4,1.3-0.4c0.5-0.1,1,0,1.4-0.1 c0.6-0.1,1.2-0.6,1.2-1.3c0-3.1,0-6.2,0-9.2c0-0.2-0.1-0.5-0.2-0.7c-0.1-0.4-0.5-0.8-0.4-1.1c0.2-1.2-0.9-1.9-0.9-2.9 c0,0-0.1-0.1-0.1-0.1c-0.6-0.6-1.5-1.1-1.9-1.9c-0.6-1.2-1.8-1.3-2.7-1.9c-0.9-0.7-2.4-0.8-3.6-0.9c-7.5-0.1-15.1-0.1-22.6,0 c-1.2,0-2.4,0.5-3.6,0.8c-0.1,0-0.2,0.2-0.4,0.3c-0.4,0.3-0.8,0.7-1.2,0.9c-0.4,0.2-0.8,0.3-1.2,0.7c-0.9,1.1-1.9,2-2.2,3.5 c0,0.1,0,0.2,0,0.2c-1,0.5-0.5,1.4-0.6,2.2c-0.1,0.5-0.1,1.1-0.2,1.7c-0.1,0.4-0.3,0.7-0.3,1.1c0,5.2,0,10.3,0,15.5 c0,4.4-0.1,8.8,0,13.2c0.1,4.4-0.6,8.8,0.5,13.1c0.2,0.6,0.1,1.4,0.1,2.1c0,0.2,0.1,0.6,0.1,0.6c0.7,0.1,0.5,0.7,0.6,1.1 c0,0.1,0,0.3,0.1,0.4c0.6,0.6,1.2,1.2,1.8,1.8c0.3,0.3,0.7,0.6,1.1,0.9c0.3,0.3,0.6,0.9,1,1c0.6,0.2,1.2,0.5,1.7,0.7 c1.2,0.5,2.6,0.7,3.9,0.7c7,0.1,14,0.1,21,0c1.2,0,2.4-0.4,3.6-0.7c0.1,0,0.1,0,0.2-0.1c0.1-1.1,1.7-0.2,1.8-1.3 c0-0.1,0.7,0,0.9-0.2c1-1.2,2.4-2.1,2.7-3.9c0-0.1,0-0.2,0.1-0.2c0.8-0.2,0.5-0.8,0.6-1.3c0.1-0.4,0.3-0.8,0.5-1.2 c0.1-0.2,0.2-0.4,0.2-0.6c0-3.7,0-7.3,0-11c0-0.6-0.3-1-1-1c-1.2-0.1-2.3-0.3-3.5-0.6c-2.2-0.5-4.5-0.7-6.7-1 c-0.3,0-0.6-0.2-0.9-0.3c-0.4-0.1-0.7-0.3-1.3-0.5c-0.1,0.8-0.2,1.3-0.2,1.8c0,2.7,0,5.4,0,8.1c0,0.8-0.6,1.4-1.4,1.4 c-4.1,0-8.1,0-12.2,0c-0.4,0-0.8,0-1.2-0.1c0-12.4,0-24.7,0-37.2C559.1,50.8,560.1,50.8,561.2,50.8z M475.1,90.6 c0.3,1.1,0.6,2.2,0.8,3.2c0,0,0,0.1,0,0.1c1,0.3,0.4,1.3,0.7,1.8c0.5,0.9,0.7,1.7,0.7,2.7c0,0.1,0.2,0.1,0.2,0.2 c0.1,0.3,0.4,0.5,0.4,0.8c0.2,1.2,0.2,1.3,1.4,1.3c3.8,0,7.6,0,11.4,0c0.6,0,0.7-0.2,0.8-0.7c0.3-1.6-1.1-2.8-0.9-4.3 c-0.8-0.4-0.5-1.2-0.7-1.9c0-0.2-0.2-0.3-0.2-0.5c-0.1-0.2-0.3-0.4-0.4-0.7c-0.3-1.2-0.6-2.3-0.9-3.5c0,0,0-0.1,0-0.1 c-1.1-0.7-0.4-2.1-1.3-3c-0.7-0.8-0.4-2.4-1-3.4c-0.5-1-0.6-2-0.7-3.1c0-0.1-0.1-0.2-0.2-0.3c-0.2-0.3-0.4-0.6-0.5-0.9 c-0.3-1.1-0.4-2.3-0.9-3.3c-0.4-0.7-0.5-1.4-0.6-2.1c0-0.1-0.1-0.4-0.1-0.4c-0.8-0.1-0.5-0.8-0.6-1.2c-0.1-0.3,0-0.8-0.1-0.9 c-1.2-0.7-0.2-2.2-1.2-3c-0.4-0.3-0.2-1.4-0.7-2.1c-0.5-0.6-0.5-1.7-0.8-2.5c-0.3-1.2-0.6-2.4-0.9-3.5c0-0.1,0-0.2,0-0.2 c-0.9-0.4-0.6-1.3-0.7-2c0-0.1,0-0.3-0.1-0.3c-1.1-0.6-0.3-2-1.2-2.9c-0.4-0.4-0.1-1.4-0.7-2.2c-0.6-0.8-0.6-2-0.9-3 c-0.3-1-0.5-2.1-0.8-3.1c0-0.1,0-0.1-0.1-0.1c-0.8-0.2-0.6-0.8-0.6-1.3c0-0.3,0-0.8-0.1-0.8c-0.8-0.4-0.5-1.1-0.6-1.6 c0-0.2,0-0.6-0.1-0.7c-0.8-0.3-0.5-1-0.6-1.5c-0.1-0.9-0.7-1.5-1.6-1.5c-0.5,0-1,0-1.5,0c-3.3,0-6.7,0-10,0c-0.3,0-0.8,0.1-1,0.3 c-0.3,0.6-0.6,1.3-0.8,2c-0.3,1.1-0.6,2.3-0.9,3.5c0,0.1,0,0.1-0.1,0.2c-0.8,0.3-0.5,1.1-0.7,1.7c0,0.2,0,0.5-0.1,0.6 c-0.7,0.4-0.5,1.1-0.6,1.6c0,0.2,0,0.6-0.1,0.6c-0.8,0.3-0.5,1-0.6,1.6c0,0.2,0,0.6-0.1,0.7c-1,0.9-0.9,2.3-1.4,3.4 c-0.4,1-0.6,2.1-0.8,3.2c0,0.1,0,0.1-0.1,0.2c-0.9,0.2-0.5,1-0.7,1.5c-0.1,0.2,0,0.6-0.1,0.7c-1.1,0.7-0.3,2.1-1.2,3 c-0.4,0.4-0.2,1.4-0.7,2.1c-0.6,0.9-0.4,2.1-0.9,3.2c-0.5,1-0.6,2.2-0.9,3.3c0,0.1,0,0.2-0.1,0.2c-0.9,0.3-0.5,1.1-0.6,1.7 c0,0.2,0,0.5-0.1,0.5c-0.8,0.3-0.4,1.1-0.6,1.6c-0.4,0.9-0.8,1.8-0.8,2.9c0,0-0.1,0.1-0.1,0.1c-0.7,0.2-0.5,0.7-0.6,1.2 c-0.1,0.4,0,0.8-0.2,1c-0.8,0.9-0.8,2.2-1.1,3.2c-0.4,1.1-1.3,2.1-1,3.5c-0.9,0.4-0.5,1.3-0.7,2c0,0.1,0,0.3-0.1,0.4 c-0.9,0.9-0.7,2.3-1.3,3.4c-0.6,1-0.5,2.5-1,3.6c-0.4,0.7-0.5,1.4-0.6,2.1c0,0.1-0.1,0.4-0.1,0.4c-0.8,0.4-0.5,1-0.4,1.7 c0.5,0,0.9,0,1.3,0c3.6,0,7.2,0,10.8,0c1.5,0,1.9-0.4,2.1-1.9c0.2-1,0.3-2.1,0.8-2.9c0.5-0.7,0.5-1.5,0.6-2.2c0-0.1,0-0.2,0.1-0.3 c1-0.4,0.5-1.2,0.7-1.9c0-0.2,0-0.5,0.1-0.5c0.8-0.4,0.5-1.1,0.6-1.7c0.1-1.3,0.1-1.4,1.4-1.4c5.7,0,11.4,0,17,0c0.3,0,0.6,0,0.8,0 C474.5,89,474.8,89.8,475.1,90.6z M460,73.8c0.1-0.1,0.1-0.5,0.1-0.8c0.1-0.6-0.2-1.3,0.6-1.6c0.1,0,0.1-0.2,0.1-0.2 c0.3-1.4,0.6-2.7,0.9-4.1c0.3-1.2,0.2-2.5,0.9-3.4c0.6-0.9,0.5-1.7,0.6-2.5c0-0.1,0-0.3,0-0.3c1.1-0.9,0.5-2.2,0.7-3.3 c0.1-0.3,0.2-0.6,0.5-0.7c0.6-0.3,0.9-0.2,1,0.6c0.2,1.5,0.3,3,0.9,4.3c0.4,0.9,0.5,1.8,0.6,2.7c0,0.1,0,0.2,0.1,0.3 c1,0.6,0.6,1.6,0.7,2.5c0,0,0,0.1,0,0.1c0.7,0.8,0.3,2,0.8,2.7c0.7,0.9,0.4,1.8,0.6,2.7c0,0.1,0,0.4,0.1,0.4c1,0.6,0.6,1.7,0.8,2.5 c0,0.2-0.3,0.6-0.5,0.6c-3.3,0-6.6,0-10.1,0C459.6,75.3,459.1,74.4,460,73.8z M316.3,50.8c4.6,0,9.1,0,13.7,0c0.8,0,1.1-0.2,1.1-1 c0-3.6,0-7.2,0-10.8c0-0.7-0.2-1-1-1c-14.5,0-28.9,0-43.4,0c-0.4,0-0.8,0.1-1.3,0.1c0,4.2,0,8.3,0,12.7c5.5,0,10.9,0,16.4,0 c0,0.5,0,0.8,0,1.1c0,15.7,0,31.4,0,47.1c0,0.3,0,0.5,0,0.8c0,0.6,0.2,0.9,0.9,0.8c3.6,0,7.2,0,10.8,0c1.2,0,1.7-0.4,1.7-1.6 c0-15.7,0-31.4,0-47c0-0.4,0-0.8,0-1.2C315.7,50.8,316,50.8,316.3,50.8z M506.4,52.1c0,15.7,0,31.4,0,47c0,0.4,0,0.7,0.1,1.1 c0.1,0.2,0.4,0.5,0.6,0.5c4,0,7.9,0,11.9,0c0.6,0,0.8-0.3,0.9-0.8c0-0.3,0-0.7,0-1c0-15.7,0-31.4,0-47c0-0.9,0.2-1.1,1.1-1.1 c4.4,0,8.8,0,13.2,0c0.5,0,0.9,0,1.4,0c0-4.3,0-8.5,0-12.7c-0.8,0-1.5,0-2.1,0c-14,0-28.1,0-42.1,0c-1,0-1.2,0.2-1.2,1.2 c0,3.4,0,6.9,0,10.3c0,1.1,0.2,1.2,1.3,1.2c4.5,0,9.1,0,13.6,0c0.4,0,0.9,0.1,1.4,0.1C506.4,51.3,506.4,51.7,506.4,52.1z M213,57.9 c0,13.7,0,27.4,0,41.1c0,1.1,0.5,1.6,1.7,1.6c3.4,0,6.7,0,10.1,0c1,0,1.5-0.5,1.5-1.5c0-19.9,0-39.8,0-59.7c0-0.4,0-0.8-0.1-1.3 c-0.4-0.1-0.8-0.2-1.1-0.2c-3.9,0-7.8,0-11.6,0c-0.4,0-0.9,0-1.1,0.3c-0.7,0.6-1.7,0.5-2.4,1.1c-0.6,0.5-1.8,0-2.6,0.7 c-0.5,0.4-1.4,0.2-2.1,0.7c-0.6,0.4-1.6,0.1-2.4,0.8c-0.6,0.5-1.6,0.6-2.4,0.7c-0.9,0.1-1.7,0.5-2.5,0.9c-0.6,0.2-0.6,0.6-0.5,1.2 c0.1,0.5,0.3,1,0.3,1.5c0,2.5,0,5.1,0,7.6c0,0.3-0.1,0.6-0.1,1c0,0.4,0,0.8-0.1,1.2c0.6,0,1.3,0.1,1.9,0c0.4,0,0.8-0.3,1.2-0.5 c0.3-0.1,0.8,0,0.9-0.2c0.5-0.8,1.3-0.6,2-0.7c0.1,0,0.4,0,0.4-0.1c0.3-0.7,0.9-0.5,1.4-0.6c0.3,0,0.7,0,0.8-0.1 c0.4-0.8,1.2-0.6,1.8-0.6c0.2,0,0.4,0,0.5-0.1c0.3-0.7,0.9-0.5,1.5-0.6c0.4-0.1,0.8-0.2,1.2-0.3c0.6-0.2,1.1-0.4,1.9-0.7 C213,53.7,213,55.8,213,57.9z M453.3,170c0,0.3,0,0.7,0,1c0,0.6,0.3,0.8,0.8,0.8c5.2,0,10.3-0.1,15.5,0c1.6,0,2.8-0.4,4-1.4 c0.8-0.7,1.3-1.5,1.4-2.5c0.1-1.7,0.1-3.3,0.1-5c0-2.1,0-4.2-0.1-6.4c0-0.9-0.6-1.4-1.3-1.9c-0.4-0.3-1.1-0.6-1-1.4 c0-0.7,0.5-0.9,1-0.9c0.1,0,0.3-0.2,0.4-0.3c0.5-1.1,0.9-2.1,0.9-3.4c-0.1-2.3,0-4.5,0-6.8c0-1.4-0.3-2.6-1.5-3.6 c-0.9-0.8-1.9-1.4-3.1-1.4c-5.3,0-10.6,0-15.9,0c-1.3,0-1.3,0-1.3,1.3c0,5.3,0,10.7,0,16C453.3,159.3,453.3,164.7,453.3,170z M468.8,156c0.6,0,0.9,0.3,1.3,0.9c0.6,1,0.5,2.1,0.5,3.1c0,1.3,0,2.6,0,3.9c0,1.1-0.3,1.9-1.3,2.7c-0.7,0.6-1.3,0.6-2,0.6 c-2.6,0-5.1,0-7.7,0c-0.8,0-1.6-0.7-1.6-1.6c0-2.9,0-5.8,0-8.7c0-0.7,0.2-1,0.9-1c1.7,0,3.3,0,5,0c0,0,0,0,0,0 C465.5,156.1,467.2,156.1,468.8,156z M459.3,151.6c-1.2,0-1.4-0.2-1.4-1.3c0-2.7,0-5.3,0-8c0-0.9,0.4-1.2,1.2-1.2c0.7,0,1.4,0,2.1,0 c2.1,0,4.3,0,6.4,0c1.6,0,2.3,0.6,2.3,2.3c0,2,0,4,0,6c0,1.5-0.8,2.3-2.3,2.3c-1.4,0-2.7,0-4.1,0c0,0,0,0,0,0 C462.1,151.6,460.7,151.6,459.3,151.6z M390,154.2c0-2.4,0-4.8,0-7.2c0-2.1,0-4.2-0.1-6.3c0-0.4-0.1-0.8-0.3-1.1 c-0.5-0.6-0.6-1.7-1.7-1.7c0,0-0.1-0.1-0.1-0.1c-0.6-0.8-1.3-1.2-2.3-1.2c-4.7,0-9.3,0-14,0c-0.4,0-0.8,0.4-1.2,0.4 c-0.8,0.1-1.2,0.7-1.8,1.1c-0.3,0.3-0.7,0.6-0.9,1c-0.3,1.1-0.7,2.3-0.7,3.5c-0.1,6.4-0.1,12.8,0,19.2c0,2.1-0.3,4.2,0.5,6.3 c0.5,1.4,1.2,2.4,2.7,2.8c0.1,0,0.3,0.1,0.3,0.1c0.1,0.7,0.7,0.6,1.1,0.6c4.6,0,9.2,0,13.8,0c0.2,0,0.5,0,0.7-0.1 c0.7-0.4,1.4-0.8,2-1.3c1-0.8,1.9-1.7,1.9-3.1C390,162.8,390,158.5,390,154.2C390,154.2,390,154.2,390,154.2z M384.9,164.3 c0,0.5,0,1-0.2,1.5c-0.1,0.3-0.5,0.5-0.7,0.7c-0.3,0.2-0.5,0.4-0.8,0.5c-0.2,0.1-0.5,0.2-0.7,0.2c-2.7,0-5.3,0.1-8,0 c-0.6,0-1.2-0.6-1.8-1c-0.9-0.6-0.7-1.6-0.7-2.5c0-6.6,0-13.3,0-19.9c0-1.5,1.2-2.7,2.7-2.7c2.7,0,5.3,0,8,0c1.5,0,2.2,0.6,2.2,2.2 c0,3.6,0,7.2,0,10.8c0,0,0,0,0,0C384.9,157.5,384.9,160.9,384.9,164.3z M201.7,159.1c0,2.8,0,5.7,0.1,8.5c0,0.7,0.4,1.5,0.8,1.9 c0.8,0.6,1.3,1.7,2.5,1.6c0.1,0,0.2,0.2,0.3,0.2c0.3,0.1,0.6,0.4,0.8,0.4c4.5,0,9,0,13.4,0c0.2,0,0.5-0.1,0.7-0.2 c0.4-0.2,0.7-0.4,1-0.5c0.1-0.1,0.3-0.1,0.4-0.2c0.3-0.4,0.5-0.8,0.9-1.1c0.9-0.6,1.2-1.7,1.3-2.6c0.1-4.1,0-8.3,0.1-12.5 c0-0.5-0.2-0.8-0.7-0.7c-3.3,0-6.5,0-9.8,0c-0.5,0-0.7,0.2-0.7,0.7c0,1,0,2,0,3c0,0.6,0.2,0.8,0.8,0.8c1.5,0,2.9,0,4.4,0 c0.7,0,0.9,0.3,0.9,0.9c0,1.9-0.2,3.9,0,5.8c0.1,1.4-1.2,1.3-1.6,2.1c-0.1,0.1-0.3,0.2-0.5,0.2c-2.9,0-5.7,0.1-8.6-0.1 c-0.7,0-1.4-0.6-1.5-1.5c-0.1-1-0.1-2-0.1-3c0-6.4,0-12.8,0-19.2c0-1.9,0.7-2.5,2.6-2.5c2.1,0,4.3,0,6.4,0c0.7,0,1.3,0.1,2,0.4 c1.2,0.5,1.3,1.2,1.2,2.2c0,0.5,0,1,0,1.5c0,0.9,0.6,1.1,1.3,0.8c0.4-0.2,0.9-0.4,1.4-0.5c0.6-0.1,1.1-0.1,1.7-0.1 c0.5,0,0.7-0.2,0.7-0.7c0-1.2,0.1-2.4-0.1-3.6c-0.1-0.8-0.5-1.5-0.7-2.2c0-0.1-0.1-0.1-0.2-0.1c-0.4-0.3-0.8-0.6-1.1-0.9 c-0.5-0.6-1.8-1.3-2.6-1.3c-3.4,0-6.7,0-10.1,0c-1.7,0-3.6-0.5-5.2,0.7c-0.5,0.3-1.1,0.6-1.4,1.1c-0.6,1-1,2.2-1,3.5 c0.1,4.1,0,8.1,0,12.2C201.7,155.8,201.7,157.4,201.7,159.1z M546,139.9c-0.5,0.8-0.7,1.6-0.7,2.5c0,0.1,0,0.1-0.1,0.1 c-0.7,0.3-0.5,0.9-0.6,1.5c0,0.3,0,0.7-0.1,0.8c-0.7,0.4-0.5,1-0.6,1.6c0,0.2,0,0.5-0.1,0.6c-0.9,1-0.8,2.4-1.3,3.6 c-0.4,1-0.6,2-0.8,3.1c0,0.1,0,0.1-0.1,0.1c-0.8,0.3-0.6,1-0.6,1.6c0,0.2,0,0.6-0.1,0.6c-0.8,0.3-0.4,1.1-0.6,1.7 c-0.3,0.9-0.8,1.8-0.8,2.8c0,0-0.1,0.1-0.1,0.1c-0.2,0.4-0.4,0.8-0.6,1.2c-0.1,0.3-0.1,0.7-0.2,1c-0.4,1.2-0.9,2.4-1.2,3.6 c-0.3,1-1.2,1.8-0.9,3c0,0,0,0.1-0.1,0.1c-0.9,0.6-0.5,1.4-0.5,2.2c1.3,0,2.5-0.1,3.7,0c0.8,0.1,1.3-0.6,1.4-1 c0.2-0.8,0.4-1.5,0.8-2.3c0.5-1,0.6-2.3,0.9-3.4c0.2-1.1,0.7-1.5,1.8-1.5c3.4,0,6.8,0,10.2,0c1.6,0,1.9,0.3,2.2,1.9 c0.2,1,1,1.8,0.9,3c0,0,0.1,0.1,0.1,0.1c0.6,0.2,0.5,0.8,0.5,1.2c0.1,1.4,0.6,1.9,2,1.9c0.7,0,1.4,0,2.1,0c0.3,0,1-0.1,1-0.2 c0-0.6,0-1.2-0.2-1.8c-0.1-0.4-0.5-0.7-0.5-1c0-1.2-1.1-2.1-0.8-3.3c0-0.1-0.2-0.1-0.2-0.2c-0.2-0.2-0.4-0.5-0.5-0.8 c-0.3-1.1-0.6-2.3-0.9-3.4c0-0.1-0.1-0.2-0.2-0.3c-0.4-1-0.9-2-1.2-3c-0.3-1.1-0.3-2.4-0.9-3.4c-0.4-0.7-0.5-1.4-0.6-2.1 c0-0.1-0.1-0.4-0.1-0.4c-0.7-0.3-0.5-0.9-0.6-1.4c-0.1-0.3-0.1-0.6-0.2-0.9c-0.4-1.1-0.9-2.2-1.2-3.4c-0.3-1.1-1.2-2-0.9-3.2 c0,0-0.1-0.1-0.1-0.1c-0.7-0.2-0.5-0.7-0.5-1.2c-0.1-1.1-1.1-2-0.8-3.2c-0.7-0.2-0.6-0.9-0.8-1.4c0-0.1-0.3-0.2-0.4-0.3 c-1.5,0-3,0-4.5,0C546.6,137.9,546.5,139,546,139.9z M553.8,159.1c-2.8,0-5.7,0-8.5,0c-0.5,0-0.8-0.2-0.7-0.7 c0.1-0.6-0.2-1.3,0.6-1.6c0.1,0,0.1-0.3,0.1-0.5c0.1-0.6-0.2-1.4,0.7-1.8c0,0,0.1-0.1,0.1-0.2c0.3-1.2,0.5-2.4,0.8-3.5 c0.3-1.1,0.4-2.2,0.9-3.1c0.4-0.7,0.4-1.5,0.7-2.2c0.3-0.7,0.7-1.2,0.7-2c0,0,0.5-0.1,0.6-0.1c0.3,0.5,0.8,1.1,0.8,1.7 c0.2,1.6,0.8,3.1,1.3,4.6c0.1,0.3,0.1,0.7,0.2,1c0.1,0.4,0.4,0.7,0.5,1.1c0.1,0.5,0.2,1,0.3,1.5c0.1,0.6,0.2,1,0.5,1.6 c0.6,1.3,0.7,2.7,1.1,4.1C554.1,159,553.9,159.1,553.8,159.1z M623.9,156c0,4.6,0,9.3,0,13.9c0,1.2,0.6,1.8,1.8,1.8 c5.5,0,11,0,16.5,0c1.2,0,1.7-0.5,1.7-1.7c0-0.5,0-1,0-1.5c0-1.1-0.1-1.3-1.3-1.3c-3.9,0-7.8,0-11.7,0c-1.2,0-1.8-0.5-1.8-1.8 c0-7.9,0-15.9,0-23.8c0-1.4,0-2.7,0-4.1c0-0.7-0.2-0.9-0.9-0.9c-1,0-2,0-3,0c-1.1,0-1.2,0.1-1.2,1.2c0,5.3,0,10.6,0,15.9 C623.9,154.6,623.9,155.3,623.9,156z M305.3,167.2c-4.1,0-8.3,0-12.4,0c-1.2,0-1.4-0.2-1.4-1.4c0-9.2,0-18.4,0-27.7 c0-0.2,0-0.4,0-0.6c0.1-0.6-0.2-0.9-0.9-0.9c-0.8,0-1.6,0-2.4,0c-1.4,0-1.4,0-1.4,1.4c0,10.7,0,21.4,0,32.1c0,0.3,0,0.6,0,0.9 c0,0.5,0.3,0.7,0.8,0.7c5.8,0,11.6,0,17.5,0c0.4,0,0.8,0,1.2-0.1c0-1.4,0-2.8,0-4.3C305.9,167.3,305.6,167.2,305.3,167.2z"></path> <path d="M0,163.6V0h29.2v24.4h23.7V0H81v24.4h23.7V0h29.2v163.5l-66.7,21.9L0,163.6z M67.1,197L0,175.1v21L67.1,218l66.7-21.9v-21 L67.1,197z"></path> </svg> 