<?xml version="1.0" encoding="utf-8"?>
<!-- Generator: Adobe Illustrator 24.0.1, SVG Export Plug-In . SVG Version: 6.00 Build 0)  -->
<svg version="1.1" id="Layer_1" xmlns="http://www.w3.org/2000/svg" xmlns:xlink="http://www.w3.org/1999/xlink" x="0px" y="0px"
	 viewBox="0 0 841.9 226.8" style="enable-background:new 0 0 841.9 226.8;" xml:space="preserve">
<style type="text/css">
	.st0{fill:#FFFFFF;}
</style>
<path class="st0" d="M744.4,147.1c0-2,0.4-3.9,1.1-5.6s1.8-3.3,3.1-4.6c1.3-1.3,2.8-2.3,4.6-3.1s3.6-1.1,5.6-1.1s3.9,0.4,5.6,1.1
	c1.8,0.8,3.3,1.8,4.6,3.1c1.3,1.3,2.3,2.8,3.1,4.6s1.1,3.6,1.1,5.6c0,2-0.4,3.9-1.1,5.6s-1.8,3.3-3.1,4.6c-1.3,1.3-2.8,2.3-4.6,3.1
	s-3.6,1.1-5.6,1.1c-2,0-3.9-0.4-5.6-1.1s-3.3-1.8-4.6-3.1c-1.3-1.3-2.3-2.8-3.1-4.6C744.8,151,744.4,149.1,744.4,147.1z
	 M770.4,147.1c0-1.6-0.3-3.1-0.9-4.6c-0.6-1.4-1.4-2.7-2.5-3.7c-1-1.1-2.3-1.9-3.7-2.5s-2.9-0.9-4.5-0.9c-1.6,0-3.1,0.3-4.5,0.9
	c-1.4,0.6-2.6,1.5-3.7,2.5c-1,1.1-1.9,2.3-2.5,3.7c-0.6,1.4-0.9,3-0.9,4.6s0.3,3.1,0.9,4.6c0.6,1.4,1.4,2.7,2.5,3.8
	c1,1.1,2.3,1.9,3.7,2.5s2.9,0.9,4.5,0.9c1.6,0,3.1-0.3,4.5-0.9s2.6-1.5,3.7-2.5c1-1.1,1.9-2.3,2.5-3.8
	C770.1,150.2,770.4,148.7,770.4,147.1z M753.7,154.4v-14.7h5.6c3.4,0,5,1.4,5,4.1c0,0.7-0.1,1.3-0.3,1.8c-0.2,0.5-0.5,0.9-0.8,1.2
	c-0.3,0.3-0.8,0.6-1.2,0.8c-0.5,0.2-0.9,0.3-1.5,0.4l4.2,6.4H762l-4.2-6.4H756v6.4L753.7,154.4L753.7,154.4z M756,141.8v4.1h2.6
	c1.1,0,2-0.2,2.6-0.5c0.6-0.3,0.8-0.9,0.8-1.7c0-0.7-0.2-1.2-0.8-1.5s-1.1-0.5-1.9-0.5L756,141.8L756,141.8z M120.7,61.8H70.6V62
	v19.8v60.1v20h20h12.2h17.8l0,0c27.6,0,50.1-22.4,50.1-50.1C170.7,84.2,148.3,61.8,120.7,61.8z M120.7,141.9h-30V81.8h30
	c16.6,0,30,13.5,30,30S137.2,141.9,120.7,141.9z M341.2,108.9c3.3-4.8,5.2-10.5,5.2-16.7c0-16.6-13.9-30.1-30.9-30.1h-64.8v39.9
	v20.3v39.9l70.9,0c17,0,30.9-13.5,30.9-30.1C352.6,122.6,348.1,114.4,341.2,108.9z M271.6,82.4h43.9c5.5,0,10,4.6,10,10.4
	s-4.5,10.4-10,10.4h-43.9L271.6,82.4L271.6,82.4z M321.7,141.8h-50.1v-20.4h43.9h6.1c5.5,0,10,4.6,10,10.2
	C331.7,137.2,327.2,141.8,321.7,141.8z M432.4,62v100.1H532v-6.9h-92.7V62H432.4z M711.4,67.1l-4.6-4.6l-44.9,44.9L616.4,62
	l-4.6,4.6l45.5,45.4l-45.5,45.4l4.6,4.6l45.5-45.4l44.9,44.9l4.6-4.6l-44.9-44.9L711.4,67.1z"/>
</svg>
