<?xml version="1.0" encoding="UTF-8"?> <!-- Generator: Adobe Illustrator 24.0.1, SVG Export Plug-In . SVG Version: 6.00 Build 0) --> <svg xmlns="http://www.w3.org/2000/svg" xmlns:xlink="http://www.w3.org/1999/xlink" id="Layer_1" x="0px" y="0px" viewBox="0 0 248.6 124.2" style="enable-background:new 0 0 248.6 124.2;" xml:space="preserve"> <path d="M109.8,124.2c-1.4-0.1-2.7-0.3-4.1-0.4c-16.8-1.2-33.3-4.2-49.3-9.4c-11.6-3.8-22.6-8.6-32.7-15.6 c-7.4-5.1-14-11.1-18.7-18.9c-4-6.7-5.8-13.9-4.8-21.7c0.9-7,3.9-13,8.1-18.5c5.9-7.6,13.4-13.3,21.7-18.1 c10.8-6.3,22.5-10.7,34.5-14c10.4-2.9,21-4.8,31.8-6.1c12.8-1.5,25.7-2,38.6-1.4c11.3,0.5,22.5,1.7,33.6,3.8 c12.2,2.3,24,5.6,35.5,10.4c10.7,4.5,20.8,10.1,29.4,18c5.5,5,10.1,10.6,12.8,17.6c4,10.3,2.9,20.2-2.6,29.7 c-3.8,6.5-9,11.7-14.9,16.2c-9.1,7.1-19.4,12.1-30.2,16.2c-10,3.8-20.3,6.5-30.8,8.4c-9.2,1.7-18.5,2.9-27.8,3.4 c-0.4,0-0.7,0.1-1.1,0.2C129.2,124.2,119.5,124.2,109.8,124.2z M122.9,7.7c-9.6-0.1-20.4,0.7-31.2,2.4c-10.4,1.6-20.6,4-30.5,7.5 c-9.9,3.5-19.4,7.9-27.9,14.2c-5.7,4.2-10.8,9-14.4,15.2c-5.8,9.9-5.9,19.9-0.4,29.9c3.2,5.7,7.7,10.2,12.7,14.3 c7.8,6.2,16.6,10.6,25.8,14.2c10.3,4,21.1,6.7,32,8.6c7.9,1.3,15.9,2.4,23.9,2.6c8.5,0.2,17.1,0.3,25.6-0.2 c7.4-0.4,14.8-1.4,22.1-2.5c7.9-1.2,15.7-3.2,23.4-5.7c10.5-3.4,20.6-7.8,29.8-14.2c6.5-4.5,12.2-9.8,16.2-16.7 c3.5-6,4.9-12.4,3.9-19.3c-0.8-5.4-3.2-10.1-6.4-14.4c-5.1-6.8-11.6-11.9-18.8-16.2c-11.1-6.5-23-10.9-35.4-13.9 C157.2,9.4,140.8,7.7,122.9,7.7z M45.3,34.3c2,0.1,2.1,0.2,2.1,2.2c0,14.4,0.1,28.8,0.1,43.3c0,4,0,8,0.1,12c0,1.9,0.2,2,2,2 c4.4,0,8.8,0,13.2,0c1.5,0,1.7-0.3,1.7-1.8c0-7.5,0-15,0.1-22.5c0-0.4,0-0.8,0.1-1.1c0.2-0.7,0.8-0.9,1.3-0.4 c0.2,0.2,0.3,0.4,0.5,0.7c5.6,7.8,11.2,15.6,16.8,23.4c0.9,1.2,1.9,1.8,3.4,1.8c5.4,0,10.8,0,16.2,0c1.1,0,1.5-0.8,1-1.7 c-0.3-0.6-0.7-1.2-1.1-1.7C96,81,89.5,71.8,83,62.5c-1.9-2.7-1.9-2,0-4.8c5.6-8.3,11.2-16.6,16.8-25c0.3-0.4,0.4-1.1,0.2-1.5 c-0.2-0.4-0.9-0.7-1.3-0.7c-4.6,0-9.3,0.1-13.9,0c-2.4-0.1-3.9,0.7-5.3,2.7c-4.2,6.2-8.6,12.2-12.9,18.2c-0.4,0.6-0.8,1.5-1.6,1.1 c-0.4-0.2-0.5-1.2-0.5-1.8c-0.1-6.1-0.1-12.3-0.1-18.4c0-1.6-0.2-1.8-1.8-1.8c-5.9,0-11.8,0-17.7,0c-0.3,0-0.6,0-0.9,0.1 c0,1,0,2,0,2.9c0,0.2,0,0.3,0.1,0.6C44.4,34.2,44.9,34.2,45.3,34.3z M161.2,34.2c2.9,0.4,2.9,0.4,2,3.2c-3.3,9.9-6.6,19.7-9.9,29.6 c-2.8,8.3-5.5,16.6-8.2,24.9c-0.5,1.4-0.1,1.8,1.4,1.8c4,0,8.1,0.1,12.1,0c3.1,0,3.1,0.7,4.4-3.2c3.9-12.1,7.7-24.2,11.6-36.3 c0.1-0.4,0.3-0.8,0.4-1.2c0.1-0.2,0.4-0.5,0.5-0.4c0.2,0,0.5,0.3,0.6,0.5c0.2,0.3,0.3,0.6,0.4,1c1.2,3.6,2.4,7.3,3.5,10.9 c2.9,9,5.8,18,8.7,26.9c0.5,1.6,0.8,1.9,2.5,1.9c4.5,0,9,0,13.5,0c1.5,0,1.8-0.5,1.4-1.9c-1.2-3.6-2.3-7.2-3.5-10.8 c-5.5-16.3-10.9-32.5-16.4-48.8c-0.5-1.6-0.6-1.6-2.2-1.6c-7.5,0-14.9-0.1-22.4-0.1c-0.3,0-0.6,0-0.9,0.1c0,1.2,0,2.3,0,3.5 C160.9,34.2,161,34.2,161.2,34.2z M113.1,34.3c2.3,0,2.4,0.1,2.4,2.4c0,18.4,0.1,36.8,0.1,55.3c0,1.7,0.1,1.8,1.8,1.8 c4.6,0,9.3,0,13.9,0c1.5,0,1.7-0.3,1.7-1.8c0-19.9,0-39.7,0-59.6c0-1.5-0.3-1.8-1.8-1.8c-6,0-11.9,0-17.9,0c-0.4,0-0.7,0-1.1,0.1 c0,1.3,0,2.4,0,3.6C112.6,34.3,112.8,34.3,113.1,34.3z"></path> </svg> 