<?xml version="1.0" encoding="utf-8"?><svg xmlns="http://www.w3.org/2000/svg" width="35.709" height="14.278" viewBox="0 0 35.709 14.278"><g transform="translate(0)"><path d="M26.441,5.031A5.857,5.857,0,0,1,26.6,6.859c0,.8-.006,1.6,0,2.4.007.626.033,1.251.05,1.875,0,.049,0,.1,0,.16-.06,0-.112.007-.164.007H25.2c-.2,0-.2,0-.212-.209-.011-.258-.019-.516-.03-.775,0-.038-.007-.075.018-.071-.155.129-.31.258-.464.389a3.964,3.964,0,0,1-1.944.877,5.593,5.593,0,0,1-2.435-.069,3,3,0,0,1-1.279-.672,2.277,2.277,0,0,1-.752-1.615C18.1,9.036,18.1,8.917,18.1,8.8c0,0-.006-.006-.019-.018-.021.053-.041.1-.06.149a3.835,3.835,0,0,1-3.2,2.6,4.746,4.746,0,0,1-3-.45,3.1,3.1,0,0,1-.962-.763c-.018-.021-.04-.038-.075-.071-.015.257-.03.492-.042.728,0,.03,0,.06,0,.089-.018.24-.018.24-.259.24-.452,0-.9,0-1.356,0-.137,0-.175-.039-.172-.177.016-1.037.022-2.075.038-3.112,0-.141-.036-.186-.182-.186q-3.4.007-6.792,0c-.143,0-.173.044-.161.179a2.518,2.518,0,0,0,2.354,2.368,3.283,3.283,0,0,0,1.522-.184A2.027,2.027,0,0,0,6.881,9.133c.019-.041.072-.092.11-.093.59-.006,1.18,0,1.8,0-.021.1-.033.177-.056.254a2.944,2.944,0,0,1-1.787,1.891,5.106,5.106,0,0,1-1.768.377,7.415,7.415,0,0,1-2.52-.252A3.5,3.5,0,0,1,.048,8.2,6.085,6.085,0,0,1,.18,5.928,3.38,3.38,0,0,1,2.421,3.473,6.14,6.14,0,0,1,6.5,3.413,3.485,3.485,0,0,1,8.93,6.295a1.358,1.358,0,0,0,.055.234V.209C8.985,0,8.985,0,9.2,0h1.4c.2,0,.2,0,.2.194V4.42c.025,0,.038,0,.042,0a3.413,3.413,0,0,1,2.13-1.174,4.958,4.958,0,0,1,2.937.264,3.805,3.805,0,0,1,2.276,2.9,4.98,4.98,0,0,1,.089.842c.009.281-.02.564-.032.843,0,0,.01,0,.013-.005a2.554,2.554,0,0,1,1.681-1.362,8.166,8.166,0,0,1,2.541-.337h2.13c.2,0,.192,0,.2-.2a1.591,1.591,0,0,0-.518-1.353,2.306,2.306,0,0,0-1.224-.5,3.311,3.311,0,0,0-1.4.087,1.463,1.463,0,0,0-1.1,1.011.137.137,0,0,1-.1.08c-.585,0-1.17,0-1.782,0,.014-.105.018-.2.039-.286a2.365,2.365,0,0,1,1.436-1.639,5.542,5.542,0,0,1,2.185-.453,6.621,6.621,0,0,1,2.223.237,2.894,2.894,0,0,1,1.425.9.064.064,0,0,0,.062.019l-.444-.844c.073,0,.125-.009.176-.009.586,0,1.172,0,1.758,0a.237.237,0,0,1,.248.154q1.43,2.88,2.87,5.755c.028.055.06.11.1.193.043-.08.071-.129.1-.181Q32.288,6.5,33.712,3.632a.283.283,0,0,1,.3-.192c.5.012,1,0,1.5,0h.191c-.028.066-.046.114-.069.159q-2.686,5.273-5.376,10.543c-.03.055-.1.125-.153.125-.626.009-1.251.005-1.9.005.028-.062.046-.109.07-.154q.715-1.357,1.433-2.713a.229.229,0,0,0,.009-.247Q28.1,8.142,26.495,5.119C26.478,5.089,26.459,5.061,26.441,5.031ZM10.8,7.35l-.04.008a9.083,9.083,0,0,0,.2,1.061A2.553,2.553,0,0,0,13,10.309a2.662,2.662,0,0,0,2.735-.947A3.166,3.166,0,0,0,16.382,7a2.708,2.708,0,0,0-2.617-2.627,2.628,2.628,0,0,0-2.619,1.455A3.347,3.347,0,0,0,10.8,7.35ZM24.8,7.9c0-.074,0-.149,0-.223.007-.11-.039-.147-.149-.146a25.585,25.585,0,0,0-2.855.1,3.616,3.616,0,0,0-1.175.306,1.116,1.116,0,0,0-.633,1.309,1.38,1.38,0,0,0,1.059,1.074,3.612,3.612,0,0,0,1.579.06A2.384,2.384,0,0,0,24.8,7.9ZM1.894,6.616H7.082c0-.06,0-.107,0-.155A2.118,2.118,0,0,0,5.8,4.573a2.921,2.921,0,0,0-1.512-.238,2.775,2.775,0,0,0-1.741.75,2.052,2.052,0,0,0-.651,1.532Z" transform="translate(0.001)"/></g></svg>
