<?xml version="1.0" encoding="UTF-8"?> <!-- Generator: Adobe Illustrator 24.0.1, SVG Export Plug-In . SVG Version: 6.00 Build 0) --> <svg xmlns="http://www.w3.org/2000/svg" xmlns:xlink="http://www.w3.org/1999/xlink" id="Layer_1" x="0px" y="0px" viewBox="0 0 272 57.3" style="enable-background:new 0 0 272 57.3;" xml:space="preserve"> <g> <path d="M272,30.5c-0.2,1.5-0.4,2.9-0.7,4.4c-1.1,5-3.4,9.4-6.9,13.2c-0.1,0.2-0.3,0.3-0.5,0.5c2.4,2.8,4.7,5.6,7.3,8.7 c-0.7,0-1.2,0-1.7,0c-1.8,0-3.7,0-5.5,0c-0.4,0-0.9-0.2-1.2-0.5c-4.8-5.7-9.5-11.3-14.3-17c-0.1-0.1-0.1-0.2-0.3-0.5 c0.9,0,1.7,0,2.5,0c1.3,0,2.6,0.1,3.9,0c1.1-0.1,1.8,0.4,2.5,1.2c0.9,1.2,1.9,2.3,2.9,3.5c3.1-3.4,5-7.3,5.7-11.8 c1-6.8-0.8-12.9-5.3-18.2c-7.8-9.1-21.9-10.5-31.1-2.8c-7.5,6.2-10.2,14.2-7.7,23.5c2.6,9.4,9.1,14.8,18.7,16.5 c2.9,0.5,5.7,0.2,8.5-0.5c0.6-0.2,1,0,1.4,0.4c1.2,1.4,2.4,2.8,3.8,4.5c-2.2,0.5-4.2,1.2-6.2,1.5c-9.3,1.3-17.5-1.1-24.3-7.7 c-6.6-6.4-9.6-14.3-8.7-23.4c1.3-13.2,11-23.4,24.1-25.5c15-2.5,29.8,7.8,32.6,22.8c0.2,1.2,0.4,2.5,0.6,3.7 C272,28.1,272,29.3,272,30.5z"></path> <path d="M39.2,55.3C28.3,59.8,12.9,57.1,4.5,44c-7.8-12.2-5.1-28.4,6.4-37.7c11.2-9,27.7-8.2,38,1.9c10.6,10.3,12.1,28.2,0.6,40.4 c2.3,2.8,4.7,5.6,7.2,8.6c-0.4,0.1-0.7,0.1-0.9,0.1c-2.1,0-4.1,0-6.2,0c-0.4,0-0.9-0.2-1.2-0.5c-4.9-5.7-9.7-11.5-14.5-17.3 c0,0,0-0.1-0.1-0.3c2.5,0,5,0,7.5,0c0.3,0,0.6,0.4,0.9,0.7c1.1,1.3,2.1,2.5,3.3,4c0.8-1,1.5-1.9,2.2-2.9c9-13.7,0.8-32.1-15.4-34.6 c-14.3-2.3-27.1,9.4-26,23.9C7,41.4,15.7,50.2,26.9,51.2c2.5,0.2,4.9,0,7.3-0.6c0.7-0.2,1.1-0.1,1.6,0.5 C36.8,52.5,38,53.8,39.2,55.3z"></path> <path d="M81.6,20.4c0,12.2,0,24.5,0,36.8c-2,0-4,0-6,0c0-16,0-32,0-48.1c1.5,0,3.1,0,4.6,0c0.3,0,0.6,0.4,0.8,0.6 c5.3,6.3,10.6,12.6,15.8,18.9c4.8,5.8,9.7,11.5,14.5,17.3c0.1,0.1,0.2,0.1,0.4,0.3c0-12.4,0-24.7,0-37.1c2.1,0,4.1,0,6.1,0 c0,16,0,32,0,48.1c-1.6,0-3.1,0-4.6,0c-0.3,0-0.7-0.4-0.9-0.6c-6.2-7.4-12.5-14.9-18.7-22.3c-3.8-4.5-7.5-9-11.3-13.4 c-0.2-0.2-0.2-0.4-0.4-0.6C81.9,20.3,81.7,20.4,81.6,20.4z"></path> <path d="M154.1,51.3c0,2,0,3.9,0,5.9c-10,0-20.1,0-30.1,0c0-16,0-32,0-48.1c10,0,20,0,30.1,0c0,2,0,3.9,0,6c-8,0-16,0-24,0 c0,4.1,0,8,0,12c5,0,10,0,15,0c0,2.1,0,4,0,6c-5,0-9.9,0-15,0c0,0.4-0.1,0.8-0.1,1.1c0,5.3,0,10.6,0,15.8c0,1,0.3,1.2,1.2,1.2 c7.2,0,14.3,0,21.5,0C153.1,51.3,153.5,51.3,154.1,51.3z"></path> <path d="M175.2,15.2c-5.1,0-10.1,0-15.1,0c0-2,0-4,0-6c12,0,24,0,36.1,0c0,2,0,4,0,6c-5,0-9.9,0-15,0c0,14.1,0,28,0,42 c-2.1,0-4,0-6.1,0C175.2,43.2,175.2,29.3,175.2,15.2z"></path> <path d="M69.4,57.2c-2,0-3.9,0-5.9,0c0-16,0-32,0-48.1c1.9,0,3.9,0,5.9,0C69.4,25.1,69.4,41.1,69.4,57.2z"></path> <path d="M202.5,9.1c2,0,3.9,0,5.9,0c0,16,0,32,0,48.1c-2,0-3.9,0-5.9,0C202.5,41.2,202.5,25.2,202.5,9.1z"></path> </g> </svg> 