<?xml version="1.0" encoding="utf-8"?><svg xmlns="http://www.w3.org/2000/svg" viewBox="0 0 79.85 16.67"><title>talktalk_1</title><g id="Layer_2" data-name="Layer 2"><g id="Layer_1-2" data-name="Layer 1"><path d="M60.05,16.67a2.32,2.32,0,0,1-1.36-1.06.53.53,0,0,0-.75-.21,4.64,4.64,0,0,0-.42.25,6.59,6.59,0,0,1-3,1,5,5,0,0,1-1.73-.1A3.16,3.16,0,0,1,50.38,14a3.69,3.69,0,0,1,.13-2.32,3.13,3.13,0,0,1,1.63-1.63,8,8,0,0,1,2.28-.67c.91-.15,1.81-.26,2.72-.39L57.51,9a.47.47,0,0,0,.42-.47,4.1,4.1,0,0,0,0-.86,1.21,1.21,0,0,0-1-1,3.87,3.87,0,0,0-2.4.17,2.84,2.84,0,0,0-.86.6,5,5,0,0,1-.55.48,1.55,1.55,0,0,1-2.14-.47,1,1,0,0,1,0-1A3,3,0,0,1,52,5.33a6,6,0,0,1,2.6-1,9.66,9.66,0,0,1,3.71.13,3.25,3.25,0,0,1,2.64,3c.06.7.08,1.4.08,2.09,0,1,0,2.07,0,3.1a3,3,0,0,0,.41,1.49,3.37,3.37,0,0,1,.32.85,1.25,1.25,0,0,1-.52,1.34,2.31,2.31,0,0,1-.88.38ZM57.91,12.1V12c0-.46-.2-.68-.66-.68s-1.1.06-1.65.12a3.25,3.25,0,0,0-1.25.35,1.26,1.26,0,0,0-.25,2,1.49,1.49,0,0,0,1,.26,4.94,4.94,0,0,0,1.78-.47A1.56,1.56,0,0,0,57.91,12.1Z"/><path d="M20.92,16.67c-.13-.05-.27-.09-.4-.15a1.88,1.88,0,0,1-.74-.66l-.24-.3a.53.53,0,0,0-.67-.18,3.36,3.36,0,0,0-.49.27,6.63,6.63,0,0,1-3,1,5.16,5.16,0,0,1-1.71-.09,3.15,3.15,0,0,1-2.45-2.61,3.78,3.78,0,0,1,0-1.86,3.14,3.14,0,0,1,1.73-2,7.79,7.79,0,0,1,2.27-.66C16.2,9.27,17.11,9.16,18,9L18.33,9c.34-.08.43-.17.47-.51a2.83,2.83,0,0,0,0-.65,1.22,1.22,0,0,0-.93-1.1A3.62,3.62,0,0,0,15,7a4.22,4.22,0,0,0-.75.65,1.56,1.56,0,0,1-1.21.49,1.48,1.48,0,0,1-1.24-.73,1,1,0,0,1,0-1,2.52,2.52,0,0,1,.65-.8A5.75,5.75,0,0,1,15.17,4.4a10,10,0,0,1,3.49,0,4.43,4.43,0,0,1,1.5.46,3.14,3.14,0,0,1,1.68,2.6c.06.65.07,1.3.08,1.95,0,1.07,0,2.14,0,3.21a2.84,2.84,0,0,0,.42,1.51,2.34,2.34,0,0,1,.34.91A1.3,1.3,0,0,1,22,16.37a5.31,5.31,0,0,1-.73.3ZM18.78,12.1V12c0-.47-.2-.68-.67-.69a9.45,9.45,0,0,0-1.41.09,7.21,7.21,0,0,0-1.3.3,1.11,1.11,0,0,0-.83,1.23A1.07,1.07,0,0,0,15.35,14a2.44,2.44,0,0,0,.71.06,4.53,4.53,0,0,0,1.66-.43A1.61,1.61,0,0,0,18.78,12.1Z"/><path d="M0,1.4l0-.06a1.16,1.16,0,0,1,.9-1A3.26,3.26,0,0,1,1.76.26Q7,.25,12.19.26a3.25,3.25,0,0,1,.69.08,1.31,1.31,0,0,1,1,1.8A1.24,1.24,0,0,1,12.65,3c-.54,0-1.08,0-1.63,0a2.29,2.29,0,0,0-1.51.59A2.29,2.29,0,0,0,8.89,5a9,9,0,0,0-.13,1.27c-.07,2.75-.11,5.51-.18,8.27a4,4,0,0,1-.15,1,1.45,1.45,0,0,1-1.66,1.08,1.37,1.37,0,0,1-1.24-1,3.4,3.4,0,0,1-.16-.89c-.08-2.93-.15-5.87-.23-8.8A6.83,6.83,0,0,0,5,4.76,2,2,0,0,0,3.16,3.1C2.62,3,2.06,3.06,1.51,3A1.94,1.94,0,0,1,1,3,1.21,1.21,0,0,1,0,2s0-.08,0-.12Z"/><path d="M30,8.37V1.8a2.35,2.35,0,0,1,.23-1A1.28,1.28,0,0,1,31.43,0,2.32,2.32,0,0,1,32,.05a1.29,1.29,0,0,1,1,1.18,4.87,4.87,0,0,1,.06.76c0,1.5,0,3,0,4.49a1.35,1.35,0,0,0,0,.35.92.92,0,0,0,1.19.7,1.52,1.52,0,0,0,.77-.43l2.19-2.21a1.49,1.49,0,0,1,1.32-.46,1.25,1.25,0,0,1,.92,1.82,2.88,2.88,0,0,1-.4.52C38.57,7.37,38,8,37.48,8.56a1.47,1.47,0,0,0-.4,1.2,1.67,1.67,0,0,0,.33.7l3,4a1.38,1.38,0,0,1-.9,2.15,2.83,2.83,0,0,1-.65,0,1.09,1.09,0,0,1-.77-.5L36,13.3c-.25-.32-.52-.63-.79-.94a1.54,1.54,0,0,0-.71-.46.88.88,0,0,0-1.1.49,3,3,0,0,0-.22,1.11c0,.55,0,1.1-.07,1.65a1.53,1.53,0,0,1-1.51,1.48,1.37,1.37,0,0,1-1.49-1.28,4.49,4.49,0,0,1,0-.64V8.37Z"/><path d="M69.23,8.36V2A3.09,3.09,0,0,1,69.38,1,1.33,1.33,0,0,1,70.72,0a2.29,2.29,0,0,1,.52.05,1.29,1.29,0,0,1,1,1.16,3.94,3.94,0,0,1,.07.77V6.47a1.94,1.94,0,0,0,0,.34.91.91,0,0,0,1.18.72,1.5,1.5,0,0,0,.78-.42c.74-.76,1.48-1.5,2.23-2.25a1.45,1.45,0,0,1,1.67-.31,1.22,1.22,0,0,1,.47,1.83c-.31.41-.68.78-1,1.16s-.61.64-.9,1a1.51,1.51,0,0,0-.43,1.18,1.52,1.52,0,0,0,.31.71l3,4a1.38,1.38,0,0,1-.92,2.16,2.15,2.15,0,0,1-.76,0,1,1,0,0,1-.51-.32c-.67-.85-1.3-1.72-2-2.58-.37-.47-.75-.93-1.15-1.37a1.23,1.23,0,0,0-1.13-.42.8.8,0,0,0-.54.37,2.59,2.59,0,0,0-.32,1.33c0,.55,0,1.09-.06,1.63a1.47,1.47,0,0,1-1,1.33,1.43,1.43,0,0,1-2-1.13,5.49,5.49,0,0,1,0-.7Z"/><path d="M46.09.26c1.72,0,3.44,0,5.16,0a3.35,3.35,0,0,1,.89.12A1.24,1.24,0,0,1,53,1.77,1.24,1.24,0,0,1,51.89,3c-.45,0-.9,0-1.34,0a3.86,3.86,0,0,0-1.26.2,1.85,1.85,0,0,0-1.12,1.12,5.17,5.17,0,0,0-.31,1.87c-.06,2.23-.09,4.47-.14,6.7,0,.71,0,1.42-.07,2.12a1.6,1.6,0,0,1-.85,1.43,1.52,1.52,0,0,1-2.12-.72,3.08,3.08,0,0,1-.21-1c-.07-2.62-.12-5.23-.18-7.85a9.31,9.31,0,0,0-.18-2.11,2,2,0,0,0-1-1.47A2.86,2.86,0,0,0,41.93,3c-.47,0-.93,0-1.39,0a1.4,1.4,0,0,1-1.11-.43A1.36,1.36,0,0,1,40.07.37a3.07,3.07,0,0,1,.86-.11C42.65.25,44.37.26,46.09.26Z"/><path d="M63.62,8.3V1.74a2,2,0,0,1,.22-1A1.45,1.45,0,0,1,65.5,0a1.48,1.48,0,0,1,1.19,1.43c0,.21,0,.41,0,.62V13.37c0,.64,0,1.29-.09,1.94a1.27,1.27,0,0,1-.85,1.2,1.55,1.55,0,0,1-1.6-.21A1.63,1.63,0,0,1,63.63,15c0-.38,0-.76,0-1.15Z"/><path d="M27.53,8.26c0,1.84,0,3.67,0,5.5a15.22,15.22,0,0,1-.13,1.78,1.32,1.32,0,0,1-1.54,1.08,1.47,1.47,0,0,1-1.36-1.49c0-.29,0-.59,0-.89V1.72A1.79,1.79,0,0,1,24.9.45a1.25,1.25,0,0,1,.66-.39A1.47,1.47,0,0,1,27.5,1.37a5.68,5.68,0,0,1,0,.59c0,2.1,0,4.2,0,6.3Z"/></g></g></svg>
