<?xml version="1.0" encoding="utf-8"?><svg xmlns="http://www.w3.org/2000/svg" width="37.745" height="9.308" viewBox="0 0 37.745 9.308"><path d="M4.975,0c.238.041.48.068.715.125A6.783,6.783,0,0,1,6.508.39,4.342,4.342,0,0,0,5.236.564,4.138,4.138,0,0,0,2.2,3.511,2.885,2.885,0,0,0,2.971,6.55a2.389,2.389,0,0,0,2.536.571A2.36,2.36,0,0,0,7.166,5.172,2.262,2.262,0,0,0,5.56,2.5c-.056-.02-.112-.039-.169-.057-.262-.081-.262-.081-.237-.36a1.927,1.927,0,0,1,1.4-1.6.3.3,0,0,1,.194.027A4.516,4.516,0,0,1,9.261,4.084,4.643,4.643,0,0,1,.089,5.516c-.033-.18-.06-.36-.089-.54V4.35c.013-.088.027-.175.038-.262A4.644,4.644,0,0,1,3.664.115C3.89.064,4.121.038,4.35,0Z"/><path d="M615.315,63.66v4.675h-.783c-.014-.073-.028-.145-.043-.22-.017,0-.036,0-.044.01a1.22,1.22,0,0,1-1.784-.222,2.159,2.159,0,0,1-.036-2.418,1.5,1.5,0,0,1,1.6-.574c.071.013.142.03.234.05v-1.3Zm-.857,2.89c0-.248,0-.5,0-.743,0-.045-.03-.116-.063-.129a.855.855,0,0,0-1.1.293,1.318,1.318,0,0,0,.016,1.386.669.669,0,0,0,1.05.137.348.348,0,0,0,.1-.219c.012-.241,0-.484,0-.727Z" transform="translate(-594.032 -61.763)"/><path d="M1166.715,106.064h-2.177a.73.73,0,0,0,.658.8,1.608,1.608,0,0,0,1.156-.272c.071.214.144.419.2.628a.142.142,0,0,1-.072.117,3.972,3.972,0,0,1-.775.243,2.76,2.76,0,0,1-.87-.024,1.36,1.36,0,0,1-1.048-.921,2.112,2.112,0,0,1,.113-1.813,1.522,1.522,0,0,1,2.375-.328,1.861,1.861,0,0,1,.434,1.192C1166.723,105.805,1166.715,105.924,1166.715,106.064Zm-2.161-.632h1.271a.63.63,0,0,0-.6-.673A.677.677,0,0,0,1164.554,105.432Z" transform="translate(-1128.974 -100.963)"/><path d="M1045.545,107.787h-.855v-3.37h.775l.051.247.129-.082a1.549,1.549,0,0,1,1.152-.23,1.077,1.077,0,0,1,.875.983,2.776,2.776,0,0,1,.033.4c0,.68,0,1.359,0,2.049h-.86v-.149c0-.581,0-1.162,0-1.742a1.706,1.706,0,0,0-.033-.34.6.6,0,0,0-.9-.432,3.047,3.047,0,0,0-.26.172.233.233,0,0,0-.107.227c0,.695,0,1.389,0,2.085Z" transform="translate(-1013.567 -101.215)"/><path d="M489.982,107.761a1.612,1.612,0,0,1-1.668-1.467,2.124,2.124,0,0,1,.14-1.122,1.53,1.53,0,0,1,1.549-.959,1.549,1.549,0,0,1,1.433,1.129,2.042,2.042,0,0,1-.094,1.509A1.459,1.459,0,0,1,489.982,107.761Zm.706-1.934a2.893,2.893,0,0,0-.133-.464.7.7,0,0,0-1.277-.015,1.407,1.407,0,0,0,.018,1.289.687.687,0,0,0,1.221.027,1.543,1.543,0,0,0,.17-.838Z" transform="translate(-473.746 -101.106)"/><path d="M918.391,107.856a1.571,1.571,0,0,1-1.579-1.362,2.022,2.022,0,0,1,.19-1.373,1.483,1.483,0,0,1,1.4-.812,1.46,1.46,0,0,1,1.378.828,1.976,1.976,0,0,1-.025,1.926A1.459,1.459,0,0,1,918.391,107.856Zm.808-1.8a4.186,4.186,0,0,0-.179-.62.649.649,0,0,0-.638-.4.662.662,0,0,0-.626.4,1.429,1.429,0,0,0,.011,1.289.649.649,0,0,0,.607.383.675.675,0,0,0,.623-.357A1.755,1.755,0,0,0,919.2,106.057Z" transform="translate(-889.458 -101.201)"/><path d="M735.482,107.8h-.762l-.048-.22a.84.84,0,0,0-.082.049,1.24,1.24,0,0,1-1.344.107,1.029,1.029,0,0,1-.042-1.781,2.577,2.577,0,0,1,1.122-.313l.29-.03a.448.448,0,0,0-.447-.572,1.38,1.38,0,0,0-.927.3c-.047-.1-.094-.192-.14-.289s-.092-.2-.143-.3a2.072,2.072,0,0,1,1.45-.4,1.1,1.1,0,0,1,1.082,1.2c.011.716,0,1.43,0,2.145A1.061,1.061,0,0,1,735.482,107.8Zm-.846-1.614c-.291.063-.555.1-.807.18a.439.439,0,0,0-.274.464.378.378,0,0,0,.355.325.85.85,0,0,0,.677-.2.131.131,0,0,0,.049-.085C734.638,106.658,734.636,106.446,734.636,106.183Z" transform="translate(-710.881 -101.228)"/><path d="M844.608,61.206c-.7-.192-.989-.018-.906.546h.715c0,.217,0,.423-.005.629,0,.025-.067.065-.1.066-.149.008-.3,0-.447,0-.053,0-.107.005-.174.009v2.678h-.854V62.456h-.444v-.694h.439c0-.1,0-.185,0-.272a1.04,1.04,0,0,1,1.192-1.125,3.181,3.181,0,0,1,.582.1.154.154,0,0,1,.087.118C844.672,60.794,844.638,61,844.608,61.206Z" transform="translate(-817.294 -58.566)"/><path d="M368.238,110.429c-.223,0-.436-.007-.649,0-.1,0-.123-.048-.154-.121q-.56-1.344-1.125-2.686l-.24-.574h.916c.145.368.293.74.44,1.113l.447,1.136c.063-.161.114-.289.163-.417.217-.569.438-1.137.649-1.709a.175.175,0,0,1,.2-.136c.233.009.466,0,.727,0Z" transform="translate(-355.164 -103.849)"/></svg>
