<?xml version="1.0" encoding="UTF-8"?> <!-- Generator: Adobe Illustrator 24.2.1, SVG Export Plug-In . SVG Version: 6.00 Build 0) --> <svg xmlns="http://www.w3.org/2000/svg" xmlns:xlink="http://www.w3.org/1999/xlink" id="Layer_1" x="0px" y="0px" viewBox="0 0 779.7 220.7" style="enable-background:new 0 0 779.7 220.7;" xml:space="preserve"> <path d="M374.8,172.7h-24.2c-0.1,0-0.2,0-0.2-0.1l-20.9-25.5l-20.9,25.5c0,0.1-0.1,0.1-0.2,0.1H289c-0.1,0-0.2-0.1-0.3-0.2 c0-0.1,0-0.2,0-0.3l30.7-37.7l-30.4-37.4c-0.1-0.1-0.1-0.2,0-0.4c0-0.1,0.2-0.2,0.3-0.2h24.2c0.1,0,0.2,0,0.2,0.1l18.3,22.7 l18.6-22.7c0-0.1,0.1-0.1,0.2-0.1h19.7c0.1,0,0.2,0.1,0.3,0.2c0,0.1,0,0.2-0.1,0.4l-28.8,34.6l32.9,40.5c0.1,0.1,0.1,0.2,0,0.3 C375,172.6,374.9,172.7,374.8,172.7"></path> <path d="M505.9,110c-10.7,0-18.1,6.5-20.1,17.8h36.5V127C522.2,118,515.6,110,505.9,110 M541,139.4c-0.1,0.1-0.2,0.2-0.3,0.2h-55.4 c1.2,12.9,9.5,20.3,23.1,20.3c8.4,0,17.2-2.9,29.8-9.5c0.2-0.1,0.5,0.1,0.5,0.3l0,17.1c0,0.1-0.1,0.2-0.2,0.3 c-11.7,4.9-23.4,8.3-32.6,8.3c-23.9,0-41.2-17.4-41.2-41.4c0-23.9,17.3-41.3,41.2-41.3c21.8,0,35.8,14.7,35.8,34.8 C541.6,131.5,541.1,139.1,541,139.4"></path> <path d="M653.6,80.8c-6.8,0-12.3-5.4-12.3-12.1c0-6.9,5.5-12.5,12.3-12.5c6.8,0,12.3,5.6,12.3,12.5C666,75.4,660.4,80.8,653.6,80.8 M643.7,172.7c-0.2,0-0.3-0.1-0.3-0.3V96.8c0-0.2,0.1-0.3,0.2-0.3h20c0.2,0,0.2,0.2,0.2,0.3v75.5c0,0.2-0.1,0.3-0.3,0.3H643.7z"></path> <path d="M411.4,161.3c-3.6,0-7.3-0.5-11.6-1.7l0-48.5c5-1.6,9.3-2.3,13.6-2.3c13.9,0,23.2,10.2,23.2,25.4 C436.7,150.7,426.8,161.3,411.4,161.3 M416.9,93.4c-5.7,0-11.4,1-17.3,3.1h-19.9c-0.2,0-0.3,0.1-0.3,0.3v123.9 c6-0.8,13.4-3,20.5-8.1l0-37.7c4.9,0.7,9,1.2,12.9,1.2c27.3,0,44.9-16.4,44.9-41.7C457.7,110.3,440.9,93.4,416.9,93.4"></path> <path d="M607.2,155c-6.2,3.3-11.8,4.8-17,4.8c-12.4,0-19.8-8.7-19.8-23.4c0-16.9,9.5-27.9,24.1-27.9c4,0,8,1,12.7,3.2V155z M607.2,56.5v39.5c-5.8-1.7-11-2.4-16.2-2.4c-23.7,0-41.7,17.9-41.7,41.7c0,23.7,15.8,40.8,37.6,40.8c7.5,0,14.6-1.9,22.9-6.2l0,6.8 c5.5-1,11.8-3.2,18-7.6V48.5C621.7,49.3,614.5,51.3,607.2,56.5"></path> <path d="M733.2,154.9c-6,3.5-11.2,5.2-15.8,5.2c-13.2,0-21.2-8.7-21.2-23.4c0-16.7,9.3-27.9,23.2-27.9c3.7,0,8.2,1.4,13.8,4.3V154.9 z M753.8,95.6c0-0.5-0.4-0.8-0.9-0.8l-16.2,0c-0.5,0-0.9,0.4-0.9,0.9v2.8h-0.4c-7.5-3.3-13.8-4.8-20.1-4.8 c-22.4,0-39.9,18.6-39.9,42.3c0,24,15.7,40.2,39.1,40.2c6.3,0,14.3-0.4,21.8-9.1v9.7c5.3-1.1,11.6-3.4,17.5-7.6L753.8,95.6z"></path> <path d="M233.6,153.8l50.3,0c-0.8,5.6-2.7,12.2-7,18.9h-43.1l-8.6,0c-0.2,0-0.4,0-0.6,0c-6.4,0-11.7-5-12.3-11.2 c0-0.1-0.1-0.2-0.1-0.3v-51.5V62c0-0.1,0-0.2,0.1-0.2c0.6-6.3,5.9-11.3,12.3-11.3c0.2,0,0.4,0,0.6,0l58.6,0c-0.8,5.6-2.7,12.3-7,19 h-43.1v27h42.7c0.2,0,0.3,0.1,0.3,0.3v18.7c0,0.2-0.1,0.3-0.3,0.3h-42.7V153.8L233.6,153.8z"></path> <path d="M170.7,174.2c-5,0-8-3.9-8-8.6c0-5.1,3.5-8.6,8-8.6c4.5,0,8,3.5,8,8.6C178.6,170.7,175.1,174.2,170.7,174.2 M170.7,156 c-5.1,0-9.4,3.8-9.4,9.6c0,5.5,3.9,9.6,9.4,9.6c5,0,9.4-3.8,9.4-9.6C180.1,159.8,175.7,156,170.7,156"></path> <path d="M168.4,164.8v-3.5h2.4c1.2,0,2.6,0.2,2.6,1.6c0,1.7-1.3,1.9-2.8,1.9H168.4z M175.1,163.2c0-2.3-1.4-3.3-4.1-3.3h-4.3v11.4 h1.9v-4.9h1.7l2.9,4.9h2.1l-3.2-5C173.9,166.1,175.1,165.2,175.1,163.2"></path> <path d="M770.3,109.1c-5,0-8-3.9-8-8.6c0-5.1,3.5-8.6,8-8.6c4.5,0,8,3.5,8,8.6C778.3,105.6,774.8,109.1,770.3,109.1 M770.3,90.9 c-5.1,0-9.4,3.8-9.4,9.6c0,5.5,3.9,9.6,9.4,9.6c5,0,9.4-3.8,9.4-9.6C779.7,94.7,775.3,90.9,770.3,90.9"></path> <path d="M768.1,99.7v-3.5h2.4c1.2,0,2.6,0.2,2.6,1.6c0,1.7-1.3,1.9-2.8,1.9H768.1z M774.8,98c0-2.3-1.4-3.3-4.1-3.3h-4.3v11.4h1.9 v-4.9h1.7l2.9,4.9h2.1l-3.2-5C773.5,100.9,774.8,100.1,774.8,98"></path> <path d="M103.8,68.4l-3-8.5l-32.2-43l8.7-2.2l53.3,46.1l30.5-8.7c3.7-1,7.8-1.2,10.7-1.2c-10-20.5-27.7-37.3-50.9-45.6 C73.8-11.5,22,13.1,5.2,60.2c-5,14-6.3,28.5-4.4,42.3l74.8-26L103.8,68.4z"></path> <path d="M176.4,62.2c-4,2.5-7.6,4.4-10.8,5.4l-30.7,8.7l-21,67.3l-8.5,2.8l4.6-53.6l-2-8.8l-27.8,8L2.2,110.3 c6.6,29.3,27.5,54.7,57.9,65.5c47.1,16.8,98.8-7.8,115.6-54.9C182.7,101.2,182.5,80.6,176.4,62.2"></path> </svg> 