<?xml version="1.0" encoding="UTF-8"?> <svg xmlns="http://www.w3.org/2000/svg" viewBox="0 0 48.55 48.55"><title>bt</title><g id="Layer_2" data-name="Layer 2"><g id="Layer_1-2" data-name="Layer 1"><path d="M25.47,16H37.55v3.54h-4v13h-4v-13H25.47ZM24.28,45.57A21.29,21.29,0,1,1,45.57,24.28,21.31,21.31,0,0,1,24.28,45.57m0,3A24.28,24.28,0,1,0,0,24.28,24.28,24.28,0,0,0,24.28,48.55M20.17,27.46a1.63,1.63,0,0,0-1.77-1.75H15.73v3.44H18.4a1.62,1.62,0,0,0,1.77-1.69m-.48-6.63a1.39,1.39,0,0,0-1.51-1.48H15.73v3h2.45a1.41,1.41,0,0,0,1.51-1.53m4.51,6.82c0,3.13-2.21,4.85-5.36,4.85h-7V16h6.58c3.18,0,5.34,1.62,5.34,4.61a4.1,4.1,0,0,1-1.58,3.3,4.21,4.21,0,0,1,2.06,3.74"></path></g></g></svg> 