<?xml version="1.0" encoding="utf-8"?><svg xmlns="http://www.w3.org/2000/svg" viewBox="0 0 61.39 44.96"><title>legal-general</title><g id="Layer_2" data-name="Layer 2"><g id="Layer_1-2" data-name="Layer 1"><path d="M13.22,39.7h2.09c.2,0,.23.07.21.23s.08.33-.2.29h-.1c-.69,0-.91.27-.91,1,0,.93,0,1.85,0,2.78a.25.25,0,0,1-.18.28,9.94,9.94,0,0,1-4.67.66,5,5,0,0,1-4.39-4.23,5.58,5.58,0,0,1,1.43-4.9,5.39,5.39,0,0,1,3.9-1.71,10.19,10.19,0,0,1,3.67.62.22.22,0,0,1,.18.25c0,.73,0,1.46,0,2.19,0,.11.09.3-.15.3s-.33,0-.38-.23a3.08,3.08,0,0,0-.89-1.74,2.94,2.94,0,0,0-4.42.69,6.36,6.36,0,0,0-.87,3,6.74,6.74,0,0,0,.56,3.4A2.66,2.66,0,0,0,10,44.21a3.17,3.17,0,0,0,1.19,0,1.07,1.07,0,0,0,1-1,18.58,18.58,0,0,0,0-2.11c0-.21.1-.49,0-.62s-.38-.08-.58-.11a4,4,0,0,0-.48-.07c-.14,0-.2-.06-.2-.22,0-.34,0-.34.34-.34Z"/><path d="M4.43,32.49H.25c-.1,0-.26.07-.25-.14S-.06,32,.22,32s.8-.14,1.21-.2c.14,0,.2-.06.2-.22,0-2.68,0-5.35,0-8,0-.78-.34-1.06-1.25-1.08-.18,0-.26,0-.26-.25s.07-.25.26-.25H5.09c.1,0,.27-.09.27.14s0,.36-.24.38-.71.12-1.06.17c-.15,0-.21.06-.21.23v8.06c0,.54.17.74.71.8a8.48,8.48,0,0,0,2.36-.07,1.69,1.69,0,0,0,1.28-1,4.4,4.4,0,0,0,.35-1c.07-.29.31-.13.46-.15s.09.15.08.22c-.06.85-.15,1.69-.21,2.54,0,.19-.09.23-.27.23C7.22,32.48,5.82,32.49,4.43,32.49Z"/><path d="M25.62,38.75A12.22,12.22,0,0,1,27.11,38a3.72,3.72,0,0,1,1.61-.33,1.63,1.63,0,0,1,1.6,1.43,8,8,0,0,1,.07,1.09v3.06c0,.78.14.93.92,1,.13,0,.3,0,.31.22s-.05.3-.3.3c-1.22,0-2.43-.06-3.64,0-.11,0-.23,0-.2-.14s-.11-.33.15-.36.42-.08.63-.1.18,0,.18-.18c0-1.3,0-2.59,0-3.88a1.59,1.59,0,0,0-.06-.43,1,1,0,0,0-1.23-.77,4.39,4.39,0,0,0-1.37.44.23.23,0,0,0-.14.24v3.92c0,.51.18.69.7.76.12,0,.26,0,.27.21s0,.31-.3.3c-1.15,0-2.29-.06-3.44,0-.08,0-.22,0-.18-.12s-.13-.34.14-.38l.71-.11c.12,0,.15-.06.15-.17,0-1.49,0-3,0-4.46,0-.62-.21-.77-.82-.77-.08,0-.25.1-.24-.11s-.09-.33.18-.39c.71-.17,1.41-.37,2.12-.54.48-.11.7.07.73.57Z"/><path d="M41.41,38.79a5.27,5.27,0,0,1,1.09-.91,1.62,1.62,0,0,1,1.32-.18,1,1,0,0,1,.74,1.16,1.22,1.22,0,0,1-1,1c-.12,0-.13-.06-.15-.13-.22-.77-.72-1.06-1.58-.5a.72.72,0,0,0-.39.71c0,1,0,2.07,0,3.11v.2c0,.76.23,1,1,1h.18c.27,0,.38.17.29.43s-.12.07-.19.07l-2.09,0-1.91,0c-.09,0-.25.07-.22-.13s-.1-.36.2-.38.43-.08.65-.1.16-.07.16-.19V39.59c0-.09,0-.18,0-.28a.58.58,0,0,0-.6-.57.67.67,0,0,1-.2,0c-.09,0-.26.12-.27-.1s-.06-.35.23-.42c.67-.14,1.34-.35,2-.51s.72,0,.79.56C41.42,38.41,41.41,38.57,41.41,38.79Z"/><path d="M48.56,13.14a9.3,9.3,0,0,1,6.18-2.09c.2,0,.24-.05.25-.25a5.89,5.89,0,0,1,2-4.41,9.21,9.21,0,0,1,3.63-2c.25-.08.5-.14.79-.22l-.09-.07L61.16,4A21.49,21.49,0,0,0,51.1.13a20,20,0,0,0-5.46.12,19.48,19.48,0,0,0-6,1.87c-.15.08-.21,0-.29-.1C39,1.45,38.58.88,38.22.31c-.07-.1-.13-.19-.26-.12s-.08.18,0,.28c.24.64.49,1.28.74,1.92,0,.11.05.17-.08.25a19.56,19.56,0,0,0-6.11,5.3,19.46,19.46,0,0,0-3.71,7.58,20.3,20.3,0,0,0-.51,4,13.63,13.63,0,0,0,.07,1.81l.07,0s0-.1.08-.13A7.88,7.88,0,0,1,37,19.7c.14.05.17,0,.23-.09a6.75,6.75,0,0,1,1.48-1.67,9.78,9.78,0,0,1,6.49-2,.77.77,0,0,1,.71.47q2.82,5.23,5.68,10.47L53,29.53a2.44,2.44,0,0,0,3.17.95,2.13,2.13,0,0,0,1.34-2.3,5.12,5.12,0,0,0-.92-2c-.06-.09-.15-.08-.23-.08a.91.91,0,0,0-.58.28.32.32,0,0,0-.06.45c.22.39.43.78.61,1.17a.94.94,0,0,1-.14,1.12,1.51,1.51,0,0,1-1.4.47,1.38,1.38,0,0,1-1-.86c-1.24-2.28-2.49-4.56-3.72-6.85-1.1-2-2.18-4-3.28-6.05a.6.6,0,0,1,0-.7A8.36,8.36,0,0,1,48.56,13.14ZM49.22.49A20.28,20.28,0,0,1,59,4c-.06.11-.18.11-.27.15a7.82,7.82,0,0,0-4,3.88,4.07,4.07,0,0,0-.28.76c-.06.23-.12.16-.23,0a20.65,20.65,0,0,0-2.29-2.09,21.55,21.55,0,0,0-4.22-2.55,20.71,20.71,0,0,0-4.81-1.52,13.42,13.42,0,0,0-2.76-.23H40A18.58,18.58,0,0,1,49.22.49ZM29.35,19.6a8.47,8.47,0,0,1,0-1.88,17.15,17.15,0,0,1,1.75-6.39A20.11,20.11,0,0,1,34,6.92a19.52,19.52,0,0,1,4.27-3.68l.31-.18A18.57,18.57,0,0,0,36,18.47,8,8,0,0,0,29.35,19.6Zm11.39-3.85a8.05,8.05,0,0,0-3.58,2.56,18.3,18.3,0,0,1-.6-8.56C37,7,38.25,4,39.17,3c1.89,4.06,3.9,8.05,6,12.05A10.79,10.79,0,0,0,40.74,15.75Zm5.45-1.26Q42.67,8.77,39.53,2.8a4.59,4.59,0,0,1,1.17,0,18.62,18.62,0,0,1,9.64,3.92,18.87,18.87,0,0,1,3.22,3.22.51.51,0,0,1,.15.27,8.89,8.89,0,0,0-4.3,1.2A9.16,9.16,0,0,0,46.19,14.49Z"/><path d="M55.63,44.25a3.19,3.19,0,0,1-.53-.06c-.63-.08-.79-.27-.79-.92V35.22a4.1,4.1,0,0,0,0-.61c-.06-.42-.25-.58-.66-.48-.75.18-1.5.38-2.24.58-.24.06-.1.27-.11.41s.13.06.19.06c.61,0,.87.15.87.76,0,2.7,0,5.39,0,8.09,0,.1,0,.16-.14.17-.43,0-.85.07-1.27.08a.66.66,0,0,1-.74-.64,2.17,2.17,0,0,1,0-.36c0-1.21,0-2.41,0-3.62a1.71,1.71,0,0,0-1.5-1.88,7.09,7.09,0,0,0-3.45.21.14.14,0,0,0-.11.16v.75l.29-.1a4.58,4.58,0,0,1,1.83-.27,1,1,0,0,1,1,.91c0,.34,0,.68,0,1,0,.15-.09.11-.17.12-.41,0-.81,0-1.22,0a5.16,5.16,0,0,0-2.31.61,1.86,1.86,0,0,0-.92,1.86,1.7,1.7,0,0,0,1.26,1.61A3.11,3.11,0,0,0,48.3,44a1.25,1.25,0,0,0,1.29.84h.33l5.81-.09c.16,0,.18-.06.19-.2S55.85,44.25,55.63,44.25ZM48.1,43a1.41,1.41,0,0,1-1.73,1,.78.78,0,0,1-.54-.46,1.47,1.47,0,0,1,.64-1.94,3.74,3.74,0,0,1,1.61-.32c.1,0,.14,0,.13.13V42A2.81,2.81,0,0,1,48.1,43Z"/><path d="M35.47,32a5.74,5.74,0,0,1-.71-.09c-.59-.1-.73-.28-.73-.87V22.65c0-.77-.22-.94-1-.74s-1.23.35-1.85.49c-.29.06-.23.24-.22.41s.2.1.3.1c.49,0,.7.14.76.63a2.4,2.4,0,0,1,0,.28v7.9c0,.16-.06.21-.2.22-.43,0-.86.08-1.29.07a.63.63,0,0,1-.65-.47,2.12,2.12,0,0,1-.07-.66V27.39a1.7,1.7,0,0,0-1.5-1.88,6.62,6.62,0,0,0-3,.09c-.58.13-.57.14-.59.74,0,.25.06.27.28.2a4.17,4.17,0,0,1,1.95-.26.92.92,0,0,1,.87.9c0,.31,0,.62,0,.92s-.06.2-.22.21a13.92,13.92,0,0,0-1.58.07,4.51,4.51,0,0,0-2,.62,1.89,1.89,0,0,0-.84,1.87,1.72,1.72,0,0,0,1.16,1.54A3.22,3.22,0,0,0,28,31.73a1.25,1.25,0,0,0,.68.73,2.15,2.15,0,0,0,.8.11l6-.08c.14,0,.22,0,.19-.18S35.73,32,35.47,32Zm-7.53-2.3a3,3,0,0,1-.18,1.15,1.39,1.39,0,0,1-1.6.9.87.87,0,0,1-.65-.55,1.48,1.48,0,0,1,.78-1.94A4.33,4.33,0,0,1,27.8,29c.12,0,.14.05.14.15S27.94,29.52,27.94,29.7Z"/><path d="M48.89,32.18a13.26,13.26,0,0,1-3.35-1.91c-.08-.06-.11-.1,0-.2a21.17,21.17,0,0,0,1-2,1.36,1.36,0,0,1,1.09-.86c.28,0,.12-.24.15-.37s-.12-.1-.2-.1q-1.41,0-2.82,0c-.09,0-.23-.06-.21.12s-.1.33.16.37l.78.14c.12,0,.17.08.15.2a5.82,5.82,0,0,1-.79,2.15,17.9,17.9,0,0,1-3-3.05c-.18-.24-.18-.24.09-.37a6,6,0,0,0,1.58-1A2.07,2.07,0,0,0,44,23.19a1.82,1.82,0,0,0-1.39-1.37,3.24,3.24,0,0,0-1.42-.07A2.57,2.57,0,0,0,39,24.09a4.17,4.17,0,0,0,.44,2c.09.18.09.26-.11.36a4.49,4.49,0,0,0-.92.59,3.16,3.16,0,0,0,0,4.85,4.5,4.5,0,0,0,3.62.78,4.18,4.18,0,0,0,2.4-1.29.2.2,0,0,1,.3,0,9.59,9.59,0,0,0,.9.47,9.05,9.05,0,0,0,3.1.93c.1,0,.27.08.25-.12S49.22,32.3,48.89,32.18ZM40.5,23.5a1.1,1.1,0,0,1,1.26-.94,1,1,0,0,1,.84,1c0,.1,0,.19,0,.22a1.6,1.6,0,0,1-.75,1.43c-.74.53-.83.51-1.14-.34A2.65,2.65,0,0,1,40.5,23.5Zm0,7.76a2.63,2.63,0,0,1-1.24-2.88,2.08,2.08,0,0,1,.66-1.06c.08-.07.13-.08.2,0a13.67,13.67,0,0,0,3.66,3.45s0,0,0,0A3,3,0,0,1,40.52,31.26Z"/><path d="M23.89,24.69a1.63,1.63,0,0,0-.66-.06,1.53,1.53,0,0,0-1.32,1c0,.1,0,.19-.19.11a3.6,3.6,0,0,0-2.3-.35,3,3,0,0,0-1.86.91,2.38,2.38,0,0,0,.88,3.82,1.52,1.52,0,0,1-.37.27,4,4,0,0,1-1.11.35c-.1,0-.2,0-.2.14a1.73,1.73,0,0,0,.35,1.32c.2.23.2.23-.06.39a1.51,1.51,0,0,0-.15,2.59,2,2,0,0,0,.34.23,4.81,4.81,0,0,0,4.91-.25,2.4,2.4,0,0,0,1.1-1.78,1.68,1.68,0,0,0-1.21-2,3.11,3.11,0,0,0-1-.19c-.62,0-1.23,0-1.85,0a1.12,1.12,0,0,1-.65-.09c-.2-.11-.19-.22,0-.34a1.41,1.41,0,0,0,.37-.27.41.41,0,0,1,.44-.13A3.7,3.7,0,0,0,21.8,30a2.42,2.42,0,0,0,.69-3.62.35.35,0,0,1,0-.53.5.5,0,0,1,.55-.23,3.06,3.06,0,0,1,.58.2c.13.06.24.27.4.17s.2-.27.27-.42a.3.3,0,0,0,0-.1C24.46,25.05,24.34,24.81,23.89,24.69Zm-3.68,8.12a4.66,4.66,0,0,1,1.39.1c.28.08.53.21.59.52a.81.81,0,0,1-.31.83,2.36,2.36,0,0,1-1.24.49,5,5,0,0,1-.86.06,3.78,3.78,0,0,1-1.66-.32,1,1,0,0,1-.35-1.61c.06-.07.12-.14.24-.11A8.1,8.1,0,0,0,20.21,32.81ZM21.09,29a1.11,1.11,0,0,1-2,.24A2.88,2.88,0,0,1,19,26.73a1,1,0,0,1,.88-.59,1,1,0,0,1,1,.51,2.88,2.88,0,0,1,.34,1.5A2.46,2.46,0,0,1,21.09,29Z"/><path d="M15.29,26.13a3.33,3.33,0,0,0-2.46-.67,3.43,3.43,0,0,0-3.34,3.25,3.36,3.36,0,0,0,1.81,3.48,4.8,4.8,0,0,0,4,.16c.5-.18.38-.05.4-.59,0-.15,0-.18-.19-.14a4.46,4.46,0,0,1-1.74.18A2.24,2.24,0,0,1,12.23,31a3.22,3.22,0,0,1-.63-1.92c0-.17.09-.12.18-.13h2.16l2.17-.06c.1,0,.18,0,.2-.15A2.86,2.86,0,0,0,15.29,26.13Zm-1.07,1.65a.49.49,0,0,1-.38.3,8.2,8.2,0,0,1-1.11.13c-.26,0-.52.05-.78.07s-.35,0-.3-.31a3.17,3.17,0,0,1,.47-1.25,1.26,1.26,0,0,1,.94-.58A1.24,1.24,0,0,1,14.22,27.78Z"/><path d="M21,38a3.65,3.65,0,0,0-5.29,3,3.43,3.43,0,0,0,2,3.51,5,5,0,0,0,4.17,0c.08,0,.12-.08.11-.17V44c0-.16,0-.16-.17-.12a5.23,5.23,0,0,1-1.48.2,2.26,2.26,0,0,1-2.24-1.45,4.76,4.76,0,0,1-.25-1.19c0-.18.05-.21.21-.21h2.14l2.16-.06c.12,0,.18,0,.2-.15A2.86,2.86,0,0,0,21,38ZM20,40.32l-1.92.2c-.09,0-.18,0-.16-.11a2.57,2.57,0,0,1,.73-1.74,1.08,1.08,0,0,1,1.84.57,1.87,1.87,0,0,1,.07.4A.57.57,0,0,1,20,40.32Z"/><path d="M38,39.61a2.82,2.82,0,0,0-2.5-1.92,3.57,3.57,0,0,0-4.16,3,3.51,3.51,0,0,0,2.36,4,5.07,5.07,0,0,0,3.35-.07c.67-.23.53-.05.52-.82a5.35,5.35,0,0,1-1.23.24,2.54,2.54,0,0,1-2.27-.78,3,3,0,0,1-.62-1.84c0-.18,0-.22.2-.22l2.09,0,2.22,0c.11,0,.18,0,.19-.16A3.63,3.63,0,0,0,38,39.61Zm-2.46.71-1.9.2c-.14,0-.19,0-.17-.17A3.27,3.27,0,0,1,33.93,39a1.15,1.15,0,0,1,2.19.64C36.13,40.09,36,40.27,35.56,40.32Z"/></g></g></svg>
