<?xml version="1.0" encoding="UTF-8"?> <!-- Generator: Adobe Illustrator 24.0.1, SVG Export Plug-In . SVG Version: 6.00 Build 0) --> <svg xmlns="http://www.w3.org/2000/svg" xmlns:xlink="http://www.w3.org/1999/xlink" id="Layer_1" x="0px" y="0px" viewBox="0 0 288 99.9" style="enable-background:new 0 0 288 99.9;" xml:space="preserve"> <g> <path d="M0.1,0.1c26.6,7.8,40.1,38.2,28.2,63.5c-2.6-2.4-4.6-5.3-6-8.5c-1.4-3.2-2.2-6.5-2.2-10c0-8-2.2-15.3-7.2-21.6 C9.6,19.4,5.7,16.2,1,14c-0.7-0.3-1-0.7-1-1.5C0,8.7,0,5,0,1.2C0,0.9,0.1,0.5,0.1,0.1z"></path> <path d="M32.3,88.4C19,83.8,9.4,75.3,3.8,62.4c-5.8-13.3-4-28.4,0.8-37.2c2.6,2.4,4.5,5.2,5.9,8.4c1.4,3.2,2.1,6.6,2.2,10.2 c0.4,13.9,6.5,24.3,19,30.9c0.4,0.2,0.8,0.7,0.9,1.1c0.1,4.1,0,8.1,0,12.2C32.5,88,32.4,88.1,32.3,88.4z"></path> <path d="M48.5,41.6c0-13.7,0-27.5,0-41.3c0.2,0,0.5-0.1,0.7-0.1c5.5,0,11-0.1,16.5,0.2c5.1,0.2,9.8,1.9,13.1,6.1 c2.4,2.9,3.4,6.4,3.7,10.1c0.4,4.5,0.2,8.9-1.2,13.2c-2.3,7-7.2,11-14.5,11.6c-6,0.5-12.1,0.2-18.2,0.3 C48.7,41.8,48.7,41.7,48.5,41.6z M54,37.2c3.6,0,7.1,0.2,10.5,0c6.6-0.5,10.8-4.2,12.2-10.7c0.8-3.9,0.8-7.9-0.1-11.8 c-1.2-5.5-4.5-8.8-10-9.4C62.5,4.7,58.4,5,54.2,4.9c-0.1,0-0.1,0.1-0.2,0.2C54,15.7,54,26.4,54,37.2z"></path> <path d="M83.9,59.3c-1.7,0-3.2,0-4.7,0c-0.3,0-0.6-0.4-0.7-0.7c-1.8-6.2-7.5-8.4-13-8C59.2,51,54.6,55,53,62.5 c-1,4.8-0.7,9.6,1.1,14.2c3.2,8.1,11.4,9.7,17.3,7.6c4.1-1.5,6.3-4.8,7.2-9c0.5-2.3,0.5-2.3,2.8-2.3c0.9,0,1.8,0,2.8,0 c-0.6,5.3-2.4,9.9-6.7,13.1c-6.7,5-17.9,4.3-24-1.3c-3.5-3.2-5.2-7.4-5.9-12c-0.7-4.4-0.5-8.9,0.8-13.2c2.7-8.7,9.6-13.6,18.7-13.5 c4.9,0.1,9.3,1.4,12.8,5.1C82.2,53.4,83.3,56.1,83.9,59.3z"></path> <path d="M139.6,58.6c1.5,0,3,0,4.6,0c0,1.3,0,2.6,0,4.1c0.4-0.4,0.6-0.5,0.7-0.7c1.7-2.6,4.3-3.7,7.2-4c3.5-0.4,6.7,0.1,9.7,2.1 c3.2,2.2,4.9,5.4,5.6,9.2c0.9,4.8,0.5,9.4-1.9,13.7c-3.9,6.8-13.3,7.8-18.7,3.8c-0.9-0.6-1.6-1.4-2.5-2.3c0,5.2,0,10.2,0,15.4 c-1.6,0-3.1,0-4.7,0C139.6,86.2,139.6,72.4,139.6,58.6z M163.2,73.5c-0.1,0-0.2-0.1-0.3-0.1c0-2.5-0.5-4.9-1.7-7 c-1.9-3.2-4.7-4.6-8.4-4.4c-3.4,0.2-6,1.8-7.4,5c-0.8,1.9-1.2,3.9-1.4,5.9c-0.2,2.8,0.3,5.5,1.8,8c2,3.3,5.1,4.4,8.8,4.1 c3.3-0.2,5.8-2,7-5.1C162.4,77.8,162.7,75.6,163.2,73.5z"></path> <path d="M115.9,58.6c0,10,0,19.8,0,29.8c-1.5,0-3,0-4.6,0c0-1.3,0-2.5,0-4c-0.4,0.3-0.6,0.4-0.7,0.6c-2.8,3.4-6.6,4.4-10.8,4.1 c-7.1-0.5-11.1-6-11.9-12.3c-0.6-5-0.1-9.8,3-14c2.7-3.7,6.5-5.1,11-4.8c1.9,0.1,3.9,0.6,5.7,1.4c1.4,0.6,2.4,2,3.7,3 c0-1.2,0-2.4,0-3.7C112.9,58.6,114.3,58.6,115.9,58.6z M92.5,73.9c0.1,0.9,0.2,2.4,0.6,3.8c0.9,4.1,3.5,6.6,7.3,7.2 c3.9,0.6,7.7-1.1,9.4-4.5c2.4-4.7,2.4-9.6-0.1-14.2c-3-5.5-11.1-5.9-14.8-0.8C93.1,67.8,92.6,70.5,92.5,73.9z"></path> <path d="M287.4,79.2c-0.6,3-1.9,5.3-4.1,7.1c-5.2,4.4-16.8,4-20.8-3.8c-1.9-3.7-2.5-7.6-2-11.7c0.5-3.9,2.1-7.3,5.2-9.9 c6.1-5.1,18.1-4.7,21.3,6.9c0.5,1.8,0.6,3.8,0.9,5.7c0.1,1-0.3,1.3-1.3,1.3c-6.5,0-13,0-19.6,0c-1.8,0-1.8,0-1.7,1.8 c0.3,4.8,4,8.3,8.8,8.3c1.3,0,2.7-0.1,3.9-0.5c2.2-0.6,3.6-2.2,4.5-4.4c0.1-0.4,0.6-0.8,0.9-0.9C284.7,79.1,285.9,79.2,287.4,79.2z M265.4,70.7c5.9,0,11.7,0,17.6,0c-0.2-3.1-1.4-5.6-4-7.2c-3.1-2-6.3-2.1-9.4-0.2C266.8,64.9,265.7,67.5,265.4,70.7z"></path> <path d="M196,88.4c-1.5,0-3,0-4.6,0c0-0.5,0-1,0-1.5c0-5.9-0.2-11.8,0-17.7c0.2-6.4-4.5-8.3-9.3-6.9c-3.8,1.1-6,4.3-6,8.7 c0,5.3,0,10.5,0,15.8c0,0.5,0,0.9,0,1.5c-1.6,0-3.1,0-4.6,0c0-0.4-0.1-0.8-0.1-1.2c0-12.9,0-25.8,0-38.7c0-1.1,0.3-1.4,1.4-1.4 c3.3,0,3.3,0,3.3,3.3c0,3.7,0,7.4,0,11.1c0,0.4,0,0.9,0,1.5c0.3-0.2,0.5-0.3,0.6-0.4c2.2-3.6,5.7-4.6,9.6-4.6 c0.8,0,1.7,0.1,2.5,0.2c4.7,1,7.2,4,7.3,9.1c0.1,6.8,0,13.7,0,20.5C196.1,87.9,196.1,88.1,196,88.4z"></path> <path d="M119.4,26.7c0.4-2,0.6-4.1,1.2-6.1c2.1-6.6,8-10.3,15.1-9.5c7.9,0.9,12.9,6.3,13.2,14.4c0.1,3.1-0.2,6.1-1.5,8.9 c-2.6,5.8-8.5,8.9-15.1,8c-7.4-1-12.2-6.2-12.6-13.8c0-0.6,0-1.2,0-1.8C119.6,26.7,119.5,26.7,119.4,26.7z M143.9,26.7 c-0.4-1.9-0.7-3.9-1.4-5.7c-1.4-3.5-4.1-5.5-7.8-5.7c-3.6-0.2-6.5,1.3-8.2,4.5c-2.4,4.5-2.4,9.2-0.1,13.7c1.6,3.1,4.4,4.6,7.9,4.6 c3.5,0,6.1-1.7,7.8-4.8C143.3,31.3,143.7,29.1,143.9,26.7z"></path> <path d="M228.8,73.6c-0.1,3.3-0.7,6.5-2.5,9.3c-3.1,4.9-7.7,6.5-13.2,6.2c-4.5-0.3-8.3-2.1-10.8-6c-2.2-3.6-2.9-7.5-2.4-11.6 c0.3-3.2,1.2-6.1,3.3-8.6c2.3-2.9,5.4-4.5,9.1-4.7c2.1-0.1,4.2-0.1,6.2,0.4c5.6,1.3,9.4,6,10.1,11.8 C228.6,71.4,228.7,72.5,228.8,73.6z M223.8,72.9c-0.2-0.9-0.3-2.5-0.8-4c-1.2-4.1-4.5-6.8-8.4-6.9c-4.3-0.1-7.7,2.3-9.1,6.5 c-1.2,3.5-1.2,7,0.1,10.5c1.3,3.4,3.8,5.6,7.5,6c3.5,0.4,6.5-0.9,8.6-3.8C223.2,78.8,223.7,76.2,223.8,72.9z"></path> <path d="M203.3,20.3c-1.5,0-3,0-4.6,0c-0.1-0.2-0.2-0.5-0.2-0.7c-0.5-1.9-1.7-3.1-3.6-3.7c-2.4-0.8-4.8-0.7-7.1,0.1 c-1.5,0.5-2.6,1.4-2.7,3.1c-0.1,1.6,0.8,2.8,2.2,3.3c2.1,0.8,4.3,1.3,6.4,1.9c2.1,0.6,4.2,1.1,6.2,1.8c2.8,1.1,4.6,3.1,4.8,6.2 c0.3,3.2-0.8,6-3.5,7.8c-3.5,2.4-7.5,2.8-11.6,2.3c-1.9-0.2-3.8-0.8-5.5-1.6c-3.3-1.6-4.7-4.6-4.9-8.3c1.6,0,3.2,0,4.8,0 c0.1,0.2,0.2,0.5,0.2,0.7c0.3,2.1,1.5,3.5,3.5,4.3c3,1.1,6.1,1.1,9.1,0.1c2.1-0.7,3-2.2,2.7-4.3c-0.2-1.6-1.2-2.6-2.6-3.1 c-2-0.7-4.1-1.2-6.1-1.8c-2.2-0.7-4.6-1.1-6.6-2.1c-5.5-2.6-5.8-9.7-0.8-13c2.3-1.5,4.9-2.1,7.6-2.1c2.6,0,5.2,0.2,7.6,1.4 C201.7,13.9,203.6,17.1,203.3,20.3z"></path> <path d="M156.1,41.8c-1.7,0-3.2,0-4.8,0c0-10,0-20,0-30c1.5,0,2.9,0,4.5,0c0,1.5,0,3,0,4.8c0.4-0.5,0.5-0.6,0.6-0.8 c3.3-4.7,10.4-6.3,15.4-3.4c2.9,1.6,4.1,4.4,4.2,7.4c0.2,7.3,0.1,14.5,0.1,21.9c-1.5,0-3.1,0-4.8,0c0-0.4,0-0.8,0-1.2 c0-6-0.1-12,0-18.1c0.1-5.6-3.5-7.9-8.7-6.8c-3.5,0.8-5.8,3.4-6.3,7.1c-0.1,1-0.2,2-0.2,3c0,4.9,0,9.8,0,14.7 C156.1,40.8,156.1,41.2,156.1,41.8z"></path> <path d="M232.3,58.6c1.4,0,2.8,0,4.3,0c0,1.5,0,3,0,4.5c0.1,0,0.2,0.1,0.3,0.1c0.2-0.3,0.5-0.6,0.7-0.9c2.3-3.3,5.5-4.5,9.4-4.4 c0.9,0,1.8,0.1,2.6,0.3c4.6,1,7.2,4,7.3,9c0.1,6.9,0,13.8,0,20.7c0,0.2,0,0.3-0.1,0.6c-1.5,0-2.9,0-4.6,0c0-0.5,0-0.9,0-1.4 c0-5.9-0.2-11.8,0-17.7c0.2-6.5-4.6-8.3-9.4-6.9c-3.7,1.1-5.9,4.3-6,8.8c0,5.2,0,10.4,0,15.7c0,0.5,0,1,0,1.5c-1.6,0-3,0-4.6,0 C232.3,78.5,232.3,68.6,232.3,58.6z"></path> <path d="M120.8,11.7c-3.6,4.8-7,9.3-10.4,13.9c3.8,5.4,7.7,10.7,11.6,16.2c-2.1,0-4,0-5.9,0c-0.3,0-0.7-0.4-0.9-0.8 c-2.4-3.4-4.7-6.9-7-10.4c-0.2-0.4-0.5-0.7-0.9-1.2c-0.3,0.4-0.6,0.7-0.8,1.1c-2.3,3.5-4.7,6.9-7,10.4c-0.5,0.7-1,1-1.9,1 c-1.5-0.1-3,0-4.7,0c3.8-5.4,7.6-10.6,11.3-15.8c-3.5-4.7-6.9-9.4-10.5-14.3c2.1,0,4,0,5.9,0c0.3,0,0.7,0.4,0.9,0.8 c2,2.9,4,5.7,5.9,8.6c0.2,0.3,0.5,0.6,0.8,1.1c0.3-0.4,0.6-0.7,0.8-1c2.1-2.9,4.2-5.8,6.2-8.7c0.4-0.6,0.9-0.8,1.6-0.8 C117.4,11.7,119,11.7,120.8,11.7z"></path> <path d="M125.6,64.7c0.4-0.6,0.8-1.3,1.2-1.9c2-3.2,5-4.7,8.8-4.9c0.7,0,0.9,0.2,0.9,0.9c0,1.1,0,2.2,0,3.3c0,0.8-0.3,0.9-1,1 c-0.9,0-1.8,0.1-2.7,0.4c-4.1,1-6.2,3.9-6.9,7.9c-0.2,1.5-0.3,3-0.3,4.6c0,3.9,0,7.7,0,11.6c0,0.9-0.3,1.2-1.2,1.2 c-3.5,0-3.5,0-3.5-3.5c0-8.4,0-16.7,0-25.1c0-1.2,0.3-1.5,1.5-1.5c2.9,0.1,2.9,0,2.9,2.9c0,1.1,0,2.1,0,3.2 C125.3,64.6,125.5,64.7,125.6,64.7z"></path> <path d="M91,41.7c-1.6,0-3.1,0-4.8,0c0-10,0-20,0-30c1.6,0,3.1,0,4.8,0C91,21.7,91,31.7,91,41.7z"></path> <path d="M9.5,84.6c-3,1.3-6.1,2.7-9.4,4.1C0.1,88.2,0,87.9,0,87.6c0-3.8,0-7.7,0-11.5c0-0.7,0.1-1.3,0.8-1.3c0.4,0,0.8,0.4,1.1,0.7 C4.4,78.4,6.9,81.4,9.5,84.6z"></path> <path d="M23,4.1c3.2-1.4,6.2-2.7,9.4-4.1c0.1,0.6,0.2,0.9,0.2,1.2c0,3.7,0,7.5,0,11.2c0,0.5-0.5,1-0.7,1.4 c-0.4-0.3-0.8-0.5-1.1-0.8c-2.2-2.6-4.5-5.2-6.7-7.9C23.8,4.9,23.5,4.6,23,4.1z"></path> <path d="M86.2,6.1c0-2,0-3.9,0-5.9c1.5,0,2.9,0,4.3,0C90.7,0.3,91,0.7,91,1c0,1.7,0,3.4,0,5.2C89.4,6.1,87.8,6.1,86.2,6.1z"></path> </g> </svg> 