<?xml version="1.0" encoding="utf-8"?><svg xmlns="http://www.w3.org/2000/svg" width="17.341" height="30.504" viewBox="0 0 17.341 30.504"><g transform="translate(0)"><path d="M8.7.037a8.553,8.553,0,0,1,8.454,6.89,8.547,8.547,0,0,1-2,7.563c-.149.172-.322.324-.487.481-.248.235-.258.335-.01.574a8.455,8.455,0,0,1,1.381,1.728,8.7,8.7,0,0,1,1.279,5.207,8.6,8.6,0,0,1-6.8,7.835,8.7,8.7,0,0,1-9.462-4.3,8.406,8.406,0,0,1-1-3.342,8.8,8.8,0,0,1,2.632-7.106,1.626,1.626,0,0,0,.136-.158.212.212,0,0,0,0-.287c-.085-.1-.181-.184-.272-.274A8.314,8.314,0,0,1,.224,10.622,8.453,8.453,0,0,1,1.863,3.338,8.4,8.4,0,0,1,7.069.184C7.6.083,8.151.06,8.693,0ZM7.347,4.779C6.9,4.429,6.553,4.4,6.254,4.695a.7.7,0,0,0-.216.462.761.761,0,0,0,.287.632.728.728,0,0,0-.009,1.154A.748.748,0,0,0,6.31,8.105a.749.749,0,0,0,0,1.162.748.748,0,0,0,0,1.162.747.747,0,0,0,0,1.162c-.34.426-.365.772-.077,1.072a.7.7,0,0,0,.459.221.759.759,0,0,0,.652-.3.747.747,0,0,0,.633.3.758.758,0,0,0,.6-.382.732.732,0,0,0,.638.383.743.743,0,0,0,.638-.373c.369.419.774.491,1.108.2a.711.711,0,0,0,.074-1.013.685.685,0,0,0-.495-.243.745.745,0,0,0-.685.383.726.726,0,0,0-1.281,0,.727.727,0,0,0-1.219-.1l-.177-.156a.73.73,0,0,0,.287-.575.747.747,0,0,0-.286-.576c.384-.424.384-.685,0-1.179L7.3,9.148a.753.753,0,0,0,.593.252.77.77,0,0,0,.568-.328.755.755,0,0,0,.605.328.769.769,0,0,0,.607-.315.731.731,0,0,0,1.088.126.717.717,0,0,0,.046-1.006c-.3-.332-.7-.307-1.14.076a.746.746,0,0,0-.6-.31A.776.776,0,0,0,8.46,8.3a.766.766,0,0,0-.566-.328.8.8,0,0,0-.6.249l-.127-.112a.747.747,0,0,0,.294-.578.765.765,0,0,0-.288-.587.729.729,0,0,0,.288-.576.766.766,0,0,0-.289-.583l.17-.161a.742.742,0,0,0,.636.293.756.756,0,0,0,.594-.383.726.726,0,0,0,1.275.011c.36.417.771.489,1.106.206a.715.715,0,0,0,.088-1,.685.685,0,0,0-.489-.254.756.756,0,0,0-.7.375.728.728,0,0,0-1.276,0A.744.744,0,0,0,7.347,4.779ZM6.317,23.587c-.378.438-.378.694,0,1.169-.341.4-.368.769-.076,1.072s.661.288,1.115-.069a.737.737,0,0,0,1.223-.094c.377.506.83.5,1.284.011a.735.735,0,0,0,1.118.183.713.713,0,0,0,.03-1.025c-.328-.332-.745-.279-1.153.149a.744.744,0,0,0-1.285.012.749.749,0,0,0-.6-.373.76.76,0,0,0-.623.279l-.169-.138a.749.749,0,0,0,.007-1.168c.374-.472.374-.728-.014-1.175l.119-.119a.755.755,0,0,0,.612.26.722.722,0,0,0,.553-.325c.4.435.734.437,1.219.026.43.369.808.4,1.113.088a.718.718,0,0,0,.022-.974.693.693,0,0,0-.467-.236.749.749,0,0,0-.667.311.748.748,0,0,0-1.221,0,.756.756,0,0,0-.561-.321.774.774,0,0,0-.6.257l-.111-.112c.38-.481.38-.726.007-1.171A.738.738,0,0,0,7.2,18.962l.136-.172a.751.751,0,0,0,1.238-.074.743.743,0,0,0,1.279,0c.417.428.813.482,1.142.156a.711.711,0,0,0,0-1.016c-.324-.322-.718-.268-1.143.156a.746.746,0,0,0-1.281,0,.749.749,0,0,0-1.231-.077c-.435-.344-.772-.375-1.072-.1a.7.7,0,0,0-.232.47.762.762,0,0,0,.286.642.746.746,0,0,0-.289.579.778.778,0,0,0,.282.576c-.377.415-.377.7-.008,1.162a.752.752,0,0,0,0,1.164A.738.738,0,0,0,6.317,23.587Z" transform="translate(-0.001)"/></g></svg>
