<?xml version="1.0" encoding="utf-8"?><svg xmlns="http://www.w3.org/2000/svg" width="95.421" height="19.201" viewBox="0 0 95.421 19.201"><g transform="translate(0)"><path d="M11.071,0a4.166,4.166,0,0,0,.04,1.414,4.62,4.62,0,0,0,.87,1.775c.471.649.974,1.277,1.441,1.929A18.46,18.46,0,0,1,14.54,6.8a3.338,3.338,0,0,1,.487,1.834c-.01.162-.035.323-.053.491.3.076.6.149.9.231a12.621,12.621,0,0,1,3.052,1.229,5.548,5.548,0,0,1,1.99,1.871,2.728,2.728,0,0,1,.371,1.831,3.231,3.231,0,0,1-.939,1.817,7.674,7.674,0,0,1-2.483,1.685,13.177,13.177,0,0,1-2.552.861c-.622.142-1.251.256-1.883.344-.571.079-1.148.116-1.723.151-.558.033-1.118.061-1.676.052-.5-.008-1-.057-1.5-.111S7.5,18.97,6.995,18.881a14.462,14.462,0,0,1-3.909-1.232,6.983,6.983,0,0,1-2.033-1.44A3.54,3.54,0,0,1,.08,14.371c0-.015-.021-.027-.03-.041V13.7c.011-.014.03-.027.03-.041A2.938,2.938,0,0,1,.6,12.393a5.045,5.045,0,0,1,.924-.95,7.521,7.521,0,0,1,1.538-1.018c.539-.26,1.092-.494,1.651-.708s1.126-.389,1.668-.574c.114.268.2.516.319.742a17.637,17.637,0,0,0,1.591,2.278,28.267,28.267,0,0,1,1.812,2.558,2.137,2.137,0,0,1,.381.854,5.146,5.146,0,0,1,0,.529,2.059,2.059,0,0,0,.789-1.474,4.019,4.019,0,0,0-.362-2.028,10.587,10.587,0,0,0-1.4-2.133A17.094,17.094,0,0,1,8.149,8.615,4.261,4.261,0,0,1,7.531,5.6a2.583,2.583,0,0,1,.775-1.537,4.267,4.267,0,0,1,.345-.252c0,.3.006.556,0,.813A3.08,3.08,0,0,0,9.139,6.3a18.9,18.9,0,0,0,1.773,2.341,13.32,13.32,0,0,1,1.5,2.014,2.7,2.7,0,0,1,.385,1.394c0,.161,0,.323,0,.513a1.708,1.708,0,0,0,.661-.8,3.251,3.251,0,0,0,.217-1.609,3.73,3.73,0,0,0-.59-1.71c-.491-.738-1.033-1.444-1.57-2.15a9.6,9.6,0,0,1-1.3-2.138,3.584,3.584,0,0,1-.326-1.383c0-.275.008-.551.03-.825A2.721,2.721,0,0,1,10.327.7a2.85,2.85,0,0,1,.685-.7Z" transform="translate(-0.05)"/><path d="M3025.869,360.145a.185.185,0,0,0-.058-.01c-.143.024-.21-.032-.271-.171a.786.786,0,0,0-.7-.441,1.6,1.6,0,0,0-1.408.456,1.694,1.694,0,0,0-.512,1.134c-.017,1.235-.021,2.47-.03,3.7a2.538,2.538,0,0,0,.025.383.269.269,0,0,0,.29.254c.193.007.387.009.581,0,.113,0,.149.038.142.147s0,.237,0,.366h-3.493v-.515c.175,0,.351,0,.528,0a.637.637,0,0,0,.631-.639c-.006-1.43,0-2.86-.01-4.288a1.109,1.109,0,0,0-.076-.357c-.089-.248-.286-.332-.581-.255-.146.038-.287.1-.46.153a4.263,4.263,0,0,1,.007-.472c0-.039.092-.078.149-.1a7.528,7.528,0,0,0,1.455-.736c.154-.106.294-.233.451-.334a.47.47,0,0,1,.23-.048.339.339,0,0,1,.038.154c0,.437,0,.873,0,1.311,0,.047,0,.094.008.162a6.886,6.886,0,0,1,.465-.632,4.913,4.913,0,0,1,.788-.754,1.593,1.593,0,0,1,1.4-.157c.136.04.274.071.412.107Z" transform="translate(-2930.449 -347.693)"/><path d="M2474.406,175.021c0-.179-.006-.338,0-.5a.162.162,0,0,1,.092-.109,12.068,12.068,0,0,0,2.211-1.078,1.3,1.3,0,0,1,.278-.088v11.308a.579.579,0,0,0,.674.629,2.9,2.9,0,0,0,.449-.137c.046-.015.092-.03.158-.054,0,.161,0,.308,0,.454a.118.118,0,0,1-.06.086q-.915.408-1.833.81c-.031.014-.063.025-.094.04-.236.11-.288.1-.374-.149s-.129-.491-.192-.736a.618.618,0,0,0-.025-.065c-.287.182-.561.373-.851.536a3.465,3.465,0,0,1-1.628.408,2.962,2.962,0,0,1-1.633-.379,3.109,3.109,0,0,1-1.584-2.187,5.081,5.081,0,0,1-.081-1.33,4.051,4.051,0,0,1,.989-2.417,3.845,3.845,0,0,1,1.713-1.139,4.478,4.478,0,0,1,3.007.282,1.114,1.114,0,0,0,.014-.114c0-1.227,0-2.453,0-3.679a.49.49,0,0,0-.495-.56,1.568,1.568,0,0,0-.477.08C2474.585,174.955,2474.5,174.989,2474.406,175.021Zm1.221,7.525h.009c0-.73,0-1.46,0-2.188a.218.218,0,0,0-.105-.209c-.179-.115-.345-.247-.524-.361a2.534,2.534,0,0,0-1.919-.339,2.23,2.23,0,0,0-1.7,1.536,3.68,3.68,0,0,0-.156,1.789,4.127,4.127,0,0,0,.6,1.7,2.029,2.029,0,0,0,2.071,1.017,3.192,3.192,0,0,0,.749-.14,9.549,9.549,0,0,0,.864-.438.18.18,0,0,0,.116-.191c0-.724,0-1.449,0-2.173Z" transform="translate(-2396.32 -168.089)"/><path d="M909.927,214.273c-.184,0-.333-.009-.481,0-.131.01-.17-.038-.174-.167a2.778,2.778,0,0,0-.31-1.235,2.117,2.117,0,0,0-1.552-1.13,2.9,2.9,0,0,0-1.769.149,1.784,1.784,0,0,0-1.129,1.384,1.934,1.934,0,0,0,.849,1.957,13.67,13.67,0,0,0,1.863.983,17.976,17.976,0,0,1,1.611.854,3.174,3.174,0,0,1,1.307,1.615,2.791,2.791,0,0,1,.1,1.331,3.978,3.978,0,0,1-.342,1.232,3.032,3.032,0,0,1-1.62,1.5,10.047,10.047,0,0,1-1.162.374,1.912,1.912,0,0,1-.484.053,11.554,11.554,0,0,1-3.289-.414c-.086-.024-.119-.06-.119-.149q-.01-.685-.032-1.368c-.012-.351-.033-.7-.05-1.052,0-.049,0-.1,0-.155h.514c.081.268.14.543.245.8a2.624,2.624,0,0,0,1.46,1.462,2.817,2.817,0,0,0,1.341.227,2.54,2.54,0,0,0,2-1.057,2.212,2.212,0,0,0-.206-2.589,3.248,3.248,0,0,0-.743-.551c-.889-.465-1.793-.9-2.691-1.35a3.848,3.848,0,0,1-1.485-1.233,2.433,2.433,0,0,1-.447-1.382,3.2,3.2,0,0,1,.209-1.26,3.244,3.244,0,0,1,.928-1.248,3.077,3.077,0,0,1,1.309-.682,6.422,6.422,0,0,1,1.06-.168,8.088,8.088,0,0,1,2.051.2c.338.063.676.125,1.013.184.112.019.161.06.161.19,0,.709.014,1.418.027,2.128C909.9,213.889,909.915,214.071,909.927,214.273Z" transform="translate(-876.235 -204.713)"/><path d="M2159.29,365.541v-.515c.187,0,.369.005.551,0a.618.618,0,0,0,.605-.6q.006-2.167,0-4.334a1.256,1.256,0,0,0-.065-.361.485.485,0,0,0-.683-.357c-.135.041-.264.1-.4.155v-.5c.5-.238,1-.465,1.487-.7.2-.1.385-.218.578-.328a.421.421,0,0,1,.119-.054c.145-.027.177,0,.177.149v1.058c0,.047.005.094.007.132.325-.268.638-.546.97-.8a2.572,2.572,0,0,1,1.033-.485,2.159,2.159,0,0,1,1.884.506,2.618,2.618,0,0,1,.9,1.615,2.412,2.412,0,0,1,.033.413c0,1.326,0,2.651.006,3.977,0,.285.127.542.51.527.183-.007.367,0,.551,0,.092,0,.123.033.119.122,0,.128,0,.256,0,.392h-3.548v-.513c.149,0,.3-.006.453,0,.4.019.606-.172.608-.614.005-1.306.017-2.612,0-3.917a1.509,1.509,0,0,0-.929-1.484,1.782,1.782,0,0,0-1.6.179c-.3.184-.57.4-.848.616a.224.224,0,0,0-.047.157q0,1.46,0,2.92V364.6a.712.712,0,0,0,.031.233.254.254,0,0,0,.249.192c.208,0,.417.007.626,0,.1,0,.133.032.129.129-.006.123,0,.247,0,.382Z" transform="translate(-2094.964 -347.265)"/><path d="M1435.642,364.574v.513h-3.5c0-.141-.005-.288,0-.434,0-.027.063-.07.1-.072.143-.01.288,0,.432-.009a.635.635,0,0,0,.652-.657q.008-2.063,0-4.126a1.884,1.884,0,0,0-.066-.482.489.489,0,0,0-.675-.4c-.144.041-.283.1-.447.164,0-.165,0-.325,0-.485a.137.137,0,0,1,.082-.087,10.672,10.672,0,0,0,2-.969,1.122,1.122,0,0,1,.282-.075v1.4c.141-.126.258-.226.37-.332a4.058,4.058,0,0,1,1.385-.907,2.07,2.07,0,0,1,2.058.35,2.505,2.505,0,0,1,1.018,2.085c.006,1.271,0,2.542,0,3.813a1.641,1.641,0,0,0,.06.407.371.371,0,0,0,.378.292c.2.007.387,0,.581.007.053,0,.106.007.166.012v.5h-3.557c0-.143-.006-.29.006-.436,0-.027.074-.067.116-.07.163-.01.328,0,.491-.01a.477.477,0,0,0,.451-.412,3.569,3.569,0,0,0,.03-.444c0-1.117.007-2.234,0-3.351a2.409,2.409,0,0,0-.175-1.027,1.371,1.371,0,0,0-1.187-.864,2.244,2.244,0,0,0-1.581.524c-.13.1-.257.2-.387.3a.259.259,0,0,0-.111.226q.006,2.294,0,4.588c0,.06,0,.119.008.179a.279.279,0,0,0,.294.285C1435.16,364.579,1435.393,364.574,1435.642,364.574Z" transform="translate(-1389.475 -346.811)"/><path d="M1202.008,361.636a4.444,4.444,0,0,0-.157-1.557,1.224,1.224,0,0,0-1.745-.778,1.462,1.462,0,0,0-.423.286.853.853,0,0,0-.119,1c.03.067.057.133.089.21l-1.064.558a1.968,1.968,0,0,1-.305-.808,1.219,1.219,0,0,1,.655-1.164,5.727,5.727,0,0,1,1.5-.79,2.237,2.237,0,0,1,2.63,1.066,2.281,2.281,0,0,1,.186.9q0,1.929,0,3.857a1.05,1.05,0,0,0,.018.265c.074.283.312.4.643.315.165-.043.324-.107.5-.166v.517l-1.535.666-.161.071c-.219.1-.346.063-.437-.161s-.153-.445-.225-.66c-.242.164-.483.342-.739.5a2.48,2.48,0,0,1-1.236.343,2.612,2.612,0,0,1-1.013-.1,1.657,1.657,0,0,1-1.081-1.335,1.7,1.7,0,0,1,.149-1.092,1.469,1.469,0,0,1,.762-.673c.8-.353,1.616-.681,2.427-1.015C1201.553,361.8,1201.781,361.722,1202.008,361.636Zm0,.585a.745.745,0,0,0-.082.022c-.357.153-.715.3-1.068.462s-.694.3-1.023.487a.932.932,0,0,0-.579.914,1.233,1.233,0,0,0,1.479,1.165,2.361,2.361,0,0,0,1.189-.641.281.281,0,0,0,.081-.189c.007-.516,0-1.032,0-1.549Z" transform="translate(-1162.268 -347.823)"/><path d="M1931.669,364.772c.045.483.048.488-.36.672-.461.209-.927.405-1.391.606a.244.244,0,0,1-.37-.149c-.095-.219-.16-.451-.244-.7a.889.889,0,0,0-.1.064,2.992,2.992,0,0,1-1.43.73,2.5,2.5,0,0,1-1.688-.163,1.607,1.607,0,0,1-.858-1.412,2.628,2.628,0,0,1,.056-.616,1.219,1.219,0,0,1,.7-.866c.648-.309,1.307-.594,1.969-.873.394-.166.8-.3,1.2-.455a.163.163,0,0,0,.091-.108,4.177,4.177,0,0,0-.149-1.495,1.3,1.3,0,0,0-.915-.884,1.378,1.378,0,0,0-1.386.584.858.858,0,0,0,.023.82c.1.209.1.209-.11.315-.245.126-.49.255-.734.382-.042.022-.086.042-.137.067a1.5,1.5,0,0,1-.255-1.256,1.39,1.39,0,0,1,.556-.673,6.218,6.218,0,0,1,1.5-.816,2.056,2.056,0,0,1,1-.087,2.36,2.36,0,0,1,1.149.462,1.823,1.823,0,0,1,.671,1.128,2.123,2.123,0,0,1,.03.413c0,1.3,0,2.6,0,3.9a.545.545,0,0,0,.21.523.6.6,0,0,0,.485.04C1931.348,364.9,1931.5,364.83,1931.669,364.772Zm-2.422-2.608c-.063.021-.1.03-.135.045-.335.142-.673.276-1,.43-.394.185-.794.364-1.168.587a.843.843,0,0,0-.423.927,1.24,1.24,0,0,0,1.63,1.023,2.585,2.585,0,0,0,.953-.536.352.352,0,0,0,.147-.322c-.007-.5,0-.993,0-1.49Z" transform="translate(-1867.872 -347.761)"/><path d="M2771.492,362.275a6.327,6.327,0,0,0,.406,2.036,3.351,3.351,0,0,0,.62.911,2.464,2.464,0,0,0,1.806.733,4.238,4.238,0,0,0,2.136-.483c.091-.048.179-.1.3-.173,0,.172,0,.328,0,.481,0,.032-.051.071-.087.091a5.153,5.153,0,0,1-1.879.745,9.244,9.244,0,0,1-1.317.018,2.776,2.776,0,0,1-1.258-.334,3.759,3.759,0,0,1-2-2.693,3.618,3.618,0,0,1,.308-2.443,3.906,3.906,0,0,1,2.3-2.015,2.439,2.439,0,0,1,1.041-.089,6.2,6.2,0,0,1,1.142.2,2.3,2.3,0,0,1,1.5,1.285,4.733,4.733,0,0,1,.408,1.546c.016.173.008.184-.171.184h-5.243Zm4.04-.644c-.025-.181-.047-.341-.07-.5a1.686,1.686,0,0,0-1.024-1.314,2.243,2.243,0,0,0-1.407-.11,1.711,1.711,0,0,0-.957.566,2.264,2.264,0,0,0-.57,1.358Z" transform="translate(-2687.604 -348.344)"/><path d="M1716.026,292.71c-.4.322-.775.637-1.162.944a.883.883,0,0,1-.566.175,2.5,2.5,0,0,1-1.046-.149,2.206,2.206,0,0,1-1.332-1.54,4.537,4.537,0,0,1-.119-1.009c-.014-1.281-.005-2.562-.005-3.843v-.19h-1.623a.224.224,0,0,1,.119-.3,7.338,7.338,0,0,0,2.413-2.584c.087-.151.174-.265.387-.186v2.338h2.629c-.089.248-.162.469-.25.685-.012.03-.092.045-.14.046-.685,0-1.37,0-2.056,0h-.169c0,.061-.007.11-.007.158,0,1.355-.016,2.711.009,4.066a1.5,1.5,0,0,0,.629,1.237,1.435,1.435,0,0,0,1.514.074c.187-.089.366-.19.564-.294C1715.88,292.457,1715.948,292.574,1716.026,292.71Z" transform="translate(-1659.207 -275.54)"/></g></svg>
