<svg id="Layer_1" data-name="Layer 1" xmlns="http://www.w3.org/2000/svg" viewBox="0 0 105.67 127.12"><defs><style>.cls-1{fill:none;}</style></defs><path class="cls-1" d="M91.46,101.45a45.85,45.85,0,0,0,2.8-4.85H9.3a49.61,49.61,0,0,0,2.8,4.85Z"/><path class="cls-1" d="M21.78,112.13h60a48.2,48.2,0,0,0,5.14-4.86H16.65A48,48,0,0,0,21.78,112.13Z"/><polygon class="cls-1" points="100.74 94.47 100.74 94.47 100.74 94.47 100.74 94.47"/><path class="cls-1" d="M79.78,80.1A8.11,8.11,0,0,0,80,78.54a7.81,7.81,0,0,0-15.62,0,8.1,8.1,0,0,0,.18,1.55Z"/><path class="cls-1" d="M72.69,118H30.87A47.68,47.68,0,0,0,72.69,118Z"/><path class="cls-1" d="M96.71,90.78a46.25,46.25,0,0,0,1.38-4.86H5.47a48,48,0,0,0,1.38,4.86Z"/><path d="M18,40.09a1.39,1.39,0,0,0,1.34-.38h0a26.86,26.86,0,0,1,2.19-1.94,1.38,1.38,0,0,0-1.75-2.13,29.84,29.84,0,0,0-2.39,2.13A1.38,1.38,0,0,0,17,39.1,1.41,1.41,0,0,0,18,40.09Z"/><path d="M105.26,33.88a22.2,22.2,0,0,0-17.69-5.35L84.23,29l2.82-1.85a14,14,0,0,1,11.5-1.78,1.38,1.38,0,1,0,.92-2.6,17.22,17.22,0,0,0-15.25,3l-1.09.85L83,25.24a14.53,14.53,0,0,0-5.35-9.84A1.4,1.4,0,0,0,76.2,15a1.38,1.38,0,0,0-.41,2.4,11.83,11.83,0,0,1,4.5,8.84l.11,2.82-1.52-2.38a12.36,12.36,0,0,0-4.46-4.16c-7.07-3.88-16.47-.14-16.56-.1a1.37,1.37,0,0,0-.73,1.77,1.4,1.4,0,0,0,1.76.79c.06,0,8.34-3.26,14.2-.05a9.72,9.72,0,0,1,3.77,3.81l.93,1.69L76,29.88c-9.38-3-17.92,3.54-21.49,7.88a1.38,1.38,0,0,0,2.13,1.75c.4-.49,10-12,21.1-5.87l.61.34-.28.64c-1.78,4.12-4.49,6.78-9,11.19-2.54,2.49-5.62,5.53-9.27,9.56-6.47,7.18-11.06,18-13.78,25.75l-.18.52H41.47l.05-.81c.32-5.47.94-24.31-4.55-37.11-2.15-5-4.1-8.92-5.66-12-2.71-5.41-4.5-9-4.87-13.5l-.06-.7.69-.12c12.39-2.17,17.84,11.78,18.06,12.38a1.38,1.38,0,0,0,2.58-1c-2-5.25-8-14.22-17.81-14.39l-1.94,0L29.39,13a9.91,9.91,0,0,1,4.81-2.39c6.28-1.08,12.73,4,13.45,4.63a1.38,1.38,0,0,0,1.8-2.08c-.3-.26-7.86-6.62-15.69-5.26a12.34,12.34,0,0,0-5.58,2.5L26,12.18l1-2.63a11.83,11.83,0,0,1,7.11-6.9,1.34,1.34,0,0,0,.72-.72,1.39,1.39,0,0,0,0-1.06A1.39,1.39,0,0,0,33.05.1a14.63,14.63,0,0,0-8.27,7.59l-.59,1.25-.75-1.15A17.26,17.26,0,0,0,9.94,0,1.37,1.37,0,0,0,8.6,1.38a1.31,1.31,0,0,0,.4,1,1.36,1.36,0,0,0,1,.41A14,14,0,0,1,20.32,8.17l2.06,2.66-3-1.51A22.23,22.23,0,0,0,.85,8.7a1.38,1.38,0,0,0-.29,2.38,1.38,1.38,0,0,0,1.21.22l.2-.08a21.06,21.06,0,0,1,12.65-.91l4.68,1.11-4.79.4a11.23,11.23,0,0,0-3.38.82c-6.85,2.87-8.91,11.93-8.93,12a1.4,1.4,0,0,0,1,1.65,1.45,1.45,0,0,0,.3,0,1.36,1.36,0,0,0,1.34-1.07c0-.07,1.79-7.8,7.31-10.1a10.39,10.39,0,0,1,7.6.19l1.55.65-1.51.74c-5.33,2.62-12,8.37-13.37,20.93a1.33,1.33,0,0,0,.29,1,1.4,1.4,0,0,0,.92.51,1.44,1.44,0,0,0,1-.3A1.39,1.39,0,0,0,9.2,38c1.48-13.24,9.11-17.93,13.52-19.55l.92-.34.11,1c.52,4.7,2.43,8.52,5.08,13.82,1.55,3.1,3.48,7,5.61,11.92,5.24,12.22,4.62,30.73,4.3,36.11l0,.72H3.17L3.09,81a48.59,48.59,0,0,1,7.62-32c.26-.41.55-.83.83-1.24l.36-.52a1.38,1.38,0,0,0-1-2.15h-.1a1.41,1.41,0,0,0-1.14.6l-.32.47c-.32.46-.64.92-.9,1.35A51.4,51.4,0,0,0,3.53,94.15l.06.15a51.87,51.87,0,0,0,16.06,21.61l.2.16a51.68,51.68,0,0,0,63.82,0l.21-.17A51.9,51.9,0,0,0,100,94.3l.76.17L100,94.2a51.44,51.44,0,0,0,1-34.61,1.34,1.34,0,0,0-.69-.79,1.32,1.32,0,0,0-1-.08,1.39,1.39,0,0,0-.88,1.74,48,48,0,0,1,2.4,15.07,49,49,0,0,1-.31,5.42l-.07.68H83.88l.16-.91a12.1,12.1,0,1,0-23.79,0l.17.91H48.73l.37-1C51.66,73.53,56,63.72,61.83,57.21c3.61-4,6.68-7,9.15-9.44,4.23-4.16,7.29-7.16,9.3-11.45l.41-.88.76.61c3.66,3,9.37,9.87,6.49,22.87a1.38,1.38,0,0,0,2.69.58c2.73-12.31-1.7-19.9-5.9-24.1l-1.19-1.19,1.68-.12a10.34,10.34,0,0,1,7.21,2.26c4.54,4,3.7,11.86,3.69,11.94a1.38,1.38,0,0,0,1.22,1.51h.15a1.38,1.38,0,0,0,1.37-1.22c0-.39,1-9.35-4.56-14.27a10.92,10.92,0,0,0-2.86-1.84l-4.39-2,4.78.49a21.32,21.32,0,0,1,11.6,4.93,1.38,1.38,0,0,0,1.83-2.06Zm-29.11,84a49.2,49.2,0,0,1-48.74,0l-2.5-1.43H78.65ZM89.2,107a50.51,50.51,0,0,1-6.66,6.5l-.22.17H21.24L21,113.5a49.29,49.29,0,0,1-6.66-6.5l-1.08-1.26h77Zm7-10.84a50,50,0,0,1-3.67,6.49l-.23.34h-81l-.22-.34a48.32,48.32,0,0,1-3.68-6.49l-.51-1.1H96.69ZM62.81,78.56a9.34,9.34,0,1,1,18.68,0,9.66,9.66,0,0,1-.38,2.52l-.16.55H63.35l-.16-.55a9.31,9.31,0,0,1-.38-2.51ZM100,84.38l-.19.92A47.11,47.11,0,0,1,98,91.8l-.71-.26v.77H5.77l-.18-.51a47.11,47.11,0,0,1-1.82-6.5l-.19-.92Z"/></svg>