<svg id="Layer_1" data-name="Layer 1" xmlns="http://www.w3.org/2000/svg" viewBox="0 0 130.64 130.64"><defs><style>.cls-1{fill:none;}</style></defs><rect class="cls-1" x="85.91" y="88.11" width="7.28" height="24.9" rx="1.44"/><rect class="cls-1" x="55.07" y="88.11" width="7.28" height="24.9" rx="1.44"/><path class="cls-1" d="M74.13,39.65A32.31,32.31,0,0,0,41.86,71.93v1.43H47.7a1.43,1.43,0,0,0,1.43-1.44,25,25,0,0,1,50,0h0a1.43,1.43,0,0,0,1.44,1.44h5.84V71.93A32.32,32.32,0,0,0,74.13,39.65Z"/><path class="cls-1" d="M14.66,4.4A10.26,10.26,0,0,0,4.41,14.65V24.9H24.9V14.65A10.26,10.26,0,0,0,14.66,4.4Z"/><path class="cls-1" d="M4.41,30.84V54.3a10.25,10.25,0,1,0,20.49,0V30.84Zm8.81,26.43H7.28V51.33h5.94Zm0-8.81H7.28V42.52h5.94Zm0-8.81H7.28V33.71h5.94ZM22,57.27H16.09V51.33H22Zm0-8.81H16.09V42.52H22Zm0-8.81H16.09V33.71H22Z"/><rect class="cls-1" x="44.06" y="22.03" width="5.08" height="2.87"/><path d="M130.64,20.49V17.62H43.29a3.66,3.66,0,0,0-3.64,3.64V22H29.31V14.65A14.66,14.66,0,0,0,0,14.65V54.3a14.66,14.66,0,1,0,29.31,0V24.9H39.65v.76a3.67,3.67,0,0,0,3.64,3.65h87.35V26.43H53.54V20.49ZM26.44,54.3a11.79,11.79,0,0,1-23.57,0v-25H26.44Zm0-27.87H2.87V14.65a11.79,11.79,0,0,1,23.57,0Zm24.23,0H42.53V20.49h8.14Z"/><rect x="8.81" y="52.87" width="2.87" height="2.87"/><rect x="17.62" y="52.87" width="2.87" height="2.87"/><rect x="8.81" y="44.06" width="2.87" height="2.87"/><rect x="17.62" y="44.06" width="2.87" height="2.87"/><rect x="8.81" y="35.24" width="2.87" height="2.87"/><rect x="17.62" y="35.24" width="2.87" height="2.87"/><path d="M124.8,35.24A5.88,5.88,0,0,0,119,41.09v83.7a3,3,0,0,1-3,3H94a3,3,0,0,1-3-3v-7.37h.76a5.87,5.87,0,0,0,5.85-5.84V102h3a5.87,5.87,0,0,0,5.84-5.84V77.77h.76a3.65,3.65,0,0,0,3.64-3.64v-2.2a36.68,36.68,0,1,0-73.36,0v2.2a3.66,3.66,0,0,0,3.64,3.64h.77V96.16A5.86,5.86,0,0,0,47.7,102h3v9.58a5.86,5.86,0,0,0,5.84,5.84h4.4a5.87,5.87,0,0,0,5.85-5.84v-22a5.86,5.86,0,0,0-5.85-5.84h-4.4a5.85,5.85,0,0,0-5.84,5.84v9.58h-3a3,3,0,0,1-3-3V77.77h3a5.87,5.87,0,0,0,5.84-5.85,20.59,20.59,0,1,1,41.18,0,5.87,5.87,0,0,0,5.85,5.84h3V96.16a3,3,0,0,1-3,3h-3V89.55a5.86,5.86,0,0,0-5.85-5.84h-4.4a5.85,5.85,0,0,0-5.84,5.84v22a5.86,5.86,0,0,0,5.84,5.84h.77v7.37A5.86,5.86,0,0,0,94,130.64h22a5.87,5.87,0,0,0,5.84-5.85V41.09a3,3,0,0,1,3-3h5.84V35.24ZM53.54,89.55a3,3,0,0,1,3-3h4.4a3,3,0,0,1,3,3v22a3,3,0,0,1-3,3H56.51a3,3,0,0,1-3-3Zm47-14.66a3,3,0,0,1-3-3,23.47,23.47,0,1,0-46.93,0,3,3,0,0,1-3,3H40.32v-3a33.81,33.81,0,0,1,67.62,0v3ZM87.35,114.55a3,3,0,0,1-3-3v-22a3,3,0,0,1,3-3h4.4a3,3,0,0,1,3,3v22a3,3,0,0,1-3,3Z"/></svg>