<svg id="Layer_1" data-name="Layer 1" xmlns="http://www.w3.org/2000/svg" viewBox="0 0 96.77 96.6"><defs><style>.cls-1{fill:none;}.cls-2{fill:#010101;}</style></defs><path class="cls-1" d="M17.75,44.28a3.9,3.9,0,0,1-5.44,1l-2.94-2L7.18,45.45l2,2.94a3.57,3.57,0,0,1,.6,1.4,3.89,3.89,0,0,1-3,4.63l-3.54.75V58l3.54.74a3.93,3.93,0,0,1,3,3.13,3.88,3.88,0,0,1-.63,2.92l-2,2.93,2.19,2.19,2.94-2a3.91,3.91,0,0,1,6,2.42l.75,3.54h2.8l.74-3.55a3.86,3.86,0,0,1,.61-1.41,3.9,3.9,0,0,1,2.51-1.63,3.86,3.86,0,0,1,2.93.63l2.93,2,2.81-2.8a7.27,7.27,0,0,0-2.87-3.44c-.77-.5-1.52-1-2.24-1.59A10.42,10.42,0,1,1,18.43,46.36c-.23-.73-.42-1.47-.59-2.22Z"/><path class="cls-1" d="M69.32,18.59a9.11,9.11,0,1,0,9.11,9.11A9.12,9.12,0,0,0,69.32,18.59Z"/><path class="cls-1" d="M89.14,27.91A5.54,5.54,0,0,1,86.6,18l3.29-2.46-3.12-4.16-3.28,2.46a5.54,5.54,0,0,1-8.81-5.21l.58-4.07-5.14-.73-.59,4.07a5.55,5.55,0,0,1-6.26,4.7,5.52,5.52,0,0,1-3.65-2.16L57.15,7.14,53,10.25l2.48,3.3a5.54,5.54,0,0,1-5.22,8.8l-4.07-.58-.73,5.15,4.07.58a5.54,5.54,0,0,1,2.54,9.91l-3.29,2.47L51.89,44l3.29-2.47A5.54,5.54,0,0,1,64,46.79l-.58,4.07,5.14.73.57-4.07A5.54,5.54,0,0,1,79,45l2.47,3.28,4.15-3.11-2.46-3.29a5.54,5.54,0,0,1,5.21-8.81l4.07.58.74-5.14ZM69.32,41.38a13.68,13.68,0,0,1,0-27.36h0a13.68,13.68,0,0,1,0,27.36Z"/><path class="cls-1" d="M18.51,62.06a5.83,5.83,0,0,0,7.32-3.15,31.31,31.31,0,0,1-5.68-8.18,5.84,5.84,0,0,0-1.64,11.33Z"/><path class="cls-1" d="M45.34,93.35h6.51a2.61,2.61,0,0,0,2.6-2.6v-1H42.74v1A2.61,2.61,0,0,0,45.34,93.35Z"/><rect class="cls-1" x="42.74" y="83.27" width="11.71" height="1.94"/><path class="cls-2" d="M95.94,25.59l-6.34-.9a2.28,2.28,0,0,1-1-4.09l5.12-3.84a1,1,0,0,0,.2-1.36L88,7.59a1,1,0,0,0-1.36-.2l-5.12,3.84a2.29,2.29,0,0,1-3.2-.44,2.38,2.38,0,0,1-.44-1.71l.91-6.33A1,1,0,0,0,78,1.65L68.31.27a1,1,0,0,0-1.1.82l-.9,6.33a2.28,2.28,0,0,1-.89,1.51,2.29,2.29,0,0,1-3.2-.46L58.38,3.35A1,1,0,0,0,57,3.16L51.93,7l-.26,0a30.89,30.89,0,0,0-6.52,0A30.42,30.42,0,0,0,18.47,34.1c0,.36,0,.72-.07,1.08l0,.89H17.24a1,1,0,0,0-.94.77L15,43.16,9.65,39.49a1,1,0,0,0-1.24.12L3.53,44.49a1,1,0,0,0-.11,1.24L7.07,51,.75,52.36a1,1,0,0,0-.75,1v6.51a1,1,0,0,0,.77,1L7.08,62.1,3.43,67.41a1,1,0,0,0,.11,1.24l4.89,4.88a1,1,0,0,0,1.23.11L15,70,16.3,76.3a1,1,0,0,0,.95.78h6.51a1,1,0,0,0,.95-.77L26,70l5.31,3.65a1,1,0,0,0,1.23-.11l3.65-3.66V76.1a5.84,5.84,0,0,0,2.93,5l.33.19v9.43a5.86,5.86,0,0,0,5.85,5.85h6.51a5.86,5.86,0,0,0,5.85-5.85V81.32l.33-.19a5.84,5.84,0,0,0,2.93-5V69.66A8.6,8.6,0,0,1,65,62.46,30.53,30.53,0,0,0,68.28,60L67,58.58a28.5,28.5,0,0,1-3,2.25A10.51,10.51,0,0,0,59,69.66V76.1A3.92,3.92,0,0,1,55.11,80h-13a3.92,3.92,0,0,1-3.92-3.91V69.52a10.24,10.24,0,0,0-4.85-8.63A28.24,28.24,0,0,1,48.24,8.74h1l-.39.92s0,0,0,.06a1,1,0,0,0,.19.67l3.84,5.12a2.29,2.29,0,0,1-2.15,3.63l-6.33-.9a1,1,0,0,0-1.1.78l0,.15L41.9,28.72a1,1,0,0,0,.82,1.1l6.33.9a2.28,2.28,0,0,1,1.05,4.09L45,38.65A1,1,0,0,0,44.79,40l5.86,7.81A1,1,0,0,0,52,48l5.11-3.83a2.31,2.31,0,0,1,1.7-.44,2.27,2.27,0,0,1,1.5.9,2.25,2.25,0,0,1,.44,1.68l-.91,6.34a1,1,0,0,0,.82,1.1l9.67,1.38h.14a1,1,0,0,0,1-.84l.9-6.33a2.28,2.28,0,0,1,4.09-1l3.84,5.12a1,1,0,0,0,1.36.19l7.81-5.86a1,1,0,0,0,.2-1.35L85.8,39.91a2.27,2.27,0,0,1-.13-2.54A2.24,2.24,0,0,1,88,36.28l6.32.9a1,1,0,0,0,1.1-.82l1.38-9.67A1,1,0,0,0,95.94,25.59ZM41.43,82H55.76v4.57H41.43Zm0,6.51H55.76v2.29a3.92,3.92,0,0,1-3.91,3.91H45.34a3.92,3.92,0,0,1-3.91-3.91ZM20.92,49.4l.24.38a30.07,30.07,0,0,0,5.91,8.52l.29.29-.14.39A7.16,7.16,0,1,1,20.5,49.4Zm-.76-1.95-.8.09a9.11,9.11,0,1,0,9.18,13.21l.38-.72.62.51a31.19,31.19,0,0,0,2.73,2A8.6,8.6,0,0,1,35.81,67l.13.39-4.16,4.16L28,68.94a2.6,2.6,0,0,0-3.62.66,2.7,2.7,0,0,0-.4.94l-1,4.59H18l-1-4.58A2.57,2.57,0,0,0,16,68.91a2.61,2.61,0,0,0-2-.37,2.7,2.7,0,0,0-.94.4L9.22,71.58,5.48,67.85,8.12,64a2.6,2.6,0,0,0-.66-3.62,2.7,2.7,0,0,0-.94-.4L1.94,59V54.1l4.58-1a2.6,2.6,0,0,0,2-3.08,2.58,2.58,0,0,0-.4-.93L5.48,45.29l3.74-3.73,3.83,2.64a2.61,2.61,0,0,0,3.62-.67,2.62,2.62,0,0,0,.4-.94l1.06-5,.52,3.73a30.25,30.25,0,0,0,1.26,5.4ZM93.59,35.12l-5.37-.77a4.21,4.21,0,0,0-4.78,3.59,4.18,4.18,0,0,0,.8,3.13l3.25,4.34L81.23,50.1,78,45.77a4.23,4.23,0,0,0-7.57,1.93l-.75,5.38L61.92,52l.76-5.37a4.23,4.23,0,0,0-6.72-4l-4.33,3.26-4.7-6.26,4.34-3.26a4.21,4.21,0,0,0,.84-5.91,4.15,4.15,0,0,0-2.78-1.65L44,28l1.11-7.74,5.37.76a4.22,4.22,0,0,0,4-6.71L51.15,10,57.41,5.3l3.26,4.34a4.24,4.24,0,0,0,5.92.84A4.17,4.17,0,0,0,68.23,7.7L69,2.33l7.74,1.11L76,8.81a4.18,4.18,0,0,0,.8,3.13,4.22,4.22,0,0,0,5.92.84L87,9.53l4.69,6.26L87.39,19A4.24,4.24,0,0,0,86.55,25a4.18,4.18,0,0,0,2.78,1.65l5.37.77Z"/><path class="cls-2" d="M69.32,15.34A12.37,12.37,0,1,0,81.69,27.7,12.37,12.37,0,0,0,69.32,15.34Zm0,22.78h0A10.42,10.42,0,1,1,79.75,27.7,10.43,10.43,0,0,1,69.32,38.12Z"/><rect class="cls-2" x="47.63" y="71.87" width="1.94" height="3.57"/><path class="cls-2" d="M41.24,55.85h0a20.19,20.19,0,0,1-4-35.53l-1-1.65a22.14,22.14,0,0,0-6.38,30.16,22.32,22.32,0,0,0,10.67,8.82,11.12,11.12,0,0,1,7.08,9.66h1.94A13,13,0,0,0,41.24,55.85Z"/><rect class="cls-2" x="80.18" y="60.48" width="10.08" height="1.94"/><rect class="cls-2" x="81.8" y="67.96" width="1.94" height="11.4" transform="translate(-26.8 90.11) rotate(-50.2)"/><rect class="cls-2" x="70.41" y="73.5" width="1.94" height="10.08"/><rect class="cls-2" x="1.85" y="26.3" width="12.11" height="1.94" transform="translate(-6.38 2.73) rotate(-14.03)"/><rect class="cls-2" x="9.38" y="7.1" width="1.94" height="12.69" transform="translate(-6.6 14.05) rotate(-54.46)"/><rect class="cls-2" x="19.92" y="0.05" width="1.94" height="12.12" transform="translate(-0.86 5.36) rotate(-14.34)"/></svg>