<svg id="Layer_1" data-name="Layer 1" xmlns="http://www.w3.org/2000/svg" viewBox="0 0 90.9 90.91"><defs><style>.cls-1{fill:none;}</style></defs><path class="cls-1" d="M60.31,7.22a1.09,1.09,0,1,0-1.09,1.09A1.09,1.09,0,0,0,60.31,7.22Z"/><path class="cls-1" d="M75.61,22.52a1.1,1.1,0,1,0-1.1,1.09A1.1,1.1,0,0,0,75.61,22.52Z"/><path class="cls-1" d="M59.22,84.79a1.09,1.09,0,1,0-1.09-1.09A1.09,1.09,0,0,0,59.22,84.79Z"/><path class="cls-1" d="M74.51,69.5a1.1,1.1,0,1,0-1.09-1.09A1.09,1.09,0,0,0,74.51,69.5Z"/><path class="cls-1" d="M86.75,44.37a1.09,1.09,0,1,0,1.09,1.09A1.09,1.09,0,0,0,86.75,44.37Z"/><path class="cls-1" d="M43.48,66.34V24.58a21,21,0,0,0,0,41.76Z"/><path class="cls-1" d="M14.4,45.47a31,31,0,0,1,29.05-31l0-11.38c-.67,0-1.32.08-2,.15a.77.77,0,0,0-.61.66l-1,5.91a2,2,0,0,1-1.54,1.61,34,34,0,0,0-11.95,5,2,2,0,0,1-2.23,0l-4.87-3.49a.8.8,0,0,0-1,0c-1,.82-2,1.7-2.88,2.63a33.48,33.48,0,0,0-2.66,2.93.77.77,0,0,0,0,.9l3.5,4.88a2,2,0,0,1,0,2.23,34.08,34.08,0,0,0-5,12,2,2,0,0,1-1.61,1.55l-5.89,1a.77.77,0,0,0-.66.65,35.69,35.69,0,0,0,0,7.8.81.81,0,0,0,.66.71l5.89,1a2,2,0,0,1,1.61,1.54,34,34,0,0,0,5,12,2,2,0,0,1,0,2.23l-3.49,4.87a.83.83,0,0,0,0,1,37.26,37.26,0,0,0,2.62,2.87c.88.88,1.85,1.76,2.95,2.69a.79.79,0,0,0,.88,0l4.88-3.51a2,2,0,0,1,1.15-.36,2,2,0,0,1,1.08.32,34.09,34.09,0,0,0,11.95,5,2,2,0,0,1,1.54,1.61l1,5.89a.77.77,0,0,0,.64.66c.65.07,1.3.13,1.94.16l0-11.38A31,31,0,0,1,14.4,45.47Z"/><path d="M44,17.5a2.63,2.63,0,0,0,2.53-2.62V2.63A2.6,2.6,0,0,0,45.73.74,2.54,2.54,0,0,0,43.8,0c-.87,0-1.73.1-2.66.19a3.84,3.84,0,0,0-3.28,3.22L37,8.57l-.28.07a37,37,0,0,0-11.11,4.61l-.25.16-4.26-3.05a3.87,3.87,0,0,0-4.64.07,38.56,38.56,0,0,0-3.14,2.86,36.69,36.69,0,0,0-2.91,3.19,3.87,3.87,0,0,0-.06,4.61l3.06,4.27-.15.25A36.88,36.88,0,0,0,8.66,36.73L8.59,37l-5.16.85a3.86,3.86,0,0,0-3.2,3.32,39.5,39.5,0,0,0,0,8.49,3.87,3.87,0,0,0,3.21,3.38l5.16.85.07.28a36.94,36.94,0,0,0,4.61,11.13l.16.24-3,4.24a3.87,3.87,0,0,0,.06,4.66,38.78,38.78,0,0,0,2.87,3.16c.93.93,2,1.88,3.19,2.91a3.86,3.86,0,0,0,4.59,0l4.26-3.06.25.16a37.19,37.19,0,0,0,11.11,4.61l.29.07.85,5.16a3.87,3.87,0,0,0,3.31,3.21c.87.09,1.75.16,2.61.2h.12a2.75,2.75,0,0,0,1.84-.74,2.61,2.61,0,0,0,.8-1.88V76A2.64,2.64,0,0,0,44,73.41,28,28,0,0,1,44,17.5Zm-28.74,28A30.15,30.15,0,0,0,43.94,75.59l.42,0,0,13.13-.45,0c-.81,0-1.64-.09-2.47-.19A1.64,1.64,0,0,1,40,87.14l-1-5.89a1.11,1.11,0,0,0-.86-.89,35,35,0,0,1-12.26-5.09,1.1,1.1,0,0,0-1.24,0l-4.86,3.5a1.64,1.64,0,0,1-1.93,0c-1.16-1-2.14-1.87-3-2.76s-1.85-1.93-2.7-2.95a1.71,1.71,0,0,1,0-2l3.48-4.86a1.12,1.12,0,0,0,0-1.24,34.7,34.7,0,0,1-5.09-12.26,1.1,1.1,0,0,0-.89-.86l-5.89-1a1.7,1.7,0,0,1-1.4-1.48,37,37,0,0,1,0-8A1.65,1.65,0,0,1,3.8,40l5.87-1a1.08,1.08,0,0,0,.9-.86,34.7,34.7,0,0,1,5.09-12.26,1.12,1.12,0,0,0,0-1.24l-3.49-4.87a1.67,1.67,0,0,1,0-2,37.48,37.48,0,0,1,2.74-3c.94-.94,1.93-1.85,2.95-2.69a1.68,1.68,0,0,1,2,0l4.85,3.48a1.12,1.12,0,0,0,1.24,0,34.91,34.91,0,0,1,12.26-5.1,1.1,1.1,0,0,0,.86-.89l1-5.89a1.63,1.63,0,0,1,1.36-1.4c.86-.09,1.68-.15,2.53-.18l.46,0,0,13.13-.42,0A30.15,30.15,0,0,0,15.27,45.47Z"/><path d="M90.87,45a4.14,4.14,0,0,0-8-.9l-.1.29H46.54V38.9H71.45a4.15,4.15,0,0,0,4.15-4.15V26.51l.29-.1a4.15,4.15,0,1,0-2.76,0l.29.1v8.24a2,2,0,0,1-2,2H46.54V31.25H63.8a1.09,1.09,0,1,0,0-2.18H46.54V25.13h9.61A4.16,4.16,0,0,0,60.31,21V11.21l.29-.1a4.15,4.15,0,1,0-2.77,0l.29.1V21a2,2,0,0,1-2,2H46.31l-.12-.23a2.4,2.4,0,0,0-2.27-1.25,24,24,0,0,0,0,48h.17a2.37,2.37,0,0,0,2.1-1.25l.12-.23h9.84a2,2,0,0,1,2,2V79.7l-.29.1a4.15,4.15,0,1,0,2.77,0l-.29-.1V69.93a4.16,4.16,0,0,0-4.16-4.15H46.54V61.84H63.8a1.09,1.09,0,0,0,0-2.18H46.54V54.2H71.45a2,2,0,0,1,2,2V64.4l-.29.11a4.15,4.15,0,1,0,2.76,0l-.29-.11V56.16A4.16,4.16,0,0,0,71.45,52H46.54V46.55H82.75l.1.29a4.14,4.14,0,0,0,8-1.87ZM72.54,22.51a2,2,0,1,1,2,2A2,2,0,0,1,72.54,22.51ZM57.25,7.21a2,2,0,1,1,2,2A2,2,0,0,1,57.25,7.21ZM44.35,67.29l-.47,0a21.86,21.86,0,0,1,0-43.59l.47,0ZM59.21,81.73a2,2,0,1,1-2,2A2,2,0,0,1,59.21,81.73Zm15.3-15.3a2,2,0,1,1-2,2A2,2,0,0,1,74.51,66.43Zm12.24-19a2,2,0,1,1,2-2A2,2,0,0,1,86.75,47.42Z"/></svg>