<svg id="Layer_1" data-name="Layer 1" xmlns="http://www.w3.org/2000/svg" viewBox="0 0 116.02 115.76"><defs><style>.cls-1{fill:none;}.cls-2{fill:#010101;}</style></defs><path class="cls-1" d="M80.89,95.71l6.82-5.11-1.51.46a18.65,18.65,0,0,1-10.94,0l-1.51-.46,7,5.23Z"/><path class="cls-1" d="M7,28.94a16.6,16.6,0,0,0,1.09,2.6l.41.79L6.25,36.26,11,41l.17-.1,3.76-2.18.79.41a18.09,18.09,0,0,0,2.61,1.1l.84.27,1.17,4.37h6.63l1.18-4.37.83-.27a19.07,19.07,0,0,0,2.62-1.1l.78-.41L36.26,41l.14-.14L41,36.26l-.11-.17-2.16-3.75.39-.79a16.73,16.73,0,0,0,1.1-2.61l.27-.85,4.38-1.17V20.29l-4.38-1.17-.27-.84a17.65,17.65,0,0,0-1.09-2.62l-.4-.79L41,10.94l-4.7-4.69L32.33,8.52l-.78-.4A18,18,0,0,0,28.93,7l-.83-.28L26.92,2.38H20.28L19.12,6.76,18.27,7a16.58,16.58,0,0,0-2.6,1.09l-.8.4L11,6.25l-4.7,4.69,2.28,3.93-.41.79A18.45,18.45,0,0,0,7,18.27l-.27.85L2.39,20.29v6.63l4.37,1.17ZM23.61,11.43A12.19,12.19,0,0,1,34,29.91L32.81,29a10.68,10.68,0,1,0-3.65,3.71l.92,1.2a12.06,12.06,0,0,1-6.47,1.86,12.18,12.18,0,1,1,0-24.35Z"/><polygon class="cls-1" points="101.03 72.48 101.04 72.48 101.03 72.47 101.03 72.48"/><path class="cls-1" d="M72.35,61.31h0c-.38.18-.73.34-1.07.48l0,0-.38.15-.3.12h0l-.39.14-.63.2-.11,0-.1,0h0c-.51.14-1,.27-1.66.39h-.06l-.23,0h-.07c-.64.12-1.21.2-1.75.25h0l-.22,0h0v9.86c0,.53,0,1.06.08,1.59h0c0,.16,0,.31.08.47l0,.26h0l0,.26h0a4.51,4.51,0,0,0,.08.53l.06.23.05.2q.15.6.33,1.17l.15.44c.08.22.16.45.25.67l.23.54.24.49c.1.21.2.42.31.62a2.54,2.54,0,0,1,.16.28,3.21,3.21,0,0,1,.19.31l.26.42c.08.13.18.26.27.39l.12.17.4.54.22.26.3.35c.17.2.35.39.53.58h0c.14.15.29.29.44.43l.36.33.26.24c.16.14.33.27.5.4l.09.07.56.42c.18.13.37.25.56.37h0a7.23,7.23,0,0,0,.66.4c.19.11.38.22.58.32l0,0c.22.11.45.23.69.33l.56.24.13.05.68.25.5.16.25.08.78.2.7.14.73.11.76.08c.34,0,.69,0,1,.06h.23a15.52,15.52,0,0,0,15.5-15.5v-9.8h-2.5c-.24,0-.47,0-.71,0h-.22c-.44,0-.88-.05-1.32-.1h0l-.37-.06L90.53,63c-.4-.07-.81-.15-1.21-.24l-.6-.14c-.42-.11-.83-.24-1.24-.37L87,62.1c-.57-.21-1.13-.43-1.69-.69h0l0,0L85,61.26l-.15-.07h0l-.12-.06-.5-.25-.17-.1c-.31-.17-.61-.34-.88-.51h0c-.28-.18-.58-.38-.89-.6L82,59.47l-.11-.09-.28-.21h0l-.67-.52-.34-.3c-.22-.19-.45-.39-.66-.59s-.25-.25-.37-.37l-.48-.48a1.29,1.29,0,0,0-.16-.17l-.19-.22h0l-.07.07h0l-.13.13h0l-.54.54-.2.2-.64.61a1.07,1.07,0,0,1-.16.14c-.24.22-.49.43-.73.63h0l0,0-.11.09h0l0,0h0c-.24.2-.49.39-.74.57l-.28.18-.18.12h0c-.29.2-.58.39-.88.57h0l0,0h0l-.18.11-.26.17L73,61l-.23.12h0l-.13.07-.23.12-.07,0Z"/><path class="cls-1" d="M100.37,72.49l.09-.06h0a3.47,3.47,0,0,0,.26-.24l.31.29h0l-.29-.3a4,4,0,0,0-.82-6.39l-.43-.25v7.53l.42-.24A5,5,0,0,0,100.37,72.49Z"/><path class="cls-1" d="M93.35,40.45l0,0L92.82,40l-.13-.11h0a19.3,19.3,0,0,0-2.56-2c-.26-.17-.53-.32-.8-.47l-.07,0h0l-.15-.08-.75-.41-.81-.39-.23-.11-.66-.25c-.35-.13-.7-.27-1.06-.39l-.44-.13-.27-.08c-.39-.1-.77-.21-1.16-.3l-.42-.09a20.54,20.54,0,0,0-3.74-.38l-.74,0-1,.05c-.45,0-.89.1-1.34.17l-.19,0-.26,0c-.52.1-1,.21-1.56.34l-.15,0c-.58.15-1.14.34-1.69.53L72,36.2a20,20,0,0,0-1.93.89l-.14.08-.22.12-.07,0h0l0,0c-.39.22-.76.44-1.11.67h0l0,0h0l-.24.16h0l-.06.05c-.42.29-.83.59-1.22.91l0,0-.34.29c-.39.32-.76.66-1.11,1h0l-.07.07-.13-.1.08.11,0,0,0,0,0,0L65,40.3l.26.35h0l0,.05,0,0h0c-.36.36-.7.74-1,1.14h0l-.24.3-.06.08h0l-.16.19c-.09.1-.17.21-.25.31l-.2.29-.14.21,0,0h0l-.06.09-.25.36,0,0c-.23.34-.44.7-.65,1.06l0,.07h0l-.1.16-.12.21h0v0c-.28.52-.54,1.05-.76,1.57v0h0l0,.11-.1.28c-.17.41-.33.83-.47,1.26v.06l-.09.31-.07.26q-.16.57-.3,1.14h0v.07c0,.18-.08.35-.11.53h0l0,.06c-.07.41-.14.83-.19,1.25h0v.13l0,.4h0a.11.11,0,0,0,0,0c-.06.68-.09,1.29-.09,1.87v8.57l.42-.25a6.84,6.84,0,0,1,1.18-.54h0l.07,0h0l.32-.11h0l.24-.08h0l.21-.06V60.06H63.6a17.18,17.18,0,0,0,4.15-.53h0l.7-.2.62-.19.54-.21.66-.26.54-.26.61-.29c.38-.2.75-.41,1.11-.64a18.41,18.41,0,0,0,1.53-1.09c.13-.1.25-.23.38-.34.34-.29.69-.58,1-.89L79,51.64h0l.05,0,.28.37.29.29,0,0,.79,1.06a16.59,16.59,0,0,0,2,2.23l.32.29a1.54,1.54,0,0,1,.19.17h0a17.58,17.58,0,0,0,1.74,1.27h0c.38.25.78.48,1.17.69l.19.1c.4.21.8.4,1.21.57l.39.17c.38.15.77.29,1.16.42l.2.06h0c.46.14.93.25,1.4.35l.38.07c.36.07.71.13,1.07.17l.45.05c.41,0,.82.06,1.23.06h6v2.11l.22.06h0l.22.07.11,0h0l.33.11.11.05h0l.09,0,.2.07.19.1a3.13,3.13,0,0,1,.41.2l.1,0,0,0h0l.37.21h0l0,0V50.5a7.26,7.26,0,0,0-.06-.93,2.36,2.36,0,0,0,0-.28c0-.2-.07-.41-.11-.6a4.05,4.05,0,0,0-.12-.47c0-.15-.09-.29-.13-.44s-.14-.36-.22-.54l-.12-.28c-.11-.23-.22-.45-.35-.67l-.06-.11c-.16-.25-.32-.5-.51-.75h0a10.21,10.21,0,0,0-.86-1l0,0a8.17,8.17,0,0,0-1-.81c-.21-.14-.42-.28-.64-.41a7.68,7.68,0,0,0-1.41-.64,5.94,5.94,0,0,0-.75-.23l-.32-.08h0l-.12,0Z"/><polygon class="cls-1" points="65.45 40.5 65.45 40.5 65.45 40.5 65.45 40.5"/><path class="cls-1" d="M60.22,71.57a4.27,4.27,0,0,0,.8.89h0l0,0a3.51,3.51,0,0,0,.4.27l0,0h0l.49.29V65.54l-.42.25a4.09,4.09,0,0,0-2,3.52,3.54,3.54,0,0,0,0,.46,4.56,4.56,0,0,0,.25,1l0,.08A3.8,3.8,0,0,0,60.22,71.57Z"/><polygon class="cls-1" points="87.64 102.48 87.66 102.42 87.66 102.42 90.39 94.21 90.35 94.2 90.36 94.18 90.09 94.13 90.09 94.13 88.88 93.91 88.88 93.91 88.76 93.89 87.62 94.74 87.62 94.74 87.16 95.09 87.16 95.09 87.15 95.09 83.46 97.86 83.46 97.86 83.45 97.86 83.46 97.86 83.4 97.91 83.4 97.9 83.21 98.05 83.43 98.27 83.43 98.27 83.43 98.28 83.44 98.27 85.18 100.02 85.18 100.02 87.62 102.46 87.64 102.48"/><polygon class="cls-1" points="102.12 96.32 102.12 96.32 102.12 96.32 102.12 96.32"/><path class="cls-1" d="M88.55,108l-1.63-1.64h0l-4.6-4.6-1.58-1.59-2.63,2.63h0l-.18.18h0l-5.52,5.52-.23-.67h0l-.49-1.47h0L67.9,95h0l-.07-.22-.24,0h0l-8.25,1.5a9.74,9.74,0,0,0-7.62,6.83h0l-.89,2.95h0l-2.19,7.28h64.18l-1.39-4.64-.23-.78h0l-.5-1.69-1-3.23h0l0-.12a9.56,9.56,0,0,0-.35-.94v0h0s0-.1-.07-.14a1.86,1.86,0,0,1-.1-.2l-.08-.15h0l0,0v0l0-.07h0c-.08-.15-.15-.29-.24-.43l0,0c-.09-.16-.2-.3-.31-.46h0l0,0h0c-.12-.17-.24-.34-.37-.5h0c0-.07-.11-.12-.16-.19l-.24-.27h0l-.39-.42-.17-.16h0l0,0h0l-.14-.13,0,0A9.1,9.1,0,0,0,106,98l-.08-.06,0,0-.13-.1c-.32-.2-.65-.4-1-.57l-.2-.09a9,9,0,0,0-1.09-.45h0l-.16-.05h-.06a10.12,10.12,0,0,0-1-.27l-.06,0h0l-8.48-1.54-.08.22h0l-1.48,4.46h0l-3,9-.52-.42h0Z"/><polygon class="cls-1" points="72.6 93.91 72.59 93.91 71.37 94.13 71.37 94.13 71.37 94.13 71.06 94.19 71.1 94.28 71.09 94.29 71.16 94.48 73.83 102.48 76.14 100.16 76.14 100.16 77.94 98.36 78.25 98.05 78.2 98.01 78.2 98 76.92 97.05 76.92 97.05 76.92 97.05 72.8 93.96 72.8 93.96 72.8 93.96 72.8 93.95 72.71 93.89 72.6 93.91 72.6 93.91"/><path class="cls-2" d="M75.51,90.22a17.86,17.86,0,0,0,10.44,0l3.15-1v-.35l.58-.34a17.89,17.89,0,0,0,8.61-12l.14-.76.75-.15a6.49,6.49,0,0,0,5.16-6.33V50.5a10.78,10.78,0,0,0-7.72-10.36L96.28,40l-.13-.12-1-1A22.3,22.3,0,0,0,57.13,54.67V69.31a6.48,6.48,0,0,0,5.15,6.33l.75.15.15.76a17.85,17.85,0,0,0,8.61,12l.57.34v.35ZM101.35,72.8l-.3-.31.29.33-.27.25h0a5.13,5.13,0,0,1-.67.49h0l-1.08.63v0l-.16.09-.49.06V64l1.74,1a4.89,4.89,0,0,1,1,7.77ZM62.84,74.54l-.63-.32h0L62,74.12l-.91-.54a.18.18,0,0,1-.07,0h0c-.19-.13-.36-.24-.52-.37a4.93,4.93,0,0,1-1-1.09h0A5.07,5.07,0,0,1,58.68,70l0-.12a5.25,5.25,0,0,1,0-.56A5,5,0,0,1,61.11,65l1.73-1Zm0-13.6v1.91l-.86.23-.18.06h0l-.06,0h0l-.11,0-.18.07a5.53,5.53,0,0,0-1.05.48l-1.74,1V54.67a19.4,19.4,0,0,1,.1-1.94h0v0h0l0-.11,0-.26,0-.19c.06-.44.12-.87.2-1.3h0c0-.23.09-.46.15-.69q.14-.6.3-1.2l0-.16c0-.16.09-.32.15-.49.14-.45.31-.88.48-1.32h0l.07-.17a2.77,2.77,0,0,1,.1-.26,17.37,17.37,0,0,1,.79-1.63h0l.18-.31.1-.18c.22-.37.44-.74.68-1.1a4,4,0,0,1,.23-.34l.07-.11h0l0-.05.15-.23c.08-.11.15-.22.23-.32a4.29,4.29,0,0,1,.28-.35l.22-.28.24-.3c.35-.41.71-.8,1.08-1.19l0,0,.09-.09h0l.07-.07c.28-.28.55-.52.82-.76l.09-.08.23-.2,0,0h0l.09-.07.26-.22h0l0,0,.5-.39,0,0,.74-.53.48-.31c.15-.1.3-.21.46-.3l.34-.2.3-.16.08,0,.09-.05.16-.09.1-.06.81-.4.72-.33a16.57,16.57,0,0,1,1.63-.6c.35-.12.7-.22,1.06-.31l.21-.06h0l.18,0c.32-.08.63-.18,1-.25s.51-.07.76-.11.67-.11,1-.15.41,0,.61-.06a17.5,17.5,0,0,1,1.77-.1c.71,0,1.43,0,2.14.11a19.92,19.92,0,0,1,2,.32h.05l.17,0c.47.1.94.24,1.4.38l.5.13a19.93,19.93,0,0,1,2,.73c.36.15.73.33,1.12.54.12.06.25.11.37.18a3.14,3.14,0,0,1,.31.18c.38.21.76.43,1.13.66h0a21.13,21.13,0,0,1,2.68,2.05l.2.18,0,0,.44.41.17.15,1.45,1.45.2,0a9.53,9.53,0,0,1,3.09,1.42h0a8.3,8.3,0,0,1,.8.64,2.09,2.09,0,0,1,.22.2l.06.06,0,0c.15.14.3.29.44.44l.21.24a8.27,8.27,0,0,1,.51.66l.1.14a8.31,8.31,0,0,1,.51.85c.05.09.08.17.12.25s.22.45.31.68.08.2.11.3.16.48.23.73c0,.08,0,.16.07.24a.19.19,0,0,0,0,.08c.05.23.08.45.12.68s0,.2,0,.31c0,.35.06.72.07,1.08h0V64.7h0v0l-1.73-1-.29-.15-.12-.06c-.14-.07-.3-.13-.48-.2l-.11,0-.33-.12-.22-.08L99.23,63l-.61-.16h0V60.94h-5c-.39,0-.78,0-1.16,0h-.11q-.56,0-1.11-.12l-.29,0c-.31-.05-.62-.1-.93-.17l-.27-.07-.67-.16h0l-.29-.09-.13,0L88.13,60l-.33-.12-.11,0-.24-.09-.29-.12-.09,0-.15-.07-.32-.14-.45-.21L85.77,59l-.28-.14,0,0h0c-.44-.23-.86-.48-1.28-.75h0a19.43,19.43,0,0,1-1.83-1.34l-.24-.22-.34-.3,0,0c-.28-.26-.55-.52-.8-.79l-.21-.23L80.54,55c-.28-.31-.56-.65-.88-1.06v0l0,0L79,53h0l0-.06h0l-2.84,2.84,0,0c-.41.4-.84.78-1.28,1.14l-.12.11-.08,0c-.47.37-1,.72-1.46,1l-.06,0h0l-.13.07c-.3.18-.6.36-.91.53l-.28.15c-.3.15-.59.29-.89.42l-.31.14q-.58.25-1.17.45l-.32.1c-.26.08-.52.17-.78.24l-.22.06h0a18.07,18.07,0,0,1-4.37.56ZM71.13,86.4l-.34-.27q-.41-.3-.78-.63l-.39-.35c-.23-.21-.45-.43-.67-.65s-.24-.25-.35-.38-.31-.35-.46-.53L68,83.44l-.08-.1L67.67,83l-.38-.55-.24-.35-.19-.28,0,0c-.15-.24-.29-.5-.43-.75a1.4,1.4,0,0,1-.1-.16c-.22-.42-.43-.84-.61-1.27,0-.12-.1-.23-.14-.34-.15-.36-.28-.71-.4-1.08,0-.11-.07-.21-.1-.32-.14-.46-.26-.92-.36-1.39,0-.09,0-.19,0-.28A11.77,11.77,0,0,1,64.47,75c0-.14,0-.27,0-.41,0-.49-.07-1-.07-1.49V62.46l1-.1c.52,0,1.07-.13,1.7-.24l.34-.07A16.25,16.25,0,0,0,69,61.67c.41-.12.81-.25,1.21-.39s.55-.21.84-.34l.06,0,.83-.39.28-.14.11-.06h0q.57-.3,1.11-.63c.24-.14.45-.28.66-.42l.17-.11h0c.41-.28.81-.56,1.2-.87l.18-.14.1-.08.69-.6c.24-.21.47-.43.68-.64l1.59-1.61.82.91h0l.36.37c.26.27.53.54.82.8l.22.2c.36.31.73.62,1.14.93l0,0c.23.18.44.33.65.48l.85.57c.26.16.54.32.82.47l.62.33.21.1c.32.16.64.29,1,.43l.85.35.76.26c.32.11.65.21,1,.29s.47.13.7.18.73.15,1.09.21l.65.1c.53.07,1.07.13,1.62.15l.22,0c.21,0,.42,0,.64,0h3.37V73.12A16.4,16.4,0,0,1,80.73,89.5h-.32l-.43,0-.74,0-.32,0-.5-.07-.24,0c-.22,0-.44-.07-.66-.12l-.25-.05h0L76.9,89,76.66,89l-.31-.09-.4-.11-.1,0c-.15,0-.29-.1-.43-.15l-.5-.18a4.87,4.87,0,0,1-.53-.21l-.1,0L74,88.06l-.44-.2-.6-.31-.11-.06-.37-.2-.18-.11A13.53,13.53,0,0,1,71.13,86.4Z"/><polygon class="cls-2" points="59.24 52.16 59.24 52.16 59.24 52.16 59.24 52.16"/><path class="cls-2" d="M62.77,43v0h0Z"/><path class="cls-2" d="M65.14,40.19Z"/><polygon class="cls-2" points="89.21 59.89 89.21 59.89 89.21 59.89 89.21 59.89"/><rect class="cls-2" x="78.23" y="56.34" height="0.04"/><polygon class="cls-2" points="78.25 56.34 78.24 56.34 78.24 56.34 78.25 56.34"/><polygon class="cls-2" points="99.06 73.83 99.06 73.83 99.06 73.83 99.06 73.83"/><polygon class="cls-2" points="99.68 62.68 99.69 62.69 99.68 62.68 99.68 62.68"/><path class="cls-2" d="M80,53.64l0,0,0,0Z"/><polygon class="cls-2" points="67.96 37.87 67.96 37.87 67.96 37.87 67.96 37.87"/><path class="cls-2" d="M65.14,40.19Z"/><path class="cls-2" d="M65.05,40.27h0v0h0Z"/><polygon class="cls-2" points="65.04 40.29 65.04 40.29 65.04 40.29 65.04 40.29"/><polygon class="cls-2" points="65.15 40.19 65.15 40.19 65.14 40.19 65.14 40.19 65.15 40.19"/><polygon class="cls-2" points="61.56 62.76 61.56 62.76 61.56 62.76 61.56 62.76"/><polygon class="cls-2" points="62.4 73.83 62.4 73.83 62.4 73.83 62.4 73.83"/><polygon class="cls-2" points="61.23 73.14 61.24 73.14 61.24 73.14 61.23 73.14"/><path class="cls-2" d="M89.1,90.66l-8.36,6.27-8.38-6.27v.87l-.94.17L58.93,94a12.14,12.14,0,0,0-9.49,8.49l-4,13.3H116l-4-13.3A12.16,12.16,0,0,0,102.54,94L89.1,91.53Zm-19,2.82.36-.07h0l.15,0,1.74-.32.13,0h0l.1,0h.08l.32-.06,3.16,2.37,2.43,1.82h0l.2.16h0l.13.09,0,0h0l.71.54-1.84,1.83h0l-3,3h0l-.72.71h0l-.1.1-.5.5h0l-.23-.69-.19-.58-.17-.5h0l-2.58-7.77h0l-.14-.43h0L70.07,94h0v0h0l0-.09ZM94,94l8.24,1.5h0l.07,0h.06c.34.07.69.16,1.07.27h0l.15,0h0l.11,0h0l0,0h0l.09,0a8.71,8.71,0,0,1,1,.4h0l.3.15,0,0,.24.13c.26.14.5.28.73.43h0l.21.15h0l0,0h0l.16.12.29.21h0l.47.38h0l.08.07.19.17.29.29.14.15.07.08h0l0,0h0c.13.14.25.28.37.43a.27.27,0,0,1,.07.08h0v0h0l.35.48h0l.17.24a2.11,2.11,0,0,1,.18.27.16.16,0,0,1,0,.07h0v0a.75.75,0,0,1,.07.12l.12.21.08.16h0l.15.27c.07.14.15.28.21.43s0,0,0,0a10.45,10.45,0,0,1,.42,1.12,1.12,1.12,0,0,1,0,.13l1.23,4.11,1.74,5.78h0l.45,1.48H47.47l0-.1h0l.17-.58,0,0h0l.05-.19h0l2.33-7.74h0l.81-2.7a10.62,10.62,0,0,1,8.31-7.43l9.25-1.68.3.94.16.5,3.89,11.66,4.53-4.5v0l.18-.18h0l2.93-2.93,0,0,0,0,0,0,0,0,.26-.26.32.24,7,7,.28.28.39.39L93,93.78Zm-2.48-.47v0h0l-.2.47-2.78,8.34h0l-.21.63L88,104.1l-.89-.89-.43-.43h0L81.87,98l6.67-5Z"/><polygon class="cls-2" points="80.74 99.55 80.74 99.55 80.74 99.55 80.74 99.55"/><polygon class="cls-2" points="87.36 94.39 87.36 94.39 87.36 94.39 87.36 94.39"/><polygon class="cls-2" points="83.19 97.51 83.19 97.52 83.2 97.51 83.19 97.51"/><polygon class="cls-2" points="102.31 95.92 102.31 95.92 102.31 95.92 102.31 95.92"/><polygon class="cls-2" points="104.73 96.71 104.73 96.71 104.73 96.71 104.73 96.71"/><polygon class="cls-2" points="107.33 98.46 107.33 98.46 107.33 98.46 107.33 98.46"/><polygon class="cls-2" points="109.7 101.78 109.7 101.78 109.7 101.78 109.7 101.78"/><polygon class="cls-2" points="106.24 97.58 106.24 97.58 106.24 97.58 106.24 97.58"/><polygon class="cls-2" points="91.66 99.32 91.66 99.32 91.66 99.32 91.66 99.32"/><polygon class="cls-2" points="88.87 107.69 88.87 107.69 88.87 107.69 88.87 107.69"/><polygon class="cls-2" points="87.98 106.8 87.98 106.8 87.98 106.8 87.98 106.8"/><polygon class="cls-2" points="77.62 102.67 77.62 102.67 77.62 102.67 77.62 102.67"/><rect class="cls-2" x="73.06" y="93.61"/><rect class="cls-2" x="73.06" y="93.61" transform="translate(-44.79 79.08) rotate(-45)"/><rect class="cls-2" x="73.07" y="93.61"/><path class="cls-2" d="M5.1,30.61c.14.39.3.77.46,1.12l.25.55-.29.51L3.27,36.66l7.29,7.27,4.37-2.53.54.24c.37.17.75.33,1.14.49l.55.2,1.29,4.88h10.3l1.3-4.89.55-.21a11.4,11.4,0,0,0,1.12-.47l.55-.24.51.29,3.88,2.24,7.27-7.28L41.4,32.28l.24-.54c.17-.4.34-.76.46-1.12l.22-.56,4.89-1.31V18.46l-4.88-1.3-.21-.55c-.15-.38-.3-.76-.48-1.13l-.25-.54.31-.52,2.23-3.87L36.65,3.28,32.27,5.82l-.53-.25c-.37-.17-.75-.32-1.15-.48l-.52-.21-.16-.56L28.75,0H18.45L17.16,4.87l-.55.23a11.2,11.2,0,0,0-1.13.47l-.55.24-.51-.29L10.56,3.28,3.27,10.55l2.54,4.39-.24.54c-.17.36-.33.74-.47,1.13l-.22.55-.58.15L0,18.46v10.3l4.87,1.29Zm-3.59-11L6.07,18.4,6.2,18a18.09,18.09,0,0,1,1.14-2.75l.19-.37L5.15,10.8l5.66-5.65.76.46L14.9,7.52l.37-.18A17.83,17.83,0,0,1,18,6.2l.4-.13L19.61,1.5h8l1.23,4.57.38.13A18.64,18.64,0,0,1,32,7.34l.35.18,4.11-2.37.62.64,5,5-2.38,4.1.19.37A17.38,17.38,0,0,1,41,18l.13.39,4.56,1.21v8l-4.56,1.21-.13.4A17.42,17.42,0,0,1,39.86,32l-.18.36,2.38,4.09-5.65,5.66-4.1-2.38-.36.19A19.68,19.68,0,0,1,29.2,41l-.38.12L27.6,45.71h-8L18.4,41.15,18,41a18.19,18.19,0,0,1-2.73-1.15l-.37-.19-4.09,2.38L5.15,36.4l2.38-4.09-.19-.37A17.36,17.36,0,0,1,6.2,29.2l-.13-.39L1.51,27.6Z"/><path class="cls-2" d="M23.61,35.78a12.06,12.06,0,0,0,6.47-1.86l-.92-1.2a10.57,10.57,0,0,1-5.55,1.56A10.68,10.68,0,1,1,32.81,29l1.22.9a12.18,12.18,0,1,0-10.42,5.87Z"/><path class="cls-2" d="M108.54,17.89V27.5l-3.61-3.61L103.87,25l5.43,5.43L114.73,25l-1.07-1.06-3.61,3.61V17.89A17.92,17.92,0,0,0,92.16,0H81.88V1.51H92.16A16.4,16.4,0,0,1,108.54,17.89Z"/><path class="cls-2" d="M7.22,97.87V88.26l3.61,3.62,1.06-1.07L6.47,85.38,1,90.81,2.1,91.88l3.61-3.62v9.61a17.84,17.84,0,0,0,16.74,17.86v-1.51A16.35,16.35,0,0,1,7.22,97.87Z"/><rect class="cls-2" y="57.13" width="47.21" height="1.5"/><rect class="cls-2" y="72.37" width="47.21" height="1.5"/><rect class="cls-2" y="64.75" width="20.55" height="1.5"/><rect class="cls-2" x="26.66" y="64.75" width="20.55" height="1.5"/><rect class="cls-2" x="74.27" width="1.5" height="1.5"/><rect class="cls-2" x="66.65" width="1.5" height="1.5"/><rect class="cls-2" x="28.56" y="114.26" width="1.5" height="1.5"/><rect class="cls-2" x="36.18" y="114.26" width="1.5" height="1.5"/></svg>