<svg id="Layer_1" data-name="Layer 1" xmlns="http://www.w3.org/2000/svg" viewBox="0 0 125.1 125.1"><defs><style>.cls-1{fill:none;}.cls-2{fill:#010101;}</style></defs><path class="cls-1" d="M51.52,55.15H49.63v3.77h1.89a1.89,1.89,0,0,0,0-3.77Z"/><path class="cls-1" d="M62.55,5.51a57,57,0,1,0,57,57A57.11,57.11,0,0,0,62.55,5.51ZM25.3,32.7a47.68,47.68,0,0,1,74.49,0,3.63,3.63,0,0,1-.56,5.11,3.63,3.63,0,0,1-5.11-.56,40.42,40.42,0,0,0-63.16,0,3.61,3.61,0,0,1-2.43,1.34l-.4,0A3.63,3.63,0,0,1,25.3,32.7ZM73.58,58.92a3.63,3.63,0,0,1,0,7.26H71.7V70h7.39a3.63,3.63,0,1,1,0,7.26h-11a3.64,3.64,0,0,1-3.63-3.63V51.52a3.64,3.64,0,0,1,3.63-3.64h11a3.64,3.64,0,1,1,0,7.27H71.7v3.77ZM59.6,71a3.64,3.64,0,0,1-5.14,5.15l-4.83-4.84v2.26a3.63,3.63,0,1,1-7.26,0V51.52A3.64,3.64,0,0,1,46,47.88h5.52a9.15,9.15,0,0,1,2.81,17.86Zm-35.66,6.2a3.64,3.64,0,0,1-3.64-3.63V51.52a3.64,3.64,0,0,1,3.64-3.64H35a3.64,3.64,0,0,1,0,7.27h-7.4v3.77h1.88a3.63,3.63,0,1,1,0,7.26H27.57v7.4A3.64,3.64,0,0,1,23.94,77.21ZM97.17,95.38a47.6,47.6,0,0,1-69.24,0,3.63,3.63,0,1,1,5.27-5,40.36,40.36,0,0,0,58.7,0,3.67,3.67,0,0,1,2.55-1.13,3.64,3.64,0,0,1,3.72,3.54A3.57,3.57,0,0,1,97.17,95.38Zm4-18.17h-11a3.64,3.64,0,0,1-3.63-3.63V51.52a3.64,3.64,0,0,1,3.63-3.64h11a3.64,3.64,0,1,1,0,7.27H93.76v3.77h1.88a3.63,3.63,0,1,1,0,7.26H93.76V70h7.39a3.63,3.63,0,1,1,0,7.26Z"/><path class="cls-2" d="M25.82,73.58V64.43h3.63a1.88,1.88,0,1,0,0-3.76H25.82V53.4H35a1.88,1.88,0,0,0,0-3.76h-11a1.88,1.88,0,0,0-1.88,1.88V73.58a1.88,1.88,0,1,0,3.76,0Z"/><path class="cls-2" d="M62.55,0A62.55,62.55,0,1,0,125.1,62.55,62.62,62.62,0,0,0,62.55,0Zm0,121.34a58.79,58.79,0,1,1,58.78-58.79A58.86,58.86,0,0,1,62.55,121.34Z"/><path class="cls-2" d="M27,36.44h0a1.81,1.81,0,0,0,1.38.4,1.86,1.86,0,0,0,1.26-.69,42.18,42.18,0,0,1,65.89,0,1.91,1.91,0,0,0,2.64.29,1.87,1.87,0,0,0,.7-1.26,1.94,1.94,0,0,0-.4-1.39,45.94,45.94,0,0,0-71.76,0,1.9,1.9,0,0,0-.41,1.39A1.87,1.87,0,0,0,27,36.44Z"/><path class="cls-2" d="M94.5,91a1.9,1.9,0,0,0-1.33.58,42.13,42.13,0,0,1-61.25,0,1.84,1.84,0,0,0-1.3-.59h-.06a1.84,1.84,0,0,0-1.29.52,1.82,1.82,0,0,0-.59,1.31,1.85,1.85,0,0,0,.52,1.35,45.88,45.88,0,0,0,66.7,0,1.88,1.88,0,0,0,.52-1.35,1.82,1.82,0,0,0-.59-1.31A1.78,1.78,0,0,0,94.5,91Z"/><path class="cls-2" d="M50.71,64.59l1.76-.22a7.4,7.4,0,0,0-.95-14.73H46a1.88,1.88,0,0,0-1.88,1.88V73.58a1.88,1.88,0,1,0,3.76,0V67.09l7.82,7.82a1.93,1.93,0,0,0,2.66,0,1.89,1.89,0,0,0,0-2.66ZM47.88,53.4h3.64a3.64,3.64,0,0,1,0,7.27H47.88Z"/><path class="cls-2" d="M79.09,53.4a1.88,1.88,0,0,0,0-3.76h-11a1.88,1.88,0,0,0-1.88,1.88V73.58a1.88,1.88,0,0,0,1.88,1.88h11a1.88,1.88,0,0,0,0-3.76H69.94V64.43h3.64a1.88,1.88,0,0,0,0-3.76H69.94V53.4Z"/><path class="cls-2" d="M88.24,51.52V73.58a1.88,1.88,0,0,0,1.88,1.88h11a1.88,1.88,0,1,0,0-3.76H92V64.43h3.63a1.88,1.88,0,0,0,0-3.76H92V53.4h9.14a1.88,1.88,0,1,0,0-3.76h-11A1.88,1.88,0,0,0,88.24,51.52Z"/></svg>