<svg id="Layer_1" data-name="Layer 1" xmlns="http://www.w3.org/2000/svg" viewBox="0 0 117.15 117.14"><defs><style>.cls-1{fill:none;}</style></defs><path class="cls-1" d="M58.58,4.51C53,9.43,36.12,25.93,36.12,45.26c0,17.26,13.66,32.42,20.2,38.67V63.42L45.73,54.61a2.26,2.26,0,0,1-.81-1.53,2.31,2.31,0,0,1,.51-1.66,2.28,2.28,0,0,1,1.53-.8,2.24,2.24,0,0,1,1.65.51l7.71,6.42V52L45.73,43.2a2.26,2.26,0,0,1-.3-3.18A2.3,2.3,0,0,1,47,39.21a2.25,2.25,0,0,1,1.65.52l7.71,6.41V38.71L45.73,29.89a2.26,2.26,0,0,1-.81-1.53,2.28,2.28,0,0,1,.51-1.65,2.24,2.24,0,0,1,1.53-.8,2.2,2.2,0,0,1,1.65.51l7.71,6.41V18.65a2.26,2.26,0,1,1,4.51,0V32.83l7.71-6.41a2.19,2.19,0,0,1,1.64-.52,2.26,2.26,0,0,1,1.54.81,2.28,2.28,0,0,1,.51,1.65,2.26,2.26,0,0,1-.81,1.53L60.83,38.7v7.44l7.71-6.42a2.27,2.27,0,0,1,1.64-.51,2.24,2.24,0,0,1,1.54.8,2.3,2.3,0,0,1,.51,1.65,2.23,2.23,0,0,1-.81,1.53L60.83,52v5.53l7.71-6.41a2.27,2.27,0,0,1,3.18.29,2.28,2.28,0,0,1,.51,1.65,2.23,2.23,0,0,1-.81,1.53L60.83,63.42V83.93C67.37,77.68,81,62.52,81,45.26,81,25.93,64.15,9.43,58.58,4.51ZM75.7,51.32h0a2.28,2.28,0,0,1-1.6-.65,2.31,2.31,0,0,1-.65-1.6,2.15,2.15,0,0,1,0-.45,1.63,1.63,0,0,1,.15-.44,1.49,1.49,0,0,1,.19-.38,2.78,2.78,0,0,1,.26-.32,2.36,2.36,0,0,1,3.2,0l.27.33a1.86,1.86,0,0,1,.23.44,1.35,1.35,0,0,1,.12.4,2.1,2.1,0,0,1,0,.43,2.27,2.27,0,0,1-.65,1.62A2.3,2.3,0,0,1,75.7,51.32Z"/><rect class="cls-1" x="74.14" y="104.55" width="24" height="8.79"/><path class="cls-1" d="M110.13,41.82a3.48,3.48,0,0,0-3.68,3.44V68.4a6,6,0,0,1-1.77,4.28L94.39,83a2.26,2.26,0,0,1-3.8-1,2.27,2.27,0,0,1,.61-2.2l8.73-8.72a1.54,1.54,0,0,0,0-2.16l-2.25-2.24a1.55,1.55,0,0,0-2.17,0l-16,16a5.31,5.31,0,0,0-1.57,3.78V100h16.4V95.71l.09-.1L112,76.33a5.34,5.34,0,0,0,1.39-3.59V45.58A3.7,3.7,0,0,0,110.13,41.82Z"/><path class="cls-1" d="M19,104.55v8.79H43v-8.79Zm11,5.7h-7.6a2.26,2.26,0,0,1,0-4.52h7.6a2.26,2.26,0,1,1,0,4.52Zm7.8-1.39a2.26,2.26,0,0,1-2.09,1.39h0a2.44,2.44,0,0,1-.85-.18,2.19,2.19,0,0,1-1.4-2.09,2.29,2.29,0,0,1,.65-1.58,2.37,2.37,0,0,1,.75-.49,2.26,2.26,0,0,1,3,3Z"/><path class="cls-1" d="M22.82,100H39.21V86.43a5.31,5.31,0,0,0-1.57-3.78l-16-16a1.55,1.55,0,0,0-2.17,0l-2.24,2.24A1.51,1.51,0,0,0,16.78,70a1.58,1.58,0,0,0,.45,1.09L26,79.78A2.26,2.26,0,0,1,22.77,83l-10.3-10.3A6,6,0,0,1,10.7,68.4V45.26A3.46,3.46,0,0,0,7,41.82a3.68,3.68,0,0,0-3.19,3.75V72.74A5.3,5.3,0,0,0,5.2,76.33h0L22.82,95.71Z"/><path d="M59.53.33a1.55,1.55,0,0,0-1.91,0c-1,.82-25.3,20.36-25.3,44.93,0,22.55,20.48,40.9,24.58,44.35l.13.1v20.18a1.55,1.55,0,1,0,3.09,0V89.71l.13-.1c4.1-3.45,24.58-21.79,24.58-44.35C84.83,20.69,60.57,1.15,59.53.33ZM60.72,85l-.6.56V63.08l10.85-9a1.55,1.55,0,0,0,.2-2.17,1.55,1.55,0,0,0-2.18-.2l-8.87,7.38V51.67l10.85-9a1.51,1.51,0,0,0,.55-1,1.55,1.55,0,0,0-.35-1.13,1.55,1.55,0,0,0-2.18-.2l-8.87,7.39V38.37l10.85-9a1.55,1.55,0,0,0-.85-2.73A1.59,1.59,0,0,0,69,27l-8.87,7.39V18.65a1.55,1.55,0,0,0-3.09,0v15.7L48.16,27a1.55,1.55,0,0,0-2.18.2,1.54,1.54,0,0,0,.2,2.17l10.85,9v9.29l-8.87-7.38a1.54,1.54,0,0,0-2.53,1.32,1.51,1.51,0,0,0,.55,1l10.85,9v7.39l-8.87-7.39a1.55,1.55,0,1,0-2,2.38l10.85,9v22.5l-.6-.56c-6.32-5.93-21-21.67-21-39.76C35.41,25.35,53,8.47,58.34,3.76l.24-.2.23.2c5.38,4.71,22.93,21.59,22.93,41.5C81.74,63.35,67,79.09,60.72,85Z"/><path d="M45.27,100.74H43V86.43A9.13,9.13,0,0,0,40.33,80l-16-16a5.35,5.35,0,0,0-7.54,0l-2.29,2.3v-21A7.27,7.27,0,0,0,6.72,38,7.5,7.5,0,0,0,0,45.58V72.74a9.15,9.15,0,0,0,2.38,6.15L19,97.18v3.56H16.76a1.55,1.55,0,0,0-1.55,1.55v13.3a1.54,1.54,0,0,0,1.55,1.55H45.27a1.54,1.54,0,0,0,1.54-1.55v-13.3A1.55,1.55,0,0,0,45.27,100.74ZM4.67,76.81a6,6,0,0,1-1.58-4.07V45.58a4.39,4.39,0,0,1,3.83-4.46,4.15,4.15,0,0,1,4.49,4.14V68.4A5.35,5.35,0,0,0,13,72.18L23.27,82.47a1.55,1.55,0,0,0,2.18-2.19l-8.72-8.72a2.25,2.25,0,0,1,0-3.18L19,66.14a2.28,2.28,0,0,1,3.18,0l16,16a6,6,0,0,1,1.77,4.28v14.31H22.1V96Zm39.05,37.24H18.3V103.83H43.72Z"/><path d="M110.42,38a7.27,7.27,0,0,0-7.77,7.23v21L100.37,64a5.37,5.37,0,0,0-7.55,0l-16,16a9.13,9.13,0,0,0-2.68,6.47v14.31H71.88a1.55,1.55,0,0,0-1.54,1.55v13.3a1.54,1.54,0,0,0,1.54,1.55h28.51a1.54,1.54,0,0,0,1.55-1.55v-13.3a1.55,1.55,0,0,0-1.55-1.55H98.14V97.18l.09-.1,16.54-18.19a9.15,9.15,0,0,0,2.38-6.15V45.58A7.5,7.5,0,0,0,110.42,38Zm-11.57,65.8v10.22H73.43V103.83Zm15.21-31.09a6,6,0,0,1-1.58,4.07L95.05,96v4.75H77.23V86.43A6.05,6.05,0,0,1,79,82.14l16-16a2.28,2.28,0,0,1,3.18,0l2.24,2.25a2.24,2.24,0,0,1,0,3.16L91.7,80.28a1.55,1.55,0,1,0,2.18,2.19l10.3-10.3a5.38,5.38,0,0,0,1.56-3.77V45.26a4.17,4.17,0,0,1,4.47-4.15,4.41,4.41,0,0,1,3.85,4.48Z"/><path d="M59.17,114.16a1.56,1.56,0,0,0-1.69.33A1.69,1.69,0,0,0,57,115.6c0,.09,0,.2,0,.31a.85.85,0,0,0,.09.24,1.54,1.54,0,0,0,.14.31l.2.25a1.58,1.58,0,0,0,2.19,0l.2-.25a1.85,1.85,0,0,0,.11-.24,1.2,1.2,0,0,0,.1-.28,2,2,0,0,0,0-.33A1.54,1.54,0,0,0,59.17,114.16Z"/><path d="M22.46,109.54h7.6a1.55,1.55,0,1,0,0-3.09h-7.6a1.55,1.55,0,0,0,0,3.09Z"/><path d="M35.17,109.41h0a1.74,1.74,0,0,0,.59.13,1.55,1.55,0,0,0,1.43-1,1.51,1.51,0,0,0-.34-1.68,1.49,1.49,0,0,0-1.08-.45,1.61,1.61,0,0,0-.6.12,1.65,1.65,0,0,0-.52.33,1.67,1.67,0,0,0-.44,1.1A1.49,1.49,0,0,0,35.17,109.41Z"/><path d="M75.69,50.61a1.69,1.69,0,0,0,1.09-.45,1.54,1.54,0,0,0,.45-1.09,1.75,1.75,0,0,0,0-.32h0a1.09,1.09,0,0,0-.07-.24,2.76,2.76,0,0,0-.15-.3l-.21-.26a1.54,1.54,0,0,0-1.06-.4,1.6,1.6,0,0,0-1.12.44,2.38,2.38,0,0,0-.18.22,1.26,1.26,0,0,0-.13.26,1.11,1.11,0,0,0-.1.29,1.76,1.76,0,0,0,0,.33,1.52,1.52,0,0,0,1.55,1.53Z"/></svg>