<svg id="Layer_1" data-name="Layer 1" xmlns="http://www.w3.org/2000/svg" viewBox="0 0 112.39 116.49"><defs><style>.cls-1{fill:none;}.cls-2{fill:#010101;}.cls-3{fill:#020202;}.cls-4{fill:#030303;}.cls-5{fill:#040404;}.cls-6{fill:#050505;}</style></defs><path class="cls-1" d="M51.66,21.26V16.48h9.08v4.88l-1.8.24V26h5.23c-.8-4.8-1.59-9.47-2.37-14.12H50.53L48.17,26h5.29V21.6l-1.26-.24Z"/><path class="cls-2" d="M87.52,90l-.59-.14.09-.6c.16-1,.3-2.06.44-3.1.32-2.31.65-4.7,1.13-7a2.62,2.62,0,0,0-.14-2.09c-.3-.37-1-.53-2.1-.53-4.64,0-9.38,0-14,0H65.63l.28-.86c2.2-6.75,1.23-11.27-3.15-14.63A11.19,11.19,0,0,0,50,60.63c-4.69,3-5.81,7.42-3.85,15.1l.21.82H40c-4.71,0-9.58,0-14.37,0h-.07a2.35,2.35,0,0,0-1.81.52,2.59,2.59,0,0,0-.22,2.1c.38,2.25.72,4.51,1.08,6.82.16,1.07.33,2.15.5,3.24l.09.58-.56.16c-5.22,1.48-7.36,3.92-7.17,8.15.19,4,2.44,5.59,9.64,6.88l.45.08.08.46.51,2.83c.37,2.06.76,4.19,1,6.31.2,1.38.69,1.83,2,1.83h0c16.52,0,33.27,0,49.79,0h0c1.34,0,1.82-.45,2-1.84.27-2.18.64-4.39,1-6.52.15-.92.31-1.85.45-2.77l.08-.52.53,0c6.23-.35,9.19-2.37,9.62-6.53S92.63,91.2,87.52,90ZM50.22,64a8.34,8.34,0,0,1,12.09.23,8.2,8.2,0,0,1,2.32,6,8.9,8.9,0,0,1-3.12,6.21l-.18.17H50.83l-.19-.18a9,9,0,0,1-3-6.43A8.29,8.29,0,0,1,50.22,64ZM26.44,102a10.71,10.71,0,0,1-1.23.08c-2.86,0-4.59-1.41-4.92-4a4.33,4.33,0,0,1,.81-3.37,5.54,5.54,0,0,1,4-1.79l.61-.06,1.44,9.09Zm54.05,11.84H31.67L26.22,79.27H86ZM92.06,97.93a4.36,4.36,0,0,1-1.55,3.13,5.4,5.4,0,0,1-3.44,1,11,11,0,0,1-1.36-.09l-.67-.09.11-.67c.42-2.6.83-5.15,1.25-7.78l.09-.59.61,0a5.69,5.69,0,0,1,4.1,1.74A4.29,4.29,0,0,1,92.06,97.93Z"/><path class="cls-2" d="M72.41,27.7c-.59-.48-1.66-.52-3.19-.14l-.68.16L68.42,27c-.3-1.71-.6-3.41-.89-5.09-.73-4.16-1.42-8.09-2-12.12-.24-1.59-.8-2.07-2.38-2-5,.1-9.47.1-13.75,0-1.7-.06-2.28.46-2.54,2.16-.63,4.15-1.34,8.18-2.09,12.46q-.4,2.31-.81,4.65l-.12.69-.68-.16a7.73,7.73,0,0,0-1.76-.24,2.35,2.35,0,0,0-1.6.48c-.64.56-.85,1.73-.64,3.56a25.51,25.51,0,0,1,0,4.28,2.31,2.31,0,0,0,.38,1.76,2.82,2.82,0,0,0,2,.53c5.41-.05,10.91,0,16.23,0H69.08c2,0,3.28,0,3.69-.34s.41-1.57.44-3.55c0-.65,0-1.4,0-2.25C73.31,29.78,73.18,28.32,72.41,27.7Zm-23-17.15h13.5l.09.55c.84,5,1.69,10.08,2.57,15.28l.15.92h-8.1V20.46l1.8-.25V17.8H53v2.37l1,.18.85.16v6.85H46.62ZM70.53,35.17H41.91v-5H70.53Z"/><path class="cls-3" d="M14.25,40.65c4.21,3.55,9.16,5.34,13.67,5V43.23C16.62,41.79,9,34.4,8.4,24.28,7.75,13.11,14.51,5.55,28,2.39V0A21.66,21.66,0,0,0,12.52,6.67,23.91,23.91,0,0,0,5.77,24.42C6,30.32,9.2,36.39,14.25,40.65Z"/><path class="cls-3" d="M102,9.18A21.7,21.7,0,0,0,84.39,0V2.44C96.66,4.44,104,12.05,104,22.87S96.67,41.25,84.43,43.3v2.5c8.85-.6,15.34-4.65,19.33-12C108.24,25.42,107.63,16.92,102,9.18Z"/><path class="cls-4" d="M93.89,11.82a13.73,13.73,0,0,0-9.47-3.9v2.4C91.48,11.77,95.61,15.89,96.08,22c.5,6.43-2.88,10.38-11.66,13.56v2.3a13.79,13.79,0,0,0,9.52-3.94,15.37,15.37,0,0,0,4.77-11.13A15.19,15.19,0,0,0,93.89,11.82Z"/><path class="cls-4" d="M16.24,22.74c.05-6.31,4.4-10.92,11.67-12.42V7.93h0a13.72,13.72,0,0,0-9.48,3.94,15.12,15.12,0,0,0-4.78,10.88,15.42,15.42,0,0,0,4.76,11.11,13.78,13.78,0,0,0,9.53,4h0v-2.4C20.54,33.88,16.19,29.17,16.24,22.74Z"/><path class="cls-2" d="M7.74,52.68c0,1.72,0,3.38,0,5s.82,1.76,1.18,1.77c2.35.08,4.74.06,7,.05h2.17V56.93H10.34V53.87c0-1.78,0-3.44,0-5.09,0-1.45-.69-1.65-1.3-1.66-2.3,0-4.64,0-6.91,0H0v2.67H7.73Z"/><path class="cls-2" d="M102.38,47.47a2,2,0,0,0-.39,1.45c0,1.68,0,3.37,0,5.12v3H94.3v2.5h4.75c1.2,0,2.38,0,3.57,0a2.11,2.11,0,0,0,1.59-.43,2,2,0,0,0,.41-1.53c0-1.64,0-3.25,0-5,0-.75,0-1.51,0-2.29v-.66h7.78V47.09h-8.77A1.72,1.72,0,0,0,102.38,47.47Z"/><path class="cls-2" d="M29.34,56.57c0,1.73,0,3.39,0,5s.76,1.78,1.14,1.79c2.36.08,4.75.06,7.06.05h2.12V60.79H32v-3c0-1.74,0-3.39,0-5,0-1.2-.43-1.69-1.51-1.7-2.24,0-4.47,0-6.71,0H21.59v2.66h7.74Z"/><path class="cls-2" d="M72.59,63.45H77.4c1.19,0,2.36,0,3.55,0A2.21,2.21,0,0,0,82.6,63a2.28,2.28,0,0,0,.42-1.7c0-1.62,0-3.23,0-4.93,0-.74,0-1.5,0-2.27v-.66h7.77V51H88.69c-2.18,0-4.25,0-6.36,0a2,2,0,0,0-1.54.42A2.13,2.13,0,0,0,80.38,53c0,1.63,0,3.24,0,5,0,.75,0,1.51,0,2.28v.66h-7.8Z"/><path class="cls-5" d="M24.13,22.7c.08-2.94,2.47-4,3.75-4.41V15.8c-4.13.66-6.68,3.66-6.4,7.66A6.77,6.77,0,0,0,28,29.83V27.49C25.35,26.68,24.06,25.07,24.13,22.7Z"/><path class="cls-6" d="M90.87,22.86a7,7,0,0,0-6.47-7v2.46c2.39.7,3.67,2.15,3.82,4.31.2,3.15-2.27,4.33-3.82,4.91v2.42A7,7,0,0,0,90.87,22.86Z"/></svg>