<svg id="Layer_1" data-name="Layer 1" xmlns="http://www.w3.org/2000/svg" viewBox="0 0 112.31 112.31"><defs><style>.cls-1{fill:none;}</style></defs><path class="cls-1" d="M70.84,104.48a2.15,2.15,0,1,1,0-4.29h2.4v-5.3H68.18a2.15,2.15,0,1,1,0-4.3h36.74a3.49,3.49,0,0,0,3.49-3.49V85.59H3.9V87.1a3.5,3.5,0,0,0,3.49,3.49H61.16a2.15,2.15,0,1,1,0,4.3H38.85v5.3h2.62a2.15,2.15,0,1,1,0,4.29H37.8l-2.89,4H77.18l-2.89-4Z"/><polygon class="cls-1" points="81.05 17.35 56.05 3.93 31.04 17.35 56.05 30.76 81.05 17.35"/><path class="cls-1" d="M104.92,94.89H77.54v6.5a2.19,2.19,0,0,1,.17.49l4.21,5.87a3.22,3.22,0,0,1,.25,3.33A3.27,3.27,0,0,1,81,112.31h31.27V89.54A7.81,7.81,0,0,1,104.92,94.89Z"/><path class="cls-1" d="M29.93,111.08a3.2,3.2,0,0,1,.24-3.33l4.38-6.11V94.89H7.39A7.81,7.81,0,0,1,0,89.54v22.77H31.05A3.16,3.16,0,0,1,29.93,111.08Z"/><path class="cls-1" d="M7.39,15.84h13.8a2.15,2.15,0,0,1,0,4.29H7.39A3.5,3.5,0,0,0,3.9,23.62V81.29H108.41V23.62a3.49,3.49,0,0,0-3.49-3.49h-14a2.15,2.15,0,1,1,0-4.29h14a7.79,7.79,0,0,1,7.39,5.35V0H57.8l27,14.47a3.27,3.27,0,0,1,0,5.76L57.59,34.81a3.32,3.32,0,0,1-1.54.39,3.36,3.36,0,0,1-1.55-.39L27.32,20.23a3.27,3.27,0,0,1,0-5.76L54.29,0H0V21.19A7.81,7.81,0,0,1,7.39,15.84ZM84.77,60,74.42,65.56a2.17,2.17,0,0,1-1,.25,2.15,2.15,0,0,1-1-4l8.66-4.65-8-4.31A2.15,2.15,0,0,1,75,49l9.73,5.21a3.27,3.27,0,0,1,0,5.76ZM46.9,48.18a2.16,2.16,0,0,1,2.91-.88l6.24,3.35,25-13.41-8-4.32a2.15,2.15,0,1,1,2-3.78l9.73,5.22a3.27,3.27,0,0,1,0,5.76L57.59,54.69a3.26,3.26,0,0,1-3.09,0l-6.72-3.6A2.15,2.15,0,0,1,46.9,48.18ZM27.32,34.36l9.73-5.22A2.15,2.15,0,0,1,40,30h0a2.15,2.15,0,0,1-.88,2.9l-8,4.32,12.39,6.64a2.15,2.15,0,0,1-1,4,2.22,2.22,0,0,1-1-.25L27.32,40.12a3.29,3.29,0,0,1-1.72-2.89A3.25,3.25,0,0,1,27.32,34.36Zm0,19.88L37.05,49a2.1,2.1,0,0,1,1.63-.17,2.21,2.21,0,0,1,1.28,1,2.16,2.16,0,0,1-.88,2.91l-8,4.31,25,13.42,10.08-5.41A2.18,2.18,0,0,1,67.77,65,2.16,2.16,0,0,1,69,66a2.13,2.13,0,0,1,.16,1.64,2.09,2.09,0,0,1-1,1.27L57.59,74.58a3.26,3.26,0,0,1-3.09,0L27.32,60a3.27,3.27,0,0,1,0-5.76Z"/><path d="M81.28,110.62a2.22,2.22,0,0,0-.17-2.29l-4.35-6.06,0-.12a1.14,1.14,0,0,0-.14-.39l-.06-.11V93.89h28.38a6.8,6.8,0,0,0,6.79-6.79V23.62a6.79,6.79,0,0,0-6.79-6.78h-14a1.15,1.15,0,1,0,0,2.29h14a4.5,4.5,0,0,1,4.49,4.49V82.29H2.9V23.62a4.5,4.5,0,0,1,4.49-4.49h13.8a1.15,1.15,0,0,0,0-2.29H7.39A6.79,6.79,0,0,0,.6,23.62V87.1a6.8,6.8,0,0,0,6.79,6.79H35.55V102L31,108.33a2.2,2.2,0,0,0,1.79,3.48H79.32A2.2,2.2,0,0,0,81.28,110.62ZM33,109.52l4.33-6h4.18a1.15,1.15,0,1,0,0-2.29H37.85v-7.3H61.16a1.15,1.15,0,1,0,0-2.3H7.39A4.49,4.49,0,0,1,2.9,87.1V84.59H109.41V87.1a4.49,4.49,0,0,1-4.49,4.49H68.18a1.15,1.15,0,1,0,0,2.3h6.06v7.3h-3.4a1.15,1.15,0,1,0,0,2.29h4l4.33,6Z"/><path d="M27.79,19.35,55,33.93a2.33,2.33,0,0,0,2.15,0L84.3,19.35a2.28,2.28,0,0,0,0-4L57.12.77A2.28,2.28,0,0,0,55,.77L27.8,15.35a2.27,2.27,0,0,0,0,4ZM56.05,2.8,83.17,17.35,56.05,31.9,28.92,17.35Z"/><path d="M48.25,50.21,55,53.81a2.33,2.33,0,0,0,2.15,0L84.3,39.24a2.29,2.29,0,0,0,1.19-2,2.27,2.27,0,0,0-1.19-2L74.57,30a1.1,1.1,0,0,0-.87-.09,1.12,1.12,0,0,0-.68.56A1.14,1.14,0,0,0,73.49,32l9.68,5.2L56.05,51.79l-6.72-3.61a1.13,1.13,0,0,0-.54-.13,1.15,1.15,0,0,0-.54,2.16Z"/><path d="M27.8,39.24l14.07,7.55a1.18,1.18,0,0,0,1.55-.47A1.15,1.15,0,0,0,43,44.76l-14-7.52L38.6,32a1.15,1.15,0,0,0-.54-2.16,1.17,1.17,0,0,0-.54.14L27.8,35.24a2.26,2.26,0,0,0-1.2,2A2.28,2.28,0,0,0,27.8,39.24Z"/><path d="M84.3,55.12l-9.73-5.21a1.17,1.17,0,0,0-.54-.14,1.13,1.13,0,0,0-1,.61,1.14,1.14,0,0,0,.47,1.55l9.68,5.19L72.86,62.65a1.18,1.18,0,0,0-.56.68,1.12,1.12,0,0,0,.09.88,1.17,1.17,0,0,0,1.55.47L84.3,59.12a2.27,2.27,0,0,0,1.19-2A2.29,2.29,0,0,0,84.3,55.12Z"/><path d="M27.8,59.12,55,73.7a2.33,2.33,0,0,0,2.15,0L67.69,68a1.14,1.14,0,0,0,.47-1.55,1.18,1.18,0,0,0-.68-.56,1.1,1.1,0,0,0-.87.09h0L56.05,71.67,28.92,57.12l9.68-5.19a1.14,1.14,0,0,0,.47-1.55,1.12,1.12,0,0,0-.68-.56,1.26,1.26,0,0,0-.33,0,1.14,1.14,0,0,0-.54.14l-9.73,5.21a2.29,2.29,0,0,0-1.19,2A2.26,2.26,0,0,0,27.8,59.12Z"/></svg>